<svg xmlns="http://www.w3.org/2000/svg" width="610" height="270" fill="none" viewBox="0 0 610 270"><rect width="610" height="270" fill="#e4ef4e" rx="46"/><path fill="#23607d" d="m30.898 173.612.319-3.101 12.212-.829-.319 3.1zm29.442 4.375c-4.67.317-8.329-2.562-8.644-7.207-.34-5.004 3.169-10.006 8.724-10.383 2.586-.176 5.236.583 7.28 3.403l-3.661 2.774c-.883-1.311-1.86-1.87-3.272-1.774-2.802.19-4.13 2.95-3.964 5.393.144 2.107 1.563 3.526 3.694 3.381 1.245-.084 2.38-.739 3.333-1.934l3.127 2.843c-1.684 2.111-3.983 3.325-6.617 3.504m19.897-1.52c-1.532.104-2.497-.287-2.988-1.144-.925.905-2.157 1.542-3.737 1.649-3.209.218-5.469-1.89-5.695-5.218-.265-3.903 2.026-7.715 5.834-7.974 1.771-.12 3.179.41 4.158 1.378.11-.513.267-1.029.438-1.353l3.711-.252-.781 7.27c-.145 1.405.005 1.851.987 1.785.288-.02.525-.06.762-.124l-.363 3.513c-.61.233-1.488.413-2.326.47m-5.16-9.392c-1.892.129-2.457 2.789-2.362 4.178.105 1.556.87 2.539 2.02 2.461 1.795-.122 2.33-2.877 2.24-4.194-.104-1.532-.868-2.515-1.898-2.445m9.478 8.81 1.333-12.599 3.927-.267c.06.526.076 1.126.07 1.728 1.458-1.543 3.141-2.258 4.578-2.356 2.898-.197 4.664 1.728 4.309 4.999l-.808 7.585-4.79.325.733-6.93c.114-1.162-.106-2.278-1.71-2.169-1.054.072-1.856 1.016-2.109 2.26l-.744 7.099zm27.52-1.58c-3.281.223-5.259-1.279-4.89-4.695l.453-4.313-1.604.109.317-3.125c.399-.147 1.058-.36 1.651-.473l.307-2.931 4.751-.876-.366 3.465 3.472-.236-.363 3.512-3.472.236-.413 3.829c-.158 1.574.741 1.706 1.842 1.631a13 13 0 0 0 1.455-.195l-.365 3.489c-.796.318-1.866.511-2.775.573m4.352-.584 1.846-17.445 4.789-.326-.627 6.009c1.295-1.123 2.703-1.651 3.924-1.734 2.897-.197 4.664 1.728 4.309 4.999l-.808 7.584-4.789.326.732-6.93c.113-1.162-.107-2.278-1.711-2.169-1.149.078-2.01 1.219-2.157 2.6l-.719 6.761zm15.668-1.064 1.309-12.598 4.765-.324-1.309 12.598zm4.245-14c-1.628.11-2.713-.634-2.796-1.855-.099-1.461.98-2.568 2.489-2.671 1.7-.115 2.767.726 2.85 1.948.101 1.484-1.011 2.474-2.543 2.578m9.281 13.49c-1.82.124-4.702-.162-6.745-1.563l2.052-3.434c.802.835 2.945 1.58 4.382 1.482.551-.037.871-.276.841-.731-.052-.766-1.302-.392-4.3-1.68-1.066-.457-1.913-1.241-2.022-2.846-.166-2.442 1.925-4.244 4.894-4.446 1.964-.133 4.353.33 5.749 1.414l-2.255 3.28c-.673-.7-2.078-1.205-3.307-1.242-.746.002-1.043.239-1.013.67.037.551 1.228.734 2.651 1.143 1.765.481 3.789 1.234 3.95 3.605.157 2.322-2.028 4.154-4.877 4.348m19.021-1.364c-3.927.267-6.615-1.764-6.856-5.308-.263-3.879 2.21-7.487 6.281-7.763 2.274-.155 4.703.546 6.063 2.499l-3.155 2.427c-.528-1.046-1.183-1.483-2.213-1.413-1.484.101-2.276 1.91-2.149 3.778.108 1.581.967 2.196 1.949 2.129.886-.06 1.811-.604 2.428-1.44l2.713 2.751c-1.324 1.413-2.954 2.197-5.061 2.34m6.292-.764 1.846-17.445 4.789-.326-.626 6.009c1.295-1.123 2.702-1.651 3.923-1.734 2.898-.197 4.664 1.728 4.309 4.999l-.808 7.585-4.789.325.732-6.93c.114-1.162-.106-2.278-1.711-2.169-1.149.078-2.01 1.219-2.157 2.6l-.719 6.761zm15.668-1.064 1.309-12.598 4.766-.323-1.31 12.597zm4.245-14c-1.628.111-2.713-.634-2.796-1.855-.099-1.46.98-2.568 2.489-2.671 1.7-.115 2.767.727 2.85 1.948.101 1.484-1.01 2.474-2.543 2.578m7.118 13.517c-3.041.206-4.277-1.346-3.89-4.86l1.335-12.575 4.789-.325-1.294 12.115c-.145 1.405.029 1.85 1.011 1.784.263-.018.501-.058.737-.123l-.362 3.513c-.61.234-1.488.414-2.326.471m14.126-1.248c-.066-.26-.1-.763-.132-1.242-.97.956-2.27 1.645-4.018 1.764-3.257.221-5.588-1.882-5.815-5.21-.265-3.903 2.098-7.72 5.977-7.983 1.748-.119 3.174.337 4.172 1.208l.656-5.914 4.789-.325-1.846 17.445zm-2.561-9.376c-1.988.135-2.601 2.798-2.506 4.187.105 1.557.918 2.536 2.139 2.453 2.011-.137 2.618-2.896 2.528-4.213-.104-1.533-.964-2.509-2.161-2.427m15.467 13.166c-1.125.076-2.173-.117-3.208-.48l.412-3.853c.449.235.77.357 1.249.325.671-.046.932-.449 1.036-1.394l1.266-11.825 4.765-.323-1.344 12.792c-.311 2.86-1.757 4.594-4.176 4.758m3.715-18.631c-1.629.111-2.714-.633-2.797-1.854-.099-1.461.981-2.569 2.489-2.671 1.7-.116 2.768.726 2.851 1.947.1 1.485-1.011 2.474-2.543 2.578m10.374 13.368c-3.808.259-7.119-1.753-7.376-5.537-.262-3.855 2.604-7.345 7.129-7.652 3.688-.251 7.089 1.659 7.351 5.514.263 3.879-2.555 7.366-7.104 7.675m-.32-3.298c1.987-.135 2.601-2.774 2.506-4.187-.105-1.533-.917-2.512-2.138-2.429-1.987.135-2.599 2.823-2.506 4.188.104 1.532.94 2.51 2.138 2.428m8.657 2.371 1.309-12.598 4.765-.323-1.309 12.598zm4.245-14c-1.628.111-2.713-.633-2.796-1.854-.099-1.461.98-2.569 2.489-2.671 1.7-.116 2.767.726 2.85 1.947.101 1.485-1.01 2.474-2.543 2.578m2.956 13.511 1.333-12.599 3.927-.267c.06.525.077 1.125.069 1.727 1.459-1.542 3.143-2.258 4.579-2.355 2.898-.197 4.664 1.728 4.309 4.999l-.808 7.584-4.789.326.732-6.93c.114-1.162-.106-2.278-1.711-2.169-1.053.072-1.855 1.016-2.107 2.26l-.745 7.099zm18.594-7.565c-.014-.553-.009-.842.038-1.206.195-1.384 1.214-2.319 2.15-3.056.845-.659 1.606-1.144 1.666-1.677.04-.484-.467-.858-1.262-.877-1.084-.022-1.977.64-1.984 1.603l-3.941-.647c.26-3.265 3.095-5.43 6.83-5.347 3.443.055 5.622 2.024 5.342 4.641-.127 1.307-.8 2.387-2.658 3.716-.895.638-2.149 1.301-2.317 2.371l-.033.219zm1.771 6.591c-1.533.104-2.658-.878-2.752-2.267-.108-1.58 1.221-2.921 2.801-3.029 1.485-.1 2.683.901 2.774 2.242.103 1.508-1.123 2.938-2.823 3.054m67.823-127.186 1.7-2.613 11.242 4.842-1.7 2.612zm16.237 13.421 9.335-14.271 4.562 1.965-9.334 14.271zm12.647 5.892c-1.675-.722-4.108-2.292-5.286-4.472l3.395-2.118c.332 1.11 1.898 2.751 3.221 3.32.507.22.901.154 1.081-.265.304-.705-.978-.944-3.057-3.46-.739-.893-1.134-1.977-.498-3.454.969-2.248 3.652-2.896 6.385-1.719 1.807.779 3.721 2.282 4.468 3.884l-3.505 1.888c-.279-.93-1.298-2.022-2.374-2.617-.665-.338-1.037-.263-1.208.134-.218.507.758 1.214 1.837 2.228 1.349 1.234 2.806 2.828 1.866 5.01-.921 2.139-3.702 2.77-6.325 1.64m16.746 7.081c-3.02-1.3-4.094-3.54-2.204-6.41l2.373-3.63-1.476-.636 1.709-2.634c.422.051 1.106.163 1.686.334l1.611-2.468 4.627 1.392-1.909 2.915 3.196 1.376-1.927 2.959-3.196-1.377-2.118 3.217c-.859 1.329-.119 1.856.894 2.293.463.2 1.033.392 1.383.49l-1.918 2.938c-.854-.08-1.893-.398-2.731-.759m4.138 1.47 9.613-14.675 4.409 1.899-3.303 5.058c1.665-.407 3.158-.234 4.283.25 2.667 1.15 3.359 3.668 1.548 6.416l-4.184 6.377-4.409-1.898 3.818-5.83c.632-.982.946-2.075-.531-2.711-1.058-.456-2.345.166-3.106 1.327l-3.729 5.685zm21.029 9.5c-3.615-1.556-5.497-4.77-4.006-8.231 1.566-3.637 5.833-5.354 9.669-3.702 2.997 1.292 5.126 3.75 3.987 6.395-.949 2.205-3.329 2.512-7.054.908a43 43 0 0 1-2.598-1.25c-.226 1.314.645 2.264 1.946 2.824 1.168.504 2.387.585 3.468.501l.413 3.47c-1.317.27-3.665.016-5.825-.914m1.054-7.907c.466.253.964.493 1.449.702 1.344.58 2.629.871 2.99.034.371-.86-.211-1.45-1.049-1.81-1.19-.514-2.483 0-3.39 1.074m5.836 10.431 6.964-10.589 3.615 1.557-.547 1.332c1.444-.501 2.972-.287 4.537.387l.529.228-2.433 3.708c-.208-.247-.582-.59-.947-.774-1.653-.895-2.93-.661-3.483.198l-3.849 5.842zm16.315 7.471c-3.615-1.557-5.497-4.771-4.006-8.232 1.566-3.637 5.833-5.353 9.668-3.701 2.998 1.291 5.127 3.75 3.988 6.395-.95 2.204-3.329 2.512-7.054.907a43 43 0 0 1-2.598-1.25c-.226 1.315.645 2.265 1.945 2.825 1.169.503 2.388.584 3.469.5l.413 3.471c-1.318.269-3.665.016-5.825-.915m1.054-7.908c.466.253.964.494 1.448.703 1.345.579 2.63.871 2.991.033.37-.86-.212-1.45-1.049-1.81-1.191-.513-2.484.001-3.39 1.074m22.653 17.988c-1.411-.607-2.09-1.396-2.136-2.383-1.236.383-2.623.386-4.077-.24-2.954-1.272-4.001-4.18-2.682-7.244 1.548-3.593 5.327-5.937 8.832-4.427 1.631.702 2.641 1.817 3.07 3.125.332-.406.708-.793 1.007-1.003l3.417 1.471-4.017 6.11c-.771 1.183-.841 1.65.063 2.039.264.114.494.187.734.237l-1.928 2.96c-.649-.071-1.512-.312-2.283-.645m-.299-10.712c-1.742-.75-3.46 1.359-4.011 2.637-.617 1.433-.386 2.656.672 3.112 1.654.712 3.388-1.494 3.91-2.706.607-1.411.376-2.634-.571-3.043m12.211 15.53 6.072-15.677 4.519 1.946-4.522 10.073.221.095 8.511-8.355 3.571 1.538-3.772 10.396.22.095 7.718-8.696 4.673 2.013-12.575 12.875-5.599-2.411 3.081-8.002-.177-.076-6.475 6.54zm30.127 13.289c-1.41-.607-2.09-1.396-2.135-2.383-1.236.382-2.623.386-4.077-.24-2.954-1.273-4.001-4.18-2.682-7.244 1.548-3.593 5.327-5.937 8.832-4.427 1.631.702 2.641 1.816 3.07 3.125.332-.406.707-.793 1.007-1.003l3.417 1.471-4.017 6.11c-.771 1.183-.841 1.649.063 2.039.264.114.494.187.734.237l-1.928 2.959c-.649-.07-1.512-.311-2.284-.644m-.299-10.712c-1.741-.75-3.459 1.359-4.01 2.637-.617 1.433-.386 2.656.672 3.112 1.653.712 3.387-1.494 3.91-2.707.607-1.41.376-2.633-.572-3.042m4.45 12.186 6.92-10.607 4.387 1.889-6.921 10.608zm10.172-10.513c-1.498-.646-2.123-1.803-1.639-2.928.579-1.344 2.045-1.836 3.434-1.238 1.565.674 2.13 1.91 1.646 3.034-.589 1.367-2.03 1.74-3.441 1.132m1.897 16.025c-3.019-1.3-4.093-3.54-2.203-6.41l2.373-3.629-1.477-.637 1.71-2.634a11 11 0 0 1 1.685.334l1.612-2.468 4.627 1.392-1.909 2.915 3.196 1.376-1.928 2.959-3.196-1.377-2.117 3.217c-.86 1.329-.12 1.856.894 2.293a13 13 0 0 0 1.383.491l-1.919 2.937c-.854-.081-1.893-.398-2.731-.759m8.032 3.46c-2.8-1.206-3.19-3.151-1.24-6.1l6.933-10.577 4.408 1.899-6.686 10.186c-.771 1.184-.819 1.659.084 2.049.243.104.473.177.712.228l-1.928 2.959c-.649-.071-1.512-.312-2.283-.644m4.137 1.468 6.92-10.608 4.387 1.89-6.921 10.607zm10.173-10.514c-1.499-.645-2.124-1.803-1.64-2.927.579-1.345 2.045-1.837 3.434-1.239 1.565.674 2.13 1.911 1.646 3.035-.589 1.367-2.03 1.739-3.44 1.131m2.092 16.241c-1.676-.722-4.109-2.292-5.287-4.472l3.395-2.118c.332 1.11 1.898 2.751 3.221 3.321.507.218.901.153 1.081-.266.304-.705-.978-.944-3.057-3.459-.738-.894-1.134-1.978-.497-3.455.968-2.248 3.651-2.896 6.384-1.719 1.808.779 3.721 2.282 4.468 3.884l-3.505 1.888c-.278-.93-1.297-2.022-2.374-2.617-.664-.338-1.036-.263-1.207.134-.219.507.757 1.214 1.836 2.228 1.35 1.234 2.806 2.829 1.866 5.011-.921 2.138-3.701 2.769-6.324 1.64m11.149 4.671c-3.02-1.301-4.094-3.54-2.204-6.411l2.373-3.629-1.477-.636 1.71-2.635c.422.052 1.106.163 1.685.334l1.612-2.467 4.627 1.391-1.909 2.915 3.196 1.377-1.928 2.958-3.196-1.376-2.117 3.217c-.86 1.328-.12 1.856.894 2.292.463.2 1.033.393 1.383.491l-1.919 2.937c-.853-.08-1.893-.397-2.73-.758m10.659-2.569c.24-.497.376-.752.585-1.055.806-1.142 2.139-1.508 3.309-1.736 1.053-.2 1.951-.284 2.248-.731.256-.412-.023-.976-.722-1.356-.954-.515-2.051-.335-2.497.519l-3.21-2.376c1.722-2.786 5.234-3.416 8.518-1.636 3.038 1.622 4.076 4.369 2.632 6.569-.711 1.105-1.803 1.759-4.063 2.092-1.087.158-2.506.175-3.144 1.05l-.129.179zm-1.437 6.672c-1.41-.608-1.962-1.995-1.412-3.274.627-1.454 2.421-2.04 3.876-1.414 1.366.589 1.975 2.027 1.444 3.261-.599 1.389-2.342 2.101-3.908 1.427M39.538 61.106l1.016-2.947 12.08 1.97-1.016 2.948zm21.328 9.461 2.09-16.68 4.855.791-1.944 10.87.237.038 6.231-10.17 3.837.627-1.138 11 .237.038 5.378-10.308 5.022.82-9.077 15.54-6.017-.981 1.048-8.51-.19-.031-4.695 7.915zm20.596 3.36 5.767-16.567 4.737.773-1.977 5.708c1.517-.798 3.007-.993 4.215-.796 2.867.468 4.149 2.744 3.059 5.85l-2.513 7.2-4.737-.772 2.29-6.581c.374-1.107.414-2.243-1.173-2.502-1.137-.185-2.235.73-2.692 2.041l-2.239 6.42zm16.5 7.775c-.9-.147-2.014-.475-2.694-.926l1.293-3.753c.416.433.918.782 1.724.914.497.08 1.2.098 1.951-.338l-.57-13.347 4.785.781-.346 8.382.165.027 4.729-7.667 4.713.77-8.792 12.158c-.943 1.305-3.073 3.633-6.958 2.999m18.707-2.03 4.142-11.97 4.713.77-4.141 11.969zm7.32-12.667c-1.611-.263-2.498-1.234-2.301-2.442.235-1.445 1.539-2.278 3.031-2.035 1.682.274 2.53 1.337 2.333 2.545-.24 1.468-1.548 2.18-3.063 1.932m5.968 15.248c-1.8-.294-4.542-1.228-6.213-3.056l2.78-2.879c.591.997 2.509 2.21 3.93 2.441.545.09.911-.07.984-.52.124-.758-1.178-.679-3.804-2.615-.934-.687-1.58-1.644-1.321-3.23.394-2.417 2.84-3.696 5.777-3.216 1.942.317 4.163 1.311 5.277 2.684l-2.943 2.682c-.496-.835-1.749-1.648-2.938-1.963-.726-.167-1.069-.004-1.139.422-.089.545 1.03.995 2.322 1.716 1.609.87 3.408 2.064 3.026 4.409-.375 2.298-2.919 3.585-5.738 3.125m17.963 2.809c-3.245-.53-4.83-2.442-3.693-5.685l1.423-4.096-1.587-.26 1.019-2.97a11 11 0 0 1 1.716-.085l.965-2.785 4.826.228-1.144 3.291 3.434.56-1.152 3.338-3.435-.56-1.274 3.634c-.511 1.498.334 1.83 1.424 2.008.497.08 1.097.13 1.46.14l-1.149 3.315c-.847.13-1.933.074-2.833-.073m4.371.421 5.767-16.567 4.737.773-1.977 5.708c1.517-.799 3.008-.993 4.216-.796 2.866.468 4.148 2.744 3.058 5.849l-2.513 7.201-4.737-.773 2.29-6.581c.375-1.106.414-2.242-1.173-2.501-1.137-.186-2.235.73-2.692 2.04l-2.239 6.42zm15.499 2.529 4.142-11.97 4.713.77-4.141 11.969zm7.32-12.667c-1.611-.263-2.498-1.234-2.301-2.442.235-1.445 1.539-2.278 3.031-2.035 1.682.275 2.53 1.337 2.333 2.545-.24 1.469-1.548 2.18-3.063 1.932m5.968 15.248c-1.8-.294-4.542-1.227-6.213-3.056l2.78-2.878c.591.996 2.509 2.209 3.93 2.44.545.09.911-.07.984-.52.124-.758-1.178-.678-3.804-2.614-.934-.688-1.58-1.644-1.321-3.231.394-2.416 2.84-3.695 5.777-3.216 1.942.317 4.163 1.311 5.277 2.685l-2.943 2.68c-.496-.834-1.749-1.646-2.938-1.962-.726-.167-1.069-.004-1.139.422-.089.545 1.03.995 2.322 1.716 1.609.87 3.408 2.064 3.026 4.41-.375 2.297-2.919 3.584-5.738 3.124m19.349 3.108c-3.766-.614-6.533-3.327-5.923-7.07.622-3.813 4.207-6.56 8.684-5.83 3.648.596 6.526 3.23 5.903 7.043-.626 3.837-4.163 6.591-8.664 5.857m.439-3.284c1.966.32 3.165-2.11 3.393-3.508.247-1.515-.321-2.654-1.529-2.85-1.966-.322-3.173 2.156-3.393 3.507-.247 1.516.344 2.658 1.529 2.85m6.241 8.873 5.767-16.568 3.624.591c-.015.241-.045.723-.098 1.2 1.169-.757 2.64-1.126 4.369-.843 3.221.525 5.013 3.103 4.476 6.396-.63 3.86-3.799 7.04-7.636 6.414-1.706-.278-2.967-1.043-3.768-2.098l-1.996 5.681zm9.862-6.343c1.966.32 3.169-2.134 3.393-3.508.252-1.54-.317-2.677-1.525-2.875-1.989-.324-3.208 2.225-3.42 3.528-.248 1.516.368 2.662 1.552 2.855m13.578 5.595c-3.246-.53-4.83-2.441-3.693-5.685l1.422-4.096-1.587-.259 1.019-2.97a11 11 0 0 1 1.717-.085l.965-2.785 4.826.228-1.145 3.29 3.435.56-1.153 3.339-3.435-.56-1.273 3.634c-.512 1.497.333 1.83 1.423 2.007.497.081 1.097.13 1.46.141l-1.148 3.314c-.848.13-1.933.074-2.833-.073m4.418.43 4.141-11.97 4.714.769-4.142 11.97zm7.319-12.668c-1.611-.262-2.498-1.234-2.301-2.442.236-1.445 1.539-2.278 3.031-2.034 1.682.274 2.53 1.336 2.333 2.544-.24 1.469-1.547 2.18-3.063 1.932m7.113 15.386c-3.766-.614-6.534-3.327-5.923-7.07.622-3.813 4.207-6.56 8.684-5.83 3.648.596 6.525 3.23 5.903 7.043-.626 3.837-4.164 6.592-8.664 5.857m.438-3.284c1.966.321 3.165-2.11 3.393-3.507.248-1.516-.32-2.654-1.528-2.852-1.966-.32-3.173 2.158-3.393 3.508-.248 1.516.344 2.658 1.528 2.851m7.844 4.271 4.165-11.966 3.885.634a14 14 0 0 1-.326 1.698c1.772-1.17 3.574-1.484 4.995-1.252 2.866.467 4.148 2.744 3.058 5.849l-2.512 7.201-4.738-.773 2.29-6.581c.375-1.106.414-2.243-1.173-2.502-1.042-.17-2.038.568-2.566 1.722l-2.341 6.743zm25.772 4.569c-3.032-.494-4.097-2.759-3.054-5.726l2.563-7.364 4.738.773-2.333 6.696c-.328.968-.426 2.168 1.042 2.407 1.185.194 2.18-.69 2.719-2.207l2.196-6.304 4.737.772-4.165 11.966-3.884-.634c.057-.501.185-1.137.314-1.626-1.405 1.011-3.167 1.526-4.873 1.247m10.845 1.405 4.165-11.966 3.885.634a14 14 0 0 1-.326 1.698c1.772-1.17 3.574-1.484 4.995-1.252 2.866.467 4.149 2.744 3.058 5.849l-2.512 7.201-4.737-.773 2.289-6.581c.375-1.106.415-2.243-1.172-2.502-1.042-.17-2.038.568-2.567 1.722l-2.34 6.743zm27.747 4.819c-1.516-.248-2.366-.849-2.649-1.794-1.107.67-2.451 1.01-4.014.755-3.174-.518-4.896-3.084-4.358-6.377.63-3.861 3.728-7.052 7.494-6.437 1.753.286 3.002 1.122 3.736 2.287.224-.474.494-.94.734-1.217l3.671.599-2.414 6.901c-.461 1.335-.416 1.804.555 1.963.284.046.525.061.769.052l-1.152 3.338c-.647.089-1.543.065-2.372-.07m-2.888-10.32c-1.871-.305-3.026 2.157-3.251 3.53-.251 1.54.27 2.671 1.407 2.856 1.777.29 2.924-2.271 3.136-3.573.248-1.516-.273-2.647-1.292-2.813m9.534 11.112.138-12.623 4.88.797-.942 8.6.237.039 4.755-7.979 4.879.796-8.168 11.313zm23.009 4.046c-1.516-.248-2.366-.848-2.649-1.794-1.107.67-2.451 1.01-4.015.755-3.174-.518-4.895-3.084-4.358-6.377.63-3.861 3.729-7.052 7.495-6.437 1.753.286 3.002 1.122 3.736 2.287.223-.474.494-.94.734-1.217l3.671.599-2.414 6.901c-.461 1.335-.416 1.804.555 1.963.284.046.525.061.769.052l-1.152 3.338c-.647.089-1.543.065-2.372-.07m-2.888-10.32c-1.871-.305-3.027 2.157-3.251 3.531-.251 1.539.27 2.67 1.407 2.855 1.776.29 2.924-2.271 3.136-3.573.247-1.516-.273-2.647-1.292-2.813m7.272 10.743 4.142-11.969 4.713.769-4.141 11.969zm7.319-12.667c-1.61-.262-2.498-1.234-2.3-2.442.235-1.445 1.538-2.278 3.031-2.035 1.681.275 2.529 1.337 2.332 2.545-.239 1.469-1.547 2.18-3.063 1.932m3.856 14.782c-3.008-.491-3.859-2.283-2.682-5.617l4.161-11.942 4.737.773-4.017 11.503c-.461 1.335-.392 1.809.579 1.967.261.043.502.058.746.049l-1.152 3.338c-.647.089-1.543.064-2.372-.071m16.409 2.677c-1.516-.247-2.366-.848-2.649-1.794-1.107.671-2.451 1.011-4.015.756-3.174-.518-4.895-3.085-4.358-6.377.63-3.861 3.729-7.052 7.495-6.438 1.753.286 3.002 1.122 3.736 2.288.223-.474.494-.941.734-1.218l3.671.599-2.414 6.901c-.461 1.336-.416 1.805.555 1.963.284.047.525.062.769.053l-1.152 3.338c-.647.089-1.543.064-2.372-.071m-2.888-10.32c-1.871-.305-3.027 2.157-3.251 3.531-.251 1.54.27 2.67 1.407 2.856 1.776.29 2.924-2.271 3.136-3.574.247-1.516-.273-2.646-1.292-2.813m7.249 10.74 5.743-16.572 4.737.773-1.75 5.064c.957-.354 2.05-.492 3.282-.291 3.221.526 5.013 3.104 4.476 6.396-.63 3.861-3.799 7.04-7.636 6.414-2.014-.328-3.41-1.31-4.137-2.668a14 14 0 0 1-.973 1.494zm8.212-1.749c1.966.321 3.169-2.133 3.393-3.507.251-1.54-.317-2.678-1.525-2.875-1.989-.325-3.208 2.224-3.42 3.527-.248 1.516.368 2.662 1.552 2.855m11.822 5.309c-3.008-.491-3.858-2.283-2.682-5.617l4.161-11.942 4.737.773-4.016 11.503c-.461 1.336-.393 1.809.579 1.967.26.043.501.058.745.049l-1.152 3.338c-.647.089-1.543.064-2.372-.071m11.345 1.973c-3.885-.634-6.49-3.296-5.883-7.015.637-3.909 4.361-6.608 8.482-5.936 3.221.526 5.883 2.395 5.42 5.237-.387 2.369-2.621 3.244-6.624 2.591a43 43 0 0 1-2.823-.582c.099 1.329 1.175 2.04 2.572 2.268 1.256.205 2.458-.012 3.487-.355l1.242 3.266c-1.213.581-3.552.904-5.873.526m-.895-7.928c.513.132 1.054.245 1.575.33 1.445.236 2.763.207 2.91-.693.15-.923-.557-1.355-1.458-1.502-1.279-.209-2.408.604-3.027 1.865m12.382 3.017c.112-.541.182-.821.311-1.165.505-1.304 1.71-1.983 2.789-2.487.973-.45 1.825-.748 2.004-1.254.149-.462-.259-.942-1.029-1.141-1.051-.268-2.071.173-2.297 1.109l-3.69-1.526c.995-3.121 4.249-4.584 7.866-3.653 3.341.837 5.015 3.25 4.147 5.734-.422 1.245-1.322 2.143-3.434 3.015-1.016.418-2.388.777-2.795 1.781l-.082.205zm.224 6.821c-1.516-.247-2.388-1.459-2.164-2.833.255-1.564 1.854-2.567 3.417-2.312 1.469.239 2.408 1.487 2.192 2.813-.244 1.493-1.763 2.607-3.445 2.332m-172.113 85.984-.201-3.111 11.904-2.845.201 3.11zm29.759-.574c-4.552 1.088-8.639-1.143-9.721-5.672-1.166-4.878 1.464-10.393 6.879-11.687 2.521-.603 5.26-.295 7.743 2.146l-3.149 3.344c-1.088-1.147-2.143-1.536-3.521-1.207-2.731.653-3.582 3.596-3.013 5.977.491 2.054 2.127 3.217 4.204 2.721 1.214-.29 2.224-1.124 2.965-2.461l3.557 2.284c-1.311 2.361-3.377 3.941-5.944 4.555m19.369-4.803c-1.494.357-2.51.131-3.137-.632-.762 1.046-1.871 1.878-3.411 2.246-3.128.748-5.707-.955-6.482-4.2-.91-3.804.716-7.944 4.428-8.831 1.727-.413 3.203-.124 4.33.668.022-.524.092-1.059.206-1.407l3.618-.865.437 7.299c.09 1.409.313 1.825 1.27 1.596a4 4 0 0 0 .73-.249l.226 3.525c-.562.331-1.398.655-2.215.85m-6.648-8.405c-1.844.441-1.96 3.158-1.636 4.512.362 1.517 1.279 2.359 2.4 2.091 1.75-.418 1.82-3.223 1.513-4.507-.357-1.494-1.274-2.336-2.277-2.096m10.809 7.114-.778-12.646 3.829-.915c.146.508.262 1.097.355 1.692 1.182-1.763 2.723-2.749 4.124-3.083 2.824-.675 4.886.929 5.079 4.214l.462 7.613-4.668 1.116-.429-6.955c-.081-1.165-.483-2.228-2.047-1.854-1.027.245-1.661 1.31-1.703 2.578l.444 7.124zm21.183-5.063-1.058-17.021 4.831-1.155 1.058 17.021zm13.123-3.137-.754-12.652 3.828-.915.358 1.395c.858-1.266 2.21-2.009 3.867-2.405l.56-.134.269 4.427c-.314-.073-.819-.125-1.222-.053-1.86.272-2.743 1.223-2.672 2.242l.411 6.984zm17.543-3.775c-3.828.916-7.259-.534-8.135-4.199-.921-3.852 1.472-7.78 5.533-8.75 3.175-.759 6.352-.063 7.021 2.738.558 2.335-1.164 4.005-5.109 4.948-.841.201-1.785.377-2.829.553.604 1.188 1.871 1.428 3.248 1.099 1.237-.296 2.263-.961 3.079-1.674l2.407 2.534c-.895 1.003-2.927 2.205-5.215 2.751m-3.886-6.967a18 18 0 0 0 1.581-.304c1.424-.34 2.628-.875 2.416-1.762-.217-.91-1.037-1.035-1.924-.823-1.26.301-1.989 1.487-2.073 2.889m17.174 3.791c-1.774.424-4.664.621-6.912-.42l1.454-3.728c.93.69 3.167 1.068 4.567.734.537-.129.814-.417.708-.86-.179-.747-1.349-.171-4.519-.944-1.127-.273-2.092-.906-2.466-2.47-.569-2.381 1.193-4.505 4.088-5.197 1.914-.457 4.346-.397 5.904.44l-1.679 3.609c-.78-.579-2.25-.844-3.469-.676-.734.126-.988.409-.887.829.128.537 1.333.52 2.804.687 1.821.181 3.941.588 4.493 2.898.542 2.265-1.309 4.434-4.086 5.098m12.808-3.135c-3.828.915-6.816-.641-7.642-4.096-.903-3.782.936-7.75 4.905-8.699 2.217-.53 4.729-.242 6.394 1.458l-2.708 2.917c-.695-.944-1.413-1.266-2.417-1.026-1.447.346-1.927 2.262-1.492 4.083.368 1.54 1.318 2.004 2.275 1.775.864-.206 1.686-.896 2.156-1.823l3.131 2.262c-1.07 1.613-2.548 2.658-4.602 3.149m6.078-1.799-1.076-17.509 4.668-1.116.38 6.029c1.091-1.322 2.391-2.077 3.582-2.362 2.824-.675 4.886.93 5.079 4.215l.462 7.613-4.668 1.116-.429-6.955c-.081-1.165-.483-2.229-2.047-1.855-1.121.268-1.78 1.536-1.695 2.922l.413 6.786zm22.535-4.967c-3.828.915-7.259-.535-8.135-4.2-.921-3.851 1.471-7.779 5.533-8.75 3.175-.759 6.352-.062 7.021 2.739.558 2.334-1.165 4.004-5.11 4.947a43 43 0 0 1-2.829.553c.605 1.188 1.872 1.428 3.249 1.099 1.237-.296 2.263-.96 3.079-1.674l2.407 2.534c-.895 1.004-2.927 2.205-5.215 2.752m-3.886-6.967a18 18 0 0 0 1.58-.304c1.424-.341 2.629-.875 2.417-1.762-.218-.911-1.037-1.036-1.924-.824-1.261.302-1.989 1.488-2.073 2.89m20.743 2.518c-.108-.246-.225-.736-.337-1.203-.797 1.104-1.965 2-3.669 2.407-3.174.759-5.823-.927-6.598-4.172-.91-3.805.786-7.961 4.568-8.865 1.704-.407 3.186-.194 4.314.499l-.334-5.941 4.668-1.116 1.076 17.509zm-4.082-8.821c-1.938.464-2.1 3.192-1.776 4.546.362 1.517 1.326 2.348 2.516 2.063 1.961-.468 2.101-3.29 1.794-4.574-.357-1.494-1.367-2.314-2.534-2.035m14.733 6.645c-2.988.714-4.845-.964-5.028-4.103l-.478-7.783 4.669-1.115.433 7.077c.071 1.019.443 2.164 1.89 1.818 1.167-.279 1.745-1.478 1.656-3.086l-.408-6.663 4.668-1.116.778 12.646-3.828.915a13 13 0 0 1-.339-1.622c-.906 1.475-2.332 2.63-4.013 3.032m14.652-3.576c-2.964.708-4.441-.617-4.643-4.146l-.772-12.623 4.669-1.116.736 12.162c.09 1.41.336 1.82 1.293 1.591.257-.061.484-.14.707-.243l.225 3.524c-.562.332-1.398.655-2.215.851m11.227-2.561c-3.829.916-7.26-.534-8.136-4.199-.92-3.852 1.472-7.78 5.534-8.75 3.174-.759 6.351-.063 7.021 2.738.558 2.335-1.165 4.005-5.11 4.948-.84.201-1.785.377-2.829.553.605 1.188 1.871 1.428 3.248 1.099 1.238-.296 2.263-.961 3.08-1.674l2.407 2.534c-.895 1.003-2.928 2.205-5.215 2.751m-3.887-6.967a18 18 0 0 0 1.581-.304c1.424-.34 2.629-.875 2.416-1.762-.217-.91-1.037-1.035-1.924-.823-1.26.301-1.988 1.487-2.073 2.889m12.587-1.997c-.105-.542-.148-.828-.162-1.195-.038-1.397.812-2.489 1.612-3.371.724-.79 1.394-1.395 1.365-1.93-.042-.484-.603-.769-1.39-.655-1.073.158-1.844.959-1.691 1.909l-3.993.017c-.287-3.263 2.15-5.869 5.846-6.407 3.405-.517 5.88 1.062 6.04 3.689.091 1.311-.393 2.488-2.005 4.107-.776.778-1.903 1.639-1.891 2.722l.004.221zm2.841 6.206c-1.494.357-2.767-.425-3.09-1.779-.369-1.54.718-3.083 2.259-3.452 1.447-.345 2.795.443 3.108 1.75.351 1.47-.62 3.085-2.277 3.481m-91.894 52.022.673-3.044 12.226.579-.672 3.043zm28.937 7.712c-5.154-.244-8.107-3.843-7.895-8.326.246-5.203 4.367-9.525 9.761-9.269 4.651.22 8.156 3.317 7.93 8.111-.28 5.898-4.689 9.726-9.796 9.484m.32-4.214c2.565.122 4.223-2.923 4.336-5.321.103-2.181-1.097-3.728-3.135-3.824-2.469-.117-4.159 2.59-4.283 5.227-.112 2.35 1.14 3.827 3.082 3.918m9.502 4.246 2.796-12.361 3.931.186-.044 1.439c1.176-.977 2.681-1.314 4.383-1.234l.576.027-.974 4.327c-.281-.157-.752-.348-1.159-.391-1.862-.256-2.974.412-3.19 1.411l-1.548 6.822zm23.067 1.428c-3.932-.186-6.368-2.512-6.201-6.06.184-3.883 3.055-7.183 7.131-6.99 2.277.107 4.61 1.083 5.736 3.178l-3.413 2.049c-.404-1.1-1.005-1.609-2.036-1.658-1.486-.07-2.48 1.637-2.568 3.507-.075 1.582.708 2.292 1.691 2.338.887.042 1.869-.392 2.578-1.151l2.378 3.044c-1.477 1.251-3.186 1.843-5.296 1.743m18.628.834c-1.534-.073-2.448-.573-2.837-1.48-1.023.792-2.319 1.284-3.902 1.209-3.212-.152-5.215-2.505-5.057-5.838.185-3.907 2.898-7.431 6.71-7.251 1.774.084 3.111.772 3.973 1.846.168-.496.383-.991.59-1.293l3.716.175-1.611 7.132c-.306 1.379-.207 1.841.775 1.887.288.014.529.001.771-.036l-.764 3.448c-.632.163-1.525.24-2.364.201m-4.047-9.923c-1.894-.089-2.761 2.489-2.827 3.879-.074 1.558.573 2.622 1.723 2.676 1.798.086 2.646-2.589 2.708-3.908.073-1.534-.574-2.598-1.604-2.647m8.403 9.841 2.771-12.363 3.932.186a14 14 0 0 1-.13 1.724c1.627-1.365 3.381-1.883 4.819-1.815 2.901.138 4.435 2.252 3.706 5.462l-1.673 7.441-4.795-.227 1.523-6.8c.247-1.141.156-2.275-1.45-2.351-1.055-.05-1.96.796-2.354 2.003l-1.555 6.966zm22.528 1.402c-3.932-.186-6.369-2.512-6.201-6.06.184-3.884 3.055-7.184 7.13-6.991 2.278.108 4.61 1.083 5.737 3.179l-3.413 2.049c-.405-1.1-1.005-1.609-2.036-1.658-1.486-.07-2.48 1.636-2.569 3.506-.074 1.583.709 2.292 1.692 2.339.887.042 1.868-.392 2.577-1.152l2.379 3.044c-1.477 1.252-3.187 1.844-5.296 1.744m13.516.712c-3.932-.186-6.824-2.534-6.646-6.298.187-3.955 3.578-7.062 7.749-6.865 3.26.154 6.118 1.707 5.982 4.584-.113 2.397-2.233 3.522-6.284 3.331a44 44 0 0 1-2.871-.256c.25 1.309 1.4 1.892 2.814 1.959 1.271.06 2.441-.293 3.423-.751l1.607 3.103c-1.139.715-3.425 1.304-5.774 1.193m-1.795-7.774c.525.073 1.075.123 1.603.148 1.462.069 2.768-.109 2.811-1.02.045-.935-.708-1.283-1.619-1.326-1.294-.062-2.324.875-2.795 2.198m13.289 8.197c-3.044-.144-4.094-1.827-3.306-5.274l2.77-12.339 4.795.227-2.677 11.887c-.306 1.379-.183 1.841.799 1.888.264.012.505 0 .747-.037l-.764 3.448c-.632.162-1.525.24-2.364.2m7.832-6.212c.05-.551.087-.837.176-1.193.353-1.353 1.472-2.165 2.487-2.79.915-.557 1.727-.951 1.848-1.474.094-.476-.366-.907-1.154-1.016-1.074-.147-2.037.408-2.155 1.364l-3.84-1.095c.632-3.214 3.698-5.039 7.398-4.527 3.415.45 5.353 2.656 4.775 5.223-.277 1.284-1.069 2.28-3.068 3.387-.962.531-2.284 1.045-2.574 2.089l-.058.213zm1.002 6.751c-1.535-.073-2.54-1.178-2.474-2.568.075-1.583 1.549-2.762 3.131-2.687 1.486.07 2.562 1.202 2.498 2.545-.071 1.51-1.453 2.79-3.155 2.71"/></svg>