<svg xmlns="http://www.w3.org/2000/svg" width="610" height="270" fill="none" viewBox="0 0 610 270"><rect width="610" height="270" fill="#e4ef4e" rx="46"/><path fill="#23607d" d="m30.307 155.935.382-2.963 11.72-.49-.383 2.962zm19.598 4.843 2.13-16.204 6.458-.27 1.3 7.957.275-.012 3.434-8.155 6.687-.279-2.13 16.203-4.596.192 1.379-10.509-.253.011-3.715 8.581-3.263.136-1.501-8.362-.23.009-1.379 10.509zm27.869-.821c-3.654.152-6.777-1.858-6.929-5.489-.155-3.699 2.678-6.972 7.021-7.153 3.539-.148 6.75 1.766 6.905 5.466.155 3.722-2.631 6.993-6.997 7.176m-.225-3.168c1.907-.08 2.562-2.593 2.505-3.949-.062-1.471-.815-2.429-1.987-2.38-1.908.08-2.56 2.639-2.505 3.949.061 1.471.838 2.428 1.987 2.38m8.212 2.488 1.568-12.036 4.435-.186-.732 5.602.16-.007 3.422-5.714 5.262-.22-1.568 12.036-4.481.187.925-7.036-.16.006-4.42 7.183zm8.527-13.524c-2.85.119-4.52-1.307-4.464-3.244l3.47-.145c-.077.349.375.698.95.674.482-.02.86-.335.934-.753l3.493-.146c-.295 2.292-2.085 3.517-4.383 3.614m11.372 17.295 2.203-16.666 3.516-.148c.032.229.097.687.14 1.146.95-.938 2.259-1.568 3.937-1.639 3.125-.13 5.306 1.942 5.44 5.136.157 3.746-2.202 7.344-5.925 7.5-1.654.069-2.986-.405-3.942-1.239l-.773 5.718zm8.027-7.863c1.907-.08 2.561-2.617 2.505-3.949-.063-1.494-.816-2.453-1.988-2.403-1.931.08-2.58 2.709-2.527 3.973.061 1.47.861 2.427 2.01 2.379m15.254 2.676c-3.769.158-6.73-1.836-6.881-5.444-.159-3.792 2.813-7.047 6.811-7.214 3.125-.131 5.986 1.108 6.101 3.865.096 2.298-1.831 3.553-5.714 3.716-.828.034-1.749.027-2.763 0 .351 1.228 1.498 1.687 2.854 1.63 1.218-.051 2.304-.488 3.203-1.009l1.799 2.826c-1.026.779-3.158 1.536-5.41 1.63m-2.376-7.267c.507.025 1.037.026 1.542.005 1.402-.059 2.633-.341 2.597-1.214-.038-.896-.786-1.164-1.659-1.128-1.241.052-2.144 1.034-2.48 2.337m15.453 6.628c-4.037-.2-6.081-3.383-5.454-8.197.612-4.63 3.311-8.357 8.282-8.933 1.558-.181 3.395-.281 5.165-.355l-.593 3.985c-1.586.066-4.135.219-5.233.38-1.968.289-3.041 1.6-3.419 3.02 1.102-1.174 2.53-1.717 4.236-1.65 2.814.135 4.696 2.75 4.24 6.153-.416 3.263-3.487 5.786-7.224 5.597m.443-3.149c1.154.066 2.191-1.013 2.401-2.587.231-1.644-.555-2.808-1.616-2.856-1.175-.043-2.259 1.015-2.49 2.659-.209 1.598.53 2.741 1.705 2.784m14.98 2.595c-3.769.158-6.73-1.836-6.881-5.444-.158-3.791 2.813-7.046 6.812-7.214 3.125-.131 5.985 1.108 6.101 3.866.096 2.298-1.831 3.552-5.715 3.715a42 42 0 0 1-2.762 0c.35 1.229 1.497 1.687 2.853 1.63 1.218-.051 2.305-.487 3.204-1.008l1.799 2.825c-1.027.779-3.159 1.536-5.411 1.63m-2.376-7.267c.508.025 1.037.026 1.543.005 1.401-.059 2.633-.34 2.596-1.214-.037-.896-.785-1.164-1.658-1.127-1.241.052-2.144 1.033-2.481 2.336m18.985-5.789 4.573-.192-1.568 12.036-4.573.192.609-4.699-3.424.143-.609 4.699-4.573.191 1.568-12.036 4.573-.191-.524 3.981 3.424-.143zm12.497 11.792c-3.654.153-6.777-1.857-6.929-5.488-.155-3.7 2.678-6.972 7.021-7.154 3.539-.148 6.75 1.767 6.905 5.466.155 3.723-2.631 6.994-6.997 7.176m-.225-3.167c1.907-.08 2.562-2.593 2.505-3.949-.062-1.471-.815-2.429-1.987-2.38-1.908.08-2.56 2.639-2.505 3.949.061 1.471.838 2.428 1.987 2.38m8.189 2.489 1.591-12.037 4.573-.192-.629 4.769.298-.013 4.008-4.91 4.894-.204-5.304 5.815 3.506 6.23-4.963.208-2.404-5.194-.299.012-.698 5.324zm19.951-.835 1.568-12.036 12.225-.512-1.568 12.036-4.573.191 1.133-8.679-3.079.128-1.133 8.68zm21.702-.563c-3.654.153-6.776-1.857-6.928-5.488-.155-3.7 2.677-6.972 7.021-7.154 3.539-.148 6.749 1.766 6.904 5.466.156 3.723-2.631 6.993-6.997 7.176m-.224-3.168c1.907-.079 2.561-2.593 2.505-3.949-.062-1.471-.816-2.429-1.988-2.38-1.907.08-2.56 2.64-2.505 3.949.062 1.471.839 2.428 1.988 2.38m6.616 5.502.823-6.181 1.379-.058c.652-1.478 1.18-4.262 1.666-8.035l.105-.81 10.846-.454-1.173 8.82 1.7-.071-.823 6.181-4.297.18.405-2.964-5.928.248-.406 2.964zm6.315-6.411 2.804-.117.754-5.626-2.114.089-.054.347c-.366 2.271-.86 4.203-1.39 5.307m9.167 2.816 4.819-6.417-.004-.092-3.086-5.534 4.895-.205 1.452 3.347.138-.006 2.339-3.505 4.78-.2-4.521 5.829-.019.093 3.133 6.107-4.872.204-1.563-3.802-.138.006-2.527 3.973zm21.752-.565c-3.654.153-6.777-1.857-6.928-5.488-.155-3.7 2.677-6.972 7.021-7.154 3.538-.148 6.749 1.766 6.904 5.466.156 3.723-2.631 6.993-6.997 7.176m-.225-3.167c1.908-.08 2.562-2.594 2.505-3.95-.061-1.47-.815-2.429-1.987-2.38-1.907.08-2.56 2.64-2.505 3.95.062 1.47.838 2.428 1.987 2.38m6.617 5.501.823-6.181 1.379-.058c.652-1.477 1.18-4.262 1.666-8.034l.105-.811 10.846-.453-1.173 8.819 1.7-.071-.823 6.181-4.297.18.405-2.964-5.929.248-.405 2.964zm6.315-6.411 2.804-.117.754-5.626-2.114.089-.054.347c-.366 2.272-.86 4.203-1.39 5.307m10.092 2.778 1.568-12.037 4.435-.185-.733 5.601.161-.006 3.421-5.714 5.263-.221-1.568 12.036-4.481.188.925-7.037-.161.007-4.418 7.183zm15.188-9.154.43-3.471 10.548-.441-.43 3.471-3.01.126-1.115 8.564-4.573.191 1.115-8.564zm14.841 1.866c.001-.53.012-.807.067-1.154.221-1.322 1.22-2.192 2.136-2.875.826-.61 1.567-1.056 1.638-1.565.049-.462-.427-.834-1.188-.871-1.038-.049-1.91.563-1.94 1.485l-3.76-.717c.33-3.122 3.101-5.125 6.676-4.953 3.298.139 5.336 2.079 5.003 4.579-.155 1.25-.826 2.268-2.639 3.495-.873.589-2.091 1.192-2.279 2.213l-.037.209zm1.532 6.358c-1.47.062-2.524-.907-2.58-2.24-.063-1.517 1.243-2.768 2.759-2.832 1.425-.06 2.549.929 2.602 2.216.061 1.448-1.149 2.788-2.781 2.856m49.719-119.176 1.296-2.692 11.278 3.228-1.297 2.691zm20.925 12.28c-1.04-.298-2.139-.804-3.026-1.464l1.745-3.592c.332.43 1.083.98 1.857 1.202.487.139.923.12 1.387-.082l.009-12.653 4.887 1.398-.635 7.57.221.063 5.168-6.272 4.621 1.322-9.589 10.27c-1.969 2.116-4.124 2.959-6.645 2.238m15.513 4.032 5.303-10.922 6.738 1.952c2.233.64 3.133 2.26 2.69 3.808-.342 1.194-1.258 2.056-2.614 2.362.739.762.982 1.669.622 2.93-.633 2.21-2.943 2.674-4.955 2.098zm5.432-1.507 1.431.433c1.011.313 1.804.301 2.063-.606.171-.597-.208-1.112-1.048-1.352l-1.504-.43zm2.008-4.09 1.105.316c.929.265 1.621.272 1.842-.502.171-.597-.287-1.087-1.215-1.353l-.863-.246zm17.027 12.886c-1.415-.405-2.158-1.072-2.321-2.004-1.129.515-2.446.688-3.905.27-2.964-.848-4.315-3.483-3.435-6.557 1.031-3.604 4.337-6.294 7.853-5.288 1.636.468 2.732 1.404 3.3 2.595.266-.426.576-.84.835-1.077l3.427.98-3.07 6.3c-.588 1.218-.598 1.67.309 1.93.265.075.493.117.726.136l-1.47 3.048c-.626.012-1.475-.111-2.249-.333m-1.595-10.145c-1.746-.5-3.122 1.714-3.489 2.997-.411 1.437-.042 2.571 1.02 2.875 1.658.475 3.036-1.834 3.384-3.05.405-1.416.036-2.55-.915-2.822m11.762 13.103c-3.627-1.038-5.388-3.743-4.452-7.016 1.025-3.582 4.429-6.03 8.188-4.953 2.101.6 4.062 2.023 4.652 4.226l-3.634 1.16c-.135-1.115-.584-1.721-1.534-1.994-1.371-.392-2.674.982-3.167 2.707-.418 1.459.157 2.293 1.063 2.553.819.234 1.83.045 2.658-.508l1.549 3.362c-1.652.843-3.377 1.02-5.323.463m18.065 5.241c-3.626-1.038-5.808-3.863-4.814-7.335 1.044-3.648 4.889-5.801 8.737-4.7 3.007.86 5.332 2.937 4.572 5.59-.632 2.212-2.857 2.795-6.594 1.726a41 41 0 0 1-2.622-.87c-.054 1.276.89 2.073 2.195 2.446 1.172.336 2.341.264 3.358.052l.817 3.248c-1.22.417-3.482.463-5.649-.157m.035-7.645c.474.183.976.35 1.463.49 1.349.386 2.606.507 2.846-.334.247-.862-.378-1.352-1.218-1.593-1.194-.341-2.361.306-3.091 1.437m13.146 11.345c-3.626-1.037-5.388-3.742-4.451-7.015 1.025-3.582 4.429-6.03 8.188-4.953 2.1.6 4.062 2.023 4.651 4.225l-3.633 1.162c-.136-1.116-.584-1.722-1.535-1.995-1.371-.392-2.673.982-3.167 2.706-.417 1.46.157 2.294 1.064 2.554.818.234 1.829.045 2.657-.508l1.55 3.362c-1.653.843-3.378 1.02-5.324.462m8.903-6.638 1.502-3.159 10.15 2.905-1.502 3.158-2.897-.829-3.756 7.777-4.401-1.26 3.757-7.776zm7.793 11.081 5.303-10.922 4.423 1.265-1.525 3.153 2.123.607c2.145.614 3.083 2.605 2.494 4.661-.664 2.322-2.757 4.116-6.361 3.084zm5.618-1.574 1.15.33c.73.208 1.482-.246 1.703-1.02.165-.575-.085-1.125-.593-1.27l-1.15-.33zm-118.811.673c-.663-.19-1.124-.417-1.563-.806l1.562-3.285c.123.155.429.338.717.42.84.24 1.418-.36 2.797-3.17l2.109-4.277 9.951 2.847-5.303 10.923-4.401-1.26 3.811-7.88-1.504-.43-1.293 2.596c-2.245 4.5-4.03 5.138-6.883 4.322m12.517 3.295 5.281-10.929 4.267 1.221-2.46 5.086.155.044 5.047-4.345 5.064 1.45-5.281 10.928-4.311-1.234 3.095-6.387-.155-.044-6.456 5.425zm20.618 6.235c-3.626-1.037-5.388-3.743-4.451-7.015 1.025-3.582 4.428-6.03 8.188-4.954 2.1.601 4.062 2.024 4.651 4.226l-3.633 1.161c-.136-1.115-.584-1.722-1.535-1.994-1.371-.392-2.673.981-3.167 2.706-.417 1.46.157 2.294 1.064 2.553.818.235 1.829.045 2.657-.507l1.55 3.362c-1.653.843-3.378 1.02-5.324.462m8.903-6.638 1.502-3.16 10.15 2.905-1.502 3.159-2.897-.829-3.756 7.777-4.401-1.26 3.757-7.776zm19.995 14.932c-3.515-1.006-5.846-3.898-4.846-7.392 1.019-3.56 4.738-5.773 8.917-4.577 3.406.975 5.85 3.803 4.831 7.363-1.025 3.583-4.7 5.808-8.902 4.606m.785-3.077c1.836.525 3.249-1.654 3.622-2.959.405-1.415-.008-2.562-1.136-2.885-1.835-.525-3.261 1.699-3.622 2.96-.405 1.414.031 2.568 1.136 2.884m5.299 4.459 6.036-5.043-.535-5.823 4.357 1.247-.243 4.859.31.088 2.1-4.327 4.112 1.177-2.099 4.327.332.095 3.934-3.802 4.467 1.278-5.543 4.323.263 6.606-4.445-1.271.482-5.365-.331-.095-2.34 4.833-4.113-1.177 2.34-4.833-.332-.095-4.197 4.302zm18.641 5.335 5.28-10.93 4.268 1.222-2.46 5.085.155.045 5.047-4.345 5.064 1.449-5.281 10.929-4.312-1.234 3.096-6.387-.155-.044-6.457 5.424zm12.069 6.516 2.729-5.607 1.326.38c1.085-1.197 2.463-3.674 4.114-7.1l.354-.737 10.437 2.987-3.893 8.001 1.637.468-2.729 5.607-4.135-1.183 1.318-2.685-5.705-1.633-1.318 2.685zm8.013-4.095 2.698.772 2.489-5.1-2.035-.583-.161.313c-1.062 2.04-2.14 3.717-2.991 4.598m19.931 9.316c-1.415-.405-2.157-1.071-2.321-2.004-1.128.515-2.445.688-3.905.27-2.963-.847-4.314-3.483-3.434-6.557 1.031-3.604 4.337-6.294 7.853-5.288 1.636.468 2.732 1.404 3.3 2.595.266-.426.575-.84.835-1.077l3.427.981-3.07 6.298c-.589 1.22-.598 1.671.308 1.931.266.076.493.117.727.136l-1.47 3.048c-.626.012-1.476-.111-2.25-.333m-1.594-10.145c-1.747-.5-3.122 1.714-3.489 2.997-.411 1.437-.042 2.572 1.019 2.875 1.659.475 3.037-1.834 3.385-3.05.405-1.415.036-2.55-.915-2.822m18.673 2.306 4.401 1.259-5.281 10.929-4.4-1.259 2.058-4.268-3.295-.943-2.058 4.268-4.401-1.259 5.281-10.93 4.4 1.26-1.751 3.613 3.294.943zm1.385 12.836 5.28-10.929 4.268 1.221-2.46 5.086.155.044 5.047-4.345 5.064 1.449-5.281 10.929-4.312-1.234 3.096-6.387-.155-.044-6.457 5.425zm20.751 5.938 1.451-2.981-.929-.266-.132-.038-3.398 2.425-4.444-1.272 4.566-3.167c-.811-.926-1.196-2.089-.829-3.371.753-2.632 3.335-3.878 6.43-2.993l6.634 1.899-5.303 10.922zm.357-7.601c-.209.73.242 1.409 1.127 1.663l1.238.354 1.252-2.536-1.26-.361c-1.194-.342-2.073-.115-2.357.88m11.631 4.764c.168-.502.266-.761.427-1.074.626-1.184 1.849-1.695 2.933-2.055.976-.319 1.82-.508 2.048-.969.193-.423-.142-.926-.853-1.201-.97-.373-1.99-.067-2.31.798l-3.341-1.865c1.296-2.859 4.557-3.887 7.896-2.597 3.086 1.17 4.409 3.654 3.305 5.922-.541 1.137-1.498 1.892-3.606 2.485-1.014.284-2.36.473-2.859 1.382l-.102.187zm-.549 6.518c-1.415-.405-2.11-1.657-1.743-2.939.418-1.46 2.052-2.236 3.511-1.818 1.371.392 2.126 1.684 1.771 2.923-.398 1.393-1.969 2.283-3.539 1.834M33.01 39.74l1.065-2.79 11.509 2.266-1.066 2.791zm17.92 9.296 5.864-15.254 14.081 2.773-5.864 15.254-4.693-.924 4.382-11.42-4.717-.93-4.382 11.421zm23.54 4.988c-3.588-.707-6.154-3.392-5.451-6.958.715-3.633 4.235-6.151 8.5-5.312 3.475.685 6.149 3.298 5.433 6.93-.72 3.657-4.194 6.184-8.482 5.34m.523-3.132c1.873.368 3.098-1.922 3.36-3.254.284-1.444-.224-2.552-1.375-2.779-1.873-.368-3.107 1.967-3.36 3.254-.284 1.444.247 2.556 1.375 2.779m13.44 1.92c-2.867-.565-4.916-2.422-3.774-5.362l1.405-3.684 4.536.893-1.307 3.423c-.389 1.025-.018 1.52.93 1.707.339.066.636.101.966.096l1.826-4.75 4.49.884-4.341 11.334-4.49-.884 1.306-3.423a20 20 0 0 1-1.548-.234m13.905 6.746c-3.701-.728-6.113-3.36-5.415-6.903.733-3.724 4.384-6.193 8.31-5.42 3.069.605 5.56 2.479 5.027 5.187-.445 2.256-2.612 3.025-6.426 2.274a41 41 0 0 1-2.685-.646c.053 1.276 1.061 1.99 2.392 2.253 1.196.235 2.355.065 3.351-.231l1.088 3.167c-1.181.518-3.431.755-5.642.32m-.609-7.62c.487.142 1.002.267 1.498.365 1.377.27 2.64.285 2.809-.573.173-.88-.491-1.315-1.349-1.484-1.218-.24-2.326.503-2.958 1.691m7.617 8.602 4.342-11.335 5.078 1-.087 5.68.135.026 3.946-4.92 5.078 1-4.342 11.336-4.198-.827 2.27-5.93-.136-.026-3.615 3.836-1.512-.298-.267-4.835-.135-.026-2.359 6.146zm17.588 8.363c-.858-.169-1.914-.518-2.552-.971l1.357-3.554c.384.427.855.778 1.622.929.474.093 1.146.132 1.88-.263l-.128-12.801 4.558.898-.594 8.017.158.031 4.769-7.195 4.491.884-8.803 11.37c-.944 1.221-3.057 3.384-6.758 2.655m23.29.015c-2.143-.422-4.218-1.674-4.991-3.819l3.523-1.463c.229 1.1.727 1.667 1.697 1.858.903.178 1.713-.366 2.265-1.265l-3.317-.653.873-2.29 3.182.627c.028-1.096-.56-1.681-1.35-1.837-.835-.164-1.826.11-2.605.73l-1.827-3.22c1.576-.979 3.28-1.3 5.266-.909 3.701.73 5.684 3.276 5.026 6.616-.72 3.656-3.905 6.38-7.742 5.625m8.978-7.233 1.231-3.274 10.358 2.04-1.231 3.273-2.956-.582-3.089 8.065-4.491-.884 3.089-8.065zm20.424 12.977c-1.444-.285-2.239-.887-2.481-1.802-1.081.608-2.379.891-3.869.598-3.024-.596-4.592-3.108-3.974-6.245.724-3.678 3.792-6.637 7.38-5.93 1.67.328 2.841 1.168 3.507 2.308.229-.448.503-.886.741-1.144l3.498.69-2.529 6.534c-.484 1.264-.455 1.715.47 1.897.271.053.501.075.735.075l-1.208 3.16c-.623.066-1.48.014-2.27-.141m-2.442-9.975c-1.783-.352-2.967 1.97-3.225 3.28-.289 1.466.175 2.566 1.258 2.779 1.692.333 2.872-2.084 3.116-3.325.284-1.444-.179-2.543-1.149-2.734m19.066 13.319c-3.588-.707-6.153-3.392-5.451-6.958.715-3.633 4.235-6.151 8.5-5.311 3.475.684 6.149 3.297 5.434 6.93-.72 3.656-4.195 6.183-8.483 5.339m.523-3.132c1.873.368 3.098-1.922 3.36-3.253.284-1.445-.224-2.553-1.375-2.78-1.873-.368-3.106 1.967-3.36 3.254-.284 1.444.247 2.556 1.375 2.779m7.402 4.34 4.341-11.334 12.006 2.364-4.342 11.335-4.491-.885 3.134-8.173-3.024-.596-3.134 8.174zm29.317 2.516-2.247 5.816-4.22-.831 1.088-2.786-9.659-1.902 4.365-11.33 4.491.884-3.205 8.3 3.091.609 3.205-8.3 4.491.884-3.205 8.3zm.279 3.313 4.342-11.335 4.355.858-2.023 5.274.158.031 4.664-4.754 5.167 1.018-4.341 11.334-4.401-.866 2.547-6.625-.158-.031-5.977 5.95zm21.178 4.17 1.195-3.093-.948-.187-.135-.026-3.182 2.702-4.535-.893 4.283-3.54c-.886-.855-1.368-1.981-1.11-3.29.529-2.685 2.996-4.145 6.156-3.523l6.77 1.333-4.365 11.33zm-.285-7.604c-.146.745.361 1.384 1.264 1.562l1.263.248 1.034-2.632-1.286-.254c-1.218-.24-2.075.06-2.275 1.076m24.447.173 4.491.884-4.342 11.335-4.491-.885 1.692-4.425-3.362-.662-1.692 4.425-4.491-.884 4.342-11.335 4.49.885-1.441 3.748 3.363.662zm9.335 14.426c-3.701-.728-6.113-3.36-5.415-6.903.733-3.724 4.384-6.193 8.31-5.42 3.069.605 5.56 2.479 5.027 5.187-.444 2.256-2.612 3.025-6.425 2.274a41 41 0 0 1-2.686-.646c.053 1.276 1.061 1.99 2.393 2.253 1.196.235 2.354.065 3.35-.231l1.088 3.168c-1.18.517-3.431.754-5.642.318m-.609-7.62c.488.142 1.002.267 1.499.365 1.376.27 2.639.285 2.808-.573.173-.88-.491-1.315-1.349-1.484-1.218-.24-2.326.503-2.958 1.691m5.559 11.197 2.248-5.816 1.354.267c.979-1.284 2.144-3.868 3.501-7.422l.29-.763 10.652 2.098-3.205 8.3 1.67.329-2.247 5.816-4.22-.831 1.087-2.786-5.822-1.147-1.088 2.786zm7.641-4.754 2.753.542 2.05-5.292-2.076-.41-.134.326c-.887 2.123-1.82 3.885-2.593 4.834m15.869 6.735c-3.588-.706-6.153-3.392-5.451-6.957.716-3.633 4.235-6.152 8.501-5.312 3.475.684 6.148 3.297 5.433 6.93-.72 3.656-4.195 6.184-8.483 5.339m.523-3.132c1.874.37 3.098-1.921 3.36-3.253.285-1.444-.224-2.552-1.375-2.779-1.873-.369-3.106 1.967-3.359 3.253-.285 1.444.246 2.557 1.374 2.78m13.839 5.937c-3.701-.729-5.684-3.276-5.027-6.616.72-3.656 3.906-6.38 7.742-5.625 2.144.422 4.218 1.674 4.991 3.82l-3.523 1.462c-.229-1.1-.726-1.667-1.697-1.858-1.399-.275-2.581 1.203-2.927 2.963-.294 1.49.349 2.273 1.274 2.455.835.164 1.827-.109 2.605-.729l1.828 3.219c-1.576.979-3.28 1.3-5.266.909m8.312-7.365 1.231-3.274 10.358 2.04-1.231 3.274-2.956-.582-3.088 8.065-4.491-.884 3.088-8.065zm10.089 15.56c-.858-.169-1.914-.518-2.552-.972l1.357-3.553c.384.427.854.777 1.622.928.474.094 1.146.132 1.88-.262l-.128-12.801 4.558.898-.594 8.017.158.031 4.769-7.195 4.491.884-8.803 11.371c-.944 1.22-3.057 3.383-6.758 2.654m12.428-2.452 4.341-11.335 12.006 2.364-4.342 11.335-4.491-.884 3.134-8.174-3.024-.595-3.134 8.173zm26.497-6.972 4.491.885-4.342 11.334-4.491-.884 1.692-4.426-3.362-.662-1.692 4.426-4.491-.885 4.342-11.334 4.491.884-1.442 3.748 3.363.662zm14.164 15.261c-1.444-.285-2.24-.887-2.482-1.802-1.08.608-2.379.891-3.868.598-3.024-.596-4.592-3.108-3.974-6.245.724-3.678 3.791-6.637 7.38-5.931 1.669.329 2.84 1.169 3.507 2.309.228-.448.502-.886.741-1.144l3.497.689-2.529 6.534c-.483 1.265-.455 1.716.47 1.898.271.053.501.075.736.075l-1.209 3.161c-.622.065-1.479.013-2.269-.142m-2.443-9.975c-1.782-.352-2.966 1.97-3.224 3.279-.289 1.467.174 2.566 1.257 2.78 1.693.333 2.872-2.084 3.117-3.325.284-1.444-.179-2.543-1.15-2.734m10.754 5.188c.125-.514.2-.781.335-1.106.524-1.233 1.699-1.845 2.749-2.295.946-.4 1.771-.659 1.959-1.138.156-.438-.219-.911-.951-1.125-.997-.29-1.989.101-2.234.99l-3.487-1.577c1.051-2.958 4.214-4.257 7.65-3.253 3.173.907 4.7 3.27 3.792 5.623-.443 1.179-1.334 2.011-3.384 2.78-.987.368-2.312.669-2.733 1.618l-.086.194zm.001 6.541c-1.444-.285-2.242-1.473-1.984-2.782.293-1.49 1.856-2.401 3.345-2.107 1.4.275 2.26 1.499 2.011 2.763-.28 1.422-1.77 2.441-3.372 2.126M170.16 220.491l-.09-2.986 11.495-2.334.09 2.986zm20.117 1.689-.454-16.336 6.334-1.286 2.539 7.652.271-.055 2.104-8.595 6.559-1.331.453 16.336-4.508.915-.297-10.595-.247.051-2.315 9.059-3.201.65-2.802-8.021-.225.046.297 10.595zm27.389-5.209c-3.583.728-6.984-.764-7.707-4.326-.737-3.629 1.544-7.307 5.804-8.172 3.471-.705 6.944.679 7.68 4.308.742 3.652-1.494 7.321-5.777 8.19m-.721-3.092c1.871-.38 2.12-2.965 1.85-4.295-.293-1.443-1.188-2.27-2.338-2.036-1.871.379-2.111 3.01-1.85 4.295.293 1.442 1.211 2.265 2.338 2.036m6.757 1.515 3.033-7.258-3.159-4.921 4.441-.901 2.024 4.423.316-.064-.131-4.808 4.192-.851.131 4.808.339-.068 1.739-5.188 4.553-.925-2.927 6.391 3.278 5.742-4.53.92-2.045-4.983-.338.069.151 5.367-4.192.851-.151-5.367-.338.069-1.743 5.751zm26.495-17.583 4.485-.911.351 12.133-4.485.911-.14-4.736-3.359.682.14 4.735-4.485.911-.351-12.133 4.485-.91.111 4.014 3.359-.682zm14.201 9.673c-3.584.727-6.985-.765-7.708-4.326-.737-3.629 1.544-7.308 5.804-8.172 3.471-.705 6.944.678 7.681 4.307.741 3.652-1.495 7.321-5.777 8.191m-.722-3.093c1.871-.379 2.12-2.965 1.85-4.295-.293-1.442-1.188-2.27-2.338-2.036-1.87.38-2.111 3.01-1.85 4.295.293 1.442 1.211 2.265 2.338 2.036m14.027.039-.352-12.132 11.992-2.435.351 12.133-4.486.91-.251-8.75-3.02.614.251 8.75zm21.305-3.926c-3.696.75-6.935-.752-7.653-4.29-.755-3.719 1.665-7.403 5.587-8.199 3.066-.622 6.086.149 6.635 2.854.457 2.254-1.248 3.797-5.057 4.571-.811.164-1.722.302-2.728.436.54 1.158 1.746 1.429 3.075 1.159 1.195-.242 2.199-.845 3.005-1.501l2.222 2.506c-.891.931-2.877 2.015-5.086 2.464m-3.493-6.801a18 18 0 0 0 1.524-.239c1.375-.28 2.547-.752 2.373-1.609-.179-.879-.96-1.025-1.816-.851-1.217.247-1.954 1.359-2.081 2.699m10.444 9.684-.454-16.805 3.448-.7c.069.22.205.662.319 1.108.791-1.076 1.984-1.905 3.629-2.239 3.066-.622 5.547 1.08 6.183 4.213.746 3.674-1.015 7.599-4.667 8.341-1.623.329-3.013.072-4.088-.602l.139 5.769zm6.686-9.032c1.871-.379 2.116-2.987 1.851-4.295-.298-1.465-1.193-2.292-2.343-2.059-1.893.385-2.12 3.083-1.868 4.322.293 1.443 1.233 2.261 2.36 2.032m15.485.236c-3.697.751-6.935-.751-7.654-4.29-.755-3.719 1.666-7.402 5.588-8.198 3.065-.623 6.085.149 6.634 2.854.458 2.254-1.247 3.797-5.056 4.57-.812.165-1.723.303-2.728.436.54 1.158 1.745 1.43 3.075 1.16 1.195-.243 2.199-.846 3.004-1.502l2.222 2.506c-.89.932-2.876 2.016-5.085 2.464m-3.493-6.801a17 17 0 0 0 1.524-.239c1.375-.279 2.546-.752 2.372-1.608-.178-.879-.959-1.026-1.815-.852-1.218.247-1.954 1.359-2.081 2.699m17.833-8.713 4.486-.911.351 12.133-4.486.91-.14-4.735-3.358.681.14 4.736-4.486.911-.351-12.133 4.486-.91.111 4.014 3.358-.682zm14.165 9.727c-3.696.75-6.935-.751-7.653-4.29-.755-3.719 1.665-7.403 5.587-8.199 3.066-.622 6.086.149 6.635 2.854.457 2.254-1.248 3.797-5.057 4.571-.811.164-1.722.302-2.728.436.54 1.158 1.746 1.429 3.075 1.159 1.195-.242 2.199-.845 3.005-1.501l2.222 2.506c-.891.931-2.877 2.015-5.086 2.464m-3.493-6.801a18 18 0 0 0 1.524-.239c1.375-.279 2.547-.752 2.373-1.608-.179-.879-.96-1.026-1.816-.852-1.217.247-1.954 1.359-2.081 2.699m16.896 4.009c-3.696.751-6.507-.838-7.184-4.174-.741-3.651 1.151-7.392 4.983-8.17 2.142-.434 4.538-.076 6.076 1.606l-2.689 2.706c-.634-.928-1.312-1.259-2.281-1.063-1.398.284-1.92 2.103-1.563 3.861.302 1.488 1.196 1.964 2.121 1.776.834-.169 1.644-.803 2.124-1.675l2.925 2.269c-1.078 1.51-2.528 2.461-4.512 2.864m4.841-9.995-.123-3.495 10.346-2.101.123 3.496-2.953.599.251 8.633-4.485.911-.251-8.633zm12.046 6.238-.351-12.133 4.351-.883.16 5.647.158-.032 2.476-6.182 5.162-1.048.351 12.132-4.395.893-.197-7.095-.157.032-3.23 7.79zm25.399-4.781c-2.525.513-4.7.203-6.132-.492l1.307-3.504c1.677 1.091 2.822 1.07 3.656.901.789-.161 1.202-.784 1.074-1.415-.1-.496-.475-.725-1.264-.565l-1.263.256-.07-2.544.879-.178c.744-.151 1.379-.491 1.241-1.167-.082-.406-.552-.757-1.386-.587-.811.164-1.666.925-2.16 1.729l-2.42-2.442c1.142-1.077 2.673-2.092 4.656-2.495 2.457-.498 5.184.215 5.6 2.266.261 1.285-.493 2.424-1.781 3.249 1.264.33 2.141 1.184 2.379 2.357.463 2.276-1.882 4.137-4.316 4.631m18.009-3.75c-1.443.293-2.409.043-2.984-.709-.764.977-1.853 1.738-3.341 2.04-3.02.613-5.434-1.103-6.07-4.236-.746-3.674.948-7.585 4.531-8.313 1.668-.339 3.072-.013 4.126.782.039-.501.123-1.011.244-1.34l3.493-.71.179 7.005c.04 1.353.239 1.758 1.164 1.571.27-.055.491-.124.707-.214l.1 3.382c-.549.3-1.36.582-2.149.742m-6.091-8.269c-1.781.362-1.981 2.961-1.715 4.268.297 1.465 1.147 2.302 2.229 2.082 1.691-.343 1.85-3.028 1.598-4.267-.293-1.443-1.143-2.279-2.112-2.083m17.634-6.56 4.485-.911.351 12.133-4.485.91-.14-4.735-3.359.681.14 4.736-4.485.911-.351-12.133 4.485-.911.111 4.015 3.359-.682zm13.681 9.426-.086-3.315-.947.192-.135.027-1.897 3.718-4.531.92 2.593-4.915c-1.147-.448-2.024-1.302-2.29-2.61-.544-2.682 1.172-4.978 4.328-5.619l6.762-1.373.328 12.137zm-3.186-6.91c.151.744.865 1.138 1.766.955l1.262-.256-.057-2.828-1.285.261c-1.217.247-1.892.853-1.686 1.868m8.553-2.863-.123-3.496 10.346-2.1.123 3.495-2.953.6.25 8.632-4.485.911-.251-8.633zm12.046 6.238-.351-12.133 4.35-.883.161 5.647.157-.032 2.477-6.183 5.162-1.048.351 12.133-4.396.892-.196-7.094-.158.032-3.23 7.79zm21.636-3.994c-3.697.75-6.935-.751-7.654-4.29-.755-3.719 1.666-7.402 5.588-8.199 3.065-.622 6.085.15 6.634 2.854.458 2.254-1.247 3.798-5.057 4.571a41 41 0 0 1-2.727.436c.54 1.158 1.745 1.43 3.075 1.16 1.194-.243 2.199-.846 3.004-1.502l2.222 2.506c-.89.932-2.876 2.016-5.085 2.464m-3.493-6.801a17 17 0 0 0 1.524-.239c1.375-.279 2.546-.752 2.372-1.608-.178-.879-.959-1.026-1.816-.852-1.217.247-1.953 1.359-2.08 2.699m12.121-1.499c-.083-.523-.115-.798-.116-1.15.009-1.339.859-2.357 1.655-3.175.719-.733 1.381-1.29 1.37-1.804-.024-.465-.552-.756-1.31-.673-1.032.116-1.797.858-1.682 1.773l-3.825-.115c-.167-3.134 2.253-5.55 5.811-5.944 3.278-.384 5.596 1.211 5.662 3.732.045 1.258-.457 2.369-2.054 3.867-.77.72-1.877 1.508-1.901 2.545l-.004.212zm2.516 6.037c-1.442.293-2.635-.497-2.901-1.805-.302-1.487.79-2.929 2.278-3.231 1.397-.284 2.662.515 2.919 1.777.288 1.42-.695 2.934-2.296 3.259m-120.82 54.876.784-2.882 11.677 1.117-.784 2.882zm17.103 7.32 9.707-15.245 5.861.561.94 16.263-4.877-.466-.011-2.543-5.06-.484-1.408 2.407zm8.438-5.362 3.229.309-.156-4.89-.321-.03zm21.69 8.591c-3.64-.348-6.459-2.767-6.113-6.384.353-3.686 3.606-6.541 7.934-6.127 3.526.338 6.444 2.673 6.092 6.359-.355 3.71-3.563 6.568-7.913 6.152m.211-3.168c1.9.181 2.892-2.219 3.021-3.57.141-1.465-.475-2.518-1.643-2.629-1.9-.182-2.897 2.264-3.021 3.569-.141 1.465.498 2.52 1.643 2.63m8.798-4.866.901-3.379 10.509 1.005-.901 3.38-2.999-.287-2.276 8.331-4.556-.436 2.276-8.331zm9.706 9.478 3.2-11.709 5.151.493.475 5.66.138.013 3.44-5.285 5.151.492-3.199 11.709-4.259-.408 1.672-6.124-.138-.013-3.218 4.174-1.534-.147-.743-4.784-.138-.013-1.739 6.349zm23.694 2.659c-3.754-.359-6.415-2.739-6.071-6.334.361-3.778 3.75-6.596 7.734-6.215 3.114.298 5.778 1.916 5.515 4.664-.219 2.289-2.3 3.268-6.169 2.898a41 41 0 0 1-2.737-.377c.18 1.265 1.253 1.876 2.604 2.005 1.214.116 2.35-.168 3.312-.561l1.395 3.045c-1.123.632-3.339 1.09-5.583.875m-1.359-7.524c.499.094 1.023.168 1.527.216 1.397.133 2.655.023 2.738-.847.086-.893-.619-1.261-1.489-1.344-1.236-.119-2.264.73-2.776 1.975m19.598-3.139 4.556.436-3.199 11.709-4.556-.436 1.245-4.571-3.411-.327-1.246 4.572-4.556-.436 3.199-11.709 4.557.436-1.064 3.872 3.411.327zm3.702 12.369 3.199-11.709 4.419.423-1.492 5.449.16.015 4.171-5.192 5.243.501-3.2 11.709-4.464-.427 1.879-6.844-.16-.016-5.36 6.512zm16.297-6.99.901-3.379 10.509 1.005-.901 3.379-2.999-.286-2.276 8.331-4.556-.436 2.276-8.331zm9.683 9.475 3.222-11.706 4.579.438-.923 3.377 2.198.211c2.221.212 3.505 1.999 3.302 4.128-.23 2.404-1.961 4.549-5.693 4.192zm5.237-2.572 1.19.114c.756.072 1.412-.512 1.489-1.313.057-.595-.288-1.09-.815-1.141l-1.191-.114zm10.706-1.956c.073-.525.123-.797.224-1.134.4-1.279 1.509-2.004 2.509-2.556.902-.491 1.697-.831 1.837-1.326.112-.451-.309-.884-1.058-1.025-1.021-.19-1.969.297-2.125 1.206l-3.626-1.225c.754-3.047 3.772-4.653 7.29-3.993 3.248.588 5.002 2.789 4.33 5.22-.324 1.217-1.128 2.133-3.092 3.101-.946.464-2.235.895-2.56 1.881l-.066.201zm.648 6.508c-1.465-.14-2.376-1.244-2.249-2.572.145-1.511 1.609-2.572 3.12-2.428 1.42.136 2.397 1.269 2.275 2.552-.138 1.442-1.52 2.604-3.146 2.448"/></svg>