<svg xmlns="http://www.w3.org/2000/svg" width="610" height="379" fill="none" viewBox="0 0 610 379"><rect width="610" height="379" fill="#e8e6d3" rx="46"/><path fill="#de6a70" d="M97.654 39.1h3.2q.12.82.7 1.42t1.54.94q.96.32 2.24.32 1.84 0 2.92-.54 1.08-.56 1.08-1.52 0-.78-.62-1.18t-2.28-.6l-3.08-.36q-2.86-.34-4.14-1.38t-1.28-2.88q0-1.44.84-2.48.86-1.04 2.42-1.58 1.58-.56 3.66-.56t3.68.62q1.6.6 2.54 1.68.96 1.08 1.04 2.54h-3.2a1.9 1.9 0 0 0-.62-1.22q-.52-.52-1.4-.8-.88-.3-2.1-.3-1.7 0-2.7.52t-1 1.46q0 .7.58 1.1.6.38 2.12.58l3.18.4q2.06.26 3.26.74 1.2.46 1.72 1.28.54.82.54 2.06 0 1.5-.9 2.62-.9 1.1-2.54 1.72-1.62.6-3.78.6-2.22 0-3.92-.64-1.68-.66-2.66-1.82a4.6 4.6 0 0 1-1.04-2.74m23.228 5.2q-2 0-3.58-.76-1.56-.76-2.46-2.1-.9-1.36-.9-3.14t.84-3.1q.86-1.34 2.36-2.1t3.44-.76 3.34.88q1.42.86 2.18 2.42.78 1.56.78 3.68h-10.48v-2.14h8.86l-1.32.78q-.06-1.04-.5-1.76a3.07 3.07 0 0 0-1.16-1.14q-.72-.4-1.72-.4-1.06 0-1.84.44a3.06 3.06 0 0 0-1.22 1.18q-.44.76-.44 1.8 0 1.2.54 2.08.561.86 1.56 1.32 1.02.46 2.44.46 1.3 0 2.62-.38a9.1 9.1 0 0 0 2.36-1.08v2.12q-1.1.8-2.6 1.26-1.48.44-3.1.44m8.016-15.7h3.1V44h-3.1zm12.963 2.06q-1.42 0-2.08.58-.64.56-.64 1.84V44h-3.1V33.32q0-1.54.58-2.66.6-1.12 1.8-1.74 1.221-.62 3.06-.62.88 0 1.54.14.68.14 1.36.36v2.36a5.4 5.4 0 0 0-1.22-.38 7 7 0 0 0-1.3-.12m-8.2 5.16v-2.34h10.48v2.34zm11.854-.08h4.86v2.5h-4.86zm6.768 3.36h3.2q.12.82.7 1.42t1.54.94q.96.32 2.24.32 1.84 0 2.92-.54 1.08-.56 1.08-1.52 0-.78-.62-1.18t-2.28-.6l-3.08-.36q-2.86-.34-4.14-1.38t-1.28-2.88q0-1.44.84-2.48.86-1.04 2.42-1.58 1.58-.56 3.66-.56t3.68.62q1.6.6 2.54 1.68.96 1.08 1.04 2.54h-3.2a1.9 1.9 0 0 0-.62-1.22q-.52-.52-1.4-.8-.88-.3-2.1-.3-1.7 0-2.7.52t-1 1.46q0 .7.58 1.1.6.38 2.12.58l3.18.4q2.06.26 3.26.74 1.2.46 1.72 1.28.54.82.54 2.06 0 1.5-.9 2.62-.9 1.1-2.54 1.72-1.62.6-3.78.6-2.22 0-3.92-.64-1.68-.66-2.66-1.82a4.6 4.6 0 0 1-1.04-2.74m29.748.32a4.8 4.8 0 0 1-1.1 2.54q-.92 1.1-2.36 1.72t-3.22.62q-2.02 0-3.54-.76t-2.38-2.1-.86-3.12q0-1.76.86-3.1.86-1.36 2.38-2.12t3.54-.76q1.78 0 3.22.62t2.36 1.72 1.1 2.56h-3.1q-.26-1.2-1.24-1.86-.96-.66-2.34-.66-1.1 0-1.94.44-.82.42-1.28 1.22-.44.8-.44 1.94 0 1.12.44 1.94.46.8 1.28 1.24.84.42 1.94.42 1.4 0 2.36-.68.98-.68 1.22-1.82zm1.886-10.82h3.1V44h-3.1zm7.48 3.74q1.62 0 2.74.66 1.14.64 1.74 1.84.6 1.18.6 2.86V44h-3.1v-5.82q0-1.62-.78-2.44-.759-.84-2.22-.84-1.02 0-1.78.44a3 3 0 0 0-1.18 1.26q-.4.8-.4 1.88l-1.04-.54q.2-1.78.94-3.02.76-1.26 1.92-1.92a5.1 5.1 0 0 1 2.56-.66m13.86 11.96q-2 0-3.58-.76-1.56-.76-2.46-2.1-.9-1.36-.9-3.14t.84-3.1q.86-1.34 2.36-2.1t3.44-.76 3.34.88q1.42.86 2.18 2.42.78 1.56.78 3.68h-10.48v-2.14h8.86l-1.32.78q-.06-1.04-.5-1.76a3.07 3.07 0 0 0-1.16-1.14q-.72-.4-1.72-.4-1.06 0-1.84.44a3.06 3.06 0 0 0-1.22 1.18q-.44.76-.44 1.8 0 1.2.54 2.08.561.86 1.56 1.32 1.02.46 2.44.46 1.3 0 2.62-.38a9.1 9.1 0 0 0 2.36-1.08v2.12q-1.1.8-2.6 1.26-1.48.44-3.1.44m21.296-15.7V44h-3.08v-3.56l.44-.88V37.2l-.44-.84V28.6zm-1.96 9.72q-.34 1.8-1.2 3.14a6.4 6.4 0 0 1-2.16 2.1q-1.28.74-2.86.74-1.68 0-2.96-.74a5.37 5.37 0 0 1-1.98-2.1q-.72-1.36-.72-3.14t.72-3.12a5.37 5.37 0 0 1 1.98-2.1q1.28-.76 2.96-.76 1.58 0 2.86.76 1.299.74 2.16 2.08.86 1.32 1.2 3.14m-8.74 0q0 1.04.42 1.84a3.35 3.35 0 0 0 1.18 1.26q.759.44 1.74.44.98 0 1.84-.44a4.8 4.8 0 0 0 1.52-1.26 6.2 6.2 0 0 0 1.04-1.84 6.2 6.2 0 0 0-1.04-1.84 4.5 4.5 0 0 0-1.52-1.24 3.85 3.85 0 0 0-1.84-.46q-.981 0-1.74.46a3.2 3.2 0 0 0-1.18 1.24q-.42.8-.42 1.84m18.235 5.98q-1.58 0-2.68-.64a4.4 4.4 0 0 1-1.7-1.86q-.58-1.2-.58-2.86v-6.3h3.1v5.84q0 1.6.74 2.44.74.82 2.14.82 1.02 0 1.74-.42.72-.44 1.12-1.26t.4-1.9l1.02.54q-.18 1.78-.92 3.04-.72 1.24-1.86 1.9t-2.52.66m4.28-.3V32.64h3.1V44zm5.862-15.4h3.1V44h-3.1zm5.683 3.94h3.1V44h-3.1zm1.54-1.26q-.86 0-1.4-.44-.54-.46-.54-1.22 0-.74.54-1.18.54-.46 1.4-.46.861 0 1.38.46.54.44.54 1.18 0 .76-.54 1.22-.519.44-1.38.44m4.304 1.36h3.1V44h-3.1zm7.5-.3q1.6 0 2.74.66a4.1 4.1 0 0 1 1.72 1.84q.6 1.18.6 2.86V44h-3.08v-5.82q0-1.62-.78-2.44-.76-.84-2.24-.84-1.02 0-1.78.44t-1.18 1.26q-.4.8-.4 1.88l-1.04-.54q.2-1.78.94-3.02.76-1.26 1.92-1.92t2.58-.66m17.676 8.84V39.2l.1-.4v-2.38l-.1-.4v-3.38h3.08v8.34q0 2.14-.94 3.62t-2.6 2.24q-1.64.76-3.82.76-1.54 0-2.84-.42a10.2 10.2 0 0 1-2.54-1.2V43.5q1.22.96 2.54 1.34 1.32.4 2.66.4 2.16 0 3.3-1.02 1.16-1.02 1.16-3.04m-5.26 1.84q-1.58 0-2.84-.66a5.1 5.1 0 0 1-1.96-1.88q-.72-1.2-.72-2.8 0-1.62.72-2.8.72-1.2 1.96-1.86 1.26-.68 2.84-.68 1.16 0 2.16.38 1 .36 1.78.96.78.58 1.32 1.3.56.7.84 1.42.3.72.3 1.3 0 .78-.46 1.7-.44.92-1.28 1.74t-2.02 1.36q-1.18.52-2.64.52m.98-2.22q1.34 0 2.44-.74 1.1-.76 1.94-2.38-.84-1.66-1.94-2.4a4.3 4.3 0 0 0-2.44-.74q-1.06 0-1.82.4-.76.38-1.16 1.1-.4.7-.4 1.64 0 .92.4 1.64.4.7 1.16 1.1.76.38 1.82.38M312.77 29v15h-2.98V30.02l.84.06-6.6 13.92h-3.28l-6.58-13.88.84-.06V44h-3V29h4.84l6.26 13.54h-1.4L307.95 29zm2.905 3.54h3.1V44h-3.1zm1.54-1.26q-.86 0-1.4-.44-.54-.46-.54-1.22 0-.74.54-1.18.54-.46 1.4-.46t1.38.46q.54.44.54 1.18 0 .76-.54 1.22-.52.44-1.38.44m14.324 9.9V39.2l.1-.4v-2.38l-.1-.4v-3.38h3.08v8.34q0 2.14-.94 3.62t-2.6 2.24q-1.64.76-3.82.76-1.54 0-2.84-.42a10.2 10.2 0 0 1-2.54-1.2V43.5q1.22.96 2.54 1.34 1.32.4 2.66.4 2.16 0 3.3-1.02 1.16-1.02 1.16-3.04m-5.26 1.84q-1.58 0-2.84-.66a5.1 5.1 0 0 1-1.96-1.88q-.72-1.2-.72-2.8 0-1.62.72-2.8.72-1.2 1.96-1.86 1.26-.68 2.84-.68 1.16 0 2.16.38 1 .36 1.78.96.78.58 1.32 1.3.56.7.84 1.42.3.72.3 1.3 0 .78-.46 1.7-.44.92-1.28 1.74a7.1 7.1 0 0 1-2.02 1.36q-1.18.52-2.64.52m.98-2.22q1.34 0 2.44-.74 1.1-.76 1.94-2.38-.84-1.66-1.94-2.4a4.3 4.3 0 0 0-2.44-.74q-1.06 0-1.82.4a2.64 2.64 0 0 0-1.16 1.1q-.4.7-.4 1.64 0 .92.4 1.64.4.7 1.16 1.1.76.38 1.82.38m10.06-8.16h3.1V44h-3.1zm8.7-.1v2.68a8 8 0 0 0-1.02-.18 8 8 0 0 0-.96-.06q-1.04 0-1.86.44t-1.3 1.34q-.46.9-.46 2.26l-.66-.82q.1-1.2.42-2.26.34-1.08.9-1.88.58-.8 1.42-1.26.86-.46 2.02-.46.381 0 .78.06.4.04.72.14m10.139 5.06q0-1.34-.96-2.08-.96-.76-2.98-.76-1.14 0-2.34.28t-2.28.88V33.6q1.26-.66 2.56-.96t2.76-.3q1.92 0 3.32.6 1.4.58 2.18 1.74.8 1.14.8 2.82V44h-3.04zm-4.6-.92q2.54-.08 3.94.36 1.42.44 1.56.7.14.24.14 2.74 0 .48-.4 1.14t-1.14 1.28q-.74.6-1.78 1t-2.32.4q-1.4 0-2.52-.46-1.1-.46-1.74-1.32t-.64-2.02q0-1.18.64-2.02.66-.86 1.76-1.3 1.12-.46 2.5-.5m1.7 2.04q-2.08 0-2.86.46t-.78 1.22q0 .74.76 1.22.78.46 2.14.46 1.6 0 2.62-.88 1.02-.9 1.02-2.06-.82-.42-2.9-.42m7.174-3.74V33.6l2.4-.72 1.3-3.24h1.78v3h5.12v2.34h-5.12v4.4q0 1.36.58 1.9t1.94.54q.86 0 1.52-.16.68-.18 1.28-.5v2.44q-.56.26-1.52.48t-1.96.22q-1.74 0-2.84-.56-1.08-.56-1.58-1.56-.5-1.02-.5-2.36v-4.84zm12.626-2.44h3.1V44h-3.1zm1.54-1.26q-.86 0-1.4-.44-.54-.46-.54-1.22 0-.74.54-1.18.54-.46 1.4-.46t1.38.46q.54.44.54 1.18 0 .76-.54 1.22-.52.44-1.38.44m10.583 13.02q-2.12 0-3.7-.74-1.58-.76-2.46-2.1-.88-1.36-.88-3.14t.88-3.12 2.46-2.1 3.7-.76q2.1 0 3.68.76t2.46 2.1q.9 1.34.9 3.12t-.9 3.14q-.879 1.34-2.46 2.1-1.58.74-3.68.74m0-2.38q1.2 0 2.06-.44a3.23 3.23 0 0 0 1.36-1.24q.48-.8.48-1.92t-.48-1.92a3.23 3.23 0 0 0-1.36-1.24q-.86-.44-2.06-.44t-2.08.44a3.23 3.23 0 0 0-1.36 1.24q-.48.8-.48 1.92t.48 1.92 1.36 1.24 2.08.44m9.189-9.28h3.1V44h-3.1zm7.5-.3q1.6 0 2.74.66a4.1 4.1 0 0 1 1.72 1.84q.6 1.18.6 2.86V44h-3.08v-5.82q0-1.62-.78-2.44-.76-.84-2.24-.84-1.02 0-1.78.44t-1.18 1.26q-.4.8-.4 1.88l-1.04-.54q.2-1.78.94-3.02.76-1.26 1.92-1.92t2.58-.66m15.132 3.36h5.9q1.2 0 1.9-.56t.7-1.52q0-.98-.7-1.52-.7-.56-1.9-.56h-6.34l1.4-1.64V44h-3.14V29h8.42q1.64 0 2.86.58t1.9 1.62q.68 1.02.68 2.42 0 1.36-.68 2.4-.68 1.02-1.9 1.6t-2.86.58h-6.24zm2.72 1.28h3.62l5.78 7.02h-3.72zm19.795.62q0-1.34-.96-2.08-.96-.76-2.98-.76-1.14 0-2.34.28t-2.28.88V33.6q1.26-.66 2.56-.96t2.76-.3q1.92 0 3.32.6 1.4.58 2.18 1.74.8 1.14.8 2.82V44h-3.04zm-4.6-.92q2.54-.08 3.94.36 1.42.44 1.56.7.14.24.14 2.74 0 .48-.4 1.14-.399.66-1.14 1.28-.74.6-1.78 1t-2.32.4q-1.4 0-2.52-.46-1.1-.46-1.74-1.32t-.64-2.02q0-1.18.64-2.02.66-.86 1.76-1.3 1.12-.46 2.5-.5m1.7 2.04q-2.08 0-2.86.46t-.78 1.22q0 .74.76 1.22.78.46 2.14.46 1.6 0 2.62-.88 1.02-.9 1.02-2.06-.82-.42-2.9-.42m7.174-3.74V33.6l2.4-.72 1.3-3.24h1.78v3h5.12v2.34h-5.12v4.4q0 1.36.58 1.9t1.94.54a6.5 6.5 0 0 0 1.52-.16q.68-.18 1.28-.5v2.44q-.56.26-1.52.48t-1.96.22q-1.74 0-2.84-.56-1.08-.56-1.58-1.56-.5-1.02-.5-2.36v-4.84zm18.595 9.32q-2 0-3.58-.76-1.56-.76-2.46-2.1-.9-1.36-.9-3.14t.84-3.1q.86-1.34 2.36-2.1t3.44-.76 3.34.88q1.42.86 2.18 2.42.78 1.56.78 3.68h-10.48v-2.14h8.86l-1.32.78q-.06-1.04-.5-1.76a3.07 3.07 0 0 0-1.16-1.14q-.72-.4-1.72-.4-1.06 0-1.84.44-.78.42-1.22 1.18t-.44 1.8q0 1.2.54 2.08.56.86 1.56 1.32 1.02.46 2.44.46 1.3 0 2.62-.38a9.1 9.1 0 0 0 2.36-1.08v2.12q-1.1.8-2.6 1.26-1.48.44-3.1.44M478.357 29h2.46q-1.299 2.22-1.92 4.32a14.7 14.7 0 0 0-.62 4.22q0 2.1.62 4.2.621 2.1 1.92 4.34h-2.46q-1.64-2.06-2.46-4.16a12 12 0 0 1-.82-4.38q0-2.28.82-4.38t2.46-4.16m8.472 8.68q-1.48 0-2.62-.56t-1.78-1.56q-.62-1-.62-2.32t.62-2.3q.64-1 1.78-1.56t2.62-.56q1.5 0 2.62.56a4.35 4.35 0 0 1 1.76 1.56q.64.98.64 2.3t-.64 2.32a4.35 4.35 0 0 1-1.76 1.56q-1.12.56-2.62.56m0-1.9q1.18 0 1.86-.66.68-.68.68-1.88 0-1.16-.68-1.84-.68-.7-1.86-.7t-1.86.7q-.68.68-.68 1.84 0 1.2.68 1.88.68.66 1.86.66m13.72 8.5q-1.48 0-2.62-.56a4.35 4.35 0 0 1-1.76-1.56q-.64-1-.64-2.32t.64-2.3a4.35 4.35 0 0 1 1.76-1.56q1.14-.56 2.62-.56 1.5 0 2.62.56a4.35 4.35 0 0 1 1.76 1.56q.64.98.64 2.3t-.64 2.32a4.35 4.35 0 0 1-1.76 1.56q-1.12.56-2.62.56m0-1.9q1.18 0 1.86-.68t.68-1.86-.68-1.86-1.86-.68-1.86.68-.68 1.86.68 1.86 1.86.68M496.589 29h2.36l-8.14 15h-2.36zm12.425 0q1.64 2.06 2.44 4.16.82 2.1.82 4.38t-.82 4.38q-.8 2.1-2.44 4.16h-2.48q1.32-2.24 1.94-4.34t.62-4.2q0-2.14-.62-4.22-.62-2.1-1.94-4.32z"/><rect width="562" height="286" x="24" y="69" fill="#fefefe" rx="30"/><path fill="#fafafa" d="M84.8 110h457v189h-457z"/><path stroke="#dbdee4" d="M84 300.5h456"/><path stroke="#de6a70" stroke-dasharray="8 6" d="M84 236.5h457.629M84 173.5h457.629M84 110.5h457.629" opacity=".3"/><path stroke="#54555a" d="M84 300.5h456M84.3 300v5m114-5v5m114-5v5m114-5v5m114-5v5"/><path fill="#111" d="M60.405 240.666v-1.056c1.452-.948 4.212-2.976 4.212-4.872 0-.864-.564-1.44-1.416-1.44-.864 0-1.476.588-1.692 1.752l-1.164-.3c.252-1.644 1.344-2.616 2.868-2.616 1.548 0 2.664.996 2.664 2.508 0 2.004-2.016 3.804-3.564 4.896h3.792v1.128zm9.839.12c-1.968 0-3.216-1.68-3.216-4.32s1.248-4.32 3.216-4.32c1.98 0 3.228 1.68 3.228 4.32s-1.248 4.32-3.228 4.32m0-1.164c1.248 0 1.944-1.152 1.944-3.156s-.696-3.156-1.944-3.156c-1.236 0-1.932 1.152-1.932 3.156s.696 3.156 1.932 3.156m-6.398-62.288v-1.656h-4.032v-1.044l3.432-5.7h1.812v5.652h1.116v1.092h-1.116v1.656zm-2.748-2.748h2.748v-4.488h-.096l-2.652 4.38zm9.146 2.868c-1.968 0-3.216-1.68-3.216-4.32s1.248-4.32 3.216-4.32c1.98 0 3.228 1.68 3.228 4.32s-1.248 4.32-3.228 4.32m0-1.164c1.248 0 1.944-1.152 1.944-3.156s-.696-3.156-1.944-3.156c-1.236 0-1.932 1.152-1.932 3.156s.696 3.156 1.932 3.156m-4.527-68.83-1.164.312c-.3-.78-.828-1.164-1.572-1.164-1.656 0-2.076 1.8-2.076 3.132.504-.804 1.416-1.2 2.316-1.2 1.428 0 2.76.96 2.76 2.712 0 1.704-1.248 2.868-3.072 2.868-2.064 0-3.24-1.5-3.24-4.212 0-2.772 1.224-4.428 3.276-4.428 1.356 0 2.376.732 2.772 1.98m-4.692 3.792c.24 1.128.864 1.716 1.86 1.716 1.092 0 1.836-.72 1.836-1.752 0-.996-.672-1.62-1.668-1.62-.876 0-1.8.48-2.016 1.344-.012.096-.012.204-.012.312m9.219 2.868c-1.968 0-3.216-1.68-3.216-4.32s1.248-4.32 3.216-4.32c1.98 0 3.228 1.68 3.228 4.32s-1.248 4.32-3.228 4.32m0-1.164c1.248 0 1.944-1.152 1.944-3.156s-.696-3.156-1.944-3.156c-1.236 0-1.932 1.152-1.932 3.156s.696 3.156 1.932 3.156M72.304 325v-1.056c1.452-.948 4.212-2.976 4.212-4.872 0-.864-.564-1.44-1.416-1.44-.864 0-1.476.588-1.692 1.752l-1.164-.3c.252-1.644 1.344-2.616 2.868-2.616 1.548 0 2.664.996 2.664 2.508 0 2.004-2.016 3.804-3.564 4.896h3.792V325zm9.838.12c-1.968 0-3.216-1.68-3.216-4.32s1.248-4.32 3.216-4.32c1.98 0 3.228 1.68 3.228 4.32s-1.248 4.32-3.228 4.32m0-1.164c1.248 0 1.944-1.152 1.944-3.156s-.696-3.156-1.944-3.156c-1.236 0-1.932 1.152-1.932 3.156s.696 3.156 1.932 3.156M86.354 325v-1.056c1.452-.948 4.212-2.976 4.212-4.872 0-.864-.564-1.44-1.416-1.44-.864 0-1.476.588-1.692 1.752l-1.164-.3c.252-1.644 1.344-2.616 2.868-2.616 1.548 0 2.664.996 2.664 2.508 0 2.004-2.016 3.804-3.564 4.896h3.792V325zm6.551 0v-1.056c1.452-.948 4.212-2.976 4.212-4.872 0-.864-.564-1.44-1.416-1.44-.864 0-1.476.588-1.692 1.752l-1.164-.3c.252-1.644 1.344-2.616 2.868-2.616 1.548 0 2.664.996 2.664 2.508 0 2.004-2.016 3.804-3.564 4.896h3.792V325zm92.86 0v-1.056c1.452-.948 4.212-2.976 4.212-4.872 0-.864-.564-1.44-1.416-1.44-.864 0-1.476.588-1.692 1.752l-1.164-.3c.252-1.644 1.344-2.616 2.868-2.616 1.548 0 2.664.996 2.664 2.508 0 2.004-2.016 3.804-3.564 4.896h3.792V325zm9.838.12c-1.968 0-3.216-1.68-3.216-4.32s1.248-4.32 3.216-4.32c1.98 0 3.228 1.68 3.228 4.32s-1.248 4.32-3.228 4.32m0-1.164c1.248 0 1.944-1.152 1.944-3.156s-.696-3.156-1.944-3.156c-1.236 0-1.932 1.152-1.932 3.156s.696 3.156 1.932 3.156m4.212 1.044v-1.056c1.452-.948 4.212-2.976 4.212-4.872 0-.864-.564-1.44-1.416-1.44-.864 0-1.476.588-1.692 1.752l-1.164-.3c.252-1.644 1.344-2.616 2.868-2.616 1.548 0 2.664.996 2.664 2.508 0 2.004-2.016 3.804-3.564 4.896h3.792V325zm9.479.108c-1.452 0-2.628-.744-2.976-2.016l1.14-.312c.312.78.924 1.176 1.86 1.176 1.116 0 1.8-.708 1.8-1.776 0-.996-.612-1.584-1.656-1.584-.432 0-.852.096-1.164.288l-.432-.768 2.532-2.376h-3.672v-1.14h5.208v1.032l-2.16 2.016h.156c1.404 0 2.46 1.008 2.46 2.58 0 1.752-1.284 2.88-3.096 2.88m90.658-.108v-1.056c1.452-.948 4.212-2.976 4.212-4.872 0-.864-.564-1.44-1.416-1.44-.864 0-1.476.588-1.692 1.752l-1.164-.3c.252-1.644 1.344-2.616 2.868-2.616 1.548 0 2.664.996 2.664 2.508 0 2.004-2.016 3.804-3.564 4.896h3.792V325zm9.839.12c-1.968 0-3.216-1.68-3.216-4.32s1.248-4.32 3.216-4.32c1.98 0 3.228 1.68 3.228 4.32s-1.248 4.32-3.228 4.32m0-1.164c1.248 0 1.944-1.152 1.944-3.156s-.696-3.156-1.944-3.156c-1.236 0-1.932 1.152-1.932 3.156s.696 3.156 1.932 3.156m4.212 1.044v-1.056c1.452-.948 4.212-2.976 4.212-4.872 0-.864-.564-1.44-1.416-1.44-.864 0-1.476.588-1.692 1.752l-1.164-.3c.252-1.644 1.344-2.616 2.868-2.616 1.548 0 2.664.996 2.664 2.508 0 2.004-2.016 3.804-3.564 4.896h3.792V325zm10.343 0v-1.656h-4.032V322.3l3.432-5.7h1.812v5.652h1.116v1.092h-1.116V325zm-2.748-2.748h2.748v-4.488h-.096l-2.652 4.38zM413.929 325v-1.056c1.452-.948 4.212-2.976 4.212-4.872 0-.864-.564-1.44-1.416-1.44-.864 0-1.476.588-1.692 1.752l-1.164-.3c.252-1.644 1.344-2.616 2.868-2.616 1.548 0 2.664.996 2.664 2.508 0 2.004-2.016 3.804-3.564 4.896h3.792V325zm9.838.12c-1.968 0-3.216-1.68-3.216-4.32s1.248-4.32 3.216-4.32c1.98 0 3.228 1.68 3.228 4.32s-1.248 4.32-3.228 4.32m0-1.164c1.248 0 1.944-1.152 1.944-3.156s-.696-3.156-1.944-3.156c-1.236 0-1.932 1.152-1.932 3.156s.696 3.156 1.932 3.156m4.212 1.044v-1.056c1.452-.948 4.212-2.976 4.212-4.872 0-.864-.564-1.44-1.416-1.44-.864 0-1.476.588-1.692 1.752l-1.164-.3c.252-1.644 1.344-2.616 2.868-2.616 1.548 0 2.664.996 2.664 2.508 0 2.004-2.016 3.804-3.564 4.896h3.792V325zm9.539.108c-1.452 0-2.616-.72-2.988-2.016l1.164-.312c.3.792.96 1.176 1.836 1.176 1.2 0 1.812-.708 1.812-1.752 0-1.056-.636-1.632-1.632-1.632-.708 0-1.32.288-1.788.768l-1.032-.312.468-4.428h4.692v1.14h-3.684l-.264 2.376c.528-.384 1.14-.6 1.86-.6 1.596 0 2.64 1.008 2.64 2.64 0 1.74-1.212 2.952-3.084 2.952m89.977-.108v-1.056c1.452-.948 4.212-2.976 4.212-4.872 0-.864-.564-1.44-1.416-1.44-.864 0-1.476.588-1.692 1.752l-1.164-.3c.252-1.644 1.344-2.616 2.868-2.616 1.548 0 2.664.996 2.664 2.508 0 2.004-2.016 3.804-3.564 4.896h3.792V325zm9.839.12c-1.968 0-3.216-1.68-3.216-4.32s1.248-4.32 3.216-4.32c1.98 0 3.228 1.68 3.228 4.32s-1.248 4.32-3.228 4.32m0-1.164c1.248 0 1.944-1.152 1.944-3.156s-.696-3.156-1.944-3.156c-1.236 0-1.932 1.152-1.932 3.156s.696 3.156 1.932 3.156m4.212 1.044v-1.056c1.452-.948 4.212-2.976 4.212-4.872 0-.864-.564-1.44-1.416-1.44-.864 0-1.476.588-1.692 1.752l-1.164-.3c.252-1.644 1.344-2.616 2.868-2.616 1.548 0 2.664.996 2.664 2.508 0 2.004-2.016 3.804-3.564 4.896h3.792V325zm12.671-6.54-1.164.312c-.3-.78-.828-1.164-1.572-1.164-1.656 0-2.076 1.8-2.076 3.132.504-.804 1.416-1.2 2.316-1.2 1.428 0 2.76.96 2.76 2.712 0 1.704-1.248 2.868-3.072 2.868-2.064 0-3.24-1.5-3.24-4.212 0-2.772 1.224-4.428 3.276-4.428 1.356 0 2.376.732 2.772 1.98m-4.692 3.792c.24 1.128.864 1.716 1.86 1.716 1.092 0 1.836-.72 1.836-1.752 0-.996-.672-1.62-1.668-1.62-.876 0-1.8.48-2.016 1.344-.012.096-.012.204-.012.312"/><path stroke="#de6a70" stroke-linejoin="bevel" stroke-width="2" d="m84 256.933 114-11.083 114-28.817L426 146.1l114-24.383"/><path fill="#fafafa" stroke="#de6a70" stroke-width="2" d="M87 256.934a3 3 0 1 1-6.002-.002 3 3 0 0 1 6.002.002Zm114-11.084a3 3 0 1 1-6-.001 3 3 0 0 1 6 .001Zm114-28.817a3 3 0 1 1-6 0 3 3 0 0 1 6 0ZM429 146.1a3 3 0 1 1-6-.001 3 3 0 0 1 6 .001Zm114-24.383c0 .796-.316 1.559-.879 2.121a2.996 2.996 0 0 1-4.242 0 3 3 0 1 1 5.121-2.121Z"/><path fill="#111" d="M470.203 105v-8.4h2.472c1.716 0 2.88.948 2.88 2.544v.192c0 1.608-1.128 2.58-2.856 2.58h-1.536V105zm.96-3.996h1.512c1.188 0 1.872-.576 1.872-1.656v-.192c0-1.068-.696-1.644-1.872-1.644h-1.512zm8.035 4.068c-1.74 0-2.916-1.212-2.916-3v-.228c0-1.884 1.176-3.156 2.928-3.156h.096c1.608 0 2.676 1.164 2.676 2.916v.672h-4.752c.084 1.152.864 1.908 2.016 1.908h.12c.852 0 1.404-.408 1.752-.936l.708.468c-.588.876-1.428 1.356-2.532 1.356zm-1.956-3.636h3.864c-.06-1.116-.78-1.86-1.836-1.86h-.12c-1.056 0-1.764.72-1.908 1.86m7.913 3.66c-1.212 0-2.052-.732-2.052-1.848v-.084c0-1.344 1.176-2.004 3.576-2.004h.576v-.432c0-.732-.516-1.176-1.404-1.176h-.072c-.66 0-1.392.252-1.92.672l-.444-.732c.756-.516 1.548-.84 2.424-.84h.072c1.392 0 2.232.78 2.232 2.004v3.324c0 .336.108.756.216 1.02h-.912c-.072-.18-.132-.504-.168-.768-.636.564-1.368.864-2.124.864m.048-.888c.84 0 1.56-.384 2.052-.972v-1.248h-.396c-2.016 0-2.844.336-2.844 1.164v.06c0 .612.48.996 1.188.996m4.93.792v-8.64h.888v5.124h.048l2.76-2.724h1.128l-2.964 2.916 3.144 3.324h-1.212l-2.844-3.084h-.06V105zm11.281 0-2.736-8.4h1.02l2.304 7.26h.096l2.28-7.26h1.02l-2.736 8.4zm6.135.096c-1.212 0-2.052-.732-2.052-1.848v-.084c0-1.344 1.176-2.004 3.576-2.004h.576v-.432c0-.732-.516-1.176-1.404-1.176h-.072c-.66 0-1.392.252-1.92.672l-.444-.732c.756-.516 1.548-.84 2.424-.84h.072c1.392 0 2.232.78 2.232 2.004v3.324c0 .336.108.756.216 1.02h-.912c-.072-.18-.132-.504-.168-.768-.636.564-1.368.864-2.124.864m.048-.888c.84 0 1.56-.384 2.052-.972v-1.248h-.396c-2.016 0-2.844.336-2.844 1.164v.06c0 .612.48.996 1.188.996m4.93.792v-8.64h.888V105zm4.91.096c-1.404 0-2.1-.828-2.1-2.34V98.76h.888v3.84c0 1.02.408 1.608 1.356 1.608h.096c1.128 0 1.92-.732 1.92-1.932V98.76h.888V105h-.696a4 4 0 0 1-.18-.84c-.504.588-1.236.936-2.088.936zm7.534-.024c-1.74 0-2.916-1.212-2.916-3v-.228c0-1.884 1.176-3.156 2.928-3.156h.096c1.608 0 2.676 1.164 2.676 2.916v.672h-4.752c.084 1.152.864 1.908 2.016 1.908h.12c.852 0 1.404-.408 1.752-.936l.708.468c-.588.876-1.428 1.356-2.532 1.356zm-1.956-3.636h3.864c-.06-1.116-.78-1.86-1.836-1.86h-.12c-1.056 0-1.764.72-1.908 1.86m-37.829 21.672c-1.452 0-2.616-.72-2.988-2.016l1.164-.312c.3.792.96 1.176 1.836 1.176 1.2 0 1.812-.708 1.812-1.752 0-1.056-.636-1.632-1.632-1.632-.708 0-1.32.288-1.788.768l-1.032-.312.468-4.428h4.692v1.14h-3.684l-.264 2.376c.528-.384 1.14-.6 1.86-.6 1.596 0 2.64 1.008 2.64 2.64 0 1.74-1.212 2.952-3.084 2.952m10.057-6.648-1.164.312c-.3-.78-.828-1.164-1.572-1.164-1.656 0-2.076 1.8-2.076 3.132.504-.804 1.416-1.2 2.316-1.2 1.428 0 2.76.96 2.76 2.712 0 1.704-1.248 2.868-3.072 2.868-2.064 0-3.24-1.5-3.24-4.212 0-2.772 1.224-4.428 3.276-4.428 1.356 0 2.376.732 2.772 1.98m-4.692 3.792c.24 1.128.864 1.716 1.86 1.716 1.092 0 1.836-.72 1.836-1.752 0-.996-.672-1.62-1.668-1.62-.876 0-1.8.48-2.016 1.344-.012.096-.012.204-.012.312m6.82 2.868c-.444 0-.804-.336-.804-.756v-.048c0-.408.36-.744.804-.744.432 0 .804.336.804.744v.048c0 .42-.372.756-.804.756m4.723-.012c-1.452 0-2.628-.744-2.976-2.016l1.14-.312c.312.78.924 1.176 1.86 1.176 1.116 0 1.8-.708 1.8-1.776 0-.996-.612-1.584-1.656-1.584-.432 0-.852.096-1.164.288l-.432-.768 2.532-2.376h-3.672v-1.14h5.208v1.032l-2.16 2.016h.156c1.404 0 2.46 1.008 2.46 2.58 0 1.752-1.284 2.88-3.096 2.88m6.13-4.14c-1.14 0-1.896-.864-1.896-2.124v-.216c0-1.26.756-2.124 1.896-2.124h.084c1.14 0 1.896.864 1.896 2.124v.216c0 1.26-.756 2.124-1.896 2.124zM506.808 123l6.336-8.412h1.404L508.212 123zm1.44-5.028h.036c.528 0 .876-.456.876-1.152v-.168c0-.696-.348-1.152-.876-1.152h-.036c-.528 0-.876.456-.876 1.152v.168c0 .696.348 1.152.876 1.152m4.788 5.124c-1.128 0-1.884-.864-1.884-2.124v-.216c0-1.26.756-2.124 1.884-2.124h.096c1.128 0 1.896.864 1.896 2.124v.216c0 1.26-.768 2.124-1.896 2.124zm.036-.996h.024c.528 0 .888-.456.888-1.152v-.168c0-.696-.36-1.152-.888-1.152h-.024c-.528 0-.888.456-.888 1.152v.168c0 .696.36 1.152.888 1.152M121.394 213l-1.812-8.4h1.008l1.488 7.332h.048l1.932-7.332h.924l1.932 7.332h.048l1.608-7.332h1.008l-1.932 8.4h-1.32l-1.776-6.66h-.048l-1.788 6.66zm10.686.096c-1.212 0-2.052-.732-2.052-1.848v-.084c0-1.344 1.176-2.004 3.576-2.004h.576v-.432c0-.732-.516-1.176-1.404-1.176h-.072c-.66 0-1.392.252-1.92.672l-.444-.732c.756-.516 1.548-.84 2.424-.84h.072c1.392 0 2.232.78 2.232 2.004v3.324c0 .336.108.756.216 1.02h-.912c-.072-.18-.132-.504-.168-.768-.636.564-1.368.864-2.124.864m.048-.888c.84 0 1.56-.384 2.052-.972v-1.248h-.396c-2.016 0-2.844.336-2.844 1.164v.06c0 .612.48.996 1.188.996m5.374-6.456a.574.574 0 0 1-.588-.588c0-.336.252-.6.588-.6s.6.264.6.6a.584.584 0 0 1-.6.588m-.444 7.248v-6.24h.888V213zm4.646.036c-1.08 0-1.584-.528-1.584-1.644V207.6h-.84v-.648c.252-.084.576-.18.84-.192v-1.44l.888-.12v1.56h1.86v.84h-1.86v3.612c0 .744.3.972.864.972.288 0 .852-.048 1.116-.132v.792c-.288.12-.888.192-1.284.192m2.784-.036v-8.64h.888V213zm3.374-7.248a.574.574 0 0 1-.588-.588c0-.336.252-.6.588-.6s.6.264.6.6a.584.584 0 0 1-.6.588m-.444 7.248v-6.24h.888V213zm4.897.096c-.996 0-1.956-.36-2.568-.948l.528-.672c.636.504 1.32.756 2.076.756.852 0 1.32-.324 1.32-.924 0-.72-.732-.9-1.536-1.08-1.008-.228-2.124-.504-2.124-1.776 0-1.092.816-1.788 2.088-1.788.84 0 1.668.312 2.268.744l-.444.732c-.552-.372-1.212-.6-1.86-.6-.708 0-1.128.3-1.128.828 0 .636.696.816 1.5.984 1.02.216 2.172.54 2.172 1.86 0 1.176-.888 1.884-2.292 1.884m5.467-.06c-1.08 0-1.584-.528-1.584-1.644V207.6h-.84v-.648c.252-.084.576-.18.84-.192v-1.44l.888-.12v1.56h1.86v.84h-1.86v3.612c0 .744.3.972.864.972.288 0 .852-.048 1.116-.132v.792c-.288.12-.888.192-1.284.192m8.418.06c-1.716 0-2.808-.9-2.808-2.328 0-1.116.816-2.076 1.824-2.484-.744-.852-.948-1.14-.948-1.836 0-1.164.9-1.944 2.208-1.944 1.26 0 2.1.72 2.1 1.824 0 .888-.768 1.776-1.86 2.22l1.968 2.268a4.06 4.06 0 0 0 .468-1.86v-.468h.924v.684c0 .816-.324 1.764-.708 2.328l1.308 1.5h-1.32l-.684-.768a3.95 3.95 0 0 1-2.472.864m-.036-5.184c1.056-.54 1.392-.924 1.392-1.5 0-.588-.408-.96-1.068-.96-.708 0-1.2.396-1.2.972 0 .516.408.972.876 1.488m1.884 3.624-2.256-2.58c-.912.36-1.392.972-1.392 1.752 0 .912.66 1.452 1.8 1.452.732 0 1.368-.228 1.848-.624m6.663 1.464 2.952-8.4h1.392l2.952 8.4h-1.056l-.816-2.412h-3.54l-.828 2.412zm2.184-3.324h2.928l-1.44-4.224h-.048zm6.183 5.724v-8.64h.696c.072.204.156.552.18.828.492-.564 1.212-.9 2.052-.9h.108c1.644 0 2.796 1.26 2.796 3.036v.312c0 1.776-1.152 3.036-2.796 3.036h-.108c-.84 0-1.548-.324-2.04-.876v3.204zm2.844-3.216h.096c1.164 0 1.956-.876 1.956-2.148v-.312c0-1.272-.792-2.148-1.956-2.148h-.096c-1.176 0-1.956.888-1.956 2.148v.312c0 1.272.792 2.148 1.956 2.148m4.562 3.216v-8.64h.696c.072.204.156.552.18.828.492-.564 1.212-.9 2.052-.9h.108c1.644 0 2.796 1.26 2.796 3.036v.312c0 1.776-1.152 3.036-2.796 3.036h-.108c-.84 0-1.548-.324-2.04-.876v3.204zm2.844-3.216h.096c1.164 0 1.956-.876 1.956-2.148v-.312c0-1.272-.792-2.148-1.956-2.148h-.096c-1.176 0-1.956.888-1.956 2.148v.312c0 1.272.792 2.148 1.956 2.148m4.562.816v-8.64h.888V213zm3.374-7.248a.574.574 0 0 1-.588-.588c0-.336.252-.6.588-.6s.6.264.6.6a.584.584 0 0 1-.6.588M200.82 213v-6.24h.888V213zm5.402.072c-1.752 0-2.94-1.236-2.94-3.036v-.312c0-1.8 1.212-3.036 2.916-3.036h.096c1.068 0 2.004.576 2.52 1.572l-.72.396c-.36-.708-1.008-1.092-1.812-1.092h-.12c-1.176 0-1.944.864-1.944 2.16v.312c0 1.296.804 2.16 2.016 2.16h.12c.732 0 1.344-.372 1.728-1.056l.744.396c-.564.984-1.464 1.536-2.508 1.536zm5.628.024c-1.212 0-2.052-.732-2.052-1.848v-.084c0-1.344 1.176-2.004 3.576-2.004h.576v-.432c0-.732-.516-1.176-1.404-1.176h-.072c-.66 0-1.392.252-1.92.672l-.444-.732c.756-.516 1.548-.84 2.424-.84h.072c1.392 0 2.232.78 2.232 2.004v3.324c0 .336.108.756.216 1.02h-.912c-.072-.18-.132-.504-.168-.768-.636.564-1.368.864-2.124.864m.048-.888c.84 0 1.56-.384 2.052-.972v-1.248h-.396c-2.016 0-2.844.336-2.844 1.164v.06c0 .612.48.996 1.188.996m6.587.828c-1.08 0-1.584-.528-1.584-1.644V207.6h-.84v-.648c.252-.084.576-.18.84-.192v-1.44l.888-.12v1.56h1.86v.84h-1.86v3.612c0 .744.3.972.864.972.288 0 .852-.048 1.116-.132v.792c-.288.12-.888.192-1.284.192m3.111-7.284a.574.574 0 0 1-.588-.588c0-.336.252-.6.588-.6s.6.264.6.6a.584.584 0 0 1-.6.588m-.444 7.248v-6.24h.888V213zm5.342.072c-1.692 0-2.88-1.26-2.88-3.036v-.312c0-1.776 1.188-3.036 2.88-3.036h.12c1.692 0 2.88 1.26 2.88 3.036v.312c0 1.776-1.188 3.036-2.88 3.036zm.012-.888h.096c1.176 0 1.956-.888 1.956-2.148v-.312c0-1.272-.792-2.148-1.956-2.148h-.096c-1.164 0-1.956.876-1.956 2.148v.312c0 1.26.78 2.148 1.956 2.148m4.56.816v-6.24h.696c.072.216.156.564.18.84.504-.588 1.248-.936 2.1-.936h.084c1.416 0 2.136.828 2.136 2.34V213h-.888v-3.84c0-1.02-.42-1.608-1.392-1.608h-.096c-1.14 0-1.932.732-1.932 1.932V213zm10.477 0v-6.24h.672c.072.216.156.516.192.792.444-.504 1.08-.792 1.848-.792h.144v.924a3 3 0 0 0-.372-.024c-1.092 0-1.596.636-1.596 1.992V213zm6.678.072c-1.74 0-2.916-1.212-2.916-3v-.228c0-1.884 1.176-3.156 2.928-3.156h.096c1.608 0 2.676 1.164 2.676 2.916v.672h-4.752c.084 1.152.864 1.908 2.016 1.908h.12c.852 0 1.404-.408 1.752-.936l.708.468c-.588.876-1.428 1.356-2.532 1.356zm-1.956-3.636h3.864c-.06-1.116-.78-1.86-1.836-1.86h-.12c-1.056 0-1.764.72-1.908 1.86M252.57 213v-8.64h.888V213zm5.378.072c-1.74 0-2.916-1.212-2.916-3v-.228c0-1.884 1.176-3.156 2.928-3.156h.096c1.608 0 2.676 1.164 2.676 2.916v.672h-4.752c.084 1.152.864 1.908 2.016 1.908h.12c.852 0 1.404-.408 1.752-.936l.708.468c-.588.876-1.428 1.356-2.532 1.356zm-1.956-3.636h3.864c-.06-1.116-.78-1.86-1.836-1.86h-.12c-1.056 0-1.764.72-1.908 1.86m7.913 3.66c-1.212 0-2.052-.732-2.052-1.848v-.084c0-1.344 1.176-2.004 3.576-2.004h.576v-.432c0-.732-.516-1.176-1.404-1.176h-.072c-.66 0-1.392.252-1.92.672l-.444-.732c.756-.516 1.548-.84 2.424-.84h.072c1.392 0 2.232.78 2.232 2.004v3.324c0 .336.108.756.216 1.02h-.912c-.072-.18-.132-.504-.168-.768-.636.564-1.368.864-2.124.864m.048-.888c.84 0 1.56-.384 2.052-.972v-1.248h-.396c-2.016 0-2.844.336-2.844 1.164v.06c0 .612.48.996 1.188.996m6.898.888c-.996 0-1.956-.36-2.568-.948l.528-.672c.636.504 1.32.756 2.076.756.852 0 1.32-.324 1.32-.924 0-.72-.732-.9-1.536-1.08-1.008-.228-2.124-.504-2.124-1.776 0-1.092.816-1.788 2.088-1.788.84 0 1.668.312 2.268.744l-.444.732c-.552-.372-1.212-.6-1.86-.6-.708 0-1.128.3-1.128.828 0 .636.696.816 1.5.984 1.02.216 2.172.54 2.172 1.86 0 1.176-.888 1.884-2.292 1.884m6.198-.024c-1.74 0-2.916-1.212-2.916-3v-.228c0-1.884 1.176-3.156 2.928-3.156h.096c1.608 0 2.676 1.164 2.676 2.916v.672h-4.752c.084 1.152.864 1.908 2.016 1.908h.12c.852 0 1.404-.408 1.752-.936l.708.468c-.588.876-1.428 1.356-2.532 1.356zm-1.956-3.636h3.864c-.06-1.116-.78-1.86-1.836-1.86h-.12c-1.056 0-1.764.72-1.908 1.86M188.97 222.6h1.188v8.4h-1.236v-6.132c-.516.48-1.26.744-2.028.744v-1.056c1.188-.048 2.076-.864 2.076-1.956m3.319 8.4 3.18-7.14v-.108h-3.996V222.6h5.34v1.02l-3.144 7.38zm4.964.12c-.444 0-.804-.336-.804-.756v-.048c0-.408.36-.744.804-.744.432 0 .804.336.804.744v.048c0 .42-.372.756-.804.756m3.752-8.52h1.188v8.4h-1.236v-6.132c-.516.48-1.26.744-2.028.744v-1.056c1.188-.048 2.076-.864 2.076-1.956m4.7 4.368c-1.14 0-1.896-.864-1.896-2.124v-.216c0-1.26.756-2.124 1.896-2.124h.084c1.14 0 1.896.864 1.896 2.124v.216c0 1.26-.756 2.124-1.896 2.124zM204.289 231l6.336-8.412h1.404L205.693 231zm1.44-5.028h.036c.528 0 .876-.456.876-1.152v-.168c0-.696-.348-1.152-.876-1.152h-.036c-.528 0-.876.456-.876 1.152v.168c0 .696.348 1.152.876 1.152m4.788 5.124c-1.128 0-1.884-.864-1.884-2.124v-.216c0-1.26.756-2.124 1.884-2.124h.096c1.128 0 1.896.864 1.896 2.124v.216c0 1.26-.768 2.124-1.896 2.124zm.036-.996h.024c.528 0 .888-.456.888-1.152v-.168c0-.696-.36-1.152-.888-1.152h-.024c-.528 0-.888.456-.888 1.152v.168c0 .696.36 1.152.888 1.152m108.25 1.9v-1.056c1.452-.948 4.212-2.976 4.212-4.872 0-.864-.564-1.44-1.416-1.44-.864 0-1.476.588-1.692 1.752l-1.164-.3c.252-1.644 1.344-2.616 2.868-2.616 1.548 0 2.664.996 2.664 2.508 0 2.004-2.016 3.804-3.564 4.896h3.792V232zm12.671-6.54-1.164.312c-.3-.78-.828-1.164-1.572-1.164-1.656 0-2.076 1.8-2.076 3.132.504-.804 1.416-1.2 2.316-1.2 1.428 0 2.76.96 2.76 2.712 0 1.704-1.248 2.868-3.072 2.868-2.064 0-3.24-1.5-3.24-4.212 0-2.772 1.224-4.428 3.276-4.428 1.356 0 2.376.732 2.772 1.98m-4.692 3.792c.24 1.128.864 1.716 1.86 1.716 1.092 0 1.836-.72 1.836-1.752 0-.996-.672-1.62-1.668-1.62-.876 0-1.8.48-2.016 1.344-.012.096-.012.204-.012.312m6.819 2.868c-.444 0-.804-.336-.804-.756v-.048c0-.408.36-.744.804-.744.432 0 .804.336.804.744v.048c0 .42-.372.756-.804.756m1.796-.12v-1.056c1.452-.948 4.212-2.976 4.212-4.872 0-.864-.564-1.44-1.416-1.44-.864 0-1.476.588-1.692 1.752l-1.164-.3c.252-1.644 1.344-2.616 2.868-2.616 1.548 0 2.664.996 2.664 2.508 0 2.004-2.016 3.804-3.564 4.896h3.792V232zm8.518-4.032c-1.14 0-1.896-.864-1.896-2.124v-.216c0-1.26.756-2.124 1.896-2.124h.084c1.14 0 1.896.864 1.896 2.124v.216c0 1.26-.756 2.124-1.896 2.124zM342.499 232l6.336-8.412h1.404L343.903 232zm1.44-5.028h.036c.528 0 .876-.456.876-1.152v-.168c0-.696-.348-1.152-.876-1.152h-.036c-.528 0-.876.456-.876 1.152v.168c0 .696.348 1.152.876 1.152m4.788 5.124c-1.128 0-1.884-.864-1.884-2.124v-.216c0-1.26.756-2.124 1.884-2.124h.096c1.128 0 1.896.864 1.896 2.124v.216c0 1.26-.768 2.124-1.896 2.124zm.036-.996h.024c.528 0 .888-.456.888-1.152v-.168c0-.696-.36-1.152-.888-1.152h-.024c-.528 0-.888.456-.888 1.152v.168c0 .696.36 1.152.888 1.152m-57.4 18.9v-8.4h4.428v.912h-3.468v2.928h3.228v.912h-3.228V250zm9.199.096c-1.98 0-3.096-1.08-3.096-3.096v-5.4h.96v5.28c0 1.524.756 2.268 2.136 2.268s2.124-.744 2.124-2.268v-5.28h.96v5.4c0 2.016-1.104 3.096-3.084 3.096m5.368-.096v-8.4h1.104l3.888 6.78h.048v-6.78h.96v8.4h-1.032l-3.912-6.816h-.096V250zm8.402 0v-8.4h2.412c1.644 0 2.736.804 2.736 2.088v.12c0 .72-.3 1.296-.9 1.716.888.396 1.38 1.092 1.38 2.028v.108c0 1.452-1.104 2.34-2.832 2.34zm.96-4.764h1.536c1.068 0 1.644-.492 1.644-1.344v-.096c0-.792-.588-1.284-1.644-1.284h-1.536zm0 3.852h1.812c1.164 0 1.848-.504 1.848-1.416v-.108c0-.9-.696-1.416-1.848-1.416h-1.812zm5.904-3.168v-.24c0-2.544 1.632-4.188 3.864-4.188h.12c2.232 0 3.864 1.644 3.864 4.188v.24c0 2.544-1.632 4.188-3.864 4.188h-.12c-2.232 0-3.864-1.644-3.864-4.188m1.008 0c0 1.968 1.248 3.252 2.868 3.252h.096c1.62 0 2.868-1.284 2.868-3.252v-.24c0-1.968-1.248-3.252-2.868-3.252h-.096c-1.62 0-2.868 1.284-2.868 3.252zm7.291 4.08 2.64-4.332v-.048l-2.4-4.02h1.164l1.86 3.24h.048l1.932-3.24h1.092l-2.412 4.02v.048l2.652 4.332h-1.152l-2.112-3.552h-.048L330.623 250zm11.106 0v-6.24h.672c.072.216.156.516.192.792.444-.504 1.08-.792 1.848-.792h.144v.924a3 3 0 0 0-.372-.024c-1.092 0-1.596.636-1.596 1.992V250zm6.679.072c-1.74 0-2.916-1.212-2.916-3v-.228c0-1.884 1.176-3.156 2.928-3.156h.096c1.608 0 2.676 1.164 2.676 2.916v.672h-4.752c.084 1.152.864 1.908 2.016 1.908h.12c.852 0 1.404-.408 1.752-.936l.708.468c-.588.876-1.428 1.356-2.532 1.356zm-1.956-3.636h3.864c-.06-1.116-.78-1.86-1.836-1.86h-.12c-1.056 0-1.764.72-1.908 1.86m6.305 3.564v-8.64h.888V250zm5.377.072c-1.74 0-2.916-1.212-2.916-3v-.228c0-1.884 1.176-3.156 2.928-3.156h.096c1.608 0 2.676 1.164 2.676 2.916v.672h-4.752c.084 1.152.864 1.908 2.016 1.908h.12c.852 0 1.404-.408 1.752-.936l.708.468c-.588.876-1.428 1.356-2.532 1.356zm-1.956-3.636h3.864c-.06-1.116-.78-1.86-1.836-1.86h-.12c-1.056 0-1.764.72-1.908 1.86m7.913 3.66c-1.212 0-2.052-.732-2.052-1.848v-.084c0-1.344 1.176-2.004 3.576-2.004h.576v-.432c0-.732-.516-1.176-1.404-1.176h-.072c-.66 0-1.392.252-1.92.672l-.444-.732c.756-.516 1.548-.84 2.424-.84h.072c1.392 0 2.232.78 2.232 2.004v3.324c0 .336.108.756.216 1.02h-.912c-.072-.18-.132-.504-.168-.768-.636.564-1.368.864-2.124.864m.048-.888c.84 0 1.56-.384 2.052-.972v-1.248h-.396c-2.016 0-2.844.336-2.844 1.164v.06c0 .612.48.996 1.188.996m6.898.888c-.996 0-1.956-.36-2.568-.948l.528-.672c.636.504 1.32.756 2.076.756.852 0 1.32-.324 1.32-.924 0-.72-.732-.9-1.536-1.08-1.008-.228-2.124-.504-2.124-1.776 0-1.092.816-1.788 2.088-1.788.84 0 1.668.312 2.268.744l-.444.732c-.552-.372-1.212-.6-1.86-.6-.708 0-1.128.3-1.128.828 0 .636.696.816 1.5.984 1.02.216 2.172.54 2.172 1.86 0 1.176-.888 1.884-2.292 1.884m6.199-.024c-1.74 0-2.916-1.212-2.916-3v-.228c0-1.884 1.176-3.156 2.928-3.156h.096c1.608 0 2.676 1.164 2.676 2.916v.672h-4.752c.084 1.152.864 1.908 2.016 1.908h.12c.852 0 1.404-.408 1.752-.936l.708.468c-.588.876-1.428 1.356-2.532 1.356zm-1.956-3.636h3.864c-.06-1.116-.78-1.86-1.836-1.86h-.12c-1.056 0-1.764.72-1.908 1.86M423.791 168v-1.656h-4.032V165.3l3.432-5.7h1.812v5.652h1.116v1.092h-1.116V168zm-2.748-2.748h2.748v-4.488h-.096l-2.652 4.38zm9.014 2.856c-1.908 0-3.108-.948-3.108-2.436 0-1.02.576-1.776 1.56-2.148-.768-.36-1.212-1.008-1.212-1.872 0-1.332 1.068-2.172 2.76-2.172 1.68 0 2.748.84 2.748 2.172 0 .864-.444 1.512-1.212 1.872.984.372 1.56 1.128 1.56 2.148 0 1.488-1.2 2.436-3.096 2.436m0-5.052c.96 0 1.524-.456 1.524-1.224 0-.78-.564-1.224-1.524-1.224-.972 0-1.524.444-1.524 1.224 0 .768.552 1.224 1.524 1.224m0 3.9c1.176 0 1.848-.516 1.848-1.416s-.672-1.428-1.848-1.428c-1.188 0-1.872.528-1.872 1.428s.684 1.416 1.872 1.416m4.939 1.164c-.444 0-.804-.336-.804-.756v-.048c0-.408.36-.744.804-.744.432 0 .804.336.804.744v.048c0 .42-.372.756-.804.756m7.916-6.66-1.164.312c-.3-.78-.828-1.164-1.572-1.164-1.656 0-2.076 1.8-2.076 3.132.504-.804 1.416-1.2 2.316-1.2 1.428 0 2.76.96 2.76 2.712 0 1.704-1.248 2.868-3.072 2.868-2.064 0-3.24-1.5-3.24-4.212 0-2.772 1.224-4.428 3.276-4.428 1.356 0 2.376.732 2.772 1.98m-4.692 3.792c.24 1.128.864 1.716 1.86 1.716 1.092 0 1.836-.72 1.836-1.752 0-.996-.672-1.62-1.668-1.62-.876 0-1.8.48-2.016 1.344-.012.096-.012.204-.012.312m7.899-1.284c-1.14 0-1.896-.864-1.896-2.124v-.216c0-1.26.756-2.124 1.896-2.124h.084c1.14 0 1.896.864 1.896 2.124v.216c0 1.26-.756 2.124-1.896 2.124zM444.703 168l6.336-8.412h1.404L446.107 168zm1.44-5.028h.036c.528 0 .876-.456.876-1.152v-.168c0-.696-.348-1.152-.876-1.152h-.036c-.528 0-.876.456-.876 1.152v.168c0 .696.348 1.152.876 1.152m4.788 5.124c-1.128 0-1.884-.864-1.884-2.124v-.216c0-1.26.756-2.124 1.884-2.124h.096c1.128 0 1.896.864 1.896 2.124v.216c0 1.26-.768 2.124-1.896 2.124zm.036-.996h.024c.528 0 .888-.456.888-1.152v-.168c0-.696-.36-1.152-.888-1.152h-.024c-.528 0-.888.456-.888 1.152v.168c0 .696.36 1.152.888 1.152m-52.496 18.996c-1.98 0-3.096-1.08-3.096-3.096v-5.4h.96v5.28c0 1.524.756 2.268 2.136 2.268s2.124-.744 2.124-2.268v-5.28h.96v5.4c0 2.016-1.104 3.096-3.084 3.096m4.312-.096 2.64-4.332v-.048l-2.4-4.02h1.164l1.86 3.24h.048l1.932-3.24h1.092l-2.412 4.02v.048l2.652 4.332h-1.152l-2.112-3.552h-.048L403.911 186zm7.143 1.332 1.944-9.972h.924l-1.956 9.972zm7.459-1.236c-1.98 0-3.096-1.08-3.096-3.096v-5.4h.96v5.28c0 1.524.756 2.268 2.136 2.268s2.124-.744 2.124-2.268v-5.28h.96v5.4c0 2.016-1.104 3.096-3.084 3.096m5.368-.096v-8.4h.96v8.4zm6.726 0v-8.4h2.64c1.788 0 2.844.948 2.844 2.496v.12c0 1.14-.576 1.968-1.596 2.328l2.208 3.456h-1.224l-2.004-3.252h-1.908V186zm.96-4.164h1.644c1.248 0 1.872-.576 1.872-1.596v-.12c0-1.032-.648-1.608-1.872-1.608h-1.644zm8.609 4.236c-1.74 0-2.916-1.212-2.916-3v-.228c0-1.884 1.176-3.156 2.928-3.156h.096c1.608 0 2.676 1.164 2.676 2.916v.672h-4.752c.084 1.152.864 1.908 2.016 1.908h.12c.852 0 1.404-.408 1.752-.936l.708.468c-.588.876-1.428 1.356-2.532 1.356zm-1.956-3.636h3.864c-.06-1.116-.78-1.86-1.836-1.86H439c-1.056 0-1.764.72-1.908 1.86m8.633 3.636c-1.644 0-2.796-1.26-2.796-3.036v-.312c0-1.776 1.152-3.036 2.796-3.036h.108c.84 0 1.548.324 2.04.876v-3.204h.888V186h-.696a3.2 3.2 0 0 1-.18-.816c-.492.564-1.212.888-2.052.888zm.096-.888h.096c1.176 0 1.956-.888 1.956-2.148v-.312c0-1.272-.792-2.148-1.956-2.148h-.096c-1.164 0-1.956.876-1.956 2.148v.312c0 1.272.792 2.148 1.956 2.148m7.43.888c-1.74 0-2.916-1.212-2.916-3v-.228c0-1.884 1.176-3.156 2.928-3.156h.096c1.608 0 2.676 1.164 2.676 2.916v.672h-4.752c.084 1.152.864 1.908 2.016 1.908h.12c.852 0 1.404-.408 1.752-.936l.708.468c-.588.876-1.428 1.356-2.532 1.356zm-1.956-3.636h3.864c-.06-1.116-.78-1.86-1.836-1.86h-.12c-1.056 0-1.764.72-1.908 1.86m8.273 3.66c-.996 0-1.956-.36-2.568-.948l.528-.672c.636.504 1.32.756 2.076.756.852 0 1.32-.324 1.32-.924 0-.72-.732-.9-1.536-1.08-1.008-.228-2.124-.504-2.124-1.776 0-1.092.816-1.788 2.088-1.788.84 0 1.668.312 2.268.744l-.444.732c-.552-.372-1.212-.6-1.86-.6-.708 0-1.128.3-1.128.828 0 .636.696.816 1.5.984 1.02.216 2.172.54 2.172 1.86 0 1.176-.888 1.884-2.292 1.884m4.195-7.344a.574.574 0 0 1-.588-.588c0-.336.252-.6.588-.6s.6.264.6.6a.584.584 0 0 1-.6.588m-.444 7.248v-6.24h.888V186zm2.486-3.984v-.168c0-1.284.996-2.16 2.46-2.16h.168c.552 0 1.044.12 1.44.348.12-.312.264-.612.468-.876h.888l-.744 1.428c.264.348.408.768.408 1.26v.168c0 1.284-1.008 2.16-2.46 2.16h-.168c-.204 0-.396-.012-.576-.048v.744c.204-.012.42-.024.66-.024h.18c1.62 0 2.64.672 2.64 1.764v.096c0 1.08-1.02 1.752-2.64 1.752h-.18c-1.632 0-2.64-.66-2.64-1.74v-.108c0-.696.42-1.224 1.128-1.512v-1.272c-.648-.372-1.032-1.02-1.032-1.812m.924-.168v.168c0 .792.624 1.32 1.548 1.32h.144c.924 0 1.548-.54 1.548-1.32v-.168c0-.78-.624-1.32-1.548-1.32h-.144c-.924 0-1.548.528-1.548 1.32m-.096 4.788v.048c0 .6.6.96 1.728.96h.156c1.128 0 1.728-.372 1.728-.96v-.048c0-.6-.612-.972-1.728-.972h-.156c-1.116 0-1.728.372-1.728.972m5.979-.636v-6.24h.696c.072.216.156.564.18.84.504-.588 1.248-.936 2.1-.936h.084c1.416 0 2.136.828 2.136 2.34V186h-.888v-3.84c0-1.02-.42-1.608-1.392-1.608h-.096c-1.14 0-1.932.732-1.932 1.932V186z"/></svg>