<svg xmlns="http://www.w3.org/2000/svg" width="610" height="379" fill="none" viewBox="0 0 610 379"><rect width="610" height="379" fill="#e8e6d3" rx="46"/><path fill="#de6a70" d="M38.386 47.06v-5.82h2.64l1.48.04h10.92l.76-.04h3.92v5.82h-2.92V44h-13.88v3.06zM41.626 29h13.86v13.94h-3.14V30.32l1.42 1.44h-10.46l1.32-1.02q.12 1.04.16 2.04t.04 1.9q0 2.46-.38 4.18t-1.12 2.62q-.72.9-1.8.9l-1.32-1.1q.88-.98 1.28-2.76.42-1.78.42-4.46 0-1.18-.08-2.46t-.2-2.6M66.06 44.3q-2.12 0-3.7-.74-1.58-.76-2.46-2.1-.88-1.36-.88-3.14t.88-3.12 2.46-2.1 3.7-.76q2.1 0 3.68.76t2.46 2.1q.9 1.34.9 3.12t-.9 3.14q-.879 1.34-2.46 2.1-1.58.74-3.68.74m0-2.38q1.2 0 2.06-.44a3.23 3.23 0 0 0 1.36-1.24q.48-.8.48-1.92t-.48-1.92a3.23 3.23 0 0 0-1.36-1.24q-.86-.44-2.06-.44t-2.08.44a3.23 3.23 0 0 0-1.36 1.24q-.48.8-.48 1.92t.48 1.92 1.36 1.24 2.08.44m10.638-9.28h11.56V44h-3.1V33.56l1.44 1.44h-8.34l1.32-1.14q.1 1.22.16 2.28.08 1.06.08 1.9 0 3.24-.96 4.72-.94 1.46-3.04 1.46-.58 0-1.12-.12a4 4 0 0 1-1.02-.4v-2.26q.36.14.7.22.36.06.64.06 1.06 0 1.52-.96t.46-3.16q0-.98-.08-2.22-.06-1.26-.22-2.74m23.653 5.28v2.06h-5.62l-.04-.08q-1.28 0-2.26-.44-.96-.44-1.5-1.26t-.54-1.9q0-1.1.54-1.92t1.5-1.28q.98-.46 2.26-.46h7.88V44h-3.1V33.48l.96 1.28h-5.02q-.88 0-1.38.42t-.5 1.14q0 .74.5 1.18.5.42 1.38.42zm-2.64.76L93.67 44h-3.54l4.18-5.32zM125.763 29v15h-3.12V30.36l1.42 1.42h-11.72l1.42-1.42V44h-3.14V29zm9.045 15.3q-2 0-3.58-.76-1.56-.76-2.46-2.1-.9-1.36-.9-3.14t.84-3.1q.86-1.34 2.36-2.1t3.44-.76 3.34.88q1.42.86 2.18 2.42.78 1.56.78 3.68h-10.48v-2.14h8.86l-1.32.78q-.06-1.04-.5-1.76a3.07 3.07 0 0 0-1.16-1.14q-.72-.4-1.72-.4-1.06 0-1.84.44-.78.42-1.22 1.18t-.44 1.8q0 1.2.54 2.08.56.86 1.56 1.32 1.02.46 2.44.46 1.3 0 2.62-.38a9.1 9.1 0 0 0 2.36-1.08v2.12q-1.1.8-2.6 1.26-1.48.44-3.1.44m8.015-11.66h3.1v3.72l-.14.44v2.58l.14.78v7.14h-3.1zm2 5.68q.34-1.82 1.2-3.14.86-1.34 2.14-2.08 1.3-.76 2.88-.76 1.68 0 2.94.76a5.3 5.3 0 0 1 2 2.1q.72 1.34.72 3.12t-.72 3.14a5.3 5.3 0 0 1-2 2.1q-1.26.74-2.94.74-1.58 0-2.86-.74-1.28-.76-2.16-2.1-.86-1.34-1.2-3.14m8.74 0q0-1.04-.44-1.84a3 3 0 0 0-1.18-1.24q-.74-.46-1.72-.46t-1.86.46a4.8 4.8 0 0 0-1.52 1.24 6.9 6.9 0 0 0-1.04 1.84 6.9 6.9 0 0 0 1.04 1.84q.66.8 1.52 1.26.88.44 1.86.44t1.72-.44q.76-.46 1.18-1.26.44-.8.44-1.84m11.518 5.98q-2 0-3.58-.76-1.56-.76-2.46-2.1-.9-1.36-.9-3.14t.84-3.1q.86-1.34 2.36-2.1t3.44-.76 3.34.88q1.42.86 2.18 2.42.78 1.56.78 3.68h-10.48v-2.14h8.86l-1.32.78q-.06-1.04-.5-1.76a3.07 3.07 0 0 0-1.16-1.14q-.72-.4-1.72-.4-1.06 0-1.84.44a3.06 3.06 0 0 0-1.22 1.18q-.44.76-.44 1.8 0 1.2.54 2.08.561.86 1.56 1.32 1.02.46 2.44.46 1.3 0 2.62-.38a9.1 9.1 0 0 0 2.36-1.08v2.12q-1.1.8-2.6 1.26-1.48.44-3.1.44m6.107-.3 5.4-6.44-.02 1.26-5.06-6.18h3.5l3.66 4.38h-1.14l3.68-4.38h3.4l-5.2 6.22-.12-1.54 5.64 6.68h-3.52l-4-4.72h1.18l-3.94 4.72zm20.517.3q-2.12 0-3.7-.74-1.58-.76-2.46-2.1-.88-1.36-.88-3.14t.88-3.12 2.46-2.1 3.7-.76q2.1 0 3.68.76t2.46 2.1q.9 1.34.9 3.12t-.9 3.14q-.88 1.34-2.46 2.1-1.58.74-3.68.74m0-2.38q1.2 0 2.06-.44a3.23 3.23 0 0 0 1.36-1.24q.48-.8.48-1.92t-.48-1.92a3.23 3.23 0 0 0-1.36-1.24q-.86-.44-2.06-.44t-2.08.44a3.23 3.23 0 0 0-1.36 1.24q-.48.8-.48 1.92t.48 1.92 1.36 1.24 2.08.44m23.818-.26v5.16h-2.68V44h-10.86v2.82h-2.68v-5.16h3.08l.74.04h8.26l.66-.04zm-13.76-9.02h11.68v10.6h-3.1v-9.7l1.42 1.42h-8.42l1.26-1.08q.16.86.2 1.66.04.78.04 1.44 0 2.86-.84 4.48t-2.36 1.62l-1.26-1.06q1.62-1.16 1.62-5.64 0-.88-.06-1.82t-.18-1.92m24.418 4.96q0-1.34-.96-2.08-.96-.76-2.98-.76-1.14 0-2.34.28t-2.28.88V33.6q1.26-.66 2.56-.96 1.299-.3 2.76-.3 1.92 0 3.32.6 1.4.58 2.18 1.74.8 1.14.8 2.82V44h-3.04zm-4.6-.92q2.54-.08 3.94.36 1.419.44 1.56.7.14.24.14 2.74 0 .48-.4 1.14t-1.14 1.28q-.74.6-1.78 1t-2.32.4q-1.401 0-2.52-.46-1.101-.46-1.74-1.32-.64-.86-.64-2.02 0-1.18.64-2.02.66-.86 1.76-1.3 1.12-.46 2.5-.5m1.7 2.04q-2.08 0-2.86.46t-.78 1.22q0 .74.76 1.22.78.46 2.14.46 1.6 0 2.62-.88 1.02-.9 1.02-2.06-.82-.42-2.9-.42m13.546-6.08h3.08V44h-3.08zm9.56 0h3.08V44h-3.08zm-7.8 4.42h9.04v2.34h-9.04zm22.555.54q0-1.34-.96-2.08-.96-.76-2.98-.76-1.14 0-2.34.28t-2.28.88V33.6q1.26-.66 2.56-.96 1.299-.3 2.76-.3 1.92 0 3.32.6 1.4.58 2.18 1.74.8 1.14.8 2.82V44h-3.04zm-4.6-.92q2.54-.08 3.94.36 1.419.44 1.56.7.14.24.14 2.74 0 .48-.4 1.14t-1.14 1.28q-.74.6-1.78 1t-2.32.4q-1.401 0-2.52-.46-1.101-.46-1.74-1.32-.64-.86-.64-2.02 0-1.18.64-2.02.66-.86 1.76-1.3 1.12-.46 2.5-.5m1.7 2.04q-2.08 0-2.86.46t-.78 1.22q0 .74.76 1.22.78.46 2.14.46 1.6 0 2.62-.88 1.02-.9 1.02-2.06-.82-.42-2.9-.42m29.926-.78q-.2 1.9-1.32 3.34-1.1 1.42-2.9 2.22-1.779.8-4.08.8-2.56 0-4.48-.98t-3-2.74q-1.06-1.76-1.06-4.08t1.06-4.08q1.08-1.76 3-2.74t4.48-.98q2.301 0 4.08.8 1.8.8 2.9 2.24 1.12 1.42 1.32 3.32h-3.16q-.2-1.12-.88-1.92t-1.78-1.22q-1.08-.44-2.5-.44-1.64 0-2.84.62-1.2.6-1.84 1.74-.64 1.12-.64 2.66t.64 2.68a4.4 4.4 0 0 0 1.84 1.74q1.2.6 2.84.6 1.42 0 2.5-.42 1.1-.42 1.78-1.22t.88-1.94zm11.079-.34q0-1.34-.96-2.08-.96-.76-2.98-.76-1.14 0-2.34.28t-2.28.88V33.6q1.26-.66 2.56-.96t2.76-.3q1.92 0 3.32.6 1.4.58 2.18 1.74.8 1.14.8 2.82V44h-3.04zm-4.6-.92q2.54-.08 3.94.36 1.42.44 1.56.7.14.24.14 2.74 0 .48-.4 1.14-.399.66-1.14 1.28-.74.6-1.78 1t-2.32.4q-1.4 0-2.52-.46-1.1-.46-1.74-1.32t-.64-2.02q0-1.18.64-2.02.66-.86 1.76-1.3 1.12-.46 2.5-.5m1.7 2.04q-2.08 0-2.86.46t-.78 1.22q0 .74.76 1.22.78.46 2.14.46 1.6 0 2.62-.88 1.02-.9 1.02-2.06-.82-.42-2.9-.42m8.371 5.28V32.64h4.62l4.34 9.8h-1.06l4.32-9.8h4.62V44h-2.9V33.74h.66L314.598 44h-2.94l-4.72-10.22.68-.04V44zm25.874.3q-2.12 0-3.7-.74-1.581-.76-2.46-2.1-.88-1.36-.88-3.14t.88-3.12 2.46-2.1 3.7-.76q2.1 0 3.68.76t2.46 2.1q.9 1.34.9 3.12t-.9 3.14q-.88 1.34-2.46 2.1-1.58.74-3.68.74m0-2.38q1.2 0 2.06-.44a3.23 3.23 0 0 0 1.36-1.24q.48-.8.48-1.92t-.48-1.92a3.23 3.23 0 0 0-1.36-1.24q-.86-.44-2.06-.44t-2.08.44a3.23 3.23 0 0 0-1.36 1.24q-.48.8-.48 1.92t.48 1.92 1.36 1.24 2.08.44m15.468 2.38q-2.12 0-3.7-.74-1.58-.76-2.46-2.1-.88-1.36-.88-3.14t.88-3.12 2.46-2.1 3.7-.76q2.1 0 3.68.76t2.46 2.1q.9 1.34.9 3.12t-.9 3.14q-.879 1.34-2.46 2.1-1.58.74-3.68.74m0-2.38q1.2 0 2.06-.44a3.23 3.23 0 0 0 1.36-1.24q.48-.8.48-1.92t-.48-1.92a3.23 3.23 0 0 0-1.36-1.24q-.86-.44-2.06-.44t-2.08.44a3.23 3.23 0 0 0-1.36 1.24q-.48.8-.48 1.92t.48 1.92 1.36 1.24 2.08.44m15.929 2.38q-2.32 0-3.96-.88a6.1 6.1 0 0 1-2.52-2.58q-.86-1.7-.86-4.06 0-3.52 1.88-5.56 1.88-2.06 5.36-2.34l2.36-.2a52 52 0 0 0 1.52-.18q.6-.1 1.02-.2a7 7 0 0 0 .82-.24v2.6a7 7 0 0 1-1.06.3q-.64.12-1.62.2t-2.42.14q-2.64.14-3.96 1.52-1.3 1.36-1.3 3.9v.58l-.12-.22a4.8 4.8 0 0 1 1.22-1.9 5.6 5.6 0 0 1 1.98-1.2 7 7 0 0 1 2.52-.44q1.74 0 3.04.66t2.02 1.84q.74 1.18.74 2.76 0 1.66-.84 2.9-.82 1.24-2.32 1.92t-3.5.68m.06-2.38q1.06 0 1.82-.38.78-.38 1.2-1.08.44-.7.44-1.62t-.44-1.6a2.8 2.8 0 0 0-1.2-1.08q-.76-.38-1.82-.38-1.42 0-2.54.76-1.1.76-1.64 2.16.32 1.48 1.44 2.36 1.14.86 2.74.86m21.486-2.5a4.8 4.8 0 0 1-1.1 2.54q-.92 1.1-2.36 1.72t-3.22.62q-2.02 0-3.54-.76t-2.38-2.1-.86-3.12q0-1.76.86-3.1.86-1.36 2.38-2.12t3.54-.76q1.78 0 3.22.62t2.36 1.72 1.1 2.56h-3.1q-.26-1.2-1.24-1.86-.96-.66-2.34-.66-1.1 0-1.94.44-.82.42-1.28 1.22-.44.8-.44 1.94 0 1.12.44 1.94.46.8 1.28 1.24.84.42 1.94.42 1.4 0 2.36-.68.98-.68 1.22-1.82zm3.514-6.78h11.56V44h-3.1V33.56l1.44 1.44h-8.34l1.32-1.14q.1 1.22.16 2.28.08 1.06.08 1.9 0 3.24-.96 4.72-.94 1.46-3.04 1.46-.58 0-1.12-.12a4 4 0 0 1-1.02-.4v-2.26q.36.14.7.22.36.06.64.06 1.06 0 1.52-.96t.46-3.16q0-.98-.08-2.22a46 46 0 0 0-.22-2.74m17.213 14.96q-1.08 0-1.96-.28a6.2 6.2 0 0 1-1.64-.78v-2.26q.82.52 1.56.74.74.24 1.64.24.82 0 1.46-.36t1.04-1.3l4.86-10.96h3.3l-5.74 11.96q-.52 1.1-1.24 1.74-.7.66-1.54.96-.819.3-1.74.3m.92-4.2-5.1-10.76h3.42l4.7 10.76zm19.267.6V32.64h3.08V44zm9.42 0-4.88-5.8 4.68-5.56h3.52l-4.78 5.46 5.12 5.9zm-19.42 0 5.12-5.9-4.78-5.46h3.52l4.68 5.56-4.88 5.8zm17.24-4.6h-11.4v-2.34h11.4zm6.955 4.6V32.64h3.04v9.76l-.8-.22 7.14-9.54h4V44h-3.06v-9.92l.84.22-7.28 9.7zm15.696 0V32.64h8.58q1.641 0 2.58.78.96.76.96 2.08 0 1.24-.96 2-.939.76-2.64.92l.22-.54q1.98.04 3.02.82 1.06.76 1.06 2.14 0 1.46-1.06 2.32-1.06.84-2.92.84zm3-.72-1.2-1.32h6.14q.92 0 1.34-.36.44-.38.44-1.06 0-.6-.48-.98-.46-.4-1.54-.4h-5.84v-1.84h5.42q.88 0 1.3-.36t.42-.96q0-.58-.38-.94-.36-.38-1.2-.38h-5.6l1.18-1.3zm20.872-5.68q0-1.34-.96-2.08-.96-.76-2.98-.76-1.14 0-2.34.28t-2.28.88V33.6q1.26-.66 2.56-.96t2.76-.3q1.92 0 3.32.6 1.4.58 2.18 1.74.8 1.14.8 2.82V44h-3.04zm-4.6-.92q2.54-.08 3.94.36 1.42.44 1.56.7.14.24.14 2.74 0 .48-.4 1.14t-1.14 1.28q-.74.6-1.78 1t-2.32.4q-1.4 0-2.52-.46-1.1-.46-1.74-1.32t-.64-2.02q0-1.18.64-2.02.66-.86 1.76-1.3 1.12-.46 2.5-.5m1.7 2.04q-2.08 0-2.86.46t-.78 1.22q0 .74.76 1.22.78.46 2.14.46 1.6 0 2.62-.88 1.02-.9 1.02-2.06-.82-.42-2.9-.42m8.371-6.08h3.08V44h-3.08zm9.56 0h3.08V44h-3.08zm-7.8 4.42h9.04v2.34h-9.04zM498.917 44V32.64h3.04v9.76l-.8-.22 7.14-9.54h4V44h-3.06v-9.92l.84.22-7.28 9.7zm22.317.3q-2 0-3.58-.76-1.56-.76-2.46-2.1-.9-1.36-.9-3.14t.84-3.1q.86-1.34 2.36-2.1t3.44-.76 3.34.88q1.42.86 2.18 2.42.78 1.56.78 3.68h-10.48v-2.14h8.86l-1.32.78q-.06-1.04-.5-1.76a3.1 3.1 0 0 0-1.16-1.14q-.72-.4-1.72-.4-1.06 0-1.84.44-.78.42-1.22 1.18t-.44 1.8q0 1.2.54 2.08.56.86 1.56 1.32 1.02.46 2.44.46a9.4 9.4 0 0 0 2.62-.38 9.1 9.1 0 0 0 2.36-1.08v2.12q-1.1.8-2.6 1.26-1.48.44-3.1.44M537.205 29h2.46q-1.3 2.22-1.92 4.32a14.7 14.7 0 0 0-.62 4.22q0 2.1.62 4.2t1.92 4.34h-2.46q-1.64-2.06-2.46-4.16a11.9 11.9 0 0 1-.82-4.38q0-2.28.82-4.38t2.46-4.16m8.472 8.68q-1.48 0-2.62-.56t-1.78-1.56q-.62-1-.62-2.32t.62-2.3q.64-1 1.78-1.56t2.62-.56q1.5 0 2.62.56a4.36 4.36 0 0 1 1.76 1.56q.64.98.64 2.3t-.64 2.32a4.36 4.36 0 0 1-1.76 1.56q-1.12.56-2.62.56m0-1.9q1.179 0 1.86-.66.68-.68.68-1.88 0-1.16-.68-1.84-.681-.7-1.86-.7t-1.86.7q-.68.68-.68 1.84 0 1.2.68 1.88.68.66 1.86.66m13.72 8.5q-1.48 0-2.62-.56a4.34 4.34 0 0 1-1.76-1.56q-.64-1-.64-2.32t.64-2.3a4.34 4.34 0 0 1 1.76-1.56q1.14-.56 2.62-.56 1.5 0 2.62.56a4.36 4.36 0 0 1 1.76 1.56q.64.98.64 2.3t-.64 2.32a4.36 4.36 0 0 1-1.76 1.56q-1.12.56-2.62.56m0-1.9q1.179 0 1.86-.68.68-.68.68-1.86t-.68-1.86-1.86-.68-1.86.68-.68 1.86.68 1.86 1.86.68M555.437 29h2.36l-8.14 15h-2.36zm12.425 0q1.64 2.06 2.44 4.16.82 2.1.82 4.38t-.82 4.38q-.8 2.1-2.44 4.16h-2.48q1.32-2.24 1.94-4.34t.62-4.2a14.7 14.7 0 0 0-.62-4.22q-.62-2.1-1.94-4.32z"/><rect width="562" height="286" x="24" y="69" fill="#fefefe" rx="30"/><path fill="#fafafa" d="M84.8 110h457v189h-457z"/><path stroke="#dbdee4" d="M84 300.5h456"/><path stroke="#de6a70" stroke-dasharray="8 6" d="M84 236.5h457.629M84 173.5h457.629M84 110.5h457.629" opacity=".3"/><path stroke="#54555a" d="M84 300.5h456M84.3 300v5m114-5v5m114-5v5m114-5v5m114-5v5"/><path fill="#111" d="M60.405 240.666v-1.056c1.452-.948 4.212-2.976 4.212-4.872 0-.864-.564-1.44-1.416-1.44-.864 0-1.476.588-1.692 1.752l-1.164-.3c.252-1.644 1.344-2.616 2.868-2.616 1.548 0 2.664.996 2.664 2.508 0 2.004-2.016 3.804-3.564 4.896h3.792v1.128zm9.839.12c-1.968 0-3.216-1.68-3.216-4.32s1.248-4.32 3.216-4.32c1.98 0 3.228 1.68 3.228 4.32s-1.248 4.32-3.228 4.32m0-1.164c1.248 0 1.944-1.152 1.944-3.156s-.696-3.156-1.944-3.156c-1.236 0-1.932 1.152-1.932 3.156s.696 3.156 1.932 3.156m-6.398-62.288v-1.656h-4.032v-1.044l3.432-5.7h1.812v5.652h1.116v1.092h-1.116v1.656zm-2.748-2.748h2.748v-4.488h-.096l-2.652 4.38zm9.146 2.868c-1.968 0-3.216-1.68-3.216-4.32s1.248-4.32 3.216-4.32c1.98 0 3.228 1.68 3.228 4.32s-1.248 4.32-3.228 4.32m0-1.164c1.248 0 1.944-1.152 1.944-3.156s-.696-3.156-1.944-3.156c-1.236 0-1.932 1.152-1.932 3.156s.696 3.156 1.932 3.156m-4.527-68.83-1.164.312c-.3-.78-.828-1.164-1.572-1.164-1.656 0-2.076 1.8-2.076 3.132.504-.804 1.416-1.2 2.316-1.2 1.428 0 2.76.96 2.76 2.712 0 1.704-1.248 2.868-3.072 2.868-2.064 0-3.24-1.5-3.24-4.212 0-2.772 1.224-4.428 3.276-4.428 1.356 0 2.376.732 2.772 1.98m-4.692 3.792c.24 1.128.864 1.716 1.86 1.716 1.092 0 1.836-.72 1.836-1.752 0-.996-.672-1.62-1.668-1.62-.876 0-1.8.48-2.016 1.344-.012.096-.012.204-.012.312m9.219 2.868c-1.968 0-3.216-1.68-3.216-4.32s1.248-4.32 3.216-4.32c1.98 0 3.228 1.68 3.228 4.32s-1.248 4.32-3.228 4.32m0-1.164c1.248 0 1.944-1.152 1.944-3.156s-.696-3.156-1.944-3.156c-1.236 0-1.932 1.152-1.932 3.156s.696 3.156 1.932 3.156M72.304 325v-1.056c1.452-.948 4.212-2.976 4.212-4.872 0-.864-.564-1.44-1.416-1.44-.864 0-1.476.588-1.692 1.752l-1.164-.3c.252-1.644 1.344-2.616 2.868-2.616 1.548 0 2.664.996 2.664 2.508 0 2.004-2.016 3.804-3.564 4.896h3.792V325zm9.838.12c-1.968 0-3.216-1.68-3.216-4.32s1.248-4.32 3.216-4.32c1.98 0 3.228 1.68 3.228 4.32s-1.248 4.32-3.228 4.32m0-1.164c1.248 0 1.944-1.152 1.944-3.156s-.696-3.156-1.944-3.156c-1.236 0-1.932 1.152-1.932 3.156s.696 3.156 1.932 3.156M86.354 325v-1.056c1.452-.948 4.212-2.976 4.212-4.872 0-.864-.564-1.44-1.416-1.44-.864 0-1.476.588-1.692 1.752l-1.164-.3c.252-1.644 1.344-2.616 2.868-2.616 1.548 0 2.664.996 2.664 2.508 0 2.004-2.016 3.804-3.564 4.896h3.792V325zm6.551 0v-1.056c1.452-.948 4.212-2.976 4.212-4.872 0-.864-.564-1.44-1.416-1.44-.864 0-1.476.588-1.692 1.752l-1.164-.3c.252-1.644 1.344-2.616 2.868-2.616 1.548 0 2.664.996 2.664 2.508 0 2.004-2.016 3.804-3.564 4.896h3.792V325zm92.86 0v-1.056c1.452-.948 4.212-2.976 4.212-4.872 0-.864-.564-1.44-1.416-1.44-.864 0-1.476.588-1.692 1.752l-1.164-.3c.252-1.644 1.344-2.616 2.868-2.616 1.548 0 2.664.996 2.664 2.508 0 2.004-2.016 3.804-3.564 4.896h3.792V325zm9.838.12c-1.968 0-3.216-1.68-3.216-4.32s1.248-4.32 3.216-4.32c1.98 0 3.228 1.68 3.228 4.32s-1.248 4.32-3.228 4.32m0-1.164c1.248 0 1.944-1.152 1.944-3.156s-.696-3.156-1.944-3.156c-1.236 0-1.932 1.152-1.932 3.156s.696 3.156 1.932 3.156m4.212 1.044v-1.056c1.452-.948 4.212-2.976 4.212-4.872 0-.864-.564-1.44-1.416-1.44-.864 0-1.476.588-1.692 1.752l-1.164-.3c.252-1.644 1.344-2.616 2.868-2.616 1.548 0 2.664.996 2.664 2.508 0 2.004-2.016 3.804-3.564 4.896h3.792V325zm9.479.108c-1.452 0-2.628-.744-2.976-2.016l1.14-.312c.312.78.924 1.176 1.86 1.176 1.116 0 1.8-.708 1.8-1.776 0-.996-.612-1.584-1.656-1.584-.432 0-.852.096-1.164.288l-.432-.768 2.532-2.376h-3.672v-1.14h5.208v1.032l-2.16 2.016h.156c1.404 0 2.46 1.008 2.46 2.58 0 1.752-1.284 2.88-3.096 2.88m90.658-.108v-1.056c1.452-.948 4.212-2.976 4.212-4.872 0-.864-.564-1.44-1.416-1.44-.864 0-1.476.588-1.692 1.752l-1.164-.3c.252-1.644 1.344-2.616 2.868-2.616 1.548 0 2.664.996 2.664 2.508 0 2.004-2.016 3.804-3.564 4.896h3.792V325zm9.839.12c-1.968 0-3.216-1.68-3.216-4.32s1.248-4.32 3.216-4.32c1.98 0 3.228 1.68 3.228 4.32s-1.248 4.32-3.228 4.32m0-1.164c1.248 0 1.944-1.152 1.944-3.156s-.696-3.156-1.944-3.156c-1.236 0-1.932 1.152-1.932 3.156s.696 3.156 1.932 3.156m4.212 1.044v-1.056c1.452-.948 4.212-2.976 4.212-4.872 0-.864-.564-1.44-1.416-1.44-.864 0-1.476.588-1.692 1.752l-1.164-.3c.252-1.644 1.344-2.616 2.868-2.616 1.548 0 2.664.996 2.664 2.508 0 2.004-2.016 3.804-3.564 4.896h3.792V325zm10.343 0v-1.656h-4.032V322.3l3.432-5.7h1.812v5.652h1.116v1.092h-1.116V325zm-2.748-2.748h2.748v-4.488h-.096l-2.652 4.38zM413.929 325v-1.056c1.452-.948 4.212-2.976 4.212-4.872 0-.864-.564-1.44-1.416-1.44-.864 0-1.476.588-1.692 1.752l-1.164-.3c.252-1.644 1.344-2.616 2.868-2.616 1.548 0 2.664.996 2.664 2.508 0 2.004-2.016 3.804-3.564 4.896h3.792V325zm9.838.12c-1.968 0-3.216-1.68-3.216-4.32s1.248-4.32 3.216-4.32c1.98 0 3.228 1.68 3.228 4.32s-1.248 4.32-3.228 4.32m0-1.164c1.248 0 1.944-1.152 1.944-3.156s-.696-3.156-1.944-3.156c-1.236 0-1.932 1.152-1.932 3.156s.696 3.156 1.932 3.156m4.212 1.044v-1.056c1.452-.948 4.212-2.976 4.212-4.872 0-.864-.564-1.44-1.416-1.44-.864 0-1.476.588-1.692 1.752l-1.164-.3c.252-1.644 1.344-2.616 2.868-2.616 1.548 0 2.664.996 2.664 2.508 0 2.004-2.016 3.804-3.564 4.896h3.792V325zm9.539.108c-1.452 0-2.616-.72-2.988-2.016l1.164-.312c.3.792.96 1.176 1.836 1.176 1.2 0 1.812-.708 1.812-1.752 0-1.056-.636-1.632-1.632-1.632-.708 0-1.32.288-1.788.768l-1.032-.312.468-4.428h4.692v1.14h-3.684l-.264 2.376c.528-.384 1.14-.6 1.86-.6 1.596 0 2.64 1.008 2.64 2.64 0 1.74-1.212 2.952-3.084 2.952m89.977-.108v-1.056c1.452-.948 4.212-2.976 4.212-4.872 0-.864-.564-1.44-1.416-1.44-.864 0-1.476.588-1.692 1.752l-1.164-.3c.252-1.644 1.344-2.616 2.868-2.616 1.548 0 2.664.996 2.664 2.508 0 2.004-2.016 3.804-3.564 4.896h3.792V325zm9.839.12c-1.968 0-3.216-1.68-3.216-4.32s1.248-4.32 3.216-4.32c1.98 0 3.228 1.68 3.228 4.32s-1.248 4.32-3.228 4.32m0-1.164c1.248 0 1.944-1.152 1.944-3.156s-.696-3.156-1.944-3.156c-1.236 0-1.932 1.152-1.932 3.156s.696 3.156 1.932 3.156m4.212 1.044v-1.056c1.452-.948 4.212-2.976 4.212-4.872 0-.864-.564-1.44-1.416-1.44-.864 0-1.476.588-1.692 1.752l-1.164-.3c.252-1.644 1.344-2.616 2.868-2.616 1.548 0 2.664.996 2.664 2.508 0 2.004-2.016 3.804-3.564 4.896h3.792V325zm12.671-6.54-1.164.312c-.3-.78-.828-1.164-1.572-1.164-1.656 0-2.076 1.8-2.076 3.132.504-.804 1.416-1.2 2.316-1.2 1.428 0 2.76.96 2.76 2.712 0 1.704-1.248 2.868-3.072 2.868-2.064 0-3.24-1.5-3.24-4.212 0-2.772 1.224-4.428 3.276-4.428 1.356 0 2.376.732 2.772 1.98m-4.692 3.792c.24 1.128.864 1.716 1.86 1.716 1.092 0 1.836-.72 1.836-1.752 0-.996-.672-1.62-1.668-1.62-.876 0-1.8.48-2.016 1.344-.012.096-.012.204-.012.312"/><path stroke="#de6a70" stroke-linejoin="bevel" stroke-width="2" d="m84 256.933 114-11.083 114-28.817L426 146.1l114-24.383"/><path fill="#fafafa" stroke="#de6a70" stroke-width="2" d="M87 256.934a3 3 0 1 1-6.002-.002 3 3 0 0 1 6.002.002Zm114-11.084a3 3 0 1 1-6-.001 3 3 0 0 1 6 .001Zm114-28.817a3 3 0 1 1-6 0 3 3 0 0 1 6 0ZM429 146.1a3 3 0 1 1-6-.001 3 3 0 0 1 6 .001Zm114-24.383c0 .796-.316 1.559-.879 2.121a2.996 2.996 0 0 1-4.242 0 3 3 0 1 1 5.121-2.121Z"/><path fill="#111" d="M452.43 104v-8.4h5.808v8.4h-.96v-7.488h-3.888V104zm8.023 0v-6.24h.888v4.668h.12l3.312-4.668h.912V104h-.888v-4.728h-.12l-3.36 4.728zm7.277 0v-6.24h.888v2.724h.048l2.76-2.724h1.128l-2.964 2.916 3.144 3.324h-1.212l-2.844-3.084h-.06V104zm9.446 0v-6.24h5.172V104h-.888v-5.4h-3.396v5.4zm9.655.072c-1.74 0-2.916-1.212-2.916-3v-.228c0-1.884 1.176-3.156 2.928-3.156h.096c1.608 0 2.676 1.164 2.676 2.916v.672h-4.752c.084 1.152.864 1.908 2.016 1.908h.12c.852 0 1.404-.408 1.752-.936l.708.468c-.588.876-1.428 1.356-2.532 1.356zm-1.956-3.636h3.864c-.06-1.116-.78-1.86-1.836-1.86h-.12c-1.056 0-1.764.72-1.908 1.86m6.305 5.964v-8.64h.696c.072.204.156.552.18.828.492-.564 1.212-.9 2.052-.9h.108c1.644 0 2.796 1.26 2.796 3.036v.312c0 1.776-1.152 3.036-2.796 3.036h-.108c-.84 0-1.548-.324-2.04-.876v3.204zm2.844-3.216h.096c1.164 0 1.956-.876 1.956-2.148v-.312c0-1.272-.792-2.148-1.956-2.148h-.096c-1.176 0-1.956.888-1.956 2.148v.312c0 1.272.792 2.148 1.956 2.148m7.01.888c-1.74 0-2.916-1.212-2.916-3v-.228c0-1.884 1.176-3.156 2.928-3.156h.096c1.608 0 2.676 1.164 2.676 2.916v.672h-4.752c.084 1.152.864 1.908 2.016 1.908h.12c.852 0 1.404-.408 1.752-.936l.708.468c-.588.876-1.428 1.356-2.532 1.356zm-1.956-3.636h3.864c-.06-1.116-.78-1.86-1.836-1.86h-.12c-1.056 0-1.764.72-1.908 1.86m5.29 3.564 2.148-3.168v-.048l-2.052-3.024h1.116l1.524 2.352h.048l1.44-2.352h1.08l-2.04 3.036v.048l2.136 3.156h-1.116l-1.56-2.484h-.048L505.448 104zm8.77.072c-1.692 0-2.88-1.26-2.88-3.036v-.312c0-1.776 1.188-3.036 2.88-3.036h.12c1.692 0 2.88 1.26 2.88 3.036v.312c0 1.776-1.188 3.036-2.88 3.036zm.012-.888h.096c1.176 0 1.956-.888 1.956-2.148v-.312c0-1.272-.792-2.148-1.956-2.148h-.096c-1.164 0-1.956.876-1.956 2.148v.312c0 1.26.78 2.148 1.956 2.148m3.721 2.352v-2.376h.468c.54-.288.804-2.004.804-5.4h4.164v5.4h.816v2.376h-.864V104h-4.524v1.536zm1.452-2.376h3.096V98.6h-2.412c-.036 2.844-.3 4.296-.684 4.56m7.793.936c-1.212 0-2.052-.732-2.052-1.848v-.084c0-1.344 1.176-2.004 3.576-2.004h.576v-.432c0-.732-.516-1.176-1.404-1.176h-.072c-.66 0-1.392.252-1.92.672l-.444-.732c.756-.516 1.548-.84 2.424-.84h.072c1.392 0 2.232.78 2.232 2.004v3.324c0 .336.108.756.216 1.02h-.912c-.072-.18-.132-.504-.168-.768-.636.564-1.368.864-2.124.864m.048-.888c.84 0 1.56-.384 2.052-.972v-1.248h-.396c-2.016 0-2.844.336-2.844 1.164v.06c0 .612.48.996 1.188.996m-48.978 18.9c-1.452 0-2.616-.72-2.988-2.016l1.164-.312c.3.792.96 1.176 1.836 1.176 1.2 0 1.812-.708 1.812-1.752 0-1.056-.636-1.632-1.632-1.632-.708 0-1.32.288-1.788.768l-1.032-.312.468-4.428h4.692v1.14h-3.684l-.264 2.376c.528-.384 1.14-.6 1.86-.6 1.596 0 2.64 1.008 2.64 2.64 0 1.74-1.212 2.952-3.084 2.952m10.057-6.648-1.164.312c-.3-.78-.828-1.164-1.572-1.164-1.656 0-2.076 1.8-2.076 3.132.504-.804 1.416-1.2 2.316-1.2 1.428 0 2.76.96 2.76 2.712 0 1.704-1.248 2.868-3.072 2.868-2.064 0-3.24-1.5-3.24-4.212 0-2.772 1.224-4.428 3.276-4.428 1.356 0 2.376.732 2.772 1.98m-4.692 3.792c.24 1.128.864 1.716 1.86 1.716 1.092 0 1.836-.72 1.836-1.752 0-.996-.672-1.62-1.668-1.62-.876 0-1.8.48-2.016 1.344-.012.096-.012.204-.012.312m6.82 2.868c-.444 0-.804-.336-.804-.756v-.048c0-.408.36-.744.804-.744.432 0 .804.336.804.744v.048c0 .42-.372.756-.804.756m4.723-.012c-1.452 0-2.628-.744-2.976-2.016l1.14-.312c.312.78.924 1.176 1.86 1.176 1.116 0 1.8-.708 1.8-1.776 0-.996-.612-1.584-1.656-1.584-.432 0-.852.096-1.164.288l-.432-.768 2.532-2.376h-3.672v-1.14h5.208v1.032l-2.16 2.016h.156c1.404 0 2.46 1.008 2.46 2.58 0 1.752-1.284 2.88-3.096 2.88m6.13-4.14c-1.14 0-1.896-.864-1.896-2.124v-.216c0-1.26.756-2.124 1.896-2.124h.084c1.14 0 1.896.864 1.896 2.124v.216c0 1.26-.756 2.124-1.896 2.124zM498.808 122l6.336-8.412h1.404L500.212 122zm1.44-5.028h.036c.528 0 .876-.456.876-1.152v-.168c0-.696-.348-1.152-.876-1.152h-.036c-.528 0-.876.456-.876 1.152v.168c0 .696.348 1.152.876 1.152m4.788 5.124c-1.128 0-1.884-.864-1.884-2.124v-.216c0-1.26.756-2.124 1.884-2.124h.096c1.128 0 1.896.864 1.896 2.124v.216c0 1.26-.768 2.124-1.896 2.124zm.036-.996h.024c.528 0 .888-.456.888-1.152v-.168c0-.696-.36-1.152-.888-1.152h-.024c-.528 0-.888.456-.888 1.152v.168c0 .696.36 1.152.888 1.152M132.023 195v-8.4h2.472c1.716 0 2.88.948 2.88 2.544v.192c0 1.608-1.128 2.58-2.856 2.58h-1.536V195zm.96-3.996h1.512c1.188 0 1.872-.576 1.872-1.656v-.192c0-1.068-.696-1.644-1.872-1.644h-1.512zm8.035 4.068c-1.74 0-2.916-1.212-2.916-3v-.228c0-1.884 1.176-3.156 2.928-3.156h.096c1.608 0 2.676 1.164 2.676 2.916v.672h-4.752c.084 1.152.864 1.908 2.016 1.908h.12c.852 0 1.404-.408 1.752-.936l.708.468c-.588.876-1.428 1.356-2.532 1.356zm-1.956-3.636h3.864c-.06-1.116-.78-1.86-1.836-1.86h-.12c-1.056 0-1.764.72-1.908 1.86m6.017 3.648c-.204 0-.372-.036-.528-.084v-.816c.132.06.276.084.408.084.732 0 .888-.528.924-3.024l.036-2.484h4.092V195h-.888v-5.4h-2.376l-.024 1.692c-.036 3.144-.552 3.792-1.644 3.792m6.967-.084v-6.24h.888v4.668h.12l3.312-4.668h.912V195h-.888v-4.728h-.12L152.91 195zm9.102.072c-.996 0-1.92-.468-2.448-1.416l.732-.456c.372.636.9 1.008 1.752 1.008h.12c.804 0 1.332-.372 1.332-.936v-.096c0-.624-.432-.948-1.236-.948h-.96v-.816h.984c.576 0 .96-.348.96-.864v-.12c0-.516-.444-.864-1.104-.864h-.096c-.78 0-1.296.36-1.584.996l-.78-.456c.456-.9 1.296-1.416 2.364-1.416h.12c1.176 0 2.004.672 2.004 1.632v.156c0 .504-.252.924-.708 1.248.624.324.972.816.972 1.452v.144c0 1.044-.924 1.752-2.304 1.752zm6.995.024c-.216 0-.42-.036-.624-.096v-.888c.18.06.336.096.552.096.996 0 1.188-.756 1.272-5.196l.048-2.412h4.944v8.4h-.96v-7.488h-3.048l-.036 1.728c-.096 4.848-.468 5.856-2.148 5.856m8.407-.096v-6.24h.888v4.668h.12l3.312-4.668h.912V195h-.888v-4.728h-.12l-3.36 4.728zm9.75.072c-1.752 0-2.94-1.236-2.94-3.036v-.312c0-1.8 1.212-3.036 2.916-3.036h.096c1.068 0 2.004.576 2.52 1.572l-.72.396c-.36-.708-1.008-1.092-1.812-1.092h-.12c-1.176 0-1.944.864-1.944 2.16v.312c0 1.296.804 2.16 2.016 2.16h.12c.732 0 1.344-.372 1.728-1.056l.744.396c-.564.984-1.464 1.536-2.508 1.536zm5.22-.072v-5.4h-1.98v-.84h4.848v.84h-1.98v5.4zm6.544.072c-1.692 0-2.88-1.26-2.88-3.036v-.312c0-1.776 1.188-3.036 2.88-3.036h.12c1.692 0 2.88 1.26 2.88 3.036v.312c0 1.776-1.188 3.036-2.88 3.036zm.012-.888h.096c1.176 0 1.956-.888 1.956-2.148v-.312c0-1.272-.792-2.148-1.956-2.148h-.096c-1.164 0-1.956.876-1.956 2.148v.312c0 1.26.78 2.148 1.956 2.148m4.56.816v-6.24h2.64c1.14 0 1.896.636 1.896 1.596v.168c0 .516-.252.936-.66 1.224.612.264.972.78.972 1.38v.156c0 1.032-.852 1.716-2.1 1.716zm.888-3.588h1.764c.576 0 .96-.348.96-.876v-.06c0-.528-.372-.876-.948-.876h-1.776zm0 2.748h1.92c.648 0 1.104-.372 1.104-.912v-.108c0-.552-.432-.912-1.104-.912h-1.92zm11.18.912c-1.692 0-2.88-1.26-2.88-3.036v-.312c0-1.776 1.188-3.036 2.88-3.036h.12c1.692 0 2.88 1.26 2.88 3.036v.312c0 1.776-1.188 3.036-2.88 3.036zm.012-.888h.096c1.176 0 1.956-.888 1.956-2.148v-.312c0-1.272-.792-2.148-1.956-2.148h-.096c-1.164 0-1.956.876-1.956 2.148v.312c0 1.26.78 2.148 1.956 2.148m7.201.816v-3.084h-.096L219.445 195h-1.128l2.652-3.324-2.472-2.916h1.044l2.304 2.724h.072v-2.724h.888v2.724h.072l2.304-2.724h1.044l-2.472 2.916 2.652 3.324h-1.128l-2.376-3.084h-.096V195zm5.563 0v-6.24h.888v4.668h.12l3.312-4.668h.912V195h-.888v-4.728h-.12l-3.36 4.728zm6.437 1.536v-2.376h.468c.54-.288.804-2.004.804-5.4h4.164v5.4h.816v2.376h-.864V195h-4.524v1.536zm1.452-2.376h3.096v-4.56h-2.412c-.036 2.844-.3 4.296-.684 4.56m7.793.936c-1.212 0-2.052-.732-2.052-1.848v-.084c0-1.344 1.176-2.004 3.576-2.004h.576v-.432c0-.732-.516-1.176-1.404-1.176h-.072c-.66 0-1.392.252-1.92.672l-.444-.732c.756-.516 1.548-.84 2.424-.84h.072c1.392 0 2.232.78 2.232 2.004v3.324c0 .336.108.756.216 1.02h-.912c-.072-.18-.132-.504-.168-.768-.636.564-1.368.864-2.124.864m.048-.888c.84 0 1.56-.384 2.052-.972v-1.248h-.396c-2.016 0-2.844.336-2.844 1.164v.06c0 .612.48.996 1.188.996m4.93.792v-6.24h.888v2.58h3.288v-2.58h.888V195h-.888v-2.82h-3.288V195zm7.102 0v-6.24h.888v4.668h.12l3.312-4.668h.912V195h-.888v-4.728h-.12l-3.36 4.728zm8.069-8.652h.864c0 .564.384.936.96.936s.948-.372.948-.936h.864c0 .996-.708 1.656-1.812 1.656s-1.824-.66-1.824-1.656m-.792 8.652v-6.24h.888v4.668h.12l3.312-4.668h.912V195h-.888v-4.728h-.12l-3.36 4.728zm-86.736 18v-6.24h.888v4.668h.12l3.312-4.668h.912V213h-.888v-4.728h-.12l-3.36 4.728zm13.076.096c-1.368 0-2.46-.708-3.12-1.848l.792-.516c.588.984 1.344 1.452 2.364 1.452 1.164 0 1.884-.588 1.884-1.512v-.048c0-.912-.684-1.476-1.764-1.476h-1.044v-.912h.792c.984 0 1.596-.54 1.596-1.416v-.048c0-.792-.66-1.344-1.632-1.344-.852 0-1.512.432-1.932 1.236l-.816-.516c.66-1.056 1.656-1.656 2.832-1.656 1.476 0 2.556.912 2.556 2.16v.048c0 .768-.408 1.392-.984 1.824.828.396 1.404 1.164 1.404 2.16v.036c0 1.356-1.272 2.376-2.928 2.376m6.25 0c-1.212 0-2.052-.732-2.052-1.848v-.084c0-1.344 1.176-2.004 3.576-2.004h.576v-.432c0-.732-.516-1.176-1.404-1.176h-.072c-.66 0-1.392.252-1.92.672l-.444-.732c.756-.516 1.548-.84 2.424-.84h.072c1.392 0 2.232.78 2.232 2.004v3.324c0 .336.108.756.216 1.02h-.912c-.072-.18-.132-.504-.168-.768-.636.564-1.368.864-2.124.864m.048-.888c.84 0 1.56-.384 2.052-.972v-1.248h-.396c-2.016 0-2.844.336-2.844 1.164v.06c0 .612.48.996 1.188.996m4.378.792 1.5-2.508c-.744-.276-1.236-.9-1.236-1.704v-.18c0-1.092.852-1.848 2.052-1.848h2.604V213h-.888v-2.364h-1.632L200.543 213zm2.256-3.204h1.776V207.6h-1.776c-.624 0-1.056.408-1.056 1.032v.132c0 .6.456 1.032 1.056 1.032m4.707 3.204v-6.24h2.64c1.14 0 1.896.636 1.896 1.596v.168c0 .516-.252.936-.66 1.224.612.264.972.78.972 1.38v.156c0 1.032-.852 1.716-2.1 1.716zm.888-3.588h1.764c.576 0 .96-.348.96-.876v-.06c0-.528-.372-.876-.948-.876h-1.776zm0 2.748h1.92c.648 0 1.104-.372 1.104-.912v-.108c0-.552-.432-.912-1.104-.912h-1.92zm7.817.912c-1.692 0-2.88-1.26-2.88-3.036v-.312c0-1.776 1.188-3.036 2.88-3.036h.12c1.692 0 2.88 1.26 2.88 3.036v.312c0 1.776-1.188 3.036-2.88 3.036zm.012-.888h.096c1.176 0 1.956-.888 1.956-2.148v-.312c0-1.272-.792-2.148-1.956-2.148h-.096c-1.164 0-1.956.876-1.956 2.148v.312c0 1.26.78 2.148 1.956 2.148m4.56.816v-6.24h.888v2.724h.048l2.76-2.724h1.128l-2.964 2.916 3.144 3.324h-1.212l-2.844-3.084h-.06V213zm-30.805 9.6h1.188v8.4h-1.236v-6.132c-.516.48-1.26.744-2.028.744v-1.056c1.188-.048 2.076-.864 2.076-1.956m3.319 8.4 3.18-7.14v-.108h-3.996V222.6h5.34v1.02l-3.144 7.38zm4.964.12c-.444 0-.804-.336-.804-.756v-.048c0-.408.36-.744.804-.744.432 0 .804.336.804.744v.048c0 .42-.372.756-.804.756m3.752-8.52h1.188v8.4h-1.236v-6.132c-.516.48-1.26.744-2.028.744v-1.056c1.188-.048 2.076-.864 2.076-1.956m4.699 4.368c-1.14 0-1.896-.864-1.896-2.124v-.216c0-1.26.756-2.124 1.896-2.124h.084c1.14 0 1.896.864 1.896 2.124v.216c0 1.26-.756 2.124-1.896 2.124zM204.288 231l6.336-8.412h1.404L205.692 231zm1.44-5.028h.036c.528 0 .876-.456.876-1.152v-.168c0-.696-.348-1.152-.876-1.152h-.036c-.528 0-.876.456-.876 1.152v.168c0 .696.348 1.152.876 1.152m4.788 5.124c-1.128 0-1.884-.864-1.884-2.124v-.216c0-1.26.756-2.124 1.884-2.124h.096c1.128 0 1.896.864 1.896 2.124v.216c0 1.26-.768 2.124-1.896 2.124zm.036-.996h.024c.528 0 .888-.456.888-1.152v-.168c0-.696-.36-1.152-.888-1.152h-.024c-.528 0-.888.456-.888 1.152v.168c0 .696.36 1.152.888 1.152m108.751 1.9v-1.056c1.452-.948 4.212-2.976 4.212-4.872 0-.864-.564-1.44-1.416-1.44-.864 0-1.476.588-1.692 1.752l-1.164-.3c.252-1.644 1.344-2.616 2.868-2.616 1.548 0 2.664.996 2.664 2.508 0 2.004-2.016 3.804-3.564 4.896h3.792V232zm12.67-6.54-1.164.312c-.3-.78-.828-1.164-1.572-1.164-1.656 0-2.076 1.8-2.076 3.132.504-.804 1.416-1.2 2.316-1.2 1.428 0 2.76.96 2.76 2.712 0 1.704-1.248 2.868-3.072 2.868-2.064 0-3.24-1.5-3.24-4.212 0-2.772 1.224-4.428 3.276-4.428 1.356 0 2.376.732 2.772 1.98m-4.692 3.792c.24 1.128.864 1.716 1.86 1.716 1.092 0 1.836-.72 1.836-1.752 0-.996-.672-1.62-1.668-1.62-.876 0-1.8.48-2.016 1.344-.012.096-.012.204-.012.312m6.82 2.868c-.444 0-.804-.336-.804-.756v-.048c0-.408.36-.744.804-.744.432 0 .804.336.804.744v.048c0 .42-.372.756-.804.756m1.795-.12v-1.056c1.452-.948 4.212-2.976 4.212-4.872 0-.864-.564-1.44-1.416-1.44-.864 0-1.476.588-1.692 1.752l-1.164-.3c.252-1.644 1.344-2.616 2.868-2.616 1.548 0 2.664.996 2.664 2.508 0 2.004-2.016 3.804-3.564 4.896h3.792V232zm8.519-4.032c-1.14 0-1.896-.864-1.896-2.124v-.216c0-1.26.756-2.124 1.896-2.124h.084c1.14 0 1.896.864 1.896 2.124v.216c0 1.26-.756 2.124-1.896 2.124zM342.999 232l6.336-8.412h1.404L344.403 232zm1.44-5.028h.036c.528 0 .876-.456.876-1.152v-.168c0-.696-.348-1.152-.876-1.152h-.036c-.528 0-.876.456-.876 1.152v.168c0 .696.348 1.152.876 1.152m4.788 5.124c-1.128 0-1.884-.864-1.884-2.124v-.216c0-1.26.756-2.124 1.884-2.124h.096c1.128 0 1.896.864 1.896 2.124v.216c0 1.26-.768 2.124-1.896 2.124zm.036-.996h.024c.528 0 .888-.456.888-1.152v-.168c0-.696-.36-1.152-.888-1.152h-.024c-.528 0-.888.456-.888 1.152v.168c0 .696.36 1.152.888 1.152M295.209 250v-8.4h2.472c1.716 0 2.88.948 2.88 2.544v.192c0 1.608-1.128 2.58-2.856 2.58h-1.536V250zm.96-3.996h1.512c1.188 0 1.872-.576 1.872-1.656v-.192c0-1.068-.696-1.644-1.872-1.644h-1.512zm8.034 4.068c-1.74 0-2.916-1.212-2.916-3v-.228c0-1.884 1.176-3.156 2.928-3.156h.096c1.608 0 2.676 1.164 2.676 2.916v.672h-4.752c.084 1.152.864 1.908 2.016 1.908h.12c.852 0 1.404-.408 1.752-.936l.708.468c-.588.876-1.428 1.356-2.532 1.356zm-1.956-3.636h3.864c-.06-1.116-.78-1.86-1.836-1.86h-.12c-1.056 0-1.764.72-1.908 1.86m6.017 3.648c-.204 0-.372-.036-.528-.084v-.816c.132.06.276.084.408.084.732 0 .888-.528.924-3.024l.036-2.484h4.092V250h-.888v-5.4h-2.376l-.024 1.692c-.036 3.144-.552 3.792-1.644 3.792m6.968-.084v-6.24h.888v4.668h.12l3.312-4.668h.912V250h-.888v-4.728h-.12l-3.36 4.728zm9.101.072c-.996 0-1.92-.468-2.448-1.416l.732-.456c.372.636.9 1.008 1.752 1.008h.12c.804 0 1.332-.372 1.332-.936v-.096c0-.624-.432-.948-1.236-.948h-.96v-.816h.984c.576 0 .96-.348.96-.864v-.12c0-.516-.444-.864-1.104-.864h-.096c-.78 0-1.296.36-1.584.996l-.78-.456c.456-.9 1.296-1.416 2.364-1.416h.12c1.176 0 2.004.672 2.004 1.632v.156c0 .504-.252.924-.708 1.248.624.324.972.816.972 1.452v.144c0 1.044-.924 1.752-2.304 1.752zm7.403-.072v-8.4h4.428v.912h-3.468v2.928h3.228v.912h-3.228V250zm9.199.096c-1.98 0-3.096-1.08-3.096-3.096v-5.4h.96v5.28c0 1.524.756 2.268 2.136 2.268s2.124-.744 2.124-2.268v-5.28h.96v5.4c0 2.016-1.104 3.096-3.084 3.096m5.368-.096v-8.4h1.104l3.888 6.78h.048v-6.78h.96v8.4h-1.032l-3.912-6.816h-.096V250zm8.402 0v-8.4h2.412c1.644 0 2.736.804 2.736 2.088v.12c0 .72-.3 1.296-.9 1.716.888.396 1.38 1.092 1.38 2.028v.108c0 1.452-1.104 2.34-2.832 2.34zm.96-4.764h1.536c1.068 0 1.644-.492 1.644-1.344v-.096c0-.792-.588-1.284-1.644-1.284h-1.536zm0 3.852h1.812c1.164 0 1.848-.504 1.848-1.416v-.108c0-.9-.696-1.416-1.848-1.416h-1.812zm5.903-3.168v-.24c0-2.544 1.632-4.188 3.864-4.188h.12c2.232 0 3.864 1.644 3.864 4.188v.24c0 2.544-1.632 4.188-3.864 4.188h-.12c-2.232 0-3.864-1.644-3.864-4.188m1.008 0c0 1.968 1.248 3.252 2.868 3.252h.096c1.62 0 2.868-1.284 2.868-3.252v-.24c0-1.968-1.248-3.252-2.868-3.252h-.096c-1.62 0-2.868 1.284-2.868 3.252zm7.292 4.08 2.64-4.332v-.048l-2.4-4.02h1.164l1.86 3.24h.048l1.932-3.24h1.092l-2.412 4.02v.048l2.652 4.332h-1.152l-2.112-3.552h-.048L370.996 250zm53.923-82v-1.656h-4.032V165.3l3.432-5.7h1.812v5.652h1.116v1.092h-1.116V168zm-2.748-2.748h2.748v-4.488h-.096l-2.652 4.38zm9.014 2.856c-1.908 0-3.108-.948-3.108-2.436 0-1.02.576-1.776 1.56-2.148-.768-.36-1.212-1.008-1.212-1.872 0-1.332 1.068-2.172 2.76-2.172 1.68 0 2.748.84 2.748 2.172 0 .864-.444 1.512-1.212 1.872.984.372 1.56 1.128 1.56 2.148 0 1.488-1.2 2.436-3.096 2.436m0-5.052c.96 0 1.524-.456 1.524-1.224 0-.78-.564-1.224-1.524-1.224-.972 0-1.524.444-1.524 1.224 0 .768.552 1.224 1.524 1.224m0 3.9c1.176 0 1.848-.516 1.848-1.416s-.672-1.428-1.848-1.428c-1.188 0-1.872.528-1.872 1.428s.684 1.416 1.872 1.416m4.939 1.164c-.444 0-.804-.336-.804-.756v-.048c0-.408.36-.744.804-.744.432 0 .804.336.804.744v.048c0 .42-.372.756-.804.756m7.916-6.66-1.164.312c-.3-.78-.828-1.164-1.572-1.164-1.656 0-2.076 1.8-2.076 3.132.504-.804 1.416-1.2 2.316-1.2 1.428 0 2.76.96 2.76 2.712 0 1.704-1.248 2.868-3.072 2.868-2.064 0-3.24-1.5-3.24-4.212 0-2.772 1.224-4.428 3.276-4.428 1.356 0 2.376.732 2.772 1.98m-4.692 3.792c.24 1.128.864 1.716 1.86 1.716 1.092 0 1.836-.72 1.836-1.752 0-.996-.672-1.62-1.668-1.62-.876 0-1.8.48-2.016 1.344-.012.096-.012.204-.012.312m7.899-1.284c-1.14 0-1.896-.864-1.896-2.124v-.216c0-1.26.756-2.124 1.896-2.124h.084c1.14 0 1.896.864 1.896 2.124v.216c0 1.26-.756 2.124-1.896 2.124zM444.703 168l6.336-8.412h1.404L446.107 168zm1.44-5.028h.036c.528 0 .876-.456.876-1.152v-.168c0-.696-.348-1.152-.876-1.152h-.036c-.528 0-.876.456-.876 1.152v.168c0 .696.348 1.152.876 1.152m4.788 5.124c-1.128 0-1.884-.864-1.884-2.124v-.216c0-1.26.756-2.124 1.884-2.124h.096c1.128 0 1.896.864 1.896 2.124v.216c0 1.26-.768 2.124-1.896 2.124zm.036-.996h.024c.528 0 .888-.456.888-1.152v-.168c0-.696-.36-1.152-.888-1.152h-.024c-.528 0-.888.456-.888 1.152v.168c0 .696.36 1.152.888 1.152M393.585 186v-8.4h2.472c1.716 0 2.88.948 2.88 2.544v.192c0 1.608-1.128 2.58-2.856 2.58h-1.536V186zm.96-3.996h1.512c1.188 0 1.872-.576 1.872-1.656v-.192c0-1.068-.696-1.644-1.872-1.644h-1.512zm8.034 4.068c-1.74 0-2.916-1.212-2.916-3v-.228c0-1.884 1.176-3.156 2.928-3.156h.096c1.608 0 2.676 1.164 2.676 2.916v.672h-4.752c.084 1.152.864 1.908 2.016 1.908h.12c.852 0 1.404-.408 1.752-.936l.708.468c-.588.876-1.428 1.356-2.532 1.356zm-1.956-3.636h3.864c-.06-1.116-.78-1.86-1.836-1.86h-.12c-1.056 0-1.764.72-1.908 1.86m5.465 5.1v-2.376h.468c.54-.288.804-2.004.804-5.4h4.164v5.4h.816v2.376h-.864V186h-4.524v1.536zm1.452-2.376h3.096v-4.56h-2.412c-.036 2.844-.3 4.296-.684 4.56m6.185.84v-6.24h.888v4.668h.12l3.312-4.668h.912V186h-.888v-4.728h-.12l-3.36 4.728zm9.101.072c-.996 0-1.92-.468-2.448-1.416l.732-.456c.372.636.9 1.008 1.752 1.008h.12c.804 0 1.332-.372 1.332-.936v-.096c0-.624-.432-.948-1.236-.948h-.96v-.816h.984c.576 0 .96-.348.96-.864v-.12c0-.516-.444-.864-1.104-.864h-.096c-.78 0-1.296.36-1.584.996l-.78-.456c.456-.9 1.296-1.416 2.364-1.416h.12c1.176 0 2.004.672 2.004 1.632v.156c0 .504-.252.924-.708 1.248.624.324.972.816.972 1.452v.144c0 1.044-.924 1.752-2.304 1.752zm5.468.024c-1.212 0-2.052-.732-2.052-1.848v-.084c0-1.344 1.176-2.004 3.576-2.004h.576v-.432c0-.732-.516-1.176-1.404-1.176h-.072c-.66 0-1.392.252-1.92.672l-.444-.732c.756-.516 1.548-.84 2.424-.84h.072c1.392 0 2.232.78 2.232 2.004v3.324c0 .336.108.756.216 1.02h-.912c-.072-.18-.132-.504-.168-.768-.636.564-1.368.864-2.124.864m.048-.888c.84 0 1.56-.384 2.052-.972v-1.248h-.396c-2.016 0-2.844.336-2.844 1.164v.06c0 .612.48.996 1.188.996m5.722-7.86h.864c0 .564.384.936.96.936s.948-.372.948-.936h.864c0 .996-.708 1.656-1.812 1.656s-1.824-.66-1.824-1.656m-.792 8.652v-6.24h.888v4.668h.12l3.312-4.668h.912V186h-.888v-4.728h-.12l-3.36 4.728zm7.277 0v-6.24h.888v2.58h3.288v-2.58h.888V186h-.888v-2.82h-3.288V186zm13.621.096c-1.98 0-3.096-1.08-3.096-3.096v-5.4h.96v5.28c0 1.524.756 2.268 2.136 2.268s2.124-.744 2.124-2.268v-5.28h.96v5.4c0 2.016-1.104 3.096-3.084 3.096m4.312-.096 2.64-4.332v-.048l-2.4-4.02h1.164l1.86 3.24h.048l1.932-3.24h1.092l-2.412 4.02v.048l2.652 4.332h-1.152l-2.112-3.552h-.048L459.61 186zm7.143 1.332 1.944-9.972h.924l-1.956 9.972zm7.459-1.236c-1.98 0-3.096-1.08-3.096-3.096v-5.4h.96v5.28c0 1.524.756 2.268 2.136 2.268s2.124-.744 2.124-2.268v-5.28h.96v5.4c0 2.016-1.104 3.096-3.084 3.096m5.368-.096v-8.4h.96v8.4z"/></svg>