<svg xmlns="http://www.w3.org/2000/svg" width="610" height="269" fill="none" viewBox="0 0 610 269"><g fill="#fcc9c2" opacity=".4"><path d="M581.797 259.891a61 61 0 0 0 2.396-1.582l10.239-167.535-3.143-6.191zm7.806-5.818q.45-.396.892-.801l4.144-35.325 1.596-44.821zM0 209q0 .459.008.916l-.003-.141zM66.376 0c10.057 7.15 22.85 10.447 35.972 8.184L149.792 0h11.765l-58.869 10.154-.639.106C87.646 12.556 73.666 8.442 63.054 0z"/><path fill-rule="evenodd" d="M6.013 33.791a60 60 0 0 1 3.922-6.87l2.257 9.367 13.44 12.75a47.77 47.77 0 0 0 25.778 5.379l.964-.07-33.295-38.228a60 60 0 0 1 1.485-1.34L54.87 54.167l11.456-.827-25.09-34.862h-.547l-.646-.004a49.8 49.8 0 0 1-19.055-4.06q.86-.736 1.747-1.44a47.8 47.8 0 0 0 17.054 3.494l-7.121-9.895q.9-.462 1.82-.893l7.774 10.8 10.157.015-8.48-14.32q1.002-.278 2.016-.522l8.79 14.846 4.45.006-7.68-15.91A60 60 0 0 1 53.61.337l.373.771-.185-.792a61 61 0 0 1 3.98-.276l1.649 5.392 4.3 11.08 148.987.218L284.17 0h8.775l-71.51 16.743 88.809.131 43.579-13.322L301.779 0h29.378l28.028 1.913L365.442 0h6.843l-7.507 2.295 40.207 2.744L417.97 0h5.526l-13.81 5.36 29.073 1.984L452.461.729 446.77 0h15.751l14.4 1.844L480.035 0h3.926l-3.812 2.257 14.101 1.805L499.895 0h3.423l-6.151 4.427a48 48 0 0 0 14.154-.54L515.785 0h3.043l-3.335 2.903A48 48 0 0 0 523.142 0h4.277a49.9 49.9 0 0 1-15.192 5.748l-7.039 6.13 5.402.37c2.323.158 4.619.147 6.876-.02L529.068 0h2.761l-11.291 11.898a47.7 47.7 0 0 0 14.157-4.292l5.59-7.163-.723-.443h3.829l1.537.941q.468-.397.926-.807L545.756 0H550q.299 0 .598.003l.188.372.231-.366q1.163.019 2.315.083l-1.493 2.357 2.009 3.957 1.695 1.04a48 48 0 0 0 2.212-1.784l2.431-4.8q1.03.176 2.047.386l-.048.1.08-.093q2.83.589 5.558 1.436l.573.566.132-.342a59.8 59.8 0 0 1 15.233 7.479l-.02.186.19-.07a60 60 0 0 1 6.442 5.105l-.532 8.842 1.887 1.865.955-8.489a62 62 0 0 0-1.105-1.09c9.466 9.1 15.951 21.278 17.847 34.924a60 60 0 0 0-1.205-6.23l-1.407-1.39-2.586 31.564L610 83.408v3.362l-6.021-8.131-1.872 22.837 5.03 9.909L610 86.973v17.168l-1.228 10.465 1.228 2.418v4.418l-1.648-3.246-.607 5.168 2.255 7.583v7.02l-2.845-9.57-10.522 89.714-.93 26.092L610 159.069v12.076l-12.519 74.538a59.8 59.8 0 0 0 10.905-22.808c-4.159 17.568-16.041 32.148-31.864 39.958a61 61 0 0 0 3.205-1.704l9.752-180.111-1.555-3.064-2.839 25.203-9.683 160.215q.533-.25 1.059-.509a59 59 0 0 1-3.117 1.426l7.419-122.754-14.092 125.117a60 60 0 0 1-2.097.564l16.147-203.451-2.336-4.603-23.122 209.609q.582-.05 1.163-.113a61 61 0 0 1-5.651.337L550 269q1.628 0 3.235-.087l22.319-202.331-14.422 73.079L541.378 269h-2.023l12.829-83.996L535.608 269h-2.039l25.592-129.685 13.857-90.725-1.937-3.815L524.835 269h-2.042l46.836-227.084-.886-1.746-17.689 60.918L505.581 269h-2.072l16.807-62.064L502.295 269h-2.083l48.923-168.481 17.479-64.543-1.35-2.66L483.541 269h-2.116l82.581-238.162-1.021-2.01L537.3 87.875 466.139 269h-2.149l51.102-130.07L458.513 269h-2.182l79.112-181.872 20.73-52.762L430.121 269h-2.271L560.018 22.982l-.366-.718-35.389 53.927L426.569 269h-2.242l90.087-177.802L397.732 269h-2.391l127.18-193.798 13.736-27.111-65.796 82.623L382.726 269h-2.37l78.454-123.655L360.339 269h-2.557L468.83 129.55l34.69-54.676-98.211 101.867-66.561 85.335-.401.507a50 50 0 0 1-6.14 6.417h-3.127a48 48 0 0 0 8.092-8.154l54.854-70.328L316.361 269h-2.777l90.211-93.569 62.067-79.575-132.098 112.92-33.166 34.961-.448.466a49.75 49.75 0 0 1-23.81 13.66l-7.269 6.214 7.758 4.923h-4.449l-5.692-2.885-.384.328 3.277 2.557h-3.252l-1.577-1.23-.936.799 1.096.431h-5.47l-39.883-15.67-12.397 8.668L231.273 269h-7.169l-19.045-5.53-7.909 5.53h-3.589q.987-.621 1.954-1.296l7.079-4.95-59.388-17.245a50.1 50.1 0 0 1-19.788-2.435l12.499 14.621 11.115 10.716 2.985.589h-11.163q-.16-.113-.317-.227l-15.824-3.122 5.102 3.349h-3.646l-6.67-4.377-40.364-7.966L100.109 269h-4.225l-25.429-13.661-59.48-11.738a60 60 0 0 1-1.58-2.351l55.062 10.866-59.866-32.161 2.588 17.527q.25.463.508.92A59.7 59.7 0 0 1 .04 211.227l.854 4.471.673.362-.772-8.13-.583-3.944-.212-.062v-25.492l.678 7.135L45.7 215.113l40.778 11.841-64.222-51.142L0 167.068v-2.15l16.928 6.651L0 158.089v-2.558l23.265 18.528 38.853 15.264L3.396 132.71 0 130.989v-4.333l4.568 4.406 36.11 18.296L0 101.771v-3.078l45.318 53.016 8.687 4.4a49.8 49.8 0 0 1-9.64-16.453l-.21-.61-.36-1.063-18.18-26.001L0 95.731v-2.368l22.638 14.363L0 75.353v-3.49l27.023 38.645 6.011 3.812a49.8 49.8 0 0 1-8.303-17.476l-.155-.627-.892-3.703-12.872-22.82L0 61.26V60q0-.635.014-1.266l8.243 6.43-7.67-13.596-.001.013q.224-1.589.528-3.15l11.244 19.932 3.327 2.595a49.9 49.9 0 0 1-6.421-17.975l-1.005-6.576-3.928-8.83q.537-1.335 1.136-2.635l-.06.131 1.706 3.836-.69-4.517q-.205-.305-.404-.613zm215.514 218.163 40.18 15.786 1.435-1.226-8.03-6.263-7.452-3.776a49.6 49.6 0 0 1-11.487-5.821l-7.415-3.757zm-92.856 3.92a48.3 48.3 0 0 0 5.28 6.328l6.057 4.823 1.509.297-7.051-8.248-10.917-10.524zm-10.401 6.861 16.878 3.33a51 51 0 0 1-2.542-2.377L90.592 230.23l-39.2-11.382zm146.424 2.453.06-.052-.36-.183zm7.61-6.505c-3.59.577-7.233.763-10.86.555l5.86 3.718zM2.782 207.698l1.446 9.791 66.909 35.946 41.919 8.272-68.204-44.759-42.36-12.3zm161.052 31.506-.565.315a49.9 49.9 0 0 1-15.095 5.349l56.523 16.414 12.628-8.83-45.374-17.827zm94.56 20.469-1.4-.889-.5-.075zm-23.051-17.38 2.644 2.063 19.72 12.512a48.3 48.3 0 0 0 17.701-.84l56.974-48.702 92.685-97.699zm350.947 14.49q.583-.444 1.155-.901l10.336-126.114 1.048-29.381-.683-2.294-1.926-3.796zm-459.774-.502-10.454-14.95-3.576-3.447a50 50 0 0 1-3.246-2.238l-13.594-3.948zm153.552-1.604a47.8 47.8 0 0 0 19.078-12.317l20.03-21.114zm-48.177-9.97a48 48 0 0 0 5.317 4.231l9.706 4.918-10.077-7.86-3.56-2.259zm360.874 6.376q.362-.368.718-.742l.276-7.73zm-418.568-17.725 45.096 17.718 7.442-5.204-39.364-19.945zm15.267-8.612 39.13 19.827.136-.096-11.532-10.941-6.652-4.221a49.6 49.6 0 0 1-11.121-7.055l-2.613-1.658zM120.73 239.93a48.3 48.3 0 0 0 15.851 3.655l-16.928-4.915zm-17.633-20.63 14.189 16.599 26.123 7.586a47.8 47.8 0 0 0 19.442-6.023l6.7-3.78-59.789-23.491a50.2 50.2 0 0 1-15.742-3.87zm127.306 24.007 1.045-.73-5.477-3.475zm-109.437-.026-1.447-1.693q-.282-.12-.563-.244zm126.647-12.009a50.1 50.1 0 0 1-23.77 2.051l9.85 7.684zm-131.74 6.301.4.218-.118-.138-.283-.082zm104.686-4.275-1.095-.855-.416-.104zM97.461 219.237a49 49 0 0 0 2.136 3.442l10.503 10.126-8.59-12.284-9.777-11.437zm-5.93 9.185 13.863 4.024a49.7 49.7 0 0 1-7.338-8.475l-32.175-31.02-37.287-14.649zm42.419-22.401a49.9 49.9 0 0 1-18.421 4.288l56.268 22.106 13.43-7.575-43.749-22.167zm69.083 11.071 17.323 13.512c14.57 3.474 30.544.1 42.7-10.487l120.175-104.668zm-3.934 2.22q.74.68 1.503 1.324l9.053 5.744-8.609-8.167zm-55.265-17.687 43.485 22.034 7.577-4.273-37.499-23.792zM2.169 222.389l-.375-3.937-.418-.224zm193.166-6.943q1.095 1.257 2.257 2.419l1.846-1.041-9.054-7.062zm-101.2 1.967-9.032-16.011a49 49 0 0 1-2.566-1.908l-11.792-4.632zm65.459-22.796 33.409 21.197-10.892-12.505-5.78-4.509a49.6 49.6 0 0 1-9.653-7.332zm191.836-85.299-120.695 86.867-.528.374c-12.454 8.725-27.544 10.985-41.237 7.44l12.381 11.746 189.364-106.813 40.066-34.897zM2.288 202.507l36.872 10.707L.92 188.119zm389.583-91.932L276.416 211.133l155.527-108.754 29.4-30.99zm-317.74 67.303 15.586 22.289 20.49 8.05a47.8 47.8 0 0 0 22.931-4.024l6.04-2.686-58.518-29.65a50.2 50.2 0 0 1-12.535-4.627zm497.188 29.636 11.772-104.521 1.867-30.883-2.502-4.927zm-398.457-18.796 12.874 12.214c14.267 4.956 30.641 3.122 43.83-6.37l112.905-81.26zm12.353 14.475-.544-.516-.215-.075zm-77.691-32.774-.614.202a49.8 49.8 0 0 1-19.857 2.233l54.48 27.606 13.836-6.152-41.192-26.136zm-21.678 28.227.507.199-2.044-2.924zm-18.865-7.412 11.245 4.418a49.8 49.8 0 0 1-9.66-13.671L44.06 153.312 9.47 135.787zm101.929-.759 6.312 4.923-4.853-5.572zm264.353-86.579-86.292 90.959L472.021 87.96l19.158-24.562zM599.778 129.9l-2.264 63.534 8.197-69.894-4.242-14.272zm-483.164 37.449 40.951 25.982 7.487-3.329-34.903-27.225zm-46.838 12.487q.236.528.48 1.047l9.626 11.26-7.448-13.204-8.393-12.001zm92.792 3.806a48.4 48.4 0 0 0 4.552 5.437l.003.002 1.872-.832-2.224-2.555-8.59-8.149zm151.234-82.888L200.232 168l-.557.326c-13.371 7.69-28.851 8.51-42.309 3.526l10.854 12.461 3.072 2.915 179.135-79.652 50.237-36.157zm-181.384 61.257 27.63 21.551-9.634-13.385-4.83-4.582a49.6 49.6 0 0 1-6.695-5.769zm-66.754 13.5-6.303-14.174a53 53 0 0 1-.772-.662l-9.89-5.011zm79.409-17.774 9.328 10.71c13.886 6.487 30.63 6.23 44.813-2.168l105.451-62.439zm-95.625-23.618 15.545 27.559 16.342 8.28a47.77 47.77 0 0 0 25.55-1.434l5.121-1.73-55.274-35.069a50.3 50.3 0 0 1-10.669-5.216zm35.45-1.007-.63.148a49.8 49.8 0 0 1-20.96.267l51.135 32.445 13.818-4.667-37.848-29.523zm388.576-43.761-56.397 72.302 91.789-95.207 10.19-16.06zm-331.99 69.598 2.677 2.54-1.994-2.77zm-48.587-27.765 37.633 29.354 6.867-2.319a52 52 0 0 1-1.644-1.95l-29.766-28.24zm-33.119 26.168 1.825 2.608.175.089-3.78-6.702zm73.677-7.92a49 49 0 0 0 3.78 5.486l2.609 2.475 1.101-.372-4.049-5.627-7.119-8.173zm146.993-63.44-107.203 51.752c-14.411 6.957-30.51 6.38-43.837-.175l9.051 12.575 5.193 5.962 169.309-57.178 59.15-35.025zM45.6 137.074l8.168 11.681-6.108-13.735-6.864-12.17zm62.705-9.603 22.414 21.264-8.201-13.851-3.956-4.542a50 50 0 0 1-4.342-4.297zm11.791-2.842 6.611 9.185c13.416 8.079 30.513 9.444 45.668 2.128l98.887-47.738zM29.294 88.793l14.342 32.254 13.968 8.862a47.8 47.8 0 0 0 26.825 1.259l3.97-.957-50.231-39.18a50.3 50.3 0 0 1-10.195-6.15zm12.222 42.441-3.918-11.601-.125-.128-7.473-4.74zm49.366-1.622 13.376-3.222-33.9-32.162-4.117.63a49.8 49.8 0 0 1-21.843-1.502zm-18.02-35.765 33.713 31.984 6.19-1.491a50 50 0 0 1-3.016-4.116L85.142 91.97zm35.419 19.737a48.5 48.5 0 0 0 3.064 5.428l4.082 4.686.408-.098-4.9-8.278-5.511-7.657zm144.041-47.156-102.327 39.71-.604.229c-15.152 5.66-31.356 3.491-44.113-4.521l7.334 12.385 6.222 8.646 160.937-38.78 66.256-31.986zm353.98 52.08.414-3.534-3.535-6.965zM37.37 112.705l1.74 3.084-2.903-6.527zm473.078-45.017-29.966 47.231 60.247-75.655 3.185-6.29zM27.53 99.333a47.7 47.7 0 0 0 8.452 15.52l-.449-1.332zm59.952-7.72 17.883 20.533-6.687-13.854-3.37-4.683a50 50 0 0 1-2.437-2.82zm10.763-1.645 4.597 7.763c12.842 9.75 30.295 12.804 46.429 6.542l93.933-36.452zM437 71.27l-37.645 32.788 66.675-37.61 13.268-13.985zm-29.885-2.03-47.728 34.352 76.528-34.027 18.847-16.416zM25.562 91.772l6.545 11.604-4.681-13.862-3.713-8.352a50 50 0 0 1-.933-.933zM467.278 68.04l-27.139 28.607 55.226-38.617 8.123-10.415zm-88.548-5.732-56.632 33.533 84.091-28.4 24.542-17.664zm217.982 23.94 2.34 7.871.753-21.12-2.11-2.849zm-28.603 7.723 7.824-39.64-1.361-2.679zM25.983 78.992l13.225 10.315a47.8 47.8 0 0 0 26.731 3.575l2.584-.396-44.07-41.81a50.2 50.2 0 0 1-10.585-7.559zm45.042 13.112 12.562-1.92-29.57-33.95-2.463.178-.646.042c-7.334.436-14.4-.74-20.851-3.218zm-14.512-36.05 29.415 33.773 5.56-.85a50 50 0 0 1-3.49-5.524l-20.3-28.206zM229.83 43.548l-99.282 30.35-.619.185c-16.072 4.691-32.65.932-44.923-8.71l5.846 12.11 6.294 10.63 154.656-23.629 71.292-27.666zM87.157 76.89a49 49 0 0 0 2.54 5.503l3.961 5.502-4.573-9.474-3.87-6.536zm504.348 3.7 3.168 6.24.02-.35-2.966-9.98zm9.816 5.974.85-10.367-.457-.618zm-579.35-1.16-2.012-8.344a50 50 0 0 1-.508-.63l-4.538-3.538zM352.76 51.083l-63.803 30.8 89.013-21.448 30.052-17.795zm143.999 8.413-17.126 21.957 43.071-36.818 3.74-5.897zm95.289 11.066 3.002 10.097.795-13.008-3.392-4.58zm-3.717 3.776 1.364 2.687.337-6.224-.944-3.178zM70.039 55.078l14.124 19.625-5.173-13.33-3.364-5.683q-.351-.477-.692-.965zm9.661-.697 3.117 6.457c12.14 11.546 29.983 16.394 47.148 11.147l90.91-27.792zm522.128 17.991.591.799 2.537-30.96-1.982-1.959zM11.348 53.356a47.8 47.8 0 0 0 7.413 18.729l-1.082-4.492zm586.537 13.69 2.034 2.747 1.121-31.452-1.321-1.306zm-578.305-.1.935 2.102-1.495-4.423zm563.179-3.585 2.437 4.801.685-11.327-1.312-4.412-.85-1.15zm-123.028-11.89-17.598 15.328 40.755-18.121 7.017-7.398zm-23.853-2.933L412.64 65.264l46.079-15.562 10.583-9.218zm153.783 13.995.693 2.33.233-4.312-.61-.824zm-2.247 2.083.215-1.903-.083-.278zm5.209-4.678 3.411 4.608 1.764-28.866-3.737-2.29zM484.07 50.34 471.965 63.1l34.723-19.584 3.858-4.949zM329.885 36.328l-68.964 26.763 91.238-13.94 35.144-16.966zm212.542 4.015-10.06 19.853 26.242-39.988-.058-.114zm36.358 15.19 2.239 4.41.882-11.117-2.072-2.8zm-54.554-9.572-8.437 13.3 31.198-32.36.354-.698zm-110.917-4.13L384.589 58.84l50.44-12.155 14.414-10.375zm174.888 15.792.028-.256-.174-.235zm2.104-.814.451.609.481-8.887zM10.194 45.839l4.895 11.007-3.248-13.48-1.195-3.54a50 50 0 0 1-1.672-1.97zm577.874 7.95.491.661 2.575-22.853-1.663-1.02zm-80.049-8.729-7.074 9.07 28.283-19.778 1.239-1.954zM68.667 53.17l4.997-.36a50 50 0 0 1-3.041-5.569l-17.02-28.744-9.902-.015zm46.173-11.469-.631.144c-17.055 3.766-34.05-1.68-45.723-13.069l4.698 12.105 5.58 11.561 150.699-10.874 74.269-22.704-90.787-.134zm460.252 6.556 1.469 2.893 1.487-7.536-1.863-2.515zm9.174-3.873 1.967 6.619 1.306-21.61-1.987-1.217zm-514.237-4.27a48 48 0 0 0 2.37 6.201l2.171 3.668-3.221-8.301-2.291-4.747zm322.684-8.32-33.821 16.328 53.737-8.21 18.375-10.88zm80.796 7.677-9.82 8.552 29.163-9.848 4.137-4.362zm20.456.438-6.304 6.646 25.498-11.338 1.895-2.43zm86.217 3.226 1.965 2.655.095-1.194-1.411-4.748zm-126.393-7.488-13.613 9.798 32.391-7.804 6.77-5.898zm117.94 5.986 1.807 3.56.972-6.36-1.722-2.324zm35.297-.186.074.072-.058-.176-.007-.004zM66.514 23.694c11.258 13.531 29.565 20.346 47.87 16.06l89.842-21.036-139.723-.205zM514.43 36.841l-3.212 4.119 21.518-12.138.107-.169zm-276.011 4.082 91.024-6.568 39.669-15.395-58.568-.086zm338.191-2.611 1.795 2.423.728-6.598-1.245-4.189zm-45.908-2.551-2.822 4.45 15.913-13.604zm-95.227-7.052L417.92 39.103l35.093-5.36 9.725-7.002zm146.188 6.92 1.019 3.428.957-12.053-.243-.149zm-12.103 1.73.717 1.414.912-4.421-.543-.735zm33.544-.774 2.203 1.349.084-1.034a60 60 0 0 0-2.136-4.562zm-536.01.772-3.74-12.237-3.193-6.613-4.231-.007zm433.472-4.407-3.654 3.854 20.377-6.882.96-1.233zm-17.54-1.77-6.252 5.446 22.746-5.48 2.756-2.907zm74.625 4.893 4.16-9.56-.227-.447zm15.677-2.193 1.605 2.167 1.618-10.595-.876-2.947zm26.553.504.6.593.665.408.228-6.397a58 58 0 0 0-1.061-1.688zm-263.648-.52 55.955-4.037 22.371-10.8-39.941-.06zm182.266-2.24-1.455 1.866 12.857-5.718zm47.675-.934 1.221 2.404.766-2.832-1.252-1.69zm-99.631-4.223-9.185 6.611 24.797-3.788 4.944-4.306zm127.762 2.404 3.686 3.645.482-7.883a60 60 0 0 0-3.692-4.566zM8.149 32.453l.01.009-.014-.04zm563.198-1.25.384.52 1.314-6.37zm-22.701-3.136-1.747 3.448 7.481-9.396zm-14.49 2.25-.671 1.059 5.025-3.515zm-28.652-2.57-2.406 2.536 17.128-4.127.583-.749zm-107.906 1.69 37.263-2.689 12.957-7.673-28.672-.042zm192.009-1.123 1.774 1.087.061-.549-1.761-1.742zm-11.011-3.003 1.101 3.708.458-4.149-1.364-.836zm-57.222 2.625-.64.822 6.886-2.326zm-30.959-3.192-4.57 3.982 18.676-2.854 2.185-2.303zm73.605 1.703.896 1.766.552-1.589-.96-1.297zm3.683-.166 1.125 1.52 2.292-8.466-.832-.51zm18.026-.342 1.947 1.192.114-1.89-1.859-1.838zm-146.397.486 26.504-1.912 7.502-5.4-21.604-.032zm84.357-1.457-.338.435 4.35-1.048zm-14.02-1.613-1.919 2.024 14.852-2.269.568-.73zm74.14 1.407.007.004.006-.075zm-16.037-6.942-2.343 5.389.833 1.125 2.28-6.578-.178-.11q-.295.09-.592.174m-98.131 6.418 19.968-1.441 4.195-3.654-17.049-.025zm92.921-.663.284.558.288-.662-.347-.468zm16.556-1.686 1.279.784.472-4.274-1.057-1.046zm-53.26.299-.376.482 5.644-.863zm60.28-1.391 1.812 1.792.52-8.634a61 61 0 0 0-1.683-1.356zm-93.212 1.76 15.822-1.141 2.132-2.248-14.039-.02zm71.711-3.948-.465.868-.523 1.33.406.547 1.257-2.897a47 47 0 0 1-.675.152m-52.925 2.593 13.115-.946.831-1.067-12.02-.017zm49.46-.367.004-.008-.026-.035zm15.357-2.474.706 2.374.034.02.785-5.139-.796-.787zm-36.519-1.006a50 50 0 0 1-11.793 1.808l-.7.898 11.293-.814zm13.915-6.32a49.8 49.8 0 0 1-10.961 5.398l-1.672 2.635 2.234-.16a48.3 48.3 0 0 0 8.172-1.299l2.795-5.51-.48-.947zm29.575 1.742-.537 4.881.174.172 1.041-5.283a49 49 0 0 1-.678.23m-12.502 3.998-.039.116.706.432.238-.883q-.45.172-.905.335m-38.884-5.86a49.6 49.6 0 0 1-13.72 3.243l-2.862 3.017 10.948.016q.372 0 .742-.005zm-32.98 6.235 13.641.02 2.69-2.835a51 51 0 0 1-4.366-.053l-.645-.04-7.401-.506zm-19.606-.028 16.569.024 4.135-3.602-14.37-.98zm-24.424-.036 21.007.031 6.623-4.767-17.603-1.202zm-31.827-.047 27.911.041 10.423-6.172-22.459-1.533zM545.1 3.394a50.2 50.2 0 0 1-9.113 5.808l-6.144 7.876a47.8 47.8 0 0 0 11.812-2.315l6.161-9.705zM379.753 16.976l38.936.057 16.432-7.932-29.829-2.037zm-62.698-.092 57.191.084 26.346-10.225-41.175-2.81zm237.422-.324 1.02-.577.715-.499-.595-1.172zm25.89-2.85-.182 1.201.963.953.269-2.442q-.522.15-1.05.288m-23.441-1.984 1.589 2.147.956-.668.687-.587-2.81-1.722zm15.204 1.786-.053.15.618-.15.058-.211zm-27.378.104a48 48 0 0 0 7.98-4.192l-1.835-2.479-1.376-.842zm25.554-1.62-.012.024.267-.09.02-.057zm-513.6-8.035a48.3 48.3 0 0 0 2.628 8.012l-1.803-5.9-.837-2.157zm431.7 6.771 13.96.954 6.128-5.337c-3.841.469-7.796.5-11.805.038l-.641-.077-1.271-.164zM564.28 2a50 50 0 0 1-4.916 4.916l-1.109 2.19 3.503 2.146 1.827-1.563 3.852-3.994.164-.413zm-96.113 7.352 17.111 1.168 6.593-4.746-14.522-1.859zm87.444.53.003.005.005-.011zm22.991-1.575-.203.976.653-.22.157-1.026zM442.79 7.619l21.856 1.492 9.474-5.61-18.021-2.307zm131.329.156-.139.398.184-.081.109-.404zM539.141 5.16a48 48 0 0 0 4.14-2.88l-1.279-.785zm7.58-3.12.999.612-.67-.905zm1.807-1.656.06.08-.047-.092z" clip-rule="evenodd"/></g></svg>