<svg width="1252" height="84" viewBox="0 0 1252 84" fill="none" xmlns="http://www.w3.org/2000/svg">
<path d="M1252 54C1252 70.5685 1238.57 84 1222 84H30C13.4315 84 0 70.5685 0 54V30C0 13.4315 13.4315 0 30 0H369.349C378.772 0 387.48 5.02738 392.191 13.1883L392.726 14.1148C397.443 22.2848 396 32.5661 396 42C396 56.3594 407.641 68 422 68C436.359 68 448 56.3594 448 42C448 30.1464 440.068 20.1468 429.221 17.0176C426.687 16.2863 424.341 14.8415 423.022 12.557C419.8 6.97601 423.828 0 430.272 0H1222C1238.57 0 1252 13.4315 1252 30V54Z" fill="#0585DA"/>
</svg>
