<svg width="931" height="84" viewBox="0 0 931 84" fill="none" xmlns="http://www.w3.org/2000/svg">
<path d="M931 54C931 70.5685 917.569 84 901 84H30C13.4314 84 0 70.5685 0 54V30C0 13.4315 13.4315 0 30 0H369.351C378.774 0 387.48 5.02698 392.192 13.1873L392.726 14.1128C397.443 22.2829 396 32.5642 396 41.998C396 56.3574 407.641 67.998 422 67.998C436.359 67.998 448 56.3574 448 41.998C448 30.1443 440.067 20.1445 429.221 17.0155C426.687 16.2844 424.341 14.8398 423.022 12.5555C419.8 6.97522 423.828 0 430.271 0H901C917.569 0 931 13.4315 931 30V54Z" fill="#0585DA"/>
</svg>
