<svg xmlns="http://www.w3.org/2000/svg" width="28" height="28" fill="none" viewBox="0 0 28 28"><path fill="#fff" d="M12.673 19.898a1.825 1.825 0 0 0 2.711 0l4.182-4.495 1.36-1.462c.825-.894.206-2.353-1.002-2.353l-3.39-.001V1.608c0-.894-.706-1.608-1.59-1.608h-1.829c-.884 0-1.59.714-1.59 1.608v9.979h-3.36c-1.209 0-1.857 1.459-1.002 2.352z"/><path fill="#fff" d="M26.23 17.754a1.797 1.797 0 0 0-1.798 1.817v3.336c0 .834-.648 1.49-1.473 1.49l-8.93-.002H5.07a1.467 1.467 0 0 1-1.473-1.49V19.57a1.797 1.797 0 0 0-1.799-1.818A1.797 1.797 0 0 0 0 19.57v4.617C.03 26.302 1.74 28 3.831 28h20.367c2.093 0 3.801-1.728 3.801-3.842V19.57a1.75 1.75 0 0 0-1.768-1.816"/></svg>