<svg width="367" height="438" viewBox="0 0 367 438" fill="none" xmlns="http://www.w3.org/2000/svg">
<g opacity="0.6">
<path d="M312.539 437.747C312.544 437.747 312.549 437.746 312.555 437.745L312.602 437.603L312.539 437.747Z" fill="#FCC9C2"/>
<path d="M316.855 437.194C317.259 437.128 317.66 437.056 318.061 436.981L318.83 433.709L316.855 437.194Z" fill="#FCC9C2"/>
<path d="M366.995 59.2246L367 60C367 59.6647 366.996 59.3301 366.99 58.9961C366.991 59.0722 366.994 59.1484 366.995 59.2246Z" fill="#FCC9C2"/>
<path fill-rule="evenodd" clip-rule="evenodd" d="M3.18848 40.6494L90.4434 34.3545L130.112 18.96L71.5439 18.874L3.53516 39.6631C3.82268 38.8649 4.12531 38.0741 4.44531 37.292L64.7314 18.8643L16.3896 18.793C14.0672 21.25 11.9499 23.9029 10.0654 26.7246C13.6363 21.3767 18.0432 16.6347 23.0996 12.6855C21.4508 13.9733 19.8715 15.346 18.3672 16.7959L71.2432 16.874L114.823 3.55078L62.7959 0H92.1562L120.184 1.91309L126.441 0H133.285L125.778 2.29492L165.985 5.03906L178.97 0H184.496L170.686 5.35938L199.759 7.34375L213.461 0.728516L207.77 0H223.52L237.92 1.84375L241.034 0H244.958L241.146 2.25684L255.25 4.0625L260.895 0H264.317L258.166 4.42676C263.006 4.95913 267.761 4.7476 272.318 3.88672L276.782 0H279.828L276.493 2.90332C279.135 2.15289 281.692 1.17707 284.142 0H288.419C283.75 2.70371 278.627 4.66625 273.227 5.74805L266.188 11.8779L271.59 12.2471C273.913 12.4056 276.209 12.3947 278.466 12.2275L290.068 0H292.829L281.538 11.8984C286.529 11.2024 291.293 9.73264 295.695 7.60645L301.285 0.443359L300.562 0H304.391L305.928 0.941406C306.24 0.67612 306.549 0.406937 306.854 0.133789L306.756 0H307C308.577 0 310.139 0.0602601 311.686 0.179688L311.785 0.375L311.896 0.197266C312.643 0.257585 313.386 0.332501 314.125 0.419922L312.839 2.4502L314.847 6.40527L316.543 7.44434C317.298 6.8711 318.037 6.27713 318.756 5.66113L320.813 1.59863C318.92 1.1525 316.992 0.796119 315.034 0.53418C318.999 1.06476 322.841 1.98233 326.521 3.24805C325.919 3.04073 325.312 2.84277 324.7 2.6543C323.342 4.16106 321.893 5.58471 320.362 6.91699L319.254 9.10645L322.757 11.252L324.579 9.69434L328.436 5.69531L328.6 5.28223L326.553 3.25879C333.111 5.51813 339.153 8.88235 344.46 13.1289L343.963 17.6582L344.137 17.8301L344.979 13.5498C349.583 17.3184 353.616 21.7576 356.93 26.7188C356.476 26.0396 356.009 25.3701 355.529 24.7109L355.305 28.8711L358.991 32.5156L359.128 30.2715C358.455 29.0934 357.742 27.9407 356.993 26.8145C363.119 36.0238 366.766 47.0216 366.987 58.8584C366.968 57.8218 366.923 56.7917 366.852 55.7686L365.226 75.6094L367 78.0059V81.3682L364.978 78.6367L363.106 101.476L367 109.146V113.563L364.181 108.01L367 117.493V138.249L357.633 218.113L356.703 244.203L367 182.889V194.961L356.155 259.537L355.508 277.72L367 228.845V237.585L355.142 288.019L355.122 288.567L355.095 289.213C354.771 295.918 353.133 302.257 350.445 307.991L344.757 332.184C345.38 332.017 345.998 331.836 346.61 331.646L367 268.12V274.663L348.968 330.846C352.237 329.639 355.334 328.088 358.219 326.237L367 305.774V310.845L361.325 324.068C363.35 322.532 365.247 320.838 367 319.008V321.838C364.792 323.963 362.388 325.889 359.816 327.584L357.463 333.069L360.983 332.735C363.034 332.54 365.041 332.217 367 331.777V333.826C365.306 334.191 363.577 334.472 361.816 334.662L361.173 334.727L356.563 335.164L355.837 336.857L367 335.209V337.23L354.911 339.016L352.643 344.3L367 341.564V343.601L351.691 346.518L347.92 355.306L362.809 351.993L367 344.592V348.65L365.438 351.408L367 351.061V353.108L364.111 353.752L357.197 365.961L367 363.585V365.641L355.848 368.344L346.928 384.095L366.988 379.1C366.995 378.734 367 378.367 367 378C367 384.859 365.848 391.449 363.729 397.588C364.376 395.712 364.933 393.794 365.395 391.839L359.766 399.398L363.398 398.521C363.491 398.267 363.581 398.013 363.67 397.758C359.285 410.337 350.829 421.008 339.881 428.194C340.443 427.825 340.998 427.448 341.547 427.061L338.698 427.688L336.992 429.977C337.972 429.41 338.934 428.817 339.877 428.198C336.627 430.331 333.156 432.156 329.508 433.634C329.801 433.515 330.092 433.395 330.383 433.272L330.836 429.414L327.503 430.147L326.742 434.675C327.652 434.358 328.551 434.02 329.439 433.661C322.751 436.36 315.465 437.889 307.834 437.993C308.658 437.981 309.478 437.953 310.294 437.909L312.181 433.515L307.644 434.512C306.818 435.715 305.94 436.878 305.016 438H302.391C303.201 437.083 303.977 436.133 304.717 435.154L291.77 438H282.454L306.431 432.73C310.349 426.818 313.006 419.963 313.98 412.517L297.443 416.513C293.367 425.44 286.772 432.866 278.656 438H274.703C283.358 433.334 290.489 426.065 294.942 417.117L267.76 423.686C257.114 433.538 242.302 438.69 226.865 436.532L226.227 436.439L219.337 435.387L208.524 438H200.013L214.121 434.59L175.872 428.748L156.723 433.518L197.357 438H179.124L151.124 434.911L138.722 438H130.446L145.388 434.279L103.057 429.609L68.4404 438H60C59.6258 438 59.2524 437.995 58.8799 437.988C59.2382 437.995 59.5972 437.999 59.957 437.999L97.2256 428.967L49.6553 423.719L27.7363 428.596C28.5814 429.136 29.4413 429.654 30.3145 430.152C23.468 426.247 17.465 421.033 12.6465 414.85C13.4624 415.896 14.3122 416.916 15.1943 417.905L49.5459 421.695L82.1631 414.437L33.9004 407.065L10.2627 411.569C10.4337 411.822 10.6075 412.073 10.7822 412.323C10.0301 411.247 9.31157 410.145 8.62988 409.019C8.77943 409.266 8.93002 409.512 9.08301 409.757L27.9668 406.159L5.30176 402.697C4.97849 401.982 4.66976 401.26 4.37402 400.53L4.375 400.532L33.8613 405.036L62.7793 399.525L13.666 389.396L1.45703 391.198C1.7204 392.371 2.01866 393.532 2.34961 394.678C1.41074 391.427 0.738693 388.062 0.360352 384.609L13.7227 387.365L39.7666 383.52L0 372.75V370.679L44.7168 382.788L57.5684 380.89L18.3691 367.298L0 369.044V367.034L13.8213 365.721L0 360.928V358.812L18.6123 365.266L28.874 364.29L0 351.729V349.549L23.4619 359.754L16.6055 355.254C10.8137 353.955 5.18176 351.604 0 348.168V341.966L4.43555 344.877L58.6729 343.05C60.9958 341.072 63.1646 338.844 65.1367 336.367L71.416 328.481L19.6211 326.635C13.5559 330.374 6.8565 332.699 0 333.605V331.587C5.46993 330.832 10.8314 329.135 15.8213 326.499L0 325.935V323.934L19.0723 324.613C22.2466 322.601 25.2366 320.186 27.9609 317.36L34.8428 310.222L0 306.297V304.283L36.5938 308.405L46.7852 297.834L1.12305 288.822L0 289.782V286.561L0.560547 286.672L12.0713 276.832L0 273.326V271.243L13.8906 275.277L20.9844 269.213L0 260.968V258.819L22.7061 267.741L24.1416 266.514L16.1133 260.252L8.65625 256.474C5.67859 255.423 2.77871 254.081 0 252.447V249.846L7.91602 253.857L0 247.683V244.998L18.707 256.868C24.6004 257.683 30.6095 257.399 36.4082 256.028L93.3818 207.326L186.067 109.627L0 239.734V237.295L8.61328 231.272C5.79383 232.229 2.9105 232.922 0 233.359V231.341C8.62512 229.991 16.9862 226.274 24.0557 220.117L144.229 115.45L0 196.804V194.508L151.713 108.932L191.777 74.0371L112.428 109.319L0 190.235V187.771L103.471 113.302L0 159.31V157.121L111.427 107.576L161.664 71.4189L74.7988 100.755L0 145.044V142.721L65.665 103.84L0 126.016V123.905L73.9619 98.9268L133.11 63.9043L41.4482 85.9912L0 106V103.779L32.2617 88.2051L0 95.9785V93.9209L40.7705 84.0967L107.026 52.1113L13.3223 66.4277L0 71.5977V69.4521L4.2041 67.8213L0 68.4629V66.4404L12.8027 64.4844L84.0947 36.8184L2.53125 42.7031C1.9225 44.7285 1.41776 46.7989 1.02344 48.9082C1.55195 46.0805 2.27827 43.3225 3.18848 40.6494ZM321.407 431.487L320.219 436.537C320.767 436.414 321.314 436.284 321.856 436.146C322.476 434.486 323.009 432.783 323.445 431.038L321.407 431.487ZM316.305 432.607L315.194 436.069L317.275 432.396L316.305 432.607ZM325 432.974C324.76 433.824 324.495 434.664 324.212 435.494C324.34 435.456 324.468 435.416 324.596 435.377L325 432.974ZM224.468 434.146L226.528 434.462C240.196 436.549 253.395 432.648 263.466 424.723L224.468 434.146ZM251.566 409.898C240.367 424.322 221.661 432.039 202.576 428.354L201.942 428.229L188.824 425.522L180.908 427.494L219.252 433.351L266.777 421.866C272.187 416.751 276.442 410.357 279.021 403.062L251.566 409.898ZM108.761 428.227L150.986 432.885L170.741 427.965L133.381 422.259L108.761 428.227ZM316.057 412.016C315.209 419.356 312.796 426.161 309.183 432.126L313.15 431.254L319.058 417.487L321.214 410.77L316.057 412.016ZM333.653 428.795L333.518 431.292L334.142 430.455L334.289 428.655L333.653 428.795ZM320.934 418.188L317.013 430.404L318.601 430.057L320.462 426.769L324.353 410.22L320.934 418.188ZM322.343 427.507L321.915 429.327L323.934 428.883C324.301 427.061 324.565 425.2 324.722 423.305L322.343 427.507ZM330.31 413.439L327.86 428.021L331.082 427.312L332.286 417.037L332.711 409.197L330.31 413.439ZM55.7002 422.374L102.931 427.584L128.177 421.464L87.6221 415.271L55.7002 422.374ZM193.31 424.405L202.346 426.27C219.956 429.902 237.299 423.381 248.309 410.71L193.31 424.405ZM17.2998 420.149C19.8023 422.684 22.5288 424.997 25.4473 427.057L43.501 423.04L17.2998 420.149ZM335.439 407.333L334.28 417.215L333.766 426.722L334.46 426.569L336.048 407.186L335.439 407.333ZM138.502 421.018L175.778 426.711L184.298 424.589L151.595 417.844L138.502 421.018ZM338.131 406.682L336.948 426.022L337.54 425.894L354.856 402.642L338.131 406.682ZM357.897 401.907L340.522 425.237L345.299 424.187C352.799 417.961 358.757 409.943 362.519 400.79L357.897 401.907ZM228.729 399.148C217.168 416.662 195.292 425.637 173.929 419.852L159.467 415.935L156.146 416.74L188.783 423.472L250.399 408.128C253.956 403.409 256.688 397.969 258.328 391.976L228.729 399.148ZM326.979 419.318L326.802 422.242L327.426 418.53L326.979 419.318ZM281.326 402.488C279.05 409.511 275.297 415.773 270.479 420.972L296.018 414.801C297.872 410.513 299.128 405.88 299.667 400.994L300.015 397.835L281.326 402.488ZM323.976 420.563L325.01 418.736L325.219 415.272L323.976 420.563ZM93.0137 414.07L133.299 420.223L147.011 416.898L112.391 409.758L93.0137 414.07ZM163.503 414.957L174.451 417.922C194.209 423.273 214.425 415.47 225.803 399.857L163.503 414.957ZM117.153 408.698L151.563 415.795L155.46 414.85L125.711 406.794L117.153 408.698ZM327.589 409.229L327.253 414.773L328.396 412.758L329.047 408.877L327.589 409.229ZM302.083 397.32L301.654 401.214L301.58 401.855C301.046 406.193 299.968 410.334 298.425 414.219L314.209 410.405C314.219 410.286 314.231 410.166 314.24 410.047L315.516 393.976L302.083 397.32ZM163.246 412.963C161.053 413.152 158.836 413.197 156.608 413.09L159.496 413.872L163.246 412.963ZM39.7939 405.942L87.5557 413.237L107.615 408.773L67.9121 400.584L39.7939 405.942ZM133.425 405.076L143.255 408.485C164.015 415.684 186.352 407.803 198.336 390.633L133.425 405.076ZM317.562 393.466L316.256 409.91L321.93 408.54L326.483 394.352L326.674 391.197L317.562 393.466ZM201.158 390.005C195.522 398.869 187.318 405.555 177.913 409.407L227.487 397.393C230.033 393.396 232.025 388.952 233.329 384.137L233.7 382.765L201.158 390.005ZM73.0586 399.604L112.378 407.713L121.56 405.669L88.3789 396.684L73.0586 399.604ZM260.535 391.44C259.071 397.288 256.617 402.648 253.394 407.383L279.752 400.819C280.386 398.699 280.881 396.509 281.225 394.259L282.466 386.126L260.535 391.44ZM328.897 399.631L327.916 403.802L327.715 407.141L329.407 406.732L331.695 393.112L328.897 399.631ZM331.521 406.223L332.189 406.062L332.954 404.709L333.515 394.35L331.521 406.223ZM335.876 403.609L335.688 405.216L336.22 405.087L336.239 404.842L336.368 402.738L335.876 403.609ZM92.8691 395.828L125.758 404.735L126.109 404.656L118.928 402.166C115.609 401.521 112.307 400.529 109.07 399.17L108.477 398.916L104.241 397.073L97.8887 394.871L92.8691 395.828ZM345.569 386.494L338.766 398.505L338.268 404.592L356.725 400.133L366.282 387.298C366.595 385.289 366.808 383.248 366.916 381.179L345.569 386.494ZM135.495 402.567C132.906 402.94 130.278 403.109 127.635 403.068L129.827 403.829L135.495 402.567ZM102.271 394.035L104.969 395.209L119.429 400.224C137.462 403.679 156.014 396.441 166.946 381.712L102.271 394.035ZM169.783 381.171C163.234 390.832 153.644 397.661 142.909 400.917L199.9 388.236C201.676 385.336 203.172 382.204 204.332 378.859L205.917 374.287L169.783 381.171ZM284.567 385.616L283.202 394.561L283.1 395.199C282.814 396.923 282.442 398.611 281.991 400.262L300.249 395.716L301.824 381.435L284.567 385.616ZM19.4365 388.544L67.9258 398.545L83.9648 395.488L44.5996 384.828L19.4365 388.544ZM336.477 398.489L336.646 398.188L336.793 395.789L336.477 398.489ZM235.905 382.274L235.26 384.66L235.087 385.283C233.923 389.375 232.279 393.204 230.234 396.727L258.872 389.786C258.934 389.51 258.995 389.233 259.053 388.955L261.609 376.556L235.905 382.274ZM303.891 380.934L302.317 395.2L315.682 391.873L316.799 377.806L303.891 380.934ZM49.5498 384.098L88.4541 394.633L94.0986 393.557L61.6602 382.309L49.5498 384.098ZM339.629 387.973L339.155 393.759L342.893 387.161L339.629 387.973ZM135.271 371.439C125.349 384.158 110.029 391.064 94.4229 390.622L99.0166 392.62L168.583 379.364C170.043 377.129 171.336 374.742 172.437 372.212L175.346 365.522L135.271 371.439ZM318.844 377.31L317.729 391.363L326.801 389.104L327.642 375.178L318.844 377.31ZM263.75 376.079L261.03 389.264L282.793 383.989L284.713 371.415L263.75 376.079ZM0.62793 386.707C0.751349 387.556 0.892197 388.399 1.05078 389.236L7.95215 388.218L0.62793 386.707ZM71.8516 380.804L88.6055 388.091C104.834 390.577 121.492 384.544 132.329 371.873L71.8516 380.804ZM334.398 376.234L331.656 387.896L331.769 387.869L333.095 384.778L334.479 376.53L334.516 375.868L334.398 376.234ZM208.184 373.855L206.222 379.515L206.006 380.124C205.053 382.762 203.901 385.272 202.571 387.643L234.29 380.585L237.632 368.245L208.184 373.855ZM329.676 374.685L328.952 386.656L332.471 375.695L332.892 373.906L329.676 374.685ZM340.941 371.955L339.802 385.868L344.252 384.762L353.184 368.989L340.941 371.955ZM336.146 382.735L336.006 385.326L336.372 382.211L336.146 382.735ZM286.808 370.948L284.894 383.479L302.058 379.32L303.388 367.26L286.808 370.948ZM65.9414 381.677L67.8564 382.341L66.4736 381.598L65.9414 381.677ZM23.1602 366.843L61.8496 380.258L63.5195 380.011L57.1514 376.59L51.5557 374.155C45.671 372.898 39.9153 370.552 34.582 367.052L33.3184 366.223L32.665 365.938L23.1602 366.843ZM239.817 367.829L236.495 380.095L262.053 374.408L264.374 363.15L239.817 367.829ZM98.2578 359.704C87.9132 370.611 73.3691 376.056 58.875 375.158L68.3799 379.293L134.178 369.578C135.641 367.637 136.975 365.56 138.161 363.353L142.372 355.513L98.2578 359.704ZM177.676 365.179L174.271 373.01L174.009 373.601C173.187 375.426 172.268 377.177 171.262 378.854L206.673 372.106L210.77 360.293L177.676 365.179ZM305.45 366.801L304.124 378.819L316.965 375.708L317.892 364.033L305.45 366.801ZM337.12 372.881L336.471 376.75L336.461 376.934L337.19 375.233L337.477 372.794L337.12 372.881ZM319.934 363.579L319.01 375.212L327.769 373.09L328.458 361.683L319.934 363.579ZM266.5 362.745L264.193 373.932L285.037 369.294L286.622 358.912L266.5 362.745ZM40.2158 365.221L53.8867 372.564C68.6678 375.096 84.0751 370.566 95.1396 360.001L40.2158 365.221ZM330.489 361.23L329.802 372.597L333.404 371.725L335.14 364.344L335.366 360.146L330.489 361.23ZM213 359.964L208.939 371.675L238.214 366.098L240.994 355.831L213 359.964ZM337.48 370.737L337.725 370.678L338.269 366.041L337.48 370.737ZM346.948 357.57L341.74 369.706L354.533 366.606L361.481 354.337L346.948 357.57ZM144.765 355.285L139.923 364.299C139.01 365.998 138.013 367.622 136.94 369.17L176.286 363.361L181.31 351.812L144.765 355.285ZM288.707 358.515L287.132 368.827L303.619 365.159L304.688 355.471L288.707 358.515ZM243.152 355.512L240.398 365.682L264.812 361.03L266.666 352.041L243.152 355.512ZM342.031 358.662L341.495 365.203L344.542 358.105L342.031 358.662ZM306.743 355.079L305.682 364.7L318.057 361.947L318.784 352.785L306.743 355.079ZM33.3652 363.861L33.4463 363.854L32.9385 363.581L33.3652 363.861ZM59.4307 345.025C49.2668 353.436 36.3497 357.309 23.6318 356.312L37.0371 363.514L97.3135 357.785C99.0622 355.883 100.681 353.815 102.145 351.585L107.512 343.405L59.4307 345.025ZM183.584 351.597L178.616 363.017L211.509 358.161L214.813 348.629L183.584 351.597ZM320.82 352.397L320.099 361.493L328.583 359.605L329.114 350.817L320.82 352.397ZM268.772 351.729L266.938 360.626L286.942 356.814L288.156 348.868L268.772 351.729ZM331.142 350.431L330.614 359.153L335.479 358.071L335.942 349.517L331.142 350.431ZM217.003 348.421L213.739 357.831L241.564 353.724L243.688 345.886L217.003 348.421ZM109.958 343.323L103.816 352.683C102.701 354.382 101.499 355.991 100.221 357.509L143.51 353.396L149.639 341.986L109.958 343.323ZM343.433 348.09L342.714 350.326L342.202 356.575L345.514 355.841L349.321 346.969L343.433 348.09ZM290.227 348.562L289.027 356.418L304.917 353.391L305.702 346.278L290.227 348.562ZM7.33691 346.781L13.8672 351.066L18.6387 353.63C31.5832 356.074 45.2037 353.113 56.0312 345.14L7.33691 346.781ZM245.814 345.684L243.724 353.404L267.096 349.954L268.42 343.536L245.814 345.684ZM337.966 349.131L337.741 353.275L338.752 348.981L337.966 349.131ZM151.951 341.908L145.901 353.168L182.221 349.718L186.118 340.758L151.951 341.908ZM307.747 345.977L306.973 352.999L318.948 350.718L319.462 344.247L307.747 345.977ZM1.81934 346.967C4.16638 348.464 6.60544 349.733 9.10742 350.778L2.00098 346.961L1.81934 346.967ZM321.491 343.947L320.984 350.33L329.238 348.758L329.602 342.75L321.491 343.947ZM270.503 343.338L269.202 349.644L288.473 346.799L289.273 341.555L270.503 343.338ZM188.331 340.684L184.495 349.502L215.533 346.553L217.914 339.688L188.331 340.684ZM331.624 342.451L331.267 348.372L336.054 347.46L336.362 341.752L331.624 342.451ZM338.382 341.454L338.077 347.074L339.253 346.851L339.97 343.798L340.129 341.196L338.382 341.454ZM291.326 341.359L290.543 346.493L305.929 344.222L306.402 339.928L291.326 341.359ZM220.056 339.615L217.723 346.345L244.245 343.825L245.618 338.755L220.056 339.615ZM345.919 340.342L344.129 345.922L350.272 344.752L352.587 339.358L345.919 340.342ZM308.436 339.734L307.974 343.92L319.624 342.2L319.906 338.645L308.436 339.734ZM247.71 338.685L246.372 343.623L268.842 341.488L269.572 337.948L247.71 338.685ZM66.7012 337.612L66.2949 338.116C64.8819 339.845 63.3752 341.454 61.79 342.944L108.854 341.359L116.257 330.08L73.9014 328.569L66.7012 337.612ZM321.928 338.452L321.653 341.9L329.725 340.709L329.907 337.694L321.928 338.452ZM343.503 340.698L343.434 341.54L343.715 340.668L343.503 340.698ZM271.629 337.879L270.925 341.29L289.585 339.518L289.929 337.263L271.629 337.879ZM111.301 341.277L150.733 339.949L155.288 331.472L118.594 330.163L111.301 341.277ZM331.923 337.503L331.747 340.41L336.473 339.713L336.616 337.058L331.923 337.503ZM153.045 339.872L187.001 338.729L189.625 332.696L157.515 331.551L153.045 339.872ZM338.63 336.866L338.492 339.415L340.253 339.155L340.403 336.698L338.63 336.866ZM306.752 336.761C305.954 336.785 305.151 336.791 304.345 336.777L291.963 337.194L291.638 339.322L306.626 337.898L306.752 336.761ZM189.214 338.654L218.615 337.664L219.963 333.778L191.772 332.773L189.214 338.654ZM343.857 336.37L343.671 338.651L344.396 338.546L345.133 336.25L343.857 336.37ZM347.299 336.044L346.601 338.221L353.514 337.2L354.295 335.38L347.299 336.044ZM309.433 336.606C309.214 336.625 308.994 336.642 308.774 336.657L308.659 337.705L320.066 336.622L320.097 336.247L309.433 336.606ZM220.758 337.592L246.165 336.736L246.55 335.314C242.03 335.689 237.383 335.451 232.712 334.529L230.885 334.168L222.054 333.853L220.758 337.592ZM250.29 334.86C249.757 334.946 249.221 335.022 248.684 335.09L248.257 336.666L264.696 336.112L255.108 335.032L250.29 334.86ZM322.107 336.179L322.088 336.43L326.165 336.043L322.107 336.179ZM308.104 324.494C303.533 328.516 298.237 331.699 292.475 333.844L292.396 334.361L303.443 334.756C304.632 334.798 305.81 334.731 306.98 334.688L308.104 324.494ZM322.832 301.777C320.377 309.725 316.022 316.749 310.349 322.392L309 334.62C312.951 334.307 316.775 333.525 320.409 332.307L322.832 301.777ZM345.87 333.953C345.447 334.072 345.021 334.184 344.593 334.292L345.798 334.177L345.87 333.953ZM330.374 329.965C327.817 331.462 325.116 332.735 322.3 333.764L322.267 334.173L330.136 333.908L330.374 329.965ZM291.446 295.156C289.148 306.8 282.977 316.693 274.539 323.768L272.501 333.652L284.325 334.074C286.493 333.649 288.614 333.075 290.677 332.364L313.181 185.017L291.446 295.156ZM356.868 329.384C354.13 330.928 351.232 332.225 348.199 333.238L347.965 333.971L355.194 333.284L356.868 329.384ZM337.264 325.112C335.735 326.394 334.13 327.585 332.456 328.678L332.145 333.841L333.953 333.78C334.911 333.748 335.862 333.687 336.804 333.6L337.264 325.112ZM272.101 325.691C267.715 328.929 262.808 331.448 257.576 333.12L270.474 333.58L272.101 325.691ZM341.346 321.28C340.705 321.952 340.044 322.606 339.367 323.241L338.819 333.371C339.425 333.289 340.026 333.196 340.624 333.092L341.346 321.28ZM312.056 101.078L249.418 332.378L251.496 332.612C259.337 331.095 266.623 327.644 272.722 322.679L330.629 41.9141L329.743 40.168L312.056 101.078ZM255.604 295.487C250.887 311.728 238.654 323.741 223.79 328.847L223.575 329.467L247.406 332.151L281.31 206.961L255.604 295.487ZM214.904 331.015C213.549 331.216 212.181 331.363 210.804 331.452L218.518 331.728L214.904 331.015ZM322.132 139.661L292.822 331.567C298.653 329.24 303.957 325.796 308.438 321.467L336.556 66.5713L322.132 139.661ZM327.516 268.03L322.474 331.562C325.292 330.471 327.985 329.122 330.521 327.54L341.761 141.552L327.516 268.03ZM192.629 330.804L200.895 331.099C198.478 330.769 196.056 330.26 193.644 329.56L193.224 329.438L192.629 330.804ZM158.569 329.589L190.481 330.727L191.287 328.875L185.485 327.19L161.32 324.468L158.569 329.589ZM119.877 328.208L156.342 329.509L159.18 324.228L125.015 320.379L119.877 328.208ZM298.3 87.876L217.782 292.814L217.542 293.415C213.63 303.012 207.06 310.744 199.022 316.104L195.123 325.07L209.187 327.847L216.659 328.688C218.546 328.323 220.404 327.846 222.223 327.262L325.006 30.8379L323.985 28.8271L298.3 87.876ZM75.4502 326.624L117.539 328.125L122.787 320.128L84.0947 315.77L75.4502 326.624ZM29.4004 318.748L28.9492 319.211C26.9175 321.266 24.7492 323.106 22.4746 324.735L72.9648 326.535L81.749 315.505L37.3477 310.504L29.4004 318.748ZM224.633 326.415C238.226 321.239 249.314 309.973 253.683 294.929L310.128 100.544L327.613 35.9756L326.264 33.3164L224.633 326.415ZM346.085 103.157L332.608 326.16C334.292 324.984 335.896 323.701 337.414 322.323L350.479 81.0166L348.924 77.9541L346.085 103.157ZM196.041 317.946C192.261 320.102 188.211 321.76 184 322.875L193.114 324.674L196.041 317.946ZM162.763 321.783C164.956 322.179 167.154 322.415 169.342 322.502L164.18 321.003L163.277 320.824L162.763 321.783ZM164.284 318.951L164.64 319.055L179.042 321.896C185.601 320.81 191.867 318.375 197.424 314.766L296.443 87.1279L317.175 34.3594L164.284 318.951ZM126.245 318.504L154.683 321.707C154.309 321.576 153.936 321.441 153.564 321.3L152.961 321.067L141.309 316.489L129.144 314.088L126.245 318.504ZM153.692 319.206C156.011 320.117 158.358 320.835 160.716 321.368L161.226 320.419L152.297 318.657L153.692 319.206ZM275.213 320.501C282.306 313.866 287.46 305.025 289.484 294.769L320.159 139.328L334.017 48.5889L332.081 44.7754L275.213 320.501ZM339.527 320.288C340.221 319.576 340.892 318.841 341.541 318.087L355.432 90.7734L352.288 84.582L339.527 320.288ZM310.71 319.117C317.209 311.925 321.599 302.704 322.767 292.337L325.526 267.826L341.721 63.7666L339.385 59.1641L310.71 319.117ZM285.259 76.1963L178.669 286.566L178.373 287.142C171.097 301.06 158.152 310.148 143.816 313.008L162.32 318.381L321.018 22.9814L320.652 22.2627L285.259 76.1963ZM85.5664 313.922L124.018 318.253L127.025 313.67L91.3701 306.633L85.5664 313.922ZM141.871 314.562L142.262 314.639L141.517 314.422L141.871 314.562ZM39.0986 308.688L83.2207 313.657L89.1611 306.197L49.1191 298.294L39.0986 308.688ZM200.577 312.531C207.231 307.406 212.626 300.469 215.921 292.083L276.092 138.93L200.577 312.531ZM132.088 309.601L139.269 311.687C154.844 309.974 169.274 300.682 176.885 285.662L275.42 91.1885L132.088 309.601ZM112.372 306.785C117.528 309.398 122.934 310.989 128.358 311.639L128.482 311.449L120.554 308.335L108.553 304.85L112.372 306.785ZM231.461 130.714L139.047 276.374L138.696 276.917C130.317 289.761 117 297.502 102.837 299.225L121.202 306.44L130.078 309.018L283.526 75.1904L297.258 48.0889L231.461 130.714ZM344.116 308.722L358.779 129.796L359.828 100.387L359.145 98.0879L357.22 94.2969L344.116 308.722ZM347.915 308.607C348.132 308.183 348.343 307.755 348.548 307.323L353.149 287.754L353.615 274.661L347.915 308.607ZM92.7734 304.871L111.445 308.557L98.1924 301.841L95.751 301.132L92.7734 304.871ZM50.7705 296.582L90.5645 304.436L93.6748 300.528L87.3574 298.694C84.3849 298.122 81.4398 297.274 78.5596 296.14L57.1816 289.932L50.7705 296.582ZM98.1396 299.573L98.9229 299.97L100.238 300.353L98.2461 299.569C98.2107 299.57 98.1751 299.572 98.1396 299.573ZM98.5996 297.555C113.847 296.978 128.565 289.16 137.357 275.302L219.805 145.351L98.5996 297.555ZM71.1123 290.117C73.722 291.773 76.4307 293.146 79.2021 294.243L87.8232 296.747C87.9857 296.778 88.1489 296.806 88.3115 296.835L78.0459 291.633L66.1094 286.942L71.1123 290.117ZM166.309 176.741L99.748 262.076L99.3467 262.583C90.7229 273.355 78.5206 279.623 65.7715 281.022L64.3789 282.466L78.8564 289.803L96.6494 296.794L229.824 129.559L264.518 74.876L166.309 176.741ZM3.06055 287.165L48.4365 296.121L55.0117 289.302L14.3691 277.499L3.06055 287.165ZM58.75 288.305L69.3906 291.395L60.9404 286.033L58.75 288.305ZM16.1875 275.944L56.5801 287.674L59.2168 284.939L56.2998 283.089L47.7422 279.727C43.9262 278.737 40.1907 277.284 36.6201 275.356L23.0928 270.041L16.1875 275.944ZM349.642 286.245L354.162 259.332L354.757 242.631L349.642 286.245ZM57.2148 281.3L59.1631 282.065L57.5508 281.248C57.3989 281.24 57.2466 281.233 57.0947 281.224L57.2148 281.3ZM62.0596 281.291L62.5127 281.521L62.7617 281.263C62.5278 281.274 62.2936 281.283 62.0596 281.291ZM94.7676 208.773L61.5977 243.737L61.1494 244.203C54.4003 251.139 46.1125 255.7 37.3398 257.863L30.0703 264.077L37.9385 269.069L58.0791 279.274C60.3362 279.378 62.5953 279.321 64.8389 279.108L164.793 175.433L226.862 95.8564L94.7676 208.773ZM68.0088 278.701C79.5387 276.834 90.4206 270.782 98.1709 260.846L153.022 190.521L68.0088 278.701ZM27.3027 266.442L30.8018 269.172C32.9344 270.835 35.164 272.29 37.4648 273.539L47.4053 277.445L36.9346 270.802L27.6855 266.115L27.3027 266.442ZM348.749 276.682L355.636 217.966L357.233 173.143L348.749 276.682ZM24.8154 268.569L28.7686 270.123L25.751 267.77L24.8154 268.569ZM25.6934 265.188L25.7539 265.137L25.3955 264.955L25.6934 265.188ZM33.3037 258.683C29.7135 259.26 26.0711 259.446 22.4443 259.238L28.3037 262.956L33.3037 258.683ZM19.3926 259.673L17.9932 258.784C17.8255 258.759 17.6576 258.735 17.4902 258.709L19.3926 259.673ZM41.0664 254.677C48.0997 252.242 54.6702 248.133 60.1465 242.36L80.1797 221.243L41.0664 254.677ZM152.869 110.576L37.4121 211.135L192.944 102.378L222.344 71.3887L152.869 110.576ZM332.318 207.523L344.092 102.984L345.957 72.1104L343.455 67.1826L332.318 207.523ZM194.263 103.896L107.971 194.855L233.021 87.96L252.178 63.3994L194.263 103.896ZM360.777 129.897L358.513 193.444L366.711 123.542L362.468 109.269L360.777 129.897ZM234.475 89.3486L178.079 161.651L269.865 66.4463L280.054 50.3867L234.475 89.3486ZM271.446 67.6895L241.479 114.922L301.73 39.2617L304.917 32.9727L271.446 67.6895ZM197.999 71.2705L160.354 104.059L227.03 66.4482L240.298 52.4619L197.999 71.2705ZM168.114 69.2402L120.384 103.594L196.91 69.5654L215.756 53.1514L168.114 69.2402ZM228.278 68.041L201.14 96.6475L256.365 58.0312L264.489 47.6152L228.278 68.041ZM139.728 62.3096L83.0967 95.8418L167.189 67.4424L191.731 49.7783L139.728 62.3096ZM357.711 86.25L360.051 94.1182L360.804 72.998L358.695 70.1504L357.711 86.25ZM329.107 93.9824L336.933 54.332L335.572 51.6523L329.107 93.9824ZM352.505 80.5898L355.673 86.8301L355.693 86.4814L352.726 76.5L352.505 80.5898ZM362.321 86.5635L363.171 76.1963L362.714 75.5781L362.321 86.5635ZM113.76 51.083L49.957 81.8838L138.969 60.4346L169.021 42.6396L113.76 51.083ZM257.759 59.4961L240.634 81.4521L283.702 44.6367L287.443 38.7393L257.759 59.4961ZM353.048 70.5615L356.05 80.6592L356.845 67.6514L353.453 63.0713L353.048 70.5615ZM349.331 74.3389L350.694 77.0254L351.031 70.8008L350.088 67.625L349.331 74.3389ZM362.828 72.3711L363.419 73.1699L365.569 46.9229C365.125 44.9248 364.581 42.9644 363.943 41.0469L362.828 72.3711ZM358.885 67.0449L360.918 69.791L362.039 38.3408L360.719 37.0352L358.885 67.0449ZM343.759 63.3623L346.195 68.1621L346.88 56.8379L345.566 52.4189L344.718 51.2734L343.759 63.3623ZM220.731 51.4707L203.133 66.7988L243.89 48.6768L250.906 41.2803L220.731 51.4707ZM196.878 48.5381L173.64 65.2637L219.715 49.7031L230.298 40.4854L196.878 48.5381ZM350.661 62.5332L351.354 64.8613L351.587 60.5508L350.977 59.7266L350.661 62.5332ZM348.415 64.6006L348.628 62.7148L348.546 62.4385L348.415 64.6006ZM353.622 59.9385L357.034 64.5459L358.798 35.6787L355.06 33.3887L353.622 59.9385ZM245.07 50.3398L232.966 63.0996L267.688 43.5146L271.545 38.5684L245.07 50.3398ZM90.8848 36.3281L21.9209 63.0908L113.157 49.1514L148.302 32.1846L90.8848 36.3281ZM303.423 40.3467L293.365 60.1982L319.609 20.207L319.552 20.0938L303.423 40.3467ZM339.785 55.5342L342.024 59.9453L342.906 48.8262L340.834 46.0264L339.785 55.5342ZM285.23 45.9619L276.794 59.2598L307.995 26.8975L308.348 26.2012L285.23 45.9619ZM174.312 41.8311L145.587 58.8398L196.029 46.6855L210.443 36.3105L174.312 41.8311ZM349.202 57.624L349.23 57.3672L349.056 57.1309L349.202 57.624ZM351.306 56.8086L351.756 57.417L352.237 48.541L351.306 56.8086ZM349.068 53.7871L349.56 54.4502L352.134 31.5967L350.471 30.5771L349.068 53.7871ZM269.019 45.0605L261.946 54.1279L290.227 34.3535L291.466 32.3984L269.019 45.0605ZM336.091 48.2559L337.561 51.1504L339.047 43.6143L337.184 41.0986L336.091 48.2559ZM345.265 44.3838L347.232 51.0029L348.539 29.3936L346.551 28.1758L345.265 44.3838ZM153.713 31.7949L119.892 48.1221L173.628 39.9121L192.003 29.0312L153.713 31.7949ZM234.509 39.4707L224.689 48.0234L253.853 38.1738L257.989 33.8125L234.509 39.4707ZM254.965 39.9092L248.661 46.5547L274.158 35.2178L276.054 32.7871L254.965 39.9092ZM341.181 43.1348L343.147 45.791L343.242 44.6016L341.83 39.8496L341.181 43.1348ZM214.788 35.6475L201.175 45.4453L233.563 37.6416L240.334 31.7441L214.788 35.6475ZM332.729 41.6338L334.536 45.1924L335.507 38.833L333.786 36.5088L332.729 41.6338ZM275.43 36.8408L272.218 40.96L293.736 28.8213L293.842 28.6543L275.43 36.8408ZM337.609 38.3105L339.405 40.7354L340.133 34.1406L338.887 29.9492L337.609 38.3105ZM291.702 35.7617L288.879 40.2119L304.792 26.6084L291.702 35.7617ZM196.473 28.709L178.917 39.1045L214.013 33.7422L223.738 26.7412L196.473 28.709ZM342.663 35.6299L343.682 39.0586L344.639 27.0039L344.396 26.8555L342.663 35.6299ZM330.559 37.3584L331.277 38.7734L332.188 34.3516L331.645 33.6162L330.559 37.3584ZM261.566 32.9502L257.912 36.8037L278.289 29.9219L279.249 28.6895L261.566 32.9502ZM244.026 31.1797L237.774 36.626L260.52 31.1455L263.276 28.2393L244.026 31.1797ZM318.651 36.0732L322.811 26.5127L322.584 26.0664L318.651 36.0732ZM334.328 33.8799L335.933 36.0459L337.551 25.4531L336.674 22.5059L334.328 33.8799ZM360.881 34.3828L361.481 34.9766L361.573 35.0332C361.362 34.5733 361.146 34.1167 360.924 33.6631L360.881 34.3828ZM97.2334 33.8643L153.187 29.8271L175.559 19.0264L135.618 18.9678L97.2334 33.8643ZM279.499 31.624L278.044 33.4902L290.898 27.7744L279.499 31.624ZM327.174 30.6904L328.394 33.0938L329.161 30.2617L327.909 28.5703L327.174 30.6904ZM227.542 26.4668L218.357 33.0781L243.151 29.29L248.095 24.9844L227.542 26.4668ZM332.346 31.2012L332.731 31.7217L334.047 25.3447L332.346 31.2012ZM309.644 28.0703L307.896 31.5205L315.386 22.1143L309.644 28.0703ZM295.155 30.3174L294.485 31.375L299.504 27.8652L295.155 30.3174ZM266.504 27.7461L264.098 30.2832L281.226 26.1562L281.809 25.4072L266.504 27.7461ZM158.598 29.4365L195.86 26.748L208.817 19.0752L180.146 19.0332L158.598 29.4365ZM350.607 28.3145L352.381 29.4014L352.442 28.8525L350.681 27.1104L350.607 28.3145ZM339.595 25.3115L340.697 29.0186L341.155 24.8701L339.79 24.0332L339.595 25.3115ZM282.374 27.9365L281.734 28.7578L288.623 26.4307L282.374 27.9365ZM251.415 24.7441L246.845 28.7256L265.521 25.8721L267.706 23.5693L251.415 24.7441ZM325.02 26.4473L325.916 28.2129L326.467 26.623L325.507 25.3271L325.02 26.4473ZM328.702 26.2812L329.827 27.7998L332.12 19.335L331.288 18.8252L328.702 26.2812ZM346.729 25.9375L348.676 27.1309L348.79 25.2412L346.93 23.4033L346.729 25.9375ZM200.33 26.4248L226.836 24.5127L234.338 19.1133L212.731 19.0811L200.33 26.4248ZM350.841 24.457L352.728 26.3223L353.24 21.7637C352.564 20.9467 351.865 20.1488 351.147 19.3691L350.841 24.457ZM284.689 24.9678L284.351 25.4033L288.701 24.3545L284.689 24.9678ZM270.669 23.3555L268.75 25.3789L283.602 23.1104L284.17 22.3809L270.669 23.3555ZM344.809 24.7617L344.816 24.7656L344.822 24.6914L344.809 24.7617ZM328.772 17.8193L326.429 23.21L327.261 24.334L329.542 17.7549L329.365 17.6465C329.168 17.7055 328.971 17.7626 328.772 17.8193ZM230.64 24.2383L250.605 22.7979L254.801 19.1426L237.754 19.1182L230.64 24.2383ZM323.562 23.5762L323.846 24.1338L324.134 23.4707L323.787 23.0029L323.562 23.5762ZM340.118 21.8887L341.397 22.6729L341.869 18.4004L340.811 17.3535L340.118 21.8887ZM286.858 22.1875L286.482 22.6699L292.126 21.8066L286.858 22.1875ZM347.137 20.7959L348.95 22.5879L349.262 17.4102C348.697 16.85 348.121 16.3012 347.535 15.7637L347.137 20.7959ZM253.926 22.5576L269.748 21.416L271.88 19.168L257.841 19.1475L253.926 22.5576ZM325.636 18.6094L325.179 19.4629L324.65 20.8076L325.055 21.3535L326.312 18.457C326.088 18.5093 325.862 18.5601 325.636 18.6094ZM272.712 21.2021L285.827 20.2559L286.658 19.1895L274.638 19.1719L272.712 21.2021ZM322.171 20.8359L322.176 20.8271L322.146 20.7861L322.171 20.8359ZM337.529 18.3613L338.235 20.7354L338.268 20.7549L339.053 15.6162L338.258 14.8301L337.529 18.3613ZM301.01 17.3545C297.239 18.406 293.29 19.0298 289.217 19.1631L288.517 20.0615L299.81 19.2471L301.01 17.3545ZM314.926 11.0332C311.535 13.2564 307.858 15.0801 303.962 16.4336L302.29 19.0684L304.526 18.9072C307.331 18.7049 310.061 18.2639 312.7 17.6084L315.494 12.0996L315.013 11.1514L314.926 11.0332ZM331.998 16.7754L331.959 16.8896L332.665 17.3223L332.902 16.4404C332.603 16.5554 332.301 16.666 331.998 16.7754ZM293.114 10.915C288.787 12.6151 284.179 13.7283 279.394 14.1582L276.532 17.1748L287.48 17.1914C287.728 17.1918 287.975 17.1889 288.222 17.1855L293.114 10.915ZM260.134 17.1504L273.775 17.1709L276.465 14.335C275.022 14.3796 273.566 14.3637 272.099 14.2822L271.454 14.2422L264.053 13.7363L260.134 17.1504ZM240.527 17.1221L257.094 17.1465L261.229 13.5439L246.861 12.5635L240.527 17.1221ZM216.102 17.0859L237.111 17.1172L243.734 12.3496L226.129 11.1484L216.102 17.0859ZM184.277 17.0391L212.188 17.0801L222.61 10.9082L200.152 9.375L184.277 17.0391ZM306.1 3.39355C303.289 5.64397 300.236 7.59479 296.988 9.20117L290.843 17.0791C294.943 16.8014 298.901 16.0062 302.654 14.7627L308.815 5.05762L306.1 3.39355ZM140.753 16.9756L179.688 17.0332L196.121 9.09961L166.293 7.06445L140.753 16.9756ZM78.0547 16.8838L135.246 16.9678L161.592 6.74316L120.418 3.93262L78.0547 16.8838ZM315.474 16.5596L316.489 15.9873L317.211 15.4834L316.616 14.3105L315.474 16.5596ZM341.366 13.71L341.184 14.9102L342.148 15.8643L342.417 13.4209C342.069 13.5205 341.718 13.6175 341.366 13.71ZM317.926 11.7246L319.516 13.8721L320.474 13.2021L321.158 12.6182L318.347 10.8965L317.926 11.7246ZM333.13 13.5117L333.077 13.6621L333.696 13.5127L333.754 13.3008L333.13 13.5117ZM305.75 13.6162C308.554 12.4664 311.224 11.0587 313.732 9.42285L311.898 6.94629L310.521 6.10254L305.75 13.6162ZM331.305 11.9961L331.293 12.0215L331.56 11.9307L331.58 11.874L331.305 11.9961ZM249.405 10.7324L263.364 11.6855L269.492 6.34863C265.652 6.81731 261.697 6.84833 257.689 6.38672L257.048 6.30957L255.777 6.14648L249.405 10.7324ZM229.165 9.35059L246.278 10.5195L252.871 5.77441L238.346 3.91504L229.165 9.35059ZM316.61 9.88184L316.614 9.88867L316.621 9.87402C316.618 9.87658 316.614 9.87928 316.61 9.88184ZM203.79 7.61914L225.646 9.11035L235.119 3.50195L217.099 1.19434L203.79 7.61914ZM335.118 7.77637L334.98 8.17383L335.164 8.0918L335.273 7.68848L335.118 7.77637ZM300.142 5.16016C301.572 4.2719 302.954 3.3099 304.281 2.2793L303.002 1.49512L300.142 5.16016ZM307.722 2.04004L308.719 2.65039L308.05 1.74707C307.94 1.84439 307.832 1.94368 307.722 2.04004ZM309.528 0.383789L309.586 0.460938L309.541 0.37207C309.537 0.376045 309.532 0.379814 309.528 0.383789Z" fill="#FCC9C2"/>
</g>
</svg>
