<svg width="367" height="711" viewBox="0 0 367 711" fill="none" xmlns="http://www.w3.org/2000/svg">
<path d="M307 0C315.54 0 323.663 1.78418 331.017 5.00004C345.111 11.1638 350.5 27.2537 350.5 42.6375V64.6967C350.5 87.2317 332.232 105.5 309.697 105.5H279.789C260.142 105.5 248.371 127.338 259.171 143.75C269.971 160.162 258.199 182 238.553 182H42.7295C28.3701 182 16.7295 193.641 16.7295 208C16.7295 222.359 28.3701 234 42.7295 234H307C340.137 234 367 260.863 367 294V544.735C367 563.936 351.435 579.501 332.234 579.5C313.034 579.5 297.469 595.065 297.469 614.266V651C297.469 684.137 270.606 711 237.469 711H60C51.0516 711 42.5609 709.041 34.9332 705.528C21.1879 699.199 16 683.382 16 668.249V484.003C16 479.584 12.4185 476.002 8 476.001C3.58149 476.001 0 472.419 0 468V60C3.72374e-06 26.8629 26.8629 0 60 0H307Z" fill="#0585DA"/>
</svg>
