<svg width="367" height="63" viewBox="0 0 367 63" fill="none" xmlns="http://www.w3.org/2000/svg">
<path d="M367 35.4364C367 42.4955 358.465 46.0307 353.474 41.0392C351.36 38.9255 350.755 35.8035 350.956 32.8211C350.985 32.3845 351 31.944 351 31.5C351 20.7305 342.269 12 331.5 12C320.731 12 312 20.7306 312 31.5C312 42.2695 320.73 51 331.5 51C332.763 51 333.999 50.8795 335.195 50.6496C337.695 50.1692 340.4 50.5931 342.2 52.3935C346.114 56.3075 343.342 63 337.807 63H30C13.4315 63 0 49.5685 0 33V30C0 13.4315 13.4315 0 30 0H351.018C359.845 0 367 7.15531 367 15.9818V35.4364Z" fill="#0585DA"/>
</svg>
