<svg width="368" height="598" viewBox="0 0 368 598" fill="none" xmlns="http://www.w3.org/2000/svg">
<path d="M368 43C368 66.7482 348.748 86 325 86H56C42.7452 86 32 96.7452 32 110C32 123.255 42.7452 134 56 134H308C341.137 134 368 160.863 368 194V538C368 571.137 341.137 598 308 598H246.142C233.355 598 220.98 593.474 211.21 585.224C199.028 574.937 191.999 559.803 191.999 543.857V503.002C191.999 469.865 165.136 443.002 131.999 443.002H60C26.8629 443.002 0 416.139 0 383.002V118.992C0 85.8551 26.8629 58.9922 60 58.9922H192.155C212.67 58.9922 232.169 48.5061 240.035 29.5584C242.057 24.6875 244.058 19.8393 247.018 13.9709C251.496 5.09137 260.916 0 270.861 0H319.537C327.859 0 331.609 9.9059 324.774 14.6527C322.634 16.1383 319.963 16.4527 317.374 16.1656C316.388 16.0562 315.386 16 314.371 16C299.459 16 287.371 28.0883 287.371 43C287.371 57.9117 299.459 70 314.371 70C329.283 69.9999 341.371 57.9116 341.371 43C341.371 34.9319 339.073 26.12 344.015 19.7425C348.71 13.6831 355.991 8.56441 367.063 0.121094C367.164 0.043775 367.291 0 367.418 0C367.74 0 368 0.260455 368 0.581742V43Z" fill="#DFF354"/>
</svg>
