<svg xmlns="http://www.w3.org/2000/svg" width="610" height="379" fill="none" viewBox="0 0 610 379"><rect width="610" height="379" fill="#ead2cb" rx="46"/><path fill="#f1547b" d="M200.043 40.74v-2.56h10.42v2.56zm7.3-11.74 7.06 15h-3.34l-6.28-13.74h1.08L199.603 44h-3.36l7.08-15zm21.114-.4V44h-3.08v-3.56l.44-.88V37.2l-.44-.84V28.6zm-1.96 9.72q-.34 1.8-1.2 3.14a6.36 6.36 0 0 1-2.16 2.1q-1.28.74-2.86.74-1.68 0-2.96-.74a5.37 5.37 0 0 1-1.98-2.1q-.72-1.36-.72-3.14t.72-3.12a5.37 5.37 0 0 1 1.98-2.1q1.28-.76 2.96-.76 1.58 0 2.86.76 1.3.74 2.16 2.08.86 1.32 1.2 3.14m-8.74 0q0 1.04.42 1.84.44.8 1.18 1.26.76.44 1.74.44t1.84-.44a4.75 4.75 0 0 0 1.52-1.26 6.2 6.2 0 0 0 1.04-1.84 6.2 6.2 0 0 0-1.04-1.84 4.5 4.5 0 0 0-1.52-1.24 3.84 3.84 0 0 0-1.84-.46q-.98 0-1.74.46a3.2 3.2 0 0 0-1.18 1.24q-.42.8-.42 1.84m19.876 5.98q-2.12 0-3.7-.74-1.581-.76-2.46-2.1-.88-1.36-.88-3.14t.88-3.12q.879-1.34 2.46-2.1t3.7-.76q2.1 0 3.68.76t2.46 2.1q.9 1.34.9 3.12t-.9 3.14q-.88 1.34-2.46 2.1-1.58.74-3.68.74m0-2.38q1.2 0 2.06-.44a3.23 3.23 0 0 0 1.36-1.24q.48-.8.48-1.92t-.48-1.92a3.23 3.23 0 0 0-1.36-1.24q-.86-.44-2.06-.44t-2.08.44a3.23 3.23 0 0 0-1.36 1.24q-.48.8-.48 1.92t.48 1.92 1.36 1.24 2.08.44m9.028-9.28h3.1v3.72l-.14.44v2.58l.14.78v7.14h-3.1zm2 5.68q.34-1.82 1.2-3.14.86-1.34 2.14-2.08 1.3-.76 2.88-.76 1.68 0 2.94.76a5.3 5.3 0 0 1 2 2.1q.72 1.34.72 3.12t-.72 3.14a5.3 5.3 0 0 1-2 2.1q-1.26.74-2.94.74-1.58 0-2.86-.74-1.28-.76-2.16-2.1-.86-1.34-1.2-3.14m8.74 0q0-1.04-.44-1.84a3 3 0 0 0-1.18-1.24q-.74-.46-1.72-.46t-1.86.46a4.8 4.8 0 0 0-1.52 1.24 6.9 6.9 0 0 0-1.04 1.84 6.9 6.9 0 0 0 1.04 1.84q.66.8 1.52 1.26.88.44 1.86.44t1.72-.44q.76-.46 1.18-1.26.44-.8.44-1.84m3.803-3.34V33.6l2.4-.72 1.3-3.24h1.78v3h5.12v2.34h-5.12v4.4q0 1.36.58 1.9t1.94.54q.86 0 1.52-.16.68-.18 1.28-.5v2.44q-.56.26-1.52.48t-1.96.22q-1.74 0-2.84-.56-1.08-.56-1.58-1.56-.5-1.02-.5-2.36v-4.84zm12.625-2.44h3.1V44h-3.1zm1.54-1.26q-.86 0-1.4-.44-.54-.46-.54-1.22 0-.74.54-1.18.54-.46 1.4-.46.861 0 1.38.46.54.44.54 1.18 0 .76-.54 1.22-.519.44-1.38.44m10.584 13.02q-2.12 0-3.7-.74-1.58-.76-2.46-2.1-.88-1.36-.88-3.14t.88-3.12 2.46-2.1 3.7-.76q2.1 0 3.68.76t2.46 2.1q.9 1.34.9 3.12t-.9 3.14q-.88 1.34-2.46 2.1-1.58.74-3.68.74m0-2.38q1.2 0 2.06-.44a3.23 3.23 0 0 0 1.36-1.24q.48-.8.48-1.92t-.48-1.92a3.23 3.23 0 0 0-1.36-1.24q-.86-.44-2.06-.44t-2.08.44a3.23 3.23 0 0 0-1.36 1.24q-.48.8-.48 1.92t.48 1.92 1.36 1.24 2.08.44m9.189-9.28h3.1V44h-3.1zm7.5-.3q1.6 0 2.74.66a4.1 4.1 0 0 1 1.72 1.84q.6 1.18.6 2.86V44h-3.08v-5.82q0-1.62-.78-2.44-.76-.84-2.24-.84-1.02 0-1.78.44t-1.18 1.26q-.4.8-.4 1.88l-1.04-.54q.2-1.78.94-3.02.759-1.26 1.92-1.92 1.16-.66 2.58-.66m15.132 3.36h5.9q1.2 0 1.9-.56t.7-1.52q0-.98-.7-1.52-.7-.56-1.9-.56h-6.34l1.4-1.64V44h-3.14V29h8.42q1.64 0 2.86.58t1.9 1.62q.68 1.02.68 2.42 0 1.36-.68 2.4-.68 1.02-1.9 1.6t-2.86.58h-6.24zm2.72 1.28h3.62l5.78 7.02h-3.72zm19.795.62q0-1.34-.96-2.08-.96-.76-2.98-.76-1.14 0-2.34.28t-2.28.88V33.6q1.26-.66 2.56-.96 1.299-.3 2.76-.3 1.92 0 3.32.6 1.4.58 2.18 1.74.8 1.14.8 2.82V44h-3.04zm-4.6-.92q2.54-.08 3.94.36 1.419.44 1.56.7.14.24.14 2.74 0 .48-.4 1.14t-1.14 1.28q-.74.6-1.78 1t-2.32.4q-1.401 0-2.52-.46-1.101-.46-1.74-1.32-.64-.86-.64-2.02 0-1.18.64-2.02.66-.86 1.76-1.3 1.12-.46 2.5-.5m1.7 2.04q-2.08 0-2.86.46t-.78 1.22q0 .74.76 1.22.78.46 2.14.46 1.6 0 2.62-.88 1.02-.9 1.02-2.06-.82-.42-2.9-.42m7.174-3.74V33.6l2.4-.72 1.3-3.24h1.78v3h5.12v2.34h-5.12v4.4q0 1.36.58 1.9t1.94.54q.86 0 1.52-.16.68-.18 1.28-.5v2.44q-.56.26-1.52.48t-1.96.22q-1.74 0-2.84-.56-1.08-.56-1.58-1.56-.5-1.02-.5-2.36v-4.84zm18.595 9.32q-2 0-3.58-.76-1.56-.76-2.46-2.1-.9-1.36-.9-3.14t.84-3.1q.86-1.34 2.36-2.1t3.44-.76 3.34.88q1.42.86 2.18 2.42.78 1.56.78 3.68h-10.48v-2.14h8.86l-1.32.78q-.06-1.04-.5-1.76a3.1 3.1 0 0 0-1.16-1.14q-.72-.4-1.72-.4-1.06 0-1.84.44-.78.42-1.22 1.18t-.44 1.8q0 1.2.54 2.08.56.86 1.56 1.32 1.02.46 2.44.46a9.4 9.4 0 0 0 2.62-.38 9.1 9.1 0 0 0 2.36-1.08v2.12q-1.1.8-2.6 1.26-1.48.44-3.1.44M379.129 29h2.46q-1.3 2.22-1.92 4.32a14.7 14.7 0 0 0-.62 4.22q0 2.1.62 4.2t1.92 4.34h-2.46q-1.641-2.06-2.46-4.16a11.9 11.9 0 0 1-.82-4.38q0-2.28.82-4.38.819-2.1 2.46-4.16m8.472 8.68q-1.48 0-2.62-.56t-1.78-1.56q-.62-1-.62-2.32t.62-2.3q.64-1 1.78-1.56t2.62-.56q1.5 0 2.62.56a4.36 4.36 0 0 1 1.76 1.56q.64.98.64 2.3t-.64 2.32a4.36 4.36 0 0 1-1.76 1.56q-1.12.56-2.62.56m0-1.9q1.179 0 1.86-.66.68-.68.68-1.88 0-1.16-.68-1.84-.681-.7-1.86-.7t-1.86.7q-.68.68-.68 1.84 0 1.2.68 1.88.68.66 1.86.66m13.72 8.5q-1.48 0-2.62-.56a4.34 4.34 0 0 1-1.76-1.56q-.64-1-.64-2.32t.64-2.3a4.34 4.34 0 0 1 1.76-1.56q1.14-.56 2.62-.56 1.5 0 2.62.56a4.36 4.36 0 0 1 1.76 1.56q.64.98.64 2.3t-.64 2.32a4.36 4.36 0 0 1-1.76 1.56q-1.12.56-2.62.56m0-1.9q1.179 0 1.86-.68.68-.68.68-1.86t-.68-1.86-1.86-.68-1.86.68-.68 1.86.68 1.86 1.86.68M397.361 29h2.36l-8.14 15h-2.36zm12.425 0q1.64 2.06 2.44 4.16.82 2.1.82 4.38t-.82 4.38q-.8 2.1-2.44 4.16h-2.48q1.32-2.24 1.94-4.34t.62-4.2a14.7 14.7 0 0 0-.62-4.22q-.62-2.1-1.94-4.32z"/><rect width="562" height="286" x="24" y="69" fill="#fefefe" rx="30"/><path fill="#fafafa" d="M79.197 99h457.629v207H79.197z"/><path stroke="#dbdee4" d="M79.398 305.5h457.628"/><path stroke="#f1547b" stroke-dasharray="8 6" d="M79.398 263.5h457.628m-457.628-41h457.628m-457.628-42h457.628m-457.628-41h457.628m-457.628-41h457.628" opacity=".3"/><path stroke="#111" stroke-linecap="round" d="M79.398 305.5h457.628"/><path fill="#f1547b" d="M79.698 305v5z"/><path stroke="#111" d="M79.698 305v5"/><path fill="#f1547b" d="M194.105 305v5z"/><path stroke="#111" d="M194.105 305v5"/><path fill="#f1547b" d="M308.512 305v5z"/><path stroke="#111" d="M308.512 305v5"/><path fill="#f1547b" d="M422.92 305v5z"/><path stroke="#111" d="M422.92 305v5"/><path fill="#f1547b" d="M537.327 305v5z"/><path stroke="#111" d="M537.327 305v5"/><path fill="#111" d="M65.88 268.608c-1.452 0-2.616-.72-2.988-2.016l1.164-.312c.3.792.96 1.176 1.836 1.176 1.2 0 1.812-.708 1.812-1.752 0-1.056-.636-1.632-1.632-1.632-.708 0-1.32.288-1.788.768l-1.032-.312.468-4.428h4.692v1.14h-3.684l-.264 2.376c.528-.384 1.14-.6 1.86-.6 1.596 0 2.64 1.008 2.64 2.64 0 1.74-1.212 2.952-3.084 2.952M59.586 218.6h1.188v8.4h-1.236v-6.132c-.516.48-1.26.744-2.028.744v-1.056c1.188-.048 2.076-.864 2.076-1.956m6.02 8.52c-1.968 0-3.216-1.68-3.216-4.32s1.248-4.32 3.216-4.32c1.98 0 3.228 1.68 3.228 4.32s-1.249 4.32-3.228 4.32m0-1.164c1.248 0 1.944-1.152 1.944-3.156s-.697-3.156-1.944-3.156c-1.236 0-1.932 1.152-1.932 3.156s.696 3.156 1.932 3.156M60.16 177.1h1.188v8.4h-1.236v-6.132c-.516.48-1.26.744-2.028.744v-1.056c1.188-.048 2.076-.864 2.076-1.956m5.72 8.508c-1.452 0-2.616-.72-2.988-2.016l1.164-.312c.3.792.96 1.176 1.836 1.176 1.2 0 1.812-.708 1.812-1.752 0-1.056-.636-1.632-1.632-1.632-.708 0-1.32.288-1.788.768l-1.032-.312.468-4.428h4.692v1.14h-3.684l-.264 2.376c.528-.384 1.14-.6 1.86-.6 1.596 0 2.64 1.008 2.64 2.64 0 1.74-1.212 2.952-3.084 2.952M55.767 144v-1.056c1.452-.948 4.212-2.976 4.212-4.872 0-.864-.564-1.44-1.416-1.44-.864 0-1.476.588-1.692 1.752l-1.164-.3c.252-1.644 1.344-2.616 2.868-2.616 1.548 0 2.664.996 2.664 2.508 0 2.004-2.016 3.804-3.564 4.896h3.792V144zm9.839.12c-1.968 0-3.216-1.68-3.216-4.32s1.248-4.32 3.216-4.32c1.98 0 3.228 1.68 3.228 4.32s-1.248 4.32-3.228 4.32m0-1.164c1.248 0 1.944-1.152 1.944-3.156s-.696-3.156-1.944-3.156c-1.236 0-1.932 1.152-1.932 3.156s.696 3.156 1.932 3.156M56.341 104v-1.056c1.452-.948 4.212-2.976 4.212-4.872 0-.864-.564-1.44-1.416-1.44-.864 0-1.476.588-1.692 1.752l-1.164-.3c.252-1.644 1.344-2.616 2.868-2.616 1.548 0 2.664.996 2.664 2.508 0 2.004-2.016 3.804-3.564 4.896h3.792V104zm9.539.108c-1.452 0-2.616-.72-2.988-2.016l1.164-.312c.3.792.96 1.176 1.836 1.176 1.2 0 1.812-.708 1.812-1.752 0-1.056-.636-1.632-1.632-1.632-.708 0-1.32.288-1.788.768l-1.032-.312.468-4.428h4.692v1.14h-3.684l-.264 2.376c.528-.384 1.14-.6 1.86-.6 1.596 0 2.64 1.008 2.64 2.64 0 1.74-1.212 2.952-3.084 2.952M176.277 258v-8.4h.96v7.488h3.468V258zm7.416.096c-1.212 0-2.052-.732-2.052-1.848v-.084c0-1.344 1.176-2.004 3.576-2.004h.576v-.432c0-.732-.516-1.176-1.404-1.176h-.072c-.66 0-1.392.252-1.92.672l-.444-.732c.756-.516 1.548-.84 2.424-.84h.072c1.392 0 2.232.78 2.232 2.004v3.324c0 .336.108.756.216 1.02h-.912c-.072-.18-.132-.504-.168-.768-.636.564-1.368.864-2.124.864m.048-.888c.84 0 1.56-.384 2.052-.972v-1.248h-.396c-2.016 0-2.844.336-2.844 1.164v.06c0 .612.48.996 1.188.996m6.793.888c-1.404 0-2.1-.828-2.1-2.34v-3.996h.888v3.84c0 1.02.408 1.608 1.356 1.608h.096c1.128 0 1.92-.732 1.92-1.932v-3.516h.888V258h-.696a4 4 0 0 1-.18-.84c-.504.588-1.236.936-2.088.936zm5.086-.096v-6.24h.696c.072.216.156.564.18.84.504-.588 1.248-.936 2.1-.936h.084c1.416 0 2.136.828 2.136 2.34V258h-.888v-3.84c0-1.02-.42-1.608-1.392-1.608h-.096c-1.14 0-1.932.732-1.932 1.932V258zm9.586.072c-1.752 0-2.94-1.236-2.94-3.036v-.312c0-1.8 1.212-3.036 2.916-3.036h.096c1.068 0 2.004.576 2.52 1.572l-.72.396c-.36-.708-1.008-1.092-1.812-1.092h-.12c-1.176 0-1.944.864-1.944 2.16v.312c0 1.296.804 2.16 2.016 2.16h.12c.732 0 1.344-.372 1.728-1.056l.744.396c-.564.984-1.464 1.536-2.508 1.536zm4.02-.072v-8.64h.888v3.264c.528-.6 1.308-.96 2.196-.96 1.356 0 2.112.84 2.112 2.34V258h-.888v-3.84c0-1.068-.504-1.608-1.476-1.608-1.164 0-1.944.768-1.944 1.932V258zm-23.598 9.6h1.188v8.4h-1.236v-6.132c-.516.48-1.26.744-2.028.744v-1.056c1.188-.048 2.076-.864 2.076-1.956m3.619 8.52c-.444 0-.804-.336-.804-.756v-.048c0-.408.36-.744.804-.744.432 0 .804.336.804.744v.048c0 .42-.372.756-.804.756m4.69-.012c-1.452 0-2.616-.72-2.988-2.016l1.164-.312c.3.792.96 1.176 1.836 1.176 1.2 0 1.812-.708 1.812-1.752 0-1.056-.636-1.632-1.632-1.632-.708 0-1.32.288-1.788.768l-1.032-.312.468-4.428h4.692v1.14h-3.684l-.264 2.376c.528-.384 1.14-.6 1.86-.6 1.596 0 2.64 1.008 2.64 2.64 0 1.74-1.212 2.952-3.084 2.952m5.906-4.14c-1.14 0-1.896-.864-1.896-2.124v-.216c0-1.26.756-2.124 1.896-2.124h.084c1.14 0 1.896.864 1.896 2.124v.216c0 1.26-.756 2.124-1.896 2.124zM198.427 276l6.336-8.412h1.404L199.831 276zm1.44-5.028h.036c.528 0 .876-.456.876-1.152v-.168c0-.696-.348-1.152-.876-1.152h-.036c-.528 0-.876.456-.876 1.152v.168c0 .696.348 1.152.876 1.152m4.788 5.124c-1.128 0-1.884-.864-1.884-2.124v-.216c0-1.26.756-2.124 1.884-2.124h.096c1.128 0 1.896.864 1.896 2.124v.216c0 1.26-.768 2.124-1.896 2.124zm.036-.996h.024c.528 0 .888-.456.888-1.152v-.168c0-.696-.36-1.152-.888-1.152h-.024c-.528 0-.888.456-.888 1.152v.168c0 .696.36 1.152.888 1.152M273.835 167v-8.4h2.64c1.788 0 2.844.948 2.844 2.496v.12c0 1.14-.576 1.968-1.596 2.328l2.208 3.456h-1.224l-2.004-3.252h-1.908V167zm.96-4.164h1.644c1.248 0 1.872-.576 1.872-1.596v-.12c0-1.032-.648-1.608-1.872-1.608h-1.644zm7.945 4.26c-1.212 0-2.052-.732-2.052-1.848v-.084c0-1.344 1.176-2.004 3.576-2.004h.576v-.432c0-.732-.516-1.176-1.404-1.176h-.072c-.66 0-1.392.252-1.92.672l-.444-.732c.756-.516 1.548-.84 2.424-.84h.072c1.392 0 2.232.78 2.232 2.004v3.324c0 .336.108.756.216 1.02h-.912c-.072-.18-.132-.504-.168-.768-.636.564-1.368.864-2.124.864m.048-.888c.84 0 1.56-.384 2.052-.972v-1.248h-.396c-2.016 0-2.844.336-2.844 1.164v.06c0 .612.48.996 1.188.996m4.93 3.192v-8.64h.696c.072.204.156.552.18.828.492-.564 1.212-.9 2.052-.9h.108c1.644 0 2.796 1.26 2.796 3.036v.312c0 1.776-1.152 3.036-2.796 3.036h-.108c-.84 0-1.548-.324-2.04-.876v3.204zm2.844-3.216h.096c1.164 0 1.956-.876 1.956-2.148v-.312c0-1.272-.792-2.148-1.956-2.148h-.096c-1.176 0-1.956.888-1.956 2.148v.312c0 1.272.792 2.148 1.956 2.148m5.006-6.432a.574.574 0 0 1-.588-.588c0-.336.252-.6.588-.6s.6.264.6.6a.584.584 0 0 1-.6.588m-.444 7.248v-6.24h.888V167zm5.258.072c-1.644 0-2.796-1.26-2.796-3.036v-.312c0-1.776 1.152-3.036 2.796-3.036h.108c.84 0 1.548.324 2.04.876v-3.204h.888V167h-.696a3.2 3.2 0 0 1-.18-.816c-.492.564-1.212.888-2.052.888zm.096-.888h.096c1.176 0 1.956-.888 1.956-2.148v-.312c0-1.272-.792-2.148-1.956-2.148h-.096c-1.164 0-1.956.876-1.956 2.148v.312c0 1.272.792 2.148 1.956 2.148m11.669.912c-2.304 0-3.804-1.668-3.804-4.188v-.228c0-2.496 1.572-4.188 3.78-4.188h.12c1.248 0 2.448.696 3.048 1.8l-.84.516c-.444-.852-1.188-1.38-2.232-1.38h-.096c-1.668 0-2.772 1.284-2.772 3.252v.24c0 1.956 1.116 3.24 2.82 3.24h.084c1.404 0 2.388-.948 2.388-2.316v-.228h-2.196v-.912h3.144V167h-.732a4 4 0 0 1-.192-.96c-.54.636-1.488 1.056-2.46 1.056zm5.207-.096v-6.24h.672c.072.216.156.516.192.792.444-.504 1.08-.792 1.848-.792h.144v.924a3 3 0 0 0-.372-.024c-1.092 0-1.596.636-1.596 1.992V167zm6.643.072c-1.692 0-2.88-1.26-2.88-3.036v-.312c0-1.776 1.188-3.036 2.88-3.036h.12c1.692 0 2.88 1.26 2.88 3.036v.312c0 1.776-1.188 3.036-2.88 3.036zm.012-.888h.096c1.176 0 1.956-.888 1.956-2.148v-.312c0-1.272-.792-2.148-1.956-2.148h-.096c-1.164 0-1.956.876-1.956 2.148v.312c0 1.26.78 2.148 1.956 2.148m5.236.816-1.512-6.24h.936l1.224 5.208h.12l1.572-5.208h.96l1.572 5.22h.12l1.224-5.22h.96l-1.512 6.24h-1.332l-1.488-4.968h-.048L330.553 167zm10.275.036c-1.08 0-1.584-.528-1.584-1.644V161.6h-.84v-.648c.252-.084.576-.18.84-.192v-1.44l.888-.12v1.56h1.86v.84h-1.86v3.612c0 .744.3.972.864.972.288 0 .852-.048 1.116-.132v.792c-.288.12-.888.192-1.284.192m2.784-.036v-8.64h.888v3.264c.528-.6 1.308-.96 2.196-.96 1.356 0 2.112.84 2.112 2.34V167h-.888v-3.84c0-1.068-.504-1.608-1.476-1.608-1.164 0-1.944.768-1.944 1.932V167zm-44.903 9.6h1.188v8.4h-1.236v-6.132c-.516.48-1.26.744-2.028.744v-1.056c1.188-.048 2.076-.864 2.076-1.956m5.659 8.508c-1.452 0-2.628-.744-2.976-2.016l1.14-.312c.312.78.924 1.176 1.86 1.176 1.116 0 1.8-.708 1.8-1.776 0-.996-.612-1.584-1.656-1.584-.432 0-.852.096-1.164.288l-.432-.768 2.532-2.376h-3.672v-1.14h5.208v1.032l-2.16 2.016h.156c1.404 0 2.46 1.008 2.46 2.58 0 1.752-1.284 2.88-3.096 2.88m5.05.012c-.444 0-.804-.336-.804-.756v-.048c0-.408.36-.744.804-.744.432 0 .804.336.804.744v.048c0 .42-.372.756-.804.756m4.69-.012c-1.452 0-2.616-.72-2.988-2.016l1.164-.312c.3.792.96 1.176 1.836 1.176 1.2 0 1.812-.708 1.812-1.752 0-1.056-.636-1.632-1.632-1.632-.708 0-1.32.288-1.788.768l-1.032-.312.468-4.428h4.692v1.14h-3.684l-.264 2.376c.528-.384 1.14-.6 1.86-.6 1.596 0 2.64 1.008 2.64 2.64 0 1.74-1.212 2.952-3.084 2.952m5.906-4.14c-1.14 0-1.896-.864-1.896-2.124v-.216c0-1.26.756-2.124 1.896-2.124h.084c1.14 0 1.896.864 1.896 2.124v.216c0 1.26-.756 2.124-1.896 2.124zM317.29 185l6.336-8.412h1.404L318.694 185zm1.44-5.028h.036c.528 0 .876-.456.876-1.152v-.168c0-.696-.348-1.152-.876-1.152h-.036c-.528 0-.876.456-.876 1.152v.168c0 .696.348 1.152.876 1.152m4.788 5.124c-1.128 0-1.884-.864-1.884-2.124v-.216c0-1.26.756-2.124 1.884-2.124h.096c1.128 0 1.896.864 1.896 2.124v.216c0 1.26-.768 2.124-1.896 2.124zm.036-.996h.024c.528 0 .888-.456.888-1.152v-.168c0-.696-.36-1.152-.888-1.152h-.024c-.528 0-.888.456-.888 1.152v.168c0 .696.36 1.152.888 1.152M432.271 113v-8.4h2.472c1.716 0 2.88.948 2.88 2.544v.192c0 1.608-1.128 2.58-2.856 2.58h-1.536V113zm.96-3.996h1.512c1.188 0 1.872-.576 1.872-1.656v-.192c0-1.068-.696-1.644-1.872-1.644h-1.512zm8.035 4.068c-1.74 0-2.916-1.212-2.916-3v-.228c0-1.884 1.176-3.156 2.928-3.156h.096c1.608 0 2.676 1.164 2.676 2.916v.672h-4.752c.084 1.152.864 1.908 2.016 1.908h.12c.852 0 1.404-.408 1.752-.936l.708.468c-.588.876-1.428 1.356-2.532 1.356zm-1.956-3.636h3.864c-.06-1.116-.78-1.86-1.836-1.86h-.12c-1.056 0-1.764.72-1.908 1.86m7.913 3.66c-1.212 0-2.052-.732-2.052-1.848v-.084c0-1.344 1.176-2.004 3.576-2.004h.576v-.432c0-.732-.516-1.176-1.404-1.176h-.072c-.66 0-1.392.252-1.92.672l-.444-.732c.756-.516 1.548-.84 2.424-.84h.072c1.392 0 2.232.78 2.232 2.004v3.324c0 .336.108.756.216 1.02h-.912c-.072-.18-.132-.504-.168-.768-.636.564-1.368.864-2.124.864m.048-.888c.84 0 1.56-.384 2.052-.972v-1.248h-.396c-2.016 0-2.844.336-2.844 1.164v.06c0 .612.48.996 1.188.996m4.93.792v-8.64h.888v5.124h.048l2.76-2.724h1.128l-2.964 2.916 3.144 3.324h-1.212l-2.844-3.084h-.06V113zm8.473 0 2.952-8.4h1.392l2.952 8.4h-1.056l-.816-2.412h-3.54L461.73 113zm2.184-3.324h2.928l-1.44-4.224h-.048zm8.393 3.396c-1.644 0-2.796-1.26-2.796-3.036v-.312c0-1.776 1.152-3.036 2.796-3.036h.108c.84 0 1.548.324 2.04.876v-3.204h.888V113h-.696a3.2 3.2 0 0 1-.18-.816c-.492.564-1.212.888-2.052.888zm.096-.888h.096c1.176 0 1.956-.888 1.956-2.148v-.312c0-1.272-.792-2.148-1.956-2.148h-.096c-1.164 0-1.956.876-1.956 2.148v.312c0 1.272.792 2.148 1.956 2.148m7.395.888c-1.692 0-2.88-1.26-2.88-3.036v-.312c0-1.776 1.188-3.036 2.88-3.036h.12c1.692 0 2.88 1.26 2.88 3.036v.312c0 1.776-1.188 3.036-2.88 3.036zm.012-.888h.096c1.176 0 1.956-.888 1.956-2.148v-.312c0-1.272-.792-2.148-1.956-2.148h-.096c-1.164 0-1.956.876-1.956 2.148v.312c0 1.26.78 2.148 1.956 2.148m4.56 3.216v-8.64h.696c.072.204.156.552.18.828.492-.564 1.212-.9 2.052-.9h.108c1.644 0 2.796 1.26 2.796 3.036v.312c0 1.776-1.152 3.036-2.796 3.036h-.108c-.84 0-1.548-.324-2.04-.876v3.204zm2.844-3.216h.096c1.164 0 1.956-.876 1.956-2.148v-.312c0-1.272-.792-2.148-1.956-2.148h-.096c-1.176 0-1.956.888-1.956 2.148v.312c0 1.272.792 2.148 1.956 2.148m6.278.852c-1.08 0-1.584-.528-1.584-1.644V107.6h-.84v-.648c.252-.084.576-.18.84-.192v-1.44l.888-.12v1.56h1.86v.84h-1.86v3.612c0 .744.3.972.864.972.288 0 .852-.048 1.116-.132v.792c-.288.12-.888.192-1.284.192m3.111-7.284a.574.574 0 0 1-.588-.588c0-.336.252-.6.588-.6s.6.264.6.6a.584.584 0 0 1-.6.588m-.444 7.248v-6.24h.888V113zm5.342.072c-1.692 0-2.88-1.26-2.88-3.036v-.312c0-1.776 1.188-3.036 2.88-3.036h.12c1.692 0 2.88 1.26 2.88 3.036v.312c0 1.776-1.188 3.036-2.88 3.036zm.012-.888h.096c1.176 0 1.956-.888 1.956-2.148v-.312c0-1.272-.792-2.148-1.956-2.148h-.096c-1.164 0-1.956.876-1.956 2.148v.312c0 1.26.78 2.148 1.956 2.148m4.56.816v-6.24h.696c.072.216.156.564.18.84.504-.588 1.248-.936 2.1-.936h.084c1.416 0 2.136.828 2.136 2.34V113h-.888v-3.84c0-1.02-.42-1.608-1.392-1.608h-.096c-1.14 0-1.932.732-1.932 1.932V113zm-49.988 18v-1.056c1.452-.948 4.212-2.976 4.212-4.872 0-.864-.564-1.44-1.416-1.44-.864 0-1.476.588-1.692 1.752l-1.164-.3c.252-1.644 1.344-2.616 2.868-2.616 1.548 0 2.664.996 2.664 2.508 0 2.004-2.016 3.804-3.564 4.896h3.792V131zm10.343 0v-1.656h-4.032V128.3l3.432-5.7h1.812v5.652h1.116v1.092h-1.116V131zm-2.748-2.748h2.748v-4.488h-.096l-2.652 4.38zm6.793 2.868c-.444 0-.804-.336-.804-.756v-.048c0-.408.36-.744.804-.744.432 0 .804.336.804.744v.048c0 .42-.372.756-.804.756m4.724-.012c-1.452 0-2.628-.744-2.976-2.016l1.14-.312c.312.78.924 1.176 1.86 1.176 1.116 0 1.8-.708 1.8-1.776 0-.996-.612-1.584-1.656-1.584-.432 0-.852.096-1.164.288l-.432-.768 2.532-2.376h-3.672v-1.14h5.208v1.032l-2.16 2.016h.156c1.404 0 2.46 1.008 2.46 2.58 0 1.752-1.284 2.88-3.096 2.88m6.13-4.14c-1.14 0-1.896-.864-1.896-2.124v-.216c0-1.26.756-2.124 1.896-2.124h.084c1.14 0 1.896.864 1.896 2.124v.216c0 1.26-.756 2.124-1.896 2.124zM478.855 131l6.336-8.412h1.404L480.259 131zm1.44-5.028h.036c.528 0 .876-.456.876-1.152v-.168c0-.696-.348-1.152-.876-1.152h-.036c-.528 0-.876.456-.876 1.152v.168c0 .696.348 1.152.876 1.152m4.788 5.124c-1.128 0-1.884-.864-1.884-2.124v-.216c0-1.26.756-2.124 1.884-2.124h.096c1.128 0 1.896.864 1.896 2.124v.216c0 1.26-.768 2.124-1.896 2.124zm.036-.996h.024c.528 0 .888-.456.888-1.152v-.168c0-.696-.36-1.152-.888-1.152h-.024c-.528 0-.888.456-.888 1.152v.168c0 .696.36 1.152.888 1.152"/><mask id="a" fill="#fff"><path d="M66.277 330v-1.056c1.452-.948 4.212-2.976 4.212-4.872 0-.864-.564-1.44-1.416-1.44-.864 0-1.476.588-1.692 1.752l-1.164-.3c.252-1.644 1.344-2.616 2.868-2.616 1.548 0 2.664.996 2.664 2.508 0 2.004-2.016 3.804-3.564 4.896h3.792V330zm9.839.12c-1.968 0-3.216-1.68-3.216-4.32s1.248-4.32 3.216-4.32c1.98 0 3.228 1.68 3.228 4.32s-1.248 4.32-3.228 4.32m0-1.164c1.248 0 1.944-1.152 1.944-3.156s-.696-3.156-1.944-3.156c-1.236 0-1.932 1.152-1.932 3.156s.696 3.156 1.932 3.156M80.328 330v-1.056c1.452-.948 4.212-2.976 4.212-4.872 0-.864-.564-1.44-1.416-1.44-.864 0-1.476.588-1.692 1.752l-1.164-.3c.252-1.644 1.344-2.616 2.868-2.616 1.548 0 2.664.996 2.664 2.508 0 2.004-2.016 3.804-3.564 4.896h3.792V330zm6.55 0v-1.056c1.453-.948 4.213-2.976 4.213-4.872 0-.864-.564-1.44-1.416-1.44-.864 0-1.476.588-1.692 1.752l-1.164-.3c.252-1.644 1.344-2.616 2.868-2.616 1.548 0 2.664.996 2.664 2.508 0 2.004-2.016 3.804-3.564 4.896h3.792V330z"/></mask><path fill="#111" d="M66.277 330v-1.056c1.452-.948 4.212-2.976 4.212-4.872 0-.864-.564-1.44-1.416-1.44-.864 0-1.476.588-1.692 1.752l-1.164-.3c.252-1.644 1.344-2.616 2.868-2.616 1.548 0 2.664.996 2.664 2.508 0 2.004-2.016 3.804-3.564 4.896h3.792V330zm9.839.12c-1.968 0-3.216-1.68-3.216-4.32s1.248-4.32 3.216-4.32c1.98 0 3.228 1.68 3.228 4.32s-1.248 4.32-3.228 4.32m0-1.164c1.248 0 1.944-1.152 1.944-3.156s-.696-3.156-1.944-3.156c-1.236 0-1.932 1.152-1.932 3.156s.696 3.156 1.932 3.156M80.328 330v-1.056c1.452-.948 4.212-2.976 4.212-4.872 0-.864-.564-1.44-1.416-1.44-.864 0-1.476.588-1.692 1.752l-1.164-.3c.252-1.644 1.344-2.616 2.868-2.616 1.548 0 2.664.996 2.664 2.508 0 2.004-2.016 3.804-3.564 4.896h3.792V330zm6.55 0v-1.056c1.453-.948 4.213-2.976 4.213-4.872 0-.864-.564-1.44-1.416-1.44-.864 0-1.476.588-1.692 1.752l-1.164-.3c.252-1.644 1.344-2.616 2.868-2.616 1.548 0 2.664.996 2.664 2.508 0 2.004-2.016 3.804-3.564 4.896h3.792V330z"/><path fill="#111" d="M66.277 330h-1v1h1zm0-1.056-.547-.837-.453.296v.541zm1.104-4.56-.25.968 1.038.268.195-1.054zm-1.164-.3-.988-.152-.137.895.876.225zm1.968 4.788-.576-.817-2.576 1.817h3.152zm3.792 0h1v-1h-1zm0 1.128v1h1v-1zm-5.7 0h1v-1.056h-2V330zm0-1.056.547.837c.747-.487 1.865-1.274 2.807-2.207.89-.881 1.858-2.117 1.858-3.502h-2c0 .511-.412 1.237-1.265 2.081-.8.792-1.788 1.493-2.494 1.954zm4.212-4.872h1c0-.653-.217-1.278-.675-1.745-.46-.468-1.083-.695-1.74-.695v2c.193 0 .278.061.313.097.037.037.102.132.102.343zm-1.416-1.44v-1c-.679 0-1.311.24-1.801.738-.471.478-.743 1.123-.874 1.832l.983.182.983.182c.085-.455.227-.686.333-.793.086-.087.191-.141.376-.141zm-1.692 1.752.25-.968-1.164-.3-.25.968-.25.968 1.165.3zm-1.164-.3.989.152c.097-.637.344-1.067.64-1.335.291-.265.698-.433 1.24-.433v-2c-.984 0-1.885.318-2.583.95-.694.629-1.12 1.507-1.274 2.514zm2.868-2.616v1c.56 0 .971.178 1.233.42.254.236.431.591.431 1.088h2c0-1.015-.381-1.914-1.072-2.554-.683-.634-1.604-.954-2.592-.954zm2.664 2.508h-1c0 .667-.34 1.395-.97 2.15-.619.743-1.432 1.408-2.17 1.929l.576.817.577.817c.809-.571 1.778-1.352 2.554-2.283.766-.919 1.433-2.093 1.433-3.43zm-3.564 4.896v1h3.792v-2h-3.792zm3.792 0h-1V330h2v-1.128zm0 1.128v-1h-5.7v2h5.7zm4.139.12v-1c-.665 0-1.173-.268-1.544-.767-.393-.528-.672-1.377-.672-2.553h-2c0 1.464.344 2.775 1.068 3.747.745 1.001 1.845 1.573 3.148 1.573zM72.9 325.8h1c0-1.176.28-2.025.672-2.553.371-.499.879-.767 1.544-.767v-2c-1.303 0-2.403.572-3.148 1.573-.724.972-1.068 2.283-1.068 3.747zm3.216-4.32v1c.673 0 1.183.27 1.555.768.393.527.673 1.376.673 2.552h2c0-1.464-.345-2.775-1.07-3.748-.748-1.002-1.851-1.572-3.158-1.572zm3.228 4.32h-1c0 1.176-.28 2.025-.673 2.552-.372.498-.882.768-1.555.768v2c1.307 0 2.41-.57 3.158-1.572.725-.973 1.07-2.284 1.07-3.748zm-3.228 3.156v1c.993 0 1.792-.487 2.293-1.304.465-.76.65-1.759.65-2.852h-2c0 .911-.161 1.49-.356 1.807-.16.26-.332.349-.587.349zm1.944-3.156h1c0-1.093-.186-2.092-.651-2.852-.5-.817-1.3-1.304-2.293-1.304v2c.255 0 .428.089.587.349.195.317.357.896.357 1.807zm-1.944-3.156v-1c-.991 0-1.786.491-2.283 1.306-.463.759-.65 1.757-.65 2.85h2c0-.911.163-1.491.357-1.809.16-.262.33-.347.576-.347zm-1.932 3.156h-1c0 1.093.186 2.091.649 2.85.497.815 1.292 1.306 2.283 1.306v-2c-.245 0-.416-.085-.576-.347-.194-.318-.356-.898-.356-1.809zm6.144 4.2h-1v1h1zm0-1.056-.547-.837-.453.296v.541zm1.104-4.56-.25.968 1.038.268.195-1.054zm-1.164-.3-.989-.152-.137.895.876.225zm1.968 4.788-.577-.817-2.576 1.817h3.153zm3.792 0h1v-1h-1zm0 1.128v1h1v-1zm-5.7 0h1v-1.056h-2V330zm0-1.056.547.837c.747-.487 1.865-1.274 2.807-2.207.89-.881 1.858-2.117 1.858-3.502h-2c0 .511-.412 1.237-1.265 2.081-.8.792-1.789 1.493-2.494 1.954zm4.212-4.872h1c0-.653-.217-1.278-.675-1.745-.46-.468-1.083-.695-1.741-.695v2c.194 0 .279.061.314.097.037.037.102.132.102.343zm-1.416-1.44v-1c-.68 0-1.312.24-1.802.738-.47.478-.742 1.123-.873 1.832l.983.182.983.182c.085-.455.227-.686.332-.793.086-.087.192-.141.377-.141zm-1.692 1.752.25-.968-1.165-.3-.25.968-.249.968 1.164.3zm-1.164-.3.988.152c.098-.637.344-1.067.64-1.335.292-.265.699-.433 1.24-.433v-2c-.983 0-1.884.318-2.582.95-.695.629-1.12 1.507-1.275 2.514zm2.868-2.616v1c.56 0 .97.178 1.233.42.254.236.43.591.43 1.088h2c0-1.015-.38-1.914-1.07-2.554-.684-.634-1.605-.954-2.593-.954zm2.664 2.508h-1c0 .667-.341 1.395-.97 2.15-.619.743-1.432 1.408-2.17 1.929l.576.817.576.817c.81-.571 1.779-1.352 2.555-2.283.766-.919 1.433-2.093 1.433-3.43zm-3.564 4.896v1h3.792v-2h-3.792zm3.792 0h-1V330h2v-1.128zm0 1.128v-1h-5.7v2h5.7zm.85 0h-1v1h1zm0-1.056-.546-.837-.453.296v.541zm1.105-4.56-.25.968 1.037.268.196-1.054zm-1.164-.3-.989-.152-.137.895.876.225zm1.968 4.788-.577-.817-2.576 1.817h3.153zm3.792 0h1v-1h-1zm0 1.128v1h1v-1zm-5.7 0h1v-1.056h-2V330zm0-1.056.546.837c.747-.487 1.865-1.274 2.808-2.207.89-.881 1.858-2.117 1.858-3.502h-2c0 .511-.412 1.237-1.265 2.081-.801.792-1.789 1.493-2.494 1.954zm4.212-4.872h1c0-.653-.217-1.278-.675-1.745-.46-.468-1.084-.695-1.741-.695v2c.194 0 .278.061.314.097.037.037.102.132.102.343zm-1.416-1.44v-1c-.68 0-1.312.24-1.802.738-.47.478-.742 1.123-.874 1.832l.984.182.983.182c.084-.455.227-.686.332-.793.086-.087.192-.141.377-.141zm-1.692 1.752.25-.968-1.165-.3-.25.968-.249.968 1.164.3zm-1.164-.3.988.152c.098-.637.344-1.067.64-1.335.292-.265.698-.433 1.24-.433v-2c-.983 0-1.885.318-2.583.95-.694.629-1.12 1.507-1.274 2.514zm2.868-2.616v1c.56 0 .97.178 1.232.42.255.236.432.591.432 1.088h2c0-1.015-.382-1.914-1.072-2.554-.683-.634-1.604-.954-2.592-.954zm2.664 2.508h-1c0 .667-.341 1.395-.97 2.15-.62.743-1.432 1.408-2.17 1.929l.576.817.576.817c.81-.571 1.778-1.352 2.554-2.283.767-.919 1.434-2.093 1.434-3.43zm-3.564 4.896v1h3.792v-2h-3.792zm3.792 0h-1V330h2v-1.128zm0 1.128v-1h-5.7v2h5.7z" mask="url(#a)"/><mask id="b" fill="#fff"><path d="M180.917 330v-1.056c1.452-.948 4.212-2.976 4.212-4.872 0-.864-.564-1.44-1.416-1.44-.864 0-1.476.588-1.692 1.752l-1.164-.3c.252-1.644 1.344-2.616 2.868-2.616 1.548 0 2.664.996 2.664 2.508 0 2.004-2.016 3.804-3.564 4.896h3.792V330zm9.838.12c-1.968 0-3.216-1.68-3.216-4.32s1.248-4.32 3.216-4.32c1.98 0 3.228 1.68 3.228 4.32s-1.248 4.32-3.228 4.32m0-1.164c1.248 0 1.944-1.152 1.944-3.156s-.696-3.156-1.944-3.156c-1.236 0-1.932 1.152-1.932 3.156s.696 3.156 1.932 3.156m4.212 1.044v-1.056c1.452-.948 4.212-2.976 4.212-4.872 0-.864-.564-1.44-1.416-1.44-.864 0-1.476.588-1.692 1.752l-1.164-.3c.252-1.644 1.344-2.616 2.868-2.616 1.548 0 2.664.996 2.664 2.508 0 2.004-2.016 3.804-3.564 4.896h3.792V330zm9.479.108c-1.452 0-2.628-.744-2.976-2.016l1.14-.312c.312.78.924 1.176 1.86 1.176 1.116 0 1.8-.708 1.8-1.776 0-.996-.612-1.584-1.656-1.584-.432 0-.852.096-1.164.288l-.432-.768 2.532-2.376h-3.672v-1.14h5.208v1.032l-2.16 2.016h.156c1.404 0 2.46 1.008 2.46 2.58 0 1.752-1.284 2.88-3.096 2.88"/></mask><path fill="#111" d="M180.917 330v-1.056c1.452-.948 4.212-2.976 4.212-4.872 0-.864-.564-1.44-1.416-1.44-.864 0-1.476.588-1.692 1.752l-1.164-.3c.252-1.644 1.344-2.616 2.868-2.616 1.548 0 2.664.996 2.664 2.508 0 2.004-2.016 3.804-3.564 4.896h3.792V330zm9.838.12c-1.968 0-3.216-1.68-3.216-4.32s1.248-4.32 3.216-4.32c1.98 0 3.228 1.68 3.228 4.32s-1.248 4.32-3.228 4.32m0-1.164c1.248 0 1.944-1.152 1.944-3.156s-.696-3.156-1.944-3.156c-1.236 0-1.932 1.152-1.932 3.156s.696 3.156 1.932 3.156m4.212 1.044v-1.056c1.452-.948 4.212-2.976 4.212-4.872 0-.864-.564-1.44-1.416-1.44-.864 0-1.476.588-1.692 1.752l-1.164-.3c.252-1.644 1.344-2.616 2.868-2.616 1.548 0 2.664.996 2.664 2.508 0 2.004-2.016 3.804-3.564 4.896h3.792V330zm9.479.108c-1.452 0-2.628-.744-2.976-2.016l1.14-.312c.312.78.924 1.176 1.86 1.176 1.116 0 1.8-.708 1.8-1.776 0-.996-.612-1.584-1.656-1.584-.432 0-.852.096-1.164.288l-.432-.768 2.532-2.376h-3.672v-1.14h5.208v1.032l-2.16 2.016h.156c1.404 0 2.46 1.008 2.46 2.58 0 1.752-1.284 2.88-3.096 2.88"/><path fill="#111" d="M180.917 330h-1v1h1zm0-1.056-.547-.837-.453.296v.541zm1.104-4.56-.25.968 1.037.268.196-1.054zm-1.164-.3-.989-.152-.137.895.876.225zm1.968 4.788-.577-.817-2.576 1.817h3.153zm3.792 0h1v-1h-1zm0 1.128v1h1v-1zm-5.7 0h1v-1.056h-2V330zm0-1.056.546.837c.747-.487 1.865-1.274 2.808-2.207.89-.881 1.858-2.117 1.858-3.502h-2c0 .511-.412 1.237-1.265 2.081-.801.792-1.789 1.493-2.494 1.954zm4.212-4.872h1c0-.653-.217-1.278-.675-1.745-.46-.468-1.084-.695-1.741-.695v2c.194 0 .278.061.314.097.037.037.102.132.102.343zm-1.416-1.44v-1c-.68 0-1.312.24-1.802.738-.471.478-.742 1.123-.874 1.832l.984.182.983.182c.084-.455.227-.686.332-.793.086-.087.192-.141.377-.141zm-1.692 1.752.249-.968-1.164-.3-.249.968-.25.968 1.164.3zm-1.164-.3.988.152c.098-.637.344-1.067.64-1.335.292-.265.698-.433 1.24-.433v-2c-.983 0-1.885.318-2.583.95-.694.629-1.119 1.507-1.274 2.514zm2.868-2.616v1c.559 0 .971.178 1.232.42.255.236.432.591.432 1.088h2c0-1.015-.382-1.914-1.072-2.554-.683-.634-1.604-.954-2.592-.954zm2.664 2.508h-1c0 .667-.341 1.395-.97 2.15-.619.743-1.432 1.408-2.171 1.929l.577.817.576.817c.809-.571 1.778-1.352 2.554-2.283.767-.919 1.434-2.093 1.434-3.43zm-3.564 4.896v1h3.792v-2h-3.792zm3.792 0h-1V330h2v-1.128zm0 1.128v-1h-5.7v2h5.7zm4.138.12v-1c-.665 0-1.172-.268-1.543-.767-.393-.528-.673-1.377-.673-2.553h-2c0 1.464.345 2.775 1.068 3.747.745 1.001 1.845 1.573 3.148 1.573zm-3.216-4.32h1c0-1.176.28-2.025.673-2.553.371-.499.878-.767 1.543-.767v-2c-1.303 0-2.403.572-3.148 1.573-.723.972-1.068 2.283-1.068 3.747zm3.216-4.32v1c.674 0 1.184.27 1.555.768.394.527.673 1.376.673 2.552h2c0-1.464-.344-2.775-1.07-3.748-.747-1.002-1.851-1.572-3.158-1.572zm3.228 4.32h-1c0 1.176-.279 2.025-.673 2.552-.371.498-.881.768-1.555.768v2c1.307 0 2.411-.57 3.158-1.572.726-.973 1.07-2.284 1.07-3.748zm-3.228 3.156v1c.994 0 1.793-.487 2.293-1.304.466-.76.651-1.759.651-2.852h-2c0 .911-.162 1.49-.356 1.807-.16.26-.333.349-.588.349zm1.944-3.156h1c0-1.093-.185-2.092-.651-2.852-.5-.817-1.299-1.304-2.293-1.304v2c.255 0 .428.089.588.349.194.317.356.896.356 1.807zm-1.944-3.156v-1c-.991 0-1.786.491-2.283 1.306-.463.759-.649 1.757-.649 2.85h2c0-.911.163-1.491.357-1.809.16-.262.33-.347.575-.347zm-1.932 3.156h-1c0 1.093.186 2.091.649 2.85.497.815 1.292 1.306 2.283 1.306v-2c-.245 0-.415-.085-.575-.347-.194-.318-.357-.898-.357-1.809zm6.144 4.2h-1v1h1zm0-1.056-.546-.837-.454.296v.541zm1.104-4.56-.249.968 1.037.268.196-1.054zm-1.164-.3-.988-.152-.137.895.876.225zm1.968 4.788-.576-.817-2.576 1.817h3.152zm3.792 0h1v-1h-1zm0 1.128v1h1v-1zm-5.7 0h1v-1.056h-2V330zm0-1.056.547.837c.747-.487 1.865-1.274 2.807-2.207.89-.881 1.858-2.117 1.858-3.502h-2c0 .511-.412 1.237-1.265 2.081-.8.792-1.788 1.493-2.493 1.954zm4.212-4.872h1c0-.653-.217-1.278-.675-1.745s-1.083-.695-1.741-.695v2c.195 0 .279.061.314.097.037.037.102.132.102.343zm-1.416-1.44v-1c-.679 0-1.311.24-1.801.738-.471.478-.742 1.123-.874 1.832l.983.182.984.182c.084-.455.227-.686.332-.793.086-.087.192-.141.376-.141zm-1.692 1.752.25-.968-1.164-.3-.25.968-.249.968 1.164.3zm-1.164-.3.989.152c.097-.637.344-1.067.64-1.335.292-.265.698-.433 1.239-.433v-2c-.982 0-1.884.318-2.582.95-.694.629-1.12 1.507-1.274 2.514zm2.868-2.616v1c.56 0 .971.178 1.233.42.255.236.431.591.431 1.088h2c0-1.015-.381-1.914-1.071-2.554-.684-.634-1.604-.954-2.593-.954zm2.664 2.508h-1c0 .667-.341 1.395-.969 2.15-.619.743-1.432 1.408-2.171 1.929l.576.817.577.817c.809-.571 1.778-1.352 2.554-2.283.766-.919 1.433-2.093 1.433-3.43zm-3.564 4.896v1h3.792v-2h-3.792zm3.792 0h-1V330h2v-1.128zm0 1.128v-1h-5.7v2h5.7zm.803-1.908-.264-.965-.964.264.264.965zm1.14-.312.929-.371-.332-.829-.861.235zm.84-1.896-.871.49.509.907.886-.545zm-.432-.768-.684-.729-.572.536.385.683zm2.532-2.376.684.729 1.843-1.729h-2.527zm-3.672 0h-1v1h1zm0-1.14v-1h-1v1zm5.208 0h1v-1h-1zm0 1.032.682.731.318-.296v-.435zm-2.16 2.016-.682-.731-1.855 1.731h2.537zm-.48 5.46v-1c-1.115 0-1.81-.543-2.011-1.28l-.965.264-.964.264c.494 1.807 2.151 2.752 3.94 2.752zm-2.976-2.016.264.965 1.14-.312-.264-.965-.264-.965-1.14.312zm1.14-.312-.928.371c.22.552.574 1.027 1.088 1.353.507.323 1.092.452 1.7.452v-2c-.328 0-.516-.069-.627-.139-.105-.067-.213-.18-.304-.408zm1.86 1.176v1c.773 0 1.495-.25 2.026-.78s.774-1.246.774-1.996h-2c0 .318-.097.49-.188.581s-.269.195-.612.195zm1.8-1.776h1c0-.706-.222-1.387-.745-1.888-.517-.495-1.205-.696-1.911-.696v2c.338 0 .478.093.528.141.044.042.128.153.128.443zm-1.656-1.584v-1c-.561 0-1.177.122-1.688.436l.524.852.524.852c.113-.07.337-.14.64-.14zm-1.164.288.872-.49-.432-.768-.872.49-.871.49.432.768zm-.432-.768.684.729 2.532-2.376-.684-.729-.684-.729-2.532 2.376zm2.532-2.376v-1h-3.672v2h3.672zm-3.672 0h1v-1.14h-2v1.14zm0-1.14v1h5.208v-2h-5.208zm5.208 0h-1v1.032h2V321.6zm0 1.032-.682-.731-2.16 2.016.682.731.682.731 2.16-2.016zm-2.16 2.016v1h.156v-2h-.156zm.156 0v1c.457 0 .807.16 1.042.4.236.24.418.624.418 1.18h2c0-1.016-.345-1.922-.989-2.579-.643-.657-1.523-1.001-2.471-1.001zm2.46 2.58h-1c0 .618-.219 1.062-.543 1.359-.334.305-.853.521-1.553.521v2c1.112 0 2.141-.348 2.903-1.045.77-.705 1.193-1.701 1.193-2.835z" mask="url(#b)"/><mask id="c" fill="#fff"><path d="M295.418 330v-1.056c1.452-.948 4.212-2.976 4.212-4.872 0-.864-.564-1.44-1.416-1.44-.864 0-1.476.588-1.692 1.752l-1.164-.3c.252-1.644 1.344-2.616 2.868-2.616 1.548 0 2.664.996 2.664 2.508 0 2.004-2.016 3.804-3.564 4.896h3.792V330zm9.838.12c-1.968 0-3.216-1.68-3.216-4.32s1.248-4.32 3.216-4.32c1.98 0 3.228 1.68 3.228 4.32s-1.248 4.32-3.228 4.32m0-1.164c1.248 0 1.944-1.152 1.944-3.156s-.696-3.156-1.944-3.156c-1.236 0-1.932 1.152-1.932 3.156s.696 3.156 1.932 3.156m4.212 1.044v-1.056c1.452-.948 4.212-2.976 4.212-4.872 0-.864-.564-1.44-1.416-1.44-.864 0-1.476.588-1.692 1.752l-1.164-.3c.252-1.644 1.344-2.616 2.868-2.616 1.548 0 2.664.996 2.664 2.508 0 2.004-2.016 3.804-3.564 4.896h3.792V330zm10.343 0v-1.656h-4.032V327.3l3.432-5.7h1.812v5.652h1.116v1.092h-1.116V330zm-2.748-2.748h2.748v-4.488h-.096l-2.652 4.38z"/></mask><path fill="#111" d="M295.418 330v-1.056c1.452-.948 4.212-2.976 4.212-4.872 0-.864-.564-1.44-1.416-1.44-.864 0-1.476.588-1.692 1.752l-1.164-.3c.252-1.644 1.344-2.616 2.868-2.616 1.548 0 2.664.996 2.664 2.508 0 2.004-2.016 3.804-3.564 4.896h3.792V330zm9.838.12c-1.968 0-3.216-1.68-3.216-4.32s1.248-4.32 3.216-4.32c1.98 0 3.228 1.68 3.228 4.32s-1.248 4.32-3.228 4.32m0-1.164c1.248 0 1.944-1.152 1.944-3.156s-.696-3.156-1.944-3.156c-1.236 0-1.932 1.152-1.932 3.156s.696 3.156 1.932 3.156m4.212 1.044v-1.056c1.452-.948 4.212-2.976 4.212-4.872 0-.864-.564-1.44-1.416-1.44-.864 0-1.476.588-1.692 1.752l-1.164-.3c.252-1.644 1.344-2.616 2.868-2.616 1.548 0 2.664.996 2.664 2.508 0 2.004-2.016 3.804-3.564 4.896h3.792V330zm10.343 0v-1.656h-4.032V327.3l3.432-5.7h1.812v5.652h1.116v1.092h-1.116V330zm-2.748-2.748h2.748v-4.488h-.096l-2.652 4.38z"/><path fill="#111" d="M295.418 330h-1v1h1zm0-1.056-.547-.837-.453.296v.541zm1.104-4.56-.25.968 1.037.268.196-1.054zm-1.164-.3-.989-.152-.137.895.876.225zm1.968 4.788-.577-.817-2.576 1.817h3.153zm3.792 0h1v-1h-1zm0 1.128v1h1v-1zm-5.7 0h1v-1.056h-2V330zm0-1.056.546.837c.747-.487 1.865-1.274 2.808-2.207.89-.881 1.858-2.117 1.858-3.502h-2c0 .511-.412 1.237-1.265 2.081-.801.792-1.789 1.493-2.494 1.954zm4.212-4.872h1c0-.653-.217-1.278-.675-1.745-.46-.468-1.084-.695-1.741-.695v2c.194 0 .278.061.314.097.037.037.102.132.102.343zm-1.416-1.44v-1c-.68 0-1.312.24-1.802.738-.471.478-.742 1.123-.874 1.832l.984.182.983.182c.084-.455.227-.686.332-.793.086-.087.192-.141.377-.141zm-1.692 1.752.249-.968-1.164-.3-.249.968-.25.968 1.164.3zm-1.164-.3.988.152c.098-.637.344-1.067.64-1.335.292-.265.698-.433 1.24-.433v-2c-.983 0-1.885.318-2.583.95-.694.629-1.119 1.507-1.274 2.514zm2.868-2.616v1c.559 0 .971.178 1.232.42.255.236.432.591.432 1.088h2c0-1.015-.382-1.914-1.072-2.554-.683-.634-1.604-.954-2.592-.954zm2.664 2.508h-1c0 .667-.341 1.395-.97 2.15-.619.743-1.432 1.408-2.171 1.929l.577.817.576.817c.809-.571 1.778-1.352 2.554-2.283.767-.919 1.434-2.093 1.434-3.43zm-3.564 4.896v1h3.792v-2h-3.792zm3.792 0h-1V330h2v-1.128zm0 1.128v-1h-5.7v2h5.7zm4.138.12v-1c-.665 0-1.172-.268-1.543-.767-.393-.528-.673-1.377-.673-2.553h-2c0 1.464.345 2.775 1.068 3.747.745 1.001 1.845 1.573 3.148 1.573zm-3.216-4.32h1c0-1.176.28-2.025.673-2.553.371-.499.878-.767 1.543-.767v-2c-1.303 0-2.403.572-3.148 1.573-.723.972-1.068 2.283-1.068 3.747zm3.216-4.32v1c.674 0 1.184.27 1.555.768.394.527.673 1.376.673 2.552h2c0-1.464-.344-2.775-1.07-3.748-.747-1.002-1.851-1.572-3.158-1.572zm3.228 4.32h-1c0 1.176-.279 2.025-.673 2.552-.371.498-.881.768-1.555.768v2c1.307 0 2.411-.57 3.158-1.572.726-.973 1.07-2.284 1.07-3.748zm-3.228 3.156v1c.994 0 1.793-.487 2.293-1.304.466-.76.651-1.759.651-2.852h-2c0 .911-.162 1.49-.356 1.807-.16.26-.333.349-.588.349zm1.944-3.156h1c0-1.093-.185-2.092-.651-2.852-.5-.817-1.299-1.304-2.293-1.304v2c.255 0 .428.089.588.349.194.317.356.896.356 1.807zm-1.944-3.156v-1c-.991 0-1.786.491-2.283 1.306-.463.759-.649 1.757-.649 2.85h2c0-.911.163-1.491.357-1.809.16-.262.33-.347.575-.347zm-1.932 3.156h-1c0 1.093.186 2.091.649 2.85.497.815 1.292 1.306 2.283 1.306v-2c-.245 0-.415-.085-.575-.347-.194-.318-.357-.898-.357-1.809zm6.144 4.2h-1v1h1zm0-1.056-.546-.837-.454.296v.541zm1.104-4.56-.249.968 1.037.268.196-1.054zm-1.164-.3-.988-.152-.137.895.876.225zm1.968 4.788-.576-.817-2.576 1.817h3.152zm3.792 0h1v-1h-1zm0 1.128v1h1v-1zm-5.7 0h1v-1.056h-2V330zm0-1.056.547.837c.747-.487 1.865-1.274 2.807-2.207.89-.881 1.858-2.117 1.858-3.502h-2c0 .511-.412 1.237-1.265 2.081-.8.792-1.788 1.493-2.493 1.954zm4.212-4.872h1c0-.653-.217-1.278-.675-1.745s-1.083-.695-1.741-.695v2c.195 0 .279.061.314.097.037.037.102.132.102.343zm-1.416-1.44v-1c-.679 0-1.311.24-1.801.738-.471.478-.742 1.123-.874 1.832l.983.182.984.182c.084-.455.226-.686.332-.793.086-.087.192-.141.376-.141zm-1.692 1.752.25-.968-1.164-.3-.25.968-.249.968 1.164.3zm-1.164-.3.989.152c.097-.637.344-1.067.64-1.335.292-.265.698-.433 1.239-.433v-2c-.982 0-1.884.318-2.582.95-.694.629-1.12 1.507-1.274 2.514zm2.868-2.616v1c.56 0 .971.178 1.233.42.255.236.431.591.431 1.088h2c0-1.015-.381-1.914-1.071-2.554-.684-.634-1.604-.954-2.593-.954zm2.664 2.508h-1c0 .667-.341 1.395-.969 2.15-.619.743-1.432 1.408-2.171 1.929l.576.817.577.817c.809-.571 1.778-1.352 2.554-2.283.766-.919 1.433-2.093 1.433-3.43zm-3.564 4.896v1h3.792v-2h-3.792zm3.792 0h-1V330h2v-1.128zm0 1.128v-1h-5.7v2h5.7zm4.643 0h-1v1h1zm0-1.656h1v-1h-1zm-4.032 0h-1v1h1zm0-1.044-.857-.516-.143.238v.278zm3.432-5.7v-1h-.565l-.292.484zm1.812 0h1v-1h-1zm0 5.652h-1v1h1zm1.116 0h1v-1h-1zm0 1.092v1h1v-1zm-1.116 0v-1h-1v1zm0 1.656v1h1v-1zm-3.96-2.748h-1v1h1zm2.748 0v1h1v-1zm0-4.488h1v-1h-1zm-.096 0v-1h-.563l-.292.482zm-2.652 4.38-.855-.518-.145.239v.279zm2.748 2.856h1v-1.656h-2V330zm0-1.656v-1h-4.032v2h4.032zm-4.032 0h1V327.3h-2v1.044zm0-1.044.857.516 3.432-5.7-.857-.516-.857-.516-3.432 5.7zm3.432-5.7v1h1.812v-2h-1.812zm1.812 0h-1v5.652h2V321.6zm0 5.652v1h1.116v-2h-1.116zm1.116 0h-1v1.092h2v-1.092zm0 1.092v-1h-1.116v2h1.116zm-1.116 0h-1V330h2v-1.656zm0 1.656v-1h-1.212v2h1.212zm-3.96-2.748v1h2.748v-2h-2.748zm2.748 0h1v-4.488h-2v4.488zm0-4.488v-1h-.096v2h.096zm-.096 0-.855-.518-2.652 4.38.855.518.856.518 2.652-4.38zm-2.652 4.38h-1v.108h2v-.108z" mask="url(#c)"/><mask id="d" fill="#fff"><path d="M408.809 330v-1.056c1.452-.948 4.212-2.976 4.212-4.872 0-.864-.564-1.44-1.416-1.44-.864 0-1.476.588-1.692 1.752l-1.164-.3c.252-1.644 1.344-2.616 2.868-2.616 1.548 0 2.664.996 2.664 2.508 0 2.004-2.016 3.804-3.564 4.896h3.792V330zm9.839.12c-1.968 0-3.216-1.68-3.216-4.32s1.248-4.32 3.216-4.32c1.98 0 3.228 1.68 3.228 4.32s-1.248 4.32-3.228 4.32m0-1.164c1.248 0 1.944-1.152 1.944-3.156s-.696-3.156-1.944-3.156c-1.236 0-1.932 1.152-1.932 3.156s.696 3.156 1.932 3.156M422.86 330v-1.056c1.452-.948 4.212-2.976 4.212-4.872 0-.864-.564-1.44-1.416-1.44-.864 0-1.476.588-1.692 1.752l-1.164-.3c.252-1.644 1.344-2.616 2.868-2.616 1.548 0 2.664.996 2.664 2.508 0 2.004-2.016 3.804-3.564 4.896h3.792V330zm9.539.108c-1.452 0-2.616-.72-2.988-2.016l1.164-.312c.3.792.96 1.176 1.836 1.176 1.2 0 1.812-.708 1.812-1.752 0-1.056-.636-1.632-1.632-1.632-.708 0-1.32.288-1.788.768l-1.032-.312.468-4.428h4.692v1.14h-3.684l-.264 2.376c.528-.384 1.14-.6 1.86-.6 1.596 0 2.64 1.008 2.64 2.64 0 1.74-1.212 2.952-3.084 2.952"/></mask><path fill="#111" d="M408.809 330v-1.056c1.452-.948 4.212-2.976 4.212-4.872 0-.864-.564-1.44-1.416-1.44-.864 0-1.476.588-1.692 1.752l-1.164-.3c.252-1.644 1.344-2.616 2.868-2.616 1.548 0 2.664.996 2.664 2.508 0 2.004-2.016 3.804-3.564 4.896h3.792V330zm9.839.12c-1.968 0-3.216-1.68-3.216-4.32s1.248-4.32 3.216-4.32c1.98 0 3.228 1.68 3.228 4.32s-1.248 4.32-3.228 4.32m0-1.164c1.248 0 1.944-1.152 1.944-3.156s-.696-3.156-1.944-3.156c-1.236 0-1.932 1.152-1.932 3.156s.696 3.156 1.932 3.156M422.86 330v-1.056c1.452-.948 4.212-2.976 4.212-4.872 0-.864-.564-1.44-1.416-1.44-.864 0-1.476.588-1.692 1.752l-1.164-.3c.252-1.644 1.344-2.616 2.868-2.616 1.548 0 2.664.996 2.664 2.508 0 2.004-2.016 3.804-3.564 4.896h3.792V330zm9.539.108c-1.452 0-2.616-.72-2.988-2.016l1.164-.312c.3.792.96 1.176 1.836 1.176 1.2 0 1.812-.708 1.812-1.752 0-1.056-.636-1.632-1.632-1.632-.708 0-1.32.288-1.788.768l-1.032-.312.468-4.428h4.692v1.14h-3.684l-.264 2.376c.528-.384 1.14-.6 1.86-.6 1.596 0 2.64 1.008 2.64 2.64 0 1.74-1.212 2.952-3.084 2.952"/><path fill="#111" d="M408.809 330h-1v1h1zm0-1.056-.546-.837-.454.296v.541zm1.104-4.56-.249.968 1.037.268.196-1.054zm-1.164-.3-.988-.152-.137.895.876.225zm1.968 4.788-.576-.817-2.576 1.817h3.152zm3.792 0h1v-1h-1zm0 1.128v1h1v-1zm-5.7 0h1v-1.056h-2V330zm0-1.056.547.837c.747-.487 1.865-1.274 2.807-2.207.89-.881 1.858-2.117 1.858-3.502h-2c0 .511-.412 1.237-1.265 2.081-.8.792-1.788 1.493-2.493 1.954zm4.212-4.872h1c0-.653-.217-1.278-.675-1.745s-1.083-.695-1.741-.695v2c.195 0 .279.061.314.097.037.037.102.132.102.343zm-1.416-1.44v-1c-.679 0-1.311.24-1.801.738-.471.478-.742 1.123-.874 1.832l.983.182.984.182c.084-.455.226-.686.332-.793.086-.087.191-.141.376-.141zm-1.692 1.752.25-.968-1.164-.3-.25.968-.249.968 1.164.3zm-1.164-.3.989.152c.097-.637.344-1.067.64-1.335.292-.265.698-.433 1.239-.433v-2c-.982 0-1.884.318-2.582.95-.694.629-1.12 1.507-1.274 2.514zm2.868-2.616v1c.56 0 .971.178 1.233.42.255.236.431.591.431 1.088h2c0-1.015-.381-1.914-1.071-2.554-.684-.634-1.604-.954-2.593-.954zm2.664 2.508h-1c0 .667-.341 1.395-.969 2.15-.619.743-1.432 1.408-2.171 1.929l.576.817.577.817c.809-.571 1.778-1.352 2.554-2.283.766-.919 1.433-2.093 1.433-3.43zm-3.564 4.896v1h3.792v-2h-3.792zm3.792 0h-1V330h2v-1.128zm0 1.128v-1h-5.7v2h5.7zm4.139.12v-1c-.665 0-1.173-.268-1.544-.767-.392-.528-.672-1.377-.672-2.553h-2c0 1.464.345 2.775 1.068 3.747.745 1.001 1.845 1.573 3.148 1.573zm-3.216-4.32h1c0-1.176.28-2.025.672-2.553.371-.499.879-.767 1.544-.767v-2c-1.303 0-2.403.572-3.148 1.573-.723.972-1.068 2.283-1.068 3.747zm3.216-4.32v1c.673 0 1.184.27 1.555.768.394.527.673 1.376.673 2.552h2c0-1.464-.344-2.775-1.07-3.748-.747-1.002-1.851-1.572-3.158-1.572zm3.228 4.32h-1c0 1.176-.279 2.025-.673 2.552-.371.498-.882.768-1.555.768v2c1.307 0 2.411-.57 3.158-1.572.726-.973 1.07-2.284 1.07-3.748zm-3.228 3.156v1c.993 0 1.792-.487 2.293-1.304.465-.76.651-1.759.651-2.852h-2c0 .911-.162 1.49-.357 1.807-.159.26-.332.349-.587.349zm1.944-3.156h1c0-1.093-.186-2.092-.651-2.852-.501-.817-1.3-1.304-2.293-1.304v2c.255 0 .428.089.587.349.195.317.357.896.357 1.807zm-1.944-3.156v-1c-.991 0-1.786.491-2.283 1.306-.463.759-.649 1.757-.649 2.85h2c0-.911.162-1.491.356-1.809.16-.262.331-.347.576-.347zm-1.932 3.156h-1c0 1.093.186 2.091.649 2.85.497.815 1.292 1.306 2.283 1.306v-2c-.245 0-.416-.085-.576-.347-.194-.318-.356-.898-.356-1.809zm6.144 4.2h-1v1h1zm0-1.056-.547-.837-.453.296v.541zm1.104-4.56-.249.968 1.037.268.195-1.054zm-1.164-.3-.988-.152-.137.895.876.225zm1.968 4.788-.576-.817-2.576 1.817h3.152zm3.792 0h1v-1h-1zm0 1.128v1h1v-1zm-5.7 0h1v-1.056h-2V330zm0-1.056.547.837c.747-.487 1.865-1.274 2.807-2.207.89-.881 1.858-2.117 1.858-3.502h-2c0 .511-.412 1.237-1.265 2.081-.801.792-1.789 1.493-2.494 1.954zm4.212-4.872h1c0-.653-.217-1.278-.675-1.745-.46-.468-1.083-.695-1.741-.695v2c.194 0 .279.061.314.097.037.037.102.132.102.343zm-1.416-1.44v-1c-.679 0-1.311.24-1.801.738-.471.478-.743 1.123-.874 1.832l.983.182.983.182c.085-.455.227-.686.333-.793.086-.087.191-.141.376-.141zm-1.692 1.752.25-.968-1.164-.3-.25.968-.249.968 1.164.3zm-1.164-.3.989.152c.097-.637.344-1.067.64-1.335.291-.265.698-.433 1.239-.433v-2c-.983 0-1.884.318-2.582.95-.694.629-1.12 1.507-1.274 2.514zm2.868-2.616v1c.56 0 .971.178 1.233.42.254.236.431.591.431 1.088h2c0-1.015-.381-1.914-1.072-2.554-.683-.634-1.604-.954-2.592-.954zm2.664 2.508h-1c0 .667-.341 1.395-.97 2.15-.619.743-1.432 1.408-2.17 1.929l.576.817.577.817c.809-.571 1.778-1.352 2.554-2.283.766-.919 1.433-2.093 1.433-3.43zm-3.564 4.896v1h3.792v-2h-3.792zm3.792 0h-1V330h2v-1.128zm0 1.128v-1h-5.7v2h5.7zm.851-1.908-.259-.966-.983.264.281.978zm1.164-.312.935-.354-.32-.846-.874.234zm.228-1.44-.289.957.581.176.424-.435zm-1.032-.312-.995-.105-.087.823.793.239zm.468-4.428v-1h-.9l-.095.895zm4.692 0h1v-1h-1zm0 1.14v1h1v-1zm-3.684 0v-1h-.895l-.099.89zm-.264 2.376-.994-.11-.25 2.251 1.832-1.332zm1.416 4.992v-1c-1.116 0-1.806-.521-2.027-1.292l-.961.276-.961.276c.523 1.821 2.16 2.74 3.949 2.74zm-2.988-2.016.259.966 1.164-.312-.259-.966-.259-.966-1.164.312zm1.164-.312-.935.354a2.73 2.73 0 0 0 1.107 1.379c.504.315 1.082.443 1.664.443v-2c-.294 0-.484-.064-.604-.139a.74.74 0 0 1-.297-.391zm1.836 1.176v1c.798 0 1.533-.24 2.068-.783.532-.539.744-1.254.744-1.969h-2c0 .329-.094.49-.168.566-.072.072-.242.186-.644.186zm1.812-1.752h1c0-.731-.225-1.422-.745-1.929-.516-.501-1.199-.703-1.887-.703v2c.308 0 .44.086.492.137.047.045.14.17.14.495zm-1.632-1.632v-1c-1 0-1.864.413-2.504 1.07l.716.698.716.698a1.46 1.46 0 0 1 1.072-.466zm-1.788.768.289-.957-1.032-.312-.289.957-.289.957 1.032.312zm-1.032-.312.994.105.468-4.428-.994-.105-.995-.105-.468 4.428zm.468-4.428v1h4.692v-2h-4.692zm4.692 0h-1v1.14h2v-1.14zm0 1.14v-1h-3.684v2h3.684zm-3.684 0-.994-.11-.264 2.376.994.11.994.11.264-2.376zm-.264 2.376.588.809a2.07 2.07 0 0 1 1.272-.409v-2a4.08 4.08 0 0 0-2.448.791zm1.86-.6v1c.585 0 .975.181 1.215.419.238.236.425.623.425 1.221h2c0-1.034-.335-1.967-1.018-2.643-.681-.674-1.611-.997-2.622-.997zm2.64 2.64h-1c0 .631-.215 1.099-.536 1.41-.323.314-.831.542-1.548.542v2c1.155 0 2.189-.378 2.94-1.105.753-.73 1.144-1.738 1.144-2.847z" mask="url(#d)"/><mask id="e" fill="#fff"><path d="M524.003 330v-1.056c1.452-.948 4.212-2.976 4.212-4.872 0-.864-.564-1.44-1.416-1.44-.864 0-1.476.588-1.692 1.752l-1.164-.3c.252-1.644 1.344-2.616 2.868-2.616 1.548 0 2.664.996 2.664 2.508 0 2.004-2.016 3.804-3.564 4.896h3.792V330zm9.839.12c-1.968 0-3.216-1.68-3.216-4.32s1.248-4.32 3.216-4.32c1.98 0 3.228 1.68 3.228 4.32s-1.248 4.32-3.228 4.32m0-1.164c1.248 0 1.944-1.152 1.944-3.156s-.696-3.156-1.944-3.156c-1.236 0-1.932 1.152-1.932 3.156s.696 3.156 1.932 3.156m4.212 1.044v-1.056c1.452-.948 4.212-2.976 4.212-4.872 0-.864-.564-1.44-1.416-1.44-.864 0-1.476.588-1.692 1.752l-1.164-.3c.252-1.644 1.344-2.616 2.868-2.616 1.548 0 2.664.996 2.664 2.508 0 2.004-2.016 3.804-3.564 4.896h3.792V330zm12.671-6.54-1.164.312c-.3-.78-.828-1.164-1.572-1.164-1.656 0-2.076 1.8-2.076 3.132.504-.804 1.416-1.2 2.316-1.2 1.428 0 2.76.96 2.76 2.712 0 1.704-1.248 2.868-3.072 2.868-2.064 0-3.24-1.5-3.24-4.212 0-2.772 1.224-4.428 3.276-4.428 1.356 0 2.376.732 2.772 1.98m-4.692 3.792c.24 1.128.864 1.716 1.86 1.716 1.092 0 1.836-.72 1.836-1.752 0-.996-.672-1.62-1.668-1.62-.876 0-1.8.48-2.016 1.344-.012.096-.012.204-.012.312"/></mask><path fill="#111" d="M524.003 330v-1.056c1.452-.948 4.212-2.976 4.212-4.872 0-.864-.564-1.44-1.416-1.44-.864 0-1.476.588-1.692 1.752l-1.164-.3c.252-1.644 1.344-2.616 2.868-2.616 1.548 0 2.664.996 2.664 2.508 0 2.004-2.016 3.804-3.564 4.896h3.792V330zm9.839.12c-1.968 0-3.216-1.68-3.216-4.32s1.248-4.32 3.216-4.32c1.98 0 3.228 1.68 3.228 4.32s-1.248 4.32-3.228 4.32m0-1.164c1.248 0 1.944-1.152 1.944-3.156s-.696-3.156-1.944-3.156c-1.236 0-1.932 1.152-1.932 3.156s.696 3.156 1.932 3.156m4.212 1.044v-1.056c1.452-.948 4.212-2.976 4.212-4.872 0-.864-.564-1.44-1.416-1.44-.864 0-1.476.588-1.692 1.752l-1.164-.3c.252-1.644 1.344-2.616 2.868-2.616 1.548 0 2.664.996 2.664 2.508 0 2.004-2.016 3.804-3.564 4.896h3.792V330zm12.671-6.54-1.164.312c-.3-.78-.828-1.164-1.572-1.164-1.656 0-2.076 1.8-2.076 3.132.504-.804 1.416-1.2 2.316-1.2 1.428 0 2.76.96 2.76 2.712 0 1.704-1.248 2.868-3.072 2.868-2.064 0-3.24-1.5-3.24-4.212 0-2.772 1.224-4.428 3.276-4.428 1.356 0 2.376.732 2.772 1.98m-4.692 3.792c.24 1.128.864 1.716 1.86 1.716 1.092 0 1.836-.72 1.836-1.752 0-.996-.672-1.62-1.668-1.62-.876 0-1.8.48-2.016 1.344-.012.096-.012.204-.012.312"/><path fill="#111" d="M524.003 330h-1v1h1zm0-1.056-.546-.837-.454.296v.541zm1.104-4.56-.249.968 1.037.268.195-1.054zm-1.164-.3-.988-.152-.137.895.876.225zm1.968 4.788-.576-.817-2.576 1.817h3.152zm3.792 0h1v-1h-1zm0 1.128v1h1v-1zm-5.7 0h1v-1.056h-2V330zm0-1.056.547.837c.747-.487 1.865-1.274 2.807-2.207.89-.881 1.858-2.117 1.858-3.502h-2c0 .511-.412 1.237-1.265 2.081-.8.792-1.788 1.493-2.493 1.954zm4.212-4.872h1c0-.653-.217-1.278-.675-1.745s-1.083-.695-1.741-.695v2c.195 0 .279.061.314.097.037.037.102.132.102.343zm-1.416-1.44v-1c-.679 0-1.311.24-1.801.738-.471.478-.742 1.123-.874 1.832l.983.182.983.182c.085-.455.227-.686.333-.793.086-.087.191-.141.376-.141zm-1.692 1.752.25-.968-1.164-.3-.25.968-.249.968 1.164.3zm-1.164-.3.989.152c.097-.637.344-1.067.64-1.335.291-.265.698-.433 1.239-.433v-2c-.983 0-1.884.318-2.582.95-.694.629-1.12 1.507-1.274 2.514zm2.868-2.616v1c.56 0 .971.178 1.233.42.254.236.431.591.431 1.088h2c0-1.015-.381-1.914-1.071-2.554-.684-.634-1.604-.954-2.593-.954zm2.664 2.508h-1c0 .667-.341 1.395-.969 2.15-.619.743-1.433 1.408-2.171 1.929l.576.817.577.817c.809-.571 1.778-1.352 2.554-2.283.766-.919 1.433-2.093 1.433-3.43zm-3.564 4.896v1h3.792v-2h-3.792zm3.792 0h-1V330h2v-1.128zm0 1.128v-1h-5.7v2h5.7zm4.139.12v-1c-.665 0-1.173-.268-1.544-.767-.392-.528-.672-1.377-.672-2.553h-2c0 1.464.345 2.775 1.068 3.747.745 1.001 1.845 1.573 3.148 1.573zm-3.216-4.32h1c0-1.176.28-2.025.672-2.553.371-.499.879-.767 1.544-.767v-2c-1.303 0-2.403.572-3.148 1.573-.723.972-1.068 2.283-1.068 3.747zm3.216-4.32v1c.673 0 1.184.27 1.555.768.394.527.673 1.376.673 2.552h2c0-1.464-.344-2.775-1.07-3.748-.747-1.002-1.851-1.572-3.158-1.572zm3.228 4.32h-1c0 1.176-.279 2.025-.673 2.552-.371.498-.882.768-1.555.768v2c1.307 0 2.411-.57 3.158-1.572.726-.973 1.07-2.284 1.07-3.748zm-3.228 3.156v1c.993 0 1.792-.487 2.293-1.304.465-.76.651-1.759.651-2.852h-2c0 .911-.162 1.49-.357 1.807-.159.26-.332.349-.587.349zm1.944-3.156h1c0-1.093-.186-2.092-.651-2.852-.501-.817-1.3-1.304-2.293-1.304v2c.255 0 .428.089.587.349.195.317.357.896.357 1.807zm-1.944-3.156v-1c-.991 0-1.786.491-2.283 1.306-.463.759-.649 1.757-.649 2.85h2c0-.911.162-1.491.356-1.809.16-.262.331-.347.576-.347zm-1.932 3.156h-1c0 1.093.186 2.091.649 2.85.497.815 1.292 1.306 2.283 1.306v-2c-.245 0-.416-.085-.576-.347-.194-.318-.356-.898-.356-1.809zm6.144 4.2h-1v1h1zm0-1.056-.547-.837-.453.296v.541zm1.104-4.56-.25.968 1.038.268.195-1.054zm-1.164-.3-.988-.152-.137.895.875.225zm1.968 4.788-.576-.817-2.576 1.817h3.152zm3.792 0h1v-1h-1zm0 1.128v1h1v-1zm-5.7 0h1v-1.056h-2V330zm0-1.056.547.837c.747-.487 1.865-1.274 2.807-2.207.89-.881 1.858-2.117 1.858-3.502h-2c0 .511-.412 1.237-1.265 2.081-.801.792-1.789 1.493-2.494 1.954zm4.212-4.872h1c0-.653-.217-1.278-.675-1.745-.46-.468-1.083-.695-1.741-.695v2c.194 0 .279.061.314.097.037.037.102.132.102.343zm-1.416-1.44v-1c-.679 0-1.311.24-1.802.738-.47.478-.742 1.123-.873 1.832l.983.182.983.182c.085-.455.227-.686.333-.793.086-.087.191-.141.376-.141zm-1.692 1.752.25-.968-1.164-.3-.25.968-.25.968 1.164.3zm-1.164-.3.989.152c.097-.637.343-1.067.639-1.335.292-.265.699-.433 1.24-.433v-2c-.983 0-1.884.318-2.582.95-.694.629-1.12 1.507-1.274 2.514zm2.868-2.616v1c.56 0 .971.178 1.233.42.254.236.431.591.431 1.088h2c0-1.015-.381-1.914-1.072-2.554-.683-.634-1.604-.954-2.592-.954zm2.664 2.508h-1c0 .667-.341 1.395-.97 2.15-.619.743-1.432 1.408-2.17 1.929l.576.817.576.817c.81-.571 1.779-1.352 2.555-2.283.766-.919 1.433-2.093 1.433-3.43zm-3.564 4.896v1h3.792v-2h-3.792zm3.792 0h-1V330h2v-1.128zm0 1.128v-1h-5.7v2h5.7zm6.971-6.54.259.966 1.01-.271-.316-.997zm-1.164.312-.934.359.324.84.869-.233zm-3.648 1.968h-1v3.478l1.847-2.947zm.12 1.512h-1v.105l.022.103zm.012-.312-.97-.243-.015.059-.007.06zm4.68-3.48-.259-.966-1.164.312.259.966.259.966 1.164-.312zm-1.164.312.933-.359c-.2-.521-.507-.987-.959-1.32-.46-.339-.994-.485-1.546-.485v2c.192 0 .293.046.359.094.073.054.18.17.279.429zm-1.572-1.164v-1c-1.29 0-2.111.745-2.551 1.615-.412.814-.525 1.775-.525 2.517h2c0-.59.097-1.195.309-1.614.184-.363.401-.518.767-.518zm-2.076 3.132.847.531c.285-.455.84-.731 1.469-.731v-2c-1.171 0-2.441.516-3.163 1.669zm2.316-1.2v1c.496 0 .94.167 1.247.443.293.263.513.666.513 1.269h2c0-1.149-.446-2.102-1.177-2.757-.715-.642-1.652-.955-2.583-.955zm2.76 2.712h-1c0 .597-.212 1.041-.534 1.342-.328.306-.84.526-1.538.526v2c1.125 0 2.15-.362 2.902-1.064.758-.707 1.17-1.697 1.17-2.804zm-3.072 2.868v-1c-.765 0-1.265-.263-1.603-.701-.368-.475-.637-1.28-.637-2.511h-2c0 1.481.318 2.782 1.055 3.735.766.99 1.886 1.477 3.185 1.477zm-3.24-4.212h1c0-1.256.279-2.128.672-2.659.366-.494.881-.769 1.604-.769v-2c-1.329 0-2.452.553-3.212 1.58-.732.99-1.064 2.332-1.064 3.848zm3.276-4.428v1c.938 0 1.56.467 1.819 1.282l.953-.302.953-.302c-.533-1.681-1.952-2.678-3.725-2.678zm-1.92 5.772-.978.208c.147.693.436 1.335.944 1.806.525.487 1.186.702 1.894.702v-2c-.289 0-.437-.079-.534-.168-.113-.105-.256-.321-.348-.756zm1.86 1.716v1c.769 0 1.487-.257 2.019-.767.536-.513.817-1.22.817-1.985h-2c0 .267-.091.436-.2.541-.113.108-.313.211-.636.211zm1.836-1.752h1c0-.731-.253-1.41-.769-1.905-.511-.49-1.192-.715-1.899-.715v2c.288 0 .441.087.515.158.069.066.153.197.153.462zm-1.668-1.62v-1c-1.141 0-2.618.628-2.986 2.101l.97.243.97.243c.064-.255.434-.587 1.046-.587zm-2.016 1.344-.992-.124c-.022.17-.02.344-.02.436h2c0-.124.001-.166.004-.188z" mask="url(#e)"/><path stroke="#f1547b" stroke-linejoin="bevel" stroke-width="2" d="M79.698 304.5 194.105 292l114.408-93.5L422.418 219l114.909-113"/><path fill="#fafafa" stroke="#f1547b" stroke-width="2" d="M82.408 304.7c0 .796-.317 1.559-.882 2.122a3.02 3.02 0 0 1-4.257-.001 2.99 2.99 0 0 1 0-4.242 3.015 3.015 0 0 1 4.257 0c.565.562.882 1.326.882 2.121Zm114.407-13.005c0 .796-.317 1.559-.882 2.122a3.016 3.016 0 0 1-4.258 0 2.998 2.998 0 0 1 2.129-5.122c.799 0 1.565.316 2.129.879s.882 1.326.882 2.121Zm114.407-93.08c0 .796-.317 1.559-.882 2.122a3.016 3.016 0 0 1-4.257 0 2.995 2.995 0 0 1 0-4.243 3.013 3.013 0 0 1 4.257 0c.565.562.882 1.326.882 2.121Zm114.407 20.36c0 .795-.317 1.558-.882 2.121a3.013 3.013 0 0 1-4.257 0 2.994 2.994 0 0 1 0-4.243 3.016 3.016 0 0 1 4.257 0c.565.563.882 1.326.882 2.122ZM540.037 105.52c0 .795-.318 1.558-.882 2.121a3.017 3.017 0 0 1-4.258 0 2.994 2.994 0 0 1 0-4.243 3.02 3.02 0 0 1 4.258 0c.564.563.882 1.326.882 2.122Z"/></svg>