<svg xmlns="http://www.w3.org/2000/svg" width="610" height="358" fill="none" viewBox="0 0 610 358"><rect width="610" height="358" fill="#fdf891" rx="46"/><path fill="#720d06" d="M208.64 29q2.62 0 4.58.94 1.98.94 3.08 2.62t1.1 3.94q0 2.24-1.1 3.94-1.1 1.68-3.08 2.62-1.96.94-4.58.94h-7.12V29zm-3.74 13.66L203.18 41h5.72q1.52 0 2.66-.56 1.16-.56 1.78-1.58t.62-2.36q0-1.36-.62-2.36-.62-1.02-1.78-1.58-1.14-.56-2.66-.56h-5.72l1.72-1.66zm13.965-10.04h3.38l.68 4.1V44h-3.34v-7.64zm9.6-.12v2.88a10 10 0 0 0-1.04-.18 9 9 0 0 0-.98-.06q-1 0-1.8.42-.801.42-1.26 1.3-.46.88-.46 2.22l-.7-.84q.12-1.22.44-2.28.32-1.08.88-1.88.58-.82 1.42-1.28.84-.48 2-.48.38 0 .76.06.4.04.74.12m7.694 11.8q-2.12 0-3.72-.74-1.6-.76-2.5-2.1-.9-1.36-.9-3.14 0-1.8.9-3.14.9-1.36 2.5-2.1 1.6-.76 3.72-.76t3.72.76q1.6.74 2.48 2.1.9 1.34.9 3.14 0 1.78-.9 3.14-.88 1.34-2.48 2.1-1.6.74-3.72.74m0-2.54q1.16 0 1.98-.42a2.97 2.97 0 0 0 1.28-1.18q.46-.78.46-1.84 0-1.08-.46-1.84-.44-.78-1.28-1.2-.82-.42-1.98-.42-1.14 0-1.98.42t-1.3 1.2q-.44.76-.44 1.84 0 1.06.44 1.84.46.76 1.3 1.18t1.98.42m9.046-9.14h3.34v3.62l-.14.44v2.74l.14.82v7.06h-3.34zm2.18 5.7q.34-1.82 1.18-3.16.86-1.36 2.14-2.1 1.3-.74 2.88-.74 1.68 0 2.94.76 1.28.74 2 2.1.72 1.34.72 3.14 0 1.78-.72 3.14a5.3 5.3 0 0 1-2 2.1q-1.26.74-2.94.74-1.599 0-2.88-.74-1.26-.74-2.12-2.08-.86-1.36-1.2-3.16m8.48 0q0-1-.42-1.76-.4-.78-1.12-1.2-.72-.44-1.66-.44t-1.78.44q-.84.42-1.48 1.2a6 6 0 0 0-.98 1.76q.36 1 .98 1.76.64.76 1.48 1.2.84.42 1.78.42t1.66-.42a3.03 3.03 0 0 0 1.12-1.2q.42-.76.42-1.76m5.216-2.68h4.94v2.7h-4.94zm13.867 8.66q-2.12 0-3.72-.74-1.6-.76-2.5-2.1-.9-1.36-.9-3.14 0-1.8.9-3.14.9-1.36 2.5-2.1 1.6-.76 3.72-.76t3.72.76q1.6.74 2.48 2.1.9 1.34.9 3.14 0 1.78-.9 3.14-.88 1.34-2.48 2.1-1.6.74-3.72.74m0-2.54q1.16 0 1.98-.42a2.97 2.97 0 0 0 1.28-1.18q.46-.78.46-1.84 0-1.08-.46-1.84-.44-.78-1.28-1.2-.82-.42-1.98-.42-1.14 0-1.98.42t-1.3 1.2q-.44.76-.44 1.84 0 1.06.44 1.84.46.76 1.3 1.18t1.98.42m16.249-10.94q-1.28 0-1.88.5-.58.48-.58 1.62V44h-3.34V33.3q0-1.56.6-2.68t1.8-1.72 3.02-.6q.76 0 1.38.14.64.12 1.24.34v2.52a5 5 0 0 0-1.08-.36q-.54-.12-1.16-.12m-8.18 5.18v-2.52h10.3V36zm17.6-5.18q-1.28 0-1.88.5-.58.48-.58 1.62V44h-3.34V33.3q0-1.56.6-2.68t1.8-1.72 3.02-.6q.78 0 1.4.14.62.12 1.22.34v2.52a5.2 5.2 0 0 0-1.06-.36q-.54-.12-1.18-.12m-8.18 5.18v-2.52h10.3V36zm18.963-.34h5.78q1.14 0 1.8-.52.68-.54.68-1.48t-.68-1.46q-.66-.52-1.8-.52h-6.28l1.54-1.74V44h-3.4V29h8.54q1.64 0 2.88.6 1.24.58 1.94 1.62t.7 2.44q0 1.38-.7 2.42t-1.94 1.64q-1.24.58-2.88.58h-6.18zm2.6 1.32h3.88l5.66 7.02h-3.98zM335.332 44l-.48-4.16.54-1.52-.54-1.5.48-4.2h3.46l-.66 5.7.66 5.68zm.88-5.68q-.32 1.8-1.18 3.16-.84 1.34-2.14 2.08-1.28.74-2.88.74-1.659 0-2.94-.74a5.3 5.3 0 0 1-2-2.1q-.7-1.36-.7-3.14 0-1.8.7-3.14a5.15 5.15 0 0 1 2-2.1q1.281-.76 2.94-.76 1.6 0 2.88.74 1.3.74 2.16 2.1.86 1.34 1.16 3.16m-8.46 0q0 1 .4 1.76.42.76 1.14 1.2.72.42 1.66.42t1.76-.42a4.9 4.9 0 0 0 1.48-1.2 5.7 5.7 0 0 0 1-1.76 5.7 5.7 0 0 0-1-1.76q-.64-.78-1.48-1.2a3.66 3.66 0 0 0-1.76-.44q-.94 0-1.66.44a3 3 0 0 0-1.14 1.2q-.4.76-.4 1.76m12.114-3.18v-1.48l2.38-.78 1.42-3.26h1.92v3h5.04v2.52h-5.04v4.14q0 1.32.54 1.86.56.52 1.92.52.86 0 1.52-.16t1.26-.46v2.6q-.58.24-1.54.44-.96.22-1.98.22-1.78 0-2.9-.56-1.1-.58-1.64-1.6-.52-1.02-.52-2.38v-4.62zm18.791 9.16q-2.02 0-3.62-.74-1.58-.76-2.5-2.12-.9-1.36-.9-3.16 0-1.78.86-3.12.879-1.34 2.4-2.08 1.52-.76 3.46-.76 1.98 0 3.4.88 1.42.86 2.18 2.44.78 1.58.78 3.72h-10.4v-2.22h8.6l-1.3.8q-.08-1-.5-1.7a2.77 2.77 0 0 0-1.1-1.08q-.7-.38-1.64-.38-1.02 0-1.78.42-.74.4-1.16 1.14-.4.72-.4 1.7 0 1.18.52 2.02t1.52 1.28 2.42.44q1.28 0 2.58-.36a8.7 8.7 0 0 0 2.34-1.06v2.24q-1.12.8-2.62 1.26a11 11 0 0 1-3.14.44m15.99-15.3h2.64q-1.28 2.24-1.92 4.34-.62 2.1-.62 4.22 0 2.1.62 4.2.64 2.08 1.92 4.34h-2.64q-1.68-2.06-2.52-4.16a12 12 0 0 1-.82-4.38q0-2.3.82-4.4.84-2.12 2.52-4.16m8.707 8.7q-1.52 0-2.66-.54a4.47 4.47 0 0 1-1.8-1.56q-.64-1.02-.64-2.34t.64-2.32a4.47 4.47 0 0 1 1.8-1.56q1.16-.56 2.66-.56 1.52 0 2.66.56t1.78 1.56.64 2.32-.64 2.34q-.64 1-1.78 1.56-1.14.54-2.66.54m0-2q1.12 0 1.78-.64.66-.66.66-1.8t-.66-1.78q-.64-.66-1.78-.66t-1.8.66q-.64.64-.64 1.78t.64 1.8q.66.64 1.8.64m13.86 8.58q-1.5 0-2.66-.54-1.14-.56-1.78-1.56-.64-1.02-.64-2.34t.64-2.32 1.78-1.56q1.16-.56 2.68-.56t2.66.56 1.78 1.56.64 2.32-.64 2.34q-.64 1-1.78 1.56-1.14.54-2.68.54m0-2q1.14 0 1.78-.64.66-.66.66-1.8 0-1.12-.64-1.78t-1.78-.66-1.8.66q-.64.66-.64 1.78 0 1.14.64 1.8.66.64 1.78.64m-4.1-13.28h2.52l-8.16 15h-2.52zm12.779 0q1.68 2.04 2.5 4.16.84 2.1.84 4.4 0 2.28-.84 4.38-.82 2.1-2.5 4.16h-2.64q1.28-2.26 1.9-4.34.62-2.1.62-4.2 0-2.12-.62-4.22t-1.9-4.34z"/><rect width="562" height="265" x="24" y="69" fill="#fefefe" rx="30"/><path fill="#fafafa" d="M79.355 118h457.629v125H79.355z"/><path fill="#c6fede" d="M79.355 222h457.629v62H79.355z"/><path stroke="#dbdee4" d="M79.396 284.5h457.629"/><path stroke="#720d06" stroke-dasharray="8 6" d="M79.396 242.5h457.629m-457.629-41h457.629m-457.629-42h457.629m-457.629-41h457.629" opacity=".3"/><path stroke="#111" stroke-linecap="round" d="M79.396 284.5h457.629"/><path fill="#720d06" d="M79.698 284v5z"/><path stroke="#111" d="M79.698 284v5"/><path fill="#720d06" d="M194.105 284v5z"/><path stroke="#111" d="M194.105 284v5"/><path fill="#720d06" d="M308.512 284v5z"/><path stroke="#111" d="M308.512 284v5"/><path fill="#720d06" d="M422.92 284v5z"/><path stroke="#111" d="M422.92 284v5"/><path fill="#720d06" d="M537.327 284v5z"/><path stroke="#111" d="M537.327 284v5"/><path fill="#111" d="M59.585 239.1h1.188v8.4h-1.236v-6.132c-.516.48-1.26.744-2.028.744v-1.056c1.188-.048 2.076-.864 2.076-1.956m6.02 8.52c-1.969 0-3.217-1.68-3.217-4.32s1.249-4.32 3.217-4.32c1.98 0 3.227 1.68 3.227 4.32s-1.247 4.32-3.227 4.32m0-1.164c1.248 0 1.944-1.152 1.944-3.156s-.697-3.156-1.945-3.156c-1.236 0-1.931 1.152-1.931 3.156s.695 3.156 1.931 3.156M55.766 206v-1.056c1.452-.948 4.212-2.976 4.212-4.872 0-.864-.564-1.44-1.416-1.44-.864 0-1.476.588-1.692 1.752l-1.164-.3c.252-1.644 1.344-2.616 2.868-2.616 1.548 0 2.664.996 2.664 2.508 0 2.004-2.016 3.804-3.564 4.896h3.792V206zm9.839.12c-1.968 0-3.216-1.68-3.216-4.32s1.248-4.32 3.216-4.32c1.98 0 3.228 1.68 3.228 4.32s-1.248 4.32-3.228 4.32m0-1.164c1.248 0 1.944-1.152 1.944-3.156s-.696-3.156-1.944-3.156c-1.236 0-1.932 1.152-1.932 3.156s.696 3.156 1.932 3.156m-7.45-40.348c-1.452 0-2.628-.744-2.976-2.016l1.14-.312c.312.78.924 1.176 1.86 1.176 1.116 0 1.8-.708 1.8-1.776 0-.996-.612-1.584-1.656-1.584-.432 0-.852.096-1.164.288l-.432-.768 2.532-2.376h-3.672v-1.14h5.208v1.032l-2.16 2.016h.156c1.404 0 2.46 1.008 2.46 2.58 0 1.752-1.284 2.88-3.096 2.88m7.45.012c-1.968 0-3.216-1.68-3.216-4.32s1.248-4.32 3.216-4.32c1.98 0 3.228 1.68 3.228 4.32s-1.248 4.32-3.228 4.32m0-1.164c1.248 0 1.944-1.152 1.944-3.156s-.696-3.156-1.944-3.156c-1.236 0-1.932 1.152-1.932 3.156s.696 3.156 1.932 3.156M59.206 123v-1.656h-4.032V120.3l3.432-5.7h1.812v5.652h1.116v1.092h-1.116V123zm-2.748-2.748h2.748v-4.488h-.096l-2.652 4.38zm9.147 2.868c-1.968 0-3.216-1.68-3.216-4.32s1.248-4.32 3.216-4.32c1.98 0 3.228 1.68 3.228 4.32s-1.248 4.32-3.228 4.32m0-1.164c1.248 0 1.944-1.152 1.944-3.156s-.696-3.156-1.944-3.156c-1.236 0-1.932 1.152-1.932 3.156s.696 3.156 1.932 3.156M161.439 93v-8.4h2.472c1.716 0 2.88.948 2.88 2.544v.192c0 1.608-1.128 2.58-2.856 2.58h-1.536V93zm.96-3.996h1.512c1.188 0 1.872-.576 1.872-1.656v-.192c0-1.068-.696-1.644-1.872-1.644h-1.512zm8.035 4.068c-1.74 0-2.916-1.212-2.916-3v-.228c0-1.884 1.176-3.156 2.928-3.156h.096c1.608 0 2.676 1.164 2.676 2.916v.672h-4.752c.084 1.152.864 1.908 2.016 1.908h.12c.852 0 1.404-.408 1.752-.936l.708.468c-.588.876-1.428 1.356-2.532 1.356zm-1.956-3.636h3.864c-.06-1.116-.78-1.86-1.836-1.86h-.12c-1.056 0-1.764.72-1.908 1.86m7.913 3.66c-1.212 0-2.052-.732-2.052-1.848v-.084c0-1.344 1.176-2.004 3.576-2.004h.576v-.432c0-.732-.516-1.176-1.404-1.176h-.072c-.66 0-1.392.252-1.92.672l-.444-.732c.756-.516 1.548-.84 2.424-.84h.072c1.392 0 2.232.78 2.232 2.004v3.324c0 .336.108.756.216 1.02h-.912c-.072-.18-.132-.504-.168-.768-.636.564-1.368.864-2.124.864m.048-.888c.84 0 1.56-.384 2.052-.972v-1.248h-.396c-2.016 0-2.844.336-2.844 1.164v.06c0 .612.48.996 1.188.996m4.93.792v-8.64h.888v5.124h.048l2.76-2.724h1.128l-2.964 2.916L186.373 93h-1.212l-2.844-3.084h-.06V93zm9.625 0v-8.4h2.352c2.532 0 4.224 1.584 4.224 3.972v.24c0 2.52-1.692 4.188-4.224 4.188zm.96-.912h1.392c2.004 0 3.192-1.236 3.192-3.3v-.228c0-1.884-1.2-3.048-3.192-3.048h-1.392zm7.18.912v-6.24h.672c.072.216.156.516.192.792.444-.504 1.08-.792 1.848-.792h.144v.924a3 3 0 0 0-.372-.024c-1.092 0-1.596.636-1.596 1.992V93zm6.643.072c-1.692 0-2.88-1.26-2.88-3.036v-.312c0-1.776 1.188-3.036 2.88-3.036h.12c1.692 0 2.88 1.26 2.88 3.036v.312c0 1.776-1.188 3.036-2.88 3.036zm.012-.888h.096c1.176 0 1.956-.888 1.956-2.148v-.312c0-1.272-.792-2.148-1.956-2.148h-.096c-1.164 0-1.956.876-1.956 2.148v.312c0 1.26.78 2.148 1.956 2.148m4.56 3.216v-8.64h.696c.072.204.156.552.18.828.492-.564 1.212-.9 2.052-.9h.108c1.644 0 2.796 1.26 2.796 3.036v.312c0 1.776-1.152 3.036-2.796 3.036h-.108c-.84 0-1.548-.324-2.04-.876V95.4zm2.844-3.216h.096c1.164 0 1.956-.876 1.956-2.148v-.312c0-1.272-.792-2.148-1.956-2.148h-.096c-1.176 0-1.956.888-1.956 2.148v.312c0 1.272.792 2.148 1.956 2.148m4.322-2.496v-.816h3.84v.816zm8.172 3.384c-1.692 0-2.88-1.26-2.88-3.036v-.312c0-1.776 1.188-3.036 2.88-3.036h.12c1.692 0 2.88 1.26 2.88 3.036v.312c0 1.776-1.188 3.036-2.88 3.036zm.012-.888h.096c1.176 0 1.956-.888 1.956-2.148v-.312c0-1.272-.792-2.148-1.956-2.148h-.096c-1.164 0-1.956.876-1.956 2.148v.312c0 1.26.78 2.148 1.956 2.148m4.596.816v-5.4h-.72v-.624c.204-.084.48-.156.72-.192v-.516c0-1.188.624-1.884 1.584-1.884.348 0 .78.084 1.068.252v.804a2.05 2.05 0 0 0-.888-.204c-.576 0-.876.288-.876 1.068v.456h2.244v-.492c0-1.188.624-1.884 1.584-1.884.348 0 .78.084 1.068.252v.804a2.05 2.05 0 0 0-.888-.204c-.576 0-.876.288-.876 1.068v.456h1.68v.84h-1.68V93h-.888v-5.4h-2.244V93zm-45.051 18.108c-1.452 0-2.628-.744-2.976-2.016l1.14-.312c.312.78.924 1.176 1.86 1.176 1.116 0 1.8-.708 1.8-1.776 0-.996-.612-1.584-1.656-1.584-.432 0-.852.096-1.164.288l-.432-.768 2.532-2.376h-3.672v-1.14h5.208v1.032l-2.16 2.016h.156c1.404 0 2.46 1.008 2.46 2.58 0 1.752-1.284 2.88-3.096 2.88m10.282-6.648-1.164.312c-.3-.78-.828-1.164-1.572-1.164-1.656 0-2.076 1.8-2.076 3.132.504-.804 1.416-1.2 2.316-1.2 1.428 0 2.76.96 2.76 2.712 0 1.704-1.248 2.868-3.072 2.868-2.064 0-3.24-1.5-3.24-4.212 0-2.772 1.224-4.428 3.276-4.428 1.356 0 2.376.732 2.772 1.98m-4.692 3.792c.24 1.128.864 1.716 1.86 1.716 1.092 0 1.836-.72 1.836-1.752 0-.996-.672-1.62-1.668-1.62-.876 0-1.8.48-2.016 1.344-.012.096-.012.204-.012.312m5.728 4.272.756-2.976h1.308l-1.092 2.976zM200.19 111l3.18-7.14v-.108h-3.996V102.6h5.34v1.02L201.57 111zm7.169-4.032c-1.14 0-1.896-.864-1.896-2.124v-.216c0-1.26.756-2.124 1.896-2.124h.084c1.14 0 1.896.864 1.896 2.124v.216c0 1.26-.756 2.124-1.896 2.124zM205.943 111l6.336-8.412h1.404L207.347 111zm1.44-5.028h.036c.528 0 .876-.456.876-1.152v-.168c0-.696-.348-1.152-.876-1.152h-.036c-.528 0-.876.456-.876 1.152v.168c0 .696.348 1.152.876 1.152m4.788 5.124c-1.128 0-1.884-.864-1.884-2.124v-.216c0-1.26.756-2.124 1.884-2.124h.096c1.128 0 1.896.864 1.896 2.124v.216c0 1.26-.768 2.124-1.896 2.124zm.036-.996h.024c.528 0 .888-.456.888-1.152v-.168c0-.696-.36-1.152-.888-1.152h-.024c-.528 0-.888.456-.888 1.152v.168c0 .696.36 1.152.888 1.152m199.232 140.5h1.188v8.4h-1.236v-6.132c-.516.48-1.26.744-2.028.744v-1.056c1.188-.048 2.076-.864 2.076-1.956m5.66 8.508c-1.452 0-2.628-.744-2.976-2.016l1.14-.312c.312.78.924 1.176 1.86 1.176 1.116 0 1.8-.708 1.8-1.776 0-.996-.612-1.584-1.656-1.584-.432 0-.852.096-1.164.288l-.432-.768 2.532-2.376h-3.672v-1.14h5.208v1.032l-2.16 2.016h.156c1.404 0 2.46 1.008 2.46 2.58 0 1.752-1.284 2.88-3.096 2.88m3.957 1.416.756-2.976h1.308l-1.092 2.976zm5.841-1.416c-1.452 0-2.616-.72-2.988-2.016l1.164-.312c.3.792.96 1.176 1.836 1.176 1.2 0 1.812-.708 1.812-1.752 0-1.056-.636-1.632-1.632-1.632-.708 0-1.32.288-1.788.768l-1.032-.312.468-4.428h4.692v1.14h-3.684l-.264 2.376c.528-.384 1.14-.6 1.86-.6 1.596 0 2.64 1.008 2.64 2.64 0 1.74-1.212 2.952-3.084 2.952m5.906-4.14c-1.14 0-1.896-.864-1.896-2.124v-.216c0-1.26.756-2.124 1.896-2.124h.084c1.14 0 1.896.864 1.896 2.124v.216c0 1.26-.756 2.124-1.896 2.124zM431.387 259l6.336-8.412h1.404L432.791 259zm1.44-5.028h.036c.528 0 .876-.456.876-1.152v-.168c0-.696-.348-1.152-.876-1.152h-.036c-.528 0-.876.456-.876 1.152v.168c0 .696.348 1.152.876 1.152m4.788 5.124c-1.128 0-1.884-.864-1.884-2.124v-.216c0-1.26.756-2.124 1.884-2.124h.096c1.128 0 1.896.864 1.896 2.124v.216c0 1.26-.768 2.124-1.896 2.124zm.036-.996h.024c.528 0 .888-.456.888-1.152v-.168c0-.696-.36-1.152-.888-1.152h-.024c-.528 0-.888.456-.888 1.152v.168c0 .696.36 1.152.888 1.152m-46.9 18.9v-8.4h.96v7.488h3.468V277zm7.857.072c-1.692 0-2.88-1.26-2.88-3.036v-.312c0-1.776 1.188-3.036 2.88-3.036h.12c1.692 0 2.88 1.26 2.88 3.036v.312c0 1.776-1.188 3.036-2.88 3.036zm.012-.888h.096c1.176 0 1.956-.888 1.956-2.148v-.312c0-1.272-.792-2.148-1.956-2.148h-.096c-1.164 0-1.956.876-1.956 2.148v.312c0 1.26.78 2.148 1.956 2.148m5.236.816-1.512-6.24h.936l1.224 5.208h.12l1.572-5.208h.96l1.572 5.22h.12l1.224-5.22h.96L409.52 277h-1.332l-1.488-4.968h-.048L405.164 277zm10.83.072c-1.74 0-2.916-1.212-2.916-3v-.228c0-1.884 1.176-3.156 2.928-3.156h.096c1.608 0 2.676 1.164 2.676 2.916v.672h-4.752c.084 1.152.864 1.908 2.016 1.908h.12c.852 0 1.404-.408 1.752-.936l.708.468c-.588.876-1.428 1.356-2.532 1.356zm-1.956-3.636h3.864c-.06-1.116-.78-1.86-1.836-1.86h-.12c-1.056 0-1.764.72-1.908 1.86m8.273 3.66c-.996 0-1.956-.36-2.568-.948l.528-.672c.636.504 1.32.756 2.076.756.852 0 1.32-.324 1.32-.924 0-.72-.732-.9-1.536-1.08-1.008-.228-2.124-.504-2.124-1.776 0-1.092.816-1.788 2.088-1.788.84 0 1.668.312 2.268.744l-.444.732c-.552-.372-1.212-.6-1.86-.6-.708 0-1.128.3-1.128.828 0 .636.696.816 1.5.984 1.02.216 2.172.54 2.172 1.86 0 1.176-.888 1.884-2.292 1.884m5.467-.06c-1.08 0-1.584-.528-1.584-1.644V271.6h-.84v-.648c.252-.084.576-.18.84-.192v-1.44l.888-.12v1.56h1.86v.84h-1.86v3.612c0 .744.3.972.864.972.288 0 .852-.048 1.116-.132v.792c-.288.12-.888.192-1.284.192m6.21-.036v-8.4h2.472c1.716 0 2.88.948 2.88 2.544v.192c0 1.608-1.128 2.58-2.856 2.58h-1.536V277zm.96-3.996h1.512c1.188 0 1.872-.576 1.872-1.656v-.192c0-1.068-.696-1.644-1.872-1.644h-1.512zm7.999 4.068c-1.692 0-2.88-1.26-2.88-3.036v-.312c0-1.776 1.188-3.036 2.88-3.036h.12c1.692 0 2.88 1.26 2.88 3.036v.312c0 1.776-1.188 3.036-2.88 3.036zm.012-.888h.096c1.176 0 1.956-.888 1.956-2.148v-.312c0-1.272-.792-2.148-1.956-2.148h-.096c-1.164 0-1.956.876-1.956 2.148v.312c0 1.26.78 2.148 1.956 2.148m5.004-6.432a.574.574 0 0 1-.588-.588c0-.336.252-.6.588-.6s.6.264.6.6a.584.584 0 0 1-.6.588m-.444 7.248v-6.24h.888V277zm2.93 0v-6.24h.696c.072.216.156.564.18.84.504-.588 1.248-.936 2.1-.936h.084c1.416 0 2.136.828 2.136 2.34V277h-.888v-3.84c0-1.02-.42-1.608-1.392-1.608h-.096c-1.14 0-1.932.732-1.932 1.932V277zm8.829.036c-1.08 0-1.584-.528-1.584-1.644V271.6h-.84v-.648c.252-.084.576-.18.84-.192v-1.44l.888-.12v1.56h1.86v.84h-1.86v3.612c0 .744.3.972.864.972.288 0 .852-.048 1.116-.132v.792c-.288.12-.888.192-1.284.192"/><mask id="a" fill="#fff"><path d="M66.276 309v-1.056c1.452-.948 4.212-2.976 4.212-4.872 0-.864-.564-1.44-1.416-1.44-.864 0-1.476.588-1.692 1.752l-1.164-.3c.252-1.644 1.344-2.616 2.868-2.616 1.548 0 2.664.996 2.664 2.508 0 2.004-2.016 3.804-3.564 4.896h3.792V309zm9.839.12c-1.968 0-3.216-1.68-3.216-4.32s1.248-4.32 3.216-4.32c1.98 0 3.228 1.68 3.228 4.32s-1.248 4.32-3.228 4.32m0-1.164c1.248 0 1.944-1.152 1.944-3.156s-.696-3.156-1.944-3.156c-1.236 0-1.932 1.152-1.932 3.156s.696 3.156 1.932 3.156M80.327 309v-1.056c1.452-.948 4.212-2.976 4.212-4.872 0-.864-.564-1.44-1.416-1.44-.864 0-1.476.588-1.692 1.752l-1.164-.3c.252-1.644 1.344-2.616 2.868-2.616 1.548 0 2.664.996 2.664 2.508 0 2.004-2.016 3.804-3.564 4.896h3.792V309zm6.55 0v-1.056c1.453-.948 4.213-2.976 4.213-4.872 0-.864-.564-1.44-1.416-1.44-.864 0-1.476.588-1.692 1.752l-1.164-.3c.252-1.644 1.344-2.616 2.868-2.616 1.548 0 2.664.996 2.664 2.508 0 2.004-2.016 3.804-3.564 4.896h3.792V309z"/></mask><path fill="#111" d="M66.276 309v-1.056c1.452-.948 4.212-2.976 4.212-4.872 0-.864-.564-1.44-1.416-1.44-.864 0-1.476.588-1.692 1.752l-1.164-.3c.252-1.644 1.344-2.616 2.868-2.616 1.548 0 2.664.996 2.664 2.508 0 2.004-2.016 3.804-3.564 4.896h3.792V309zm9.839.12c-1.968 0-3.216-1.68-3.216-4.32s1.248-4.32 3.216-4.32c1.98 0 3.228 1.68 3.228 4.32s-1.248 4.32-3.228 4.32m0-1.164c1.248 0 1.944-1.152 1.944-3.156s-.696-3.156-1.944-3.156c-1.236 0-1.932 1.152-1.932 3.156s.696 3.156 1.932 3.156M80.327 309v-1.056c1.452-.948 4.212-2.976 4.212-4.872 0-.864-.564-1.44-1.416-1.44-.864 0-1.476.588-1.692 1.752l-1.164-.3c.252-1.644 1.344-2.616 2.868-2.616 1.548 0 2.664.996 2.664 2.508 0 2.004-2.016 3.804-3.564 4.896h3.792V309zm6.55 0v-1.056c1.453-.948 4.213-2.976 4.213-4.872 0-.864-.564-1.44-1.416-1.44-.864 0-1.476.588-1.692 1.752l-1.164-.3c.252-1.644 1.344-2.616 2.868-2.616 1.548 0 2.664.996 2.664 2.508 0 2.004-2.016 3.804-3.564 4.896h3.792V309z"/><path fill="#111" d="M66.276 309h-1v1h1zm0-1.056-.546-.837-.454.296v.541zm1.104-4.56-.25.968 1.038.268.195-1.054zm-1.164-.3-.988-.152-.137.895.876.225zm1.968 4.788-.576-.817-2.576 1.817h3.152zm3.792 0h1v-1h-1zm0 1.128v1h1v-1zm-5.7 0h1v-1.056h-2V309zm0-1.056.547.837c.747-.487 1.865-1.274 2.807-2.207.89-.881 1.858-2.117 1.858-3.502h-2c0 .511-.412 1.237-1.265 2.081-.8.792-1.788 1.493-2.493 1.954zm4.212-4.872h1c0-.653-.217-1.278-.675-1.745-.46-.468-1.083-.695-1.74-.695v2c.193 0 .278.061.313.097.037.037.102.132.102.343zm-1.416-1.44v-1c-.679 0-1.311.24-1.801.738-.471.478-.743 1.123-.874 1.832l.983.182.983.182c.085-.455.227-.686.333-.793.086-.087.191-.141.376-.141zm-1.692 1.752.25-.968-1.164-.3-.25.968-.25.968 1.165.3zm-1.164-.3.989.152c.097-.637.344-1.067.64-1.335.291-.265.698-.433 1.24-.433v-2c-.984 0-1.885.318-2.583.95-.694.629-1.12 1.507-1.274 2.514zm2.868-2.616v1c.56 0 .971.178 1.233.42.254.236.431.591.431 1.088h2c0-1.015-.381-1.914-1.072-2.554-.683-.634-1.603-.954-2.592-.954zm2.664 2.508h-1c0 .667-.34 1.395-.97 2.15-.619.743-1.432 1.408-2.17 1.929l.576.817.577.817c.809-.571 1.778-1.352 2.554-2.283.766-.919 1.433-2.093 1.433-3.43zm-3.564 4.896v1h3.792v-2h-3.792zm3.792 0h-1V309h2v-1.128zm0 1.128v-1h-5.7v2h5.7zm4.139.12v-1c-.665 0-1.173-.268-1.544-.767-.393-.528-.672-1.377-.672-2.553h-2c0 1.464.344 2.775 1.068 3.747.745 1.001 1.845 1.573 3.148 1.573zm-3.216-4.32h1c0-1.176.28-2.025.672-2.553.371-.499.879-.767 1.544-.767v-2c-1.303 0-2.403.572-3.148 1.573-.724.972-1.068 2.283-1.068 3.747zm3.216-4.32v1c.673 0 1.183.27 1.555.768.393.527.673 1.376.673 2.552h2c0-1.464-.344-2.775-1.07-3.748-.748-1.002-1.851-1.572-3.158-1.572zm3.228 4.32h-1c0 1.176-.28 2.025-.673 2.552-.372.498-.882.768-1.555.768v2c1.307 0 2.41-.57 3.158-1.572.726-.973 1.07-2.284 1.07-3.748zm-3.228 3.156v1c.993 0 1.792-.487 2.293-1.304.465-.76.65-1.759.65-2.852h-2c0 .911-.161 1.49-.356 1.807-.16.26-.332.349-.587.349zm1.944-3.156h1c0-1.093-.186-2.092-.651-2.852-.5-.817-1.3-1.304-2.293-1.304v2c.255 0 .428.089.587.349.195.317.357.896.357 1.807zm-1.944-3.156v-1c-.991 0-1.786.491-2.283 1.306-.463.759-.65 1.757-.65 2.85h2c0-.911.163-1.491.357-1.809.16-.262.33-.347.576-.347zm-1.932 3.156h-1c0 1.093.186 2.091.649 2.85.497.815 1.292 1.306 2.283 1.306v-2c-.245 0-.416-.085-.576-.347-.194-.318-.356-.898-.356-1.809zm6.144 4.2h-1v1h1zm0-1.056-.547-.837-.453.296v.541zm1.104-4.56-.25.968 1.038.268.195-1.054zm-1.164-.3-.989-.152-.137.895.876.225zm1.968 4.788-.576-.817-2.577 1.817h3.153zm3.792 0h1v-1h-1zm0 1.128v1h1v-1zm-5.7 0h1v-1.056h-2V309zm0-1.056.547.837c.747-.487 1.865-1.274 2.807-2.207.89-.881 1.858-2.117 1.858-3.502h-2c0 .511-.412 1.237-1.265 2.081-.8.792-1.789 1.493-2.494 1.954zm4.212-4.872h1c0-.653-.217-1.278-.675-1.745-.46-.468-1.083-.695-1.741-.695v2c.194 0 .279.061.314.097.037.037.102.132.102.343zm-1.416-1.44v-1c-.68 0-1.312.24-1.802.738-.47.478-.742 1.123-.873 1.832l.983.182.983.182c.085-.455.227-.686.332-.793.087-.087.192-.141.377-.141zm-1.692 1.752.25-.968-1.165-.3-.25.968-.249.968 1.164.3zm-1.164-.3.988.152c.098-.637.344-1.067.64-1.335.292-.265.699-.433 1.24-.433v-2c-.983 0-1.884.318-2.583.95-.694.629-1.12 1.507-1.274 2.514zm2.868-2.616v1c.56 0 .971.178 1.233.42.254.236.43.591.43 1.088h2c0-1.015-.38-1.914-1.07-2.554-.684-.634-1.605-.954-2.593-.954zm2.664 2.508h-1c0 .667-.341 1.395-.97 2.15-.619.743-1.432 1.408-2.17 1.929l.576.817.576.817c.81-.571 1.779-1.352 2.555-2.283.766-.919 1.433-2.093 1.433-3.43zm-3.564 4.896v1h3.792v-2h-3.792zm3.792 0h-1V309h2v-1.128zm0 1.128v-1h-5.7v2h5.7zm.85 0h-1v1h1zm0-1.056-.546-.837-.453.296v.541zm1.105-4.56-.25.968 1.037.268.196-1.054zm-1.164-.3-.989-.152-.137.895.876.225zm1.968 4.788-.577-.817-2.576 1.817h3.153zm3.792 0h1v-1h-1zm0 1.128v1h1v-1zm-5.7 0h1v-1.056h-2V309zm0-1.056.546.837c.747-.487 1.865-1.274 2.808-2.207.89-.881 1.858-2.117 1.858-3.502h-2c0 .511-.412 1.237-1.265 2.081-.801.792-1.789 1.493-2.494 1.954zm4.212-4.872h1c0-.653-.217-1.278-.675-1.745-.46-.468-1.084-.695-1.741-.695v2c.194 0 .278.061.314.097.037.037.102.132.102.343zm-1.416-1.44v-1c-.68 0-1.312.24-1.802.738-.47.478-.742 1.123-.873 1.832l.983.182.983.182c.084-.455.227-.686.332-.793.086-.087.192-.141.377-.141zm-1.692 1.752.25-.968-1.165-.3-.25.968-.249.968 1.164.3zm-1.164-.3.988.152c.098-.637.344-1.067.64-1.335.292-.265.698-.433 1.24-.433v-2c-.983 0-1.885.318-2.583.95-.694.629-1.12 1.507-1.274 2.514zm2.868-2.616v1c.56 0 .97.178 1.232.42.255.236.432.591.432 1.088h2c0-1.015-.381-1.914-1.072-2.554-.683-.634-1.604-.954-2.592-.954zm2.664 2.508h-1c0 .667-.341 1.395-.97 2.15-.619.743-1.432 1.408-2.17 1.929l.576.817.576.817c.81-.571 1.779-1.352 2.554-2.283.767-.919 1.434-2.093 1.434-3.43zm-3.564 4.896v1h3.792v-2h-3.792zm3.792 0h-1V309h2v-1.128zm0 1.128v-1h-5.7v2h5.7z" mask="url(#a)"/><mask id="b" fill="#fff"><path d="M180.916 309v-1.056c1.452-.948 4.212-2.976 4.212-4.872 0-.864-.564-1.44-1.416-1.44-.864 0-1.476.588-1.692 1.752l-1.164-.3c.252-1.644 1.344-2.616 2.868-2.616 1.548 0 2.664.996 2.664 2.508 0 2.004-2.016 3.804-3.564 4.896h3.792V309zm9.838.12c-1.968 0-3.216-1.68-3.216-4.32s1.248-4.32 3.216-4.32c1.98 0 3.228 1.68 3.228 4.32s-1.248 4.32-3.228 4.32m0-1.164c1.248 0 1.944-1.152 1.944-3.156s-.696-3.156-1.944-3.156c-1.236 0-1.932 1.152-1.932 3.156s.696 3.156 1.932 3.156m4.212 1.044v-1.056c1.452-.948 4.212-2.976 4.212-4.872 0-.864-.564-1.44-1.416-1.44-.864 0-1.476.588-1.692 1.752l-1.164-.3c.252-1.644 1.344-2.616 2.868-2.616 1.548 0 2.664.996 2.664 2.508 0 2.004-2.016 3.804-3.564 4.896h3.792V309zm9.479.108c-1.452 0-2.628-.744-2.976-2.016l1.14-.312c.312.78.924 1.176 1.86 1.176 1.116 0 1.8-.708 1.8-1.776 0-.996-.612-1.584-1.656-1.584-.432 0-.852.096-1.164.288l-.432-.768 2.532-2.376h-3.672v-1.14h5.208v1.032l-2.16 2.016h.156c1.404 0 2.46 1.008 2.46 2.58 0 1.752-1.284 2.88-3.096 2.88"/></mask><path fill="#111" d="M180.916 309v-1.056c1.452-.948 4.212-2.976 4.212-4.872 0-.864-.564-1.44-1.416-1.44-.864 0-1.476.588-1.692 1.752l-1.164-.3c.252-1.644 1.344-2.616 2.868-2.616 1.548 0 2.664.996 2.664 2.508 0 2.004-2.016 3.804-3.564 4.896h3.792V309zm9.838.12c-1.968 0-3.216-1.68-3.216-4.32s1.248-4.32 3.216-4.32c1.98 0 3.228 1.68 3.228 4.32s-1.248 4.32-3.228 4.32m0-1.164c1.248 0 1.944-1.152 1.944-3.156s-.696-3.156-1.944-3.156c-1.236 0-1.932 1.152-1.932 3.156s.696 3.156 1.932 3.156m4.212 1.044v-1.056c1.452-.948 4.212-2.976 4.212-4.872 0-.864-.564-1.44-1.416-1.44-.864 0-1.476.588-1.692 1.752l-1.164-.3c.252-1.644 1.344-2.616 2.868-2.616 1.548 0 2.664.996 2.664 2.508 0 2.004-2.016 3.804-3.564 4.896h3.792V309zm9.479.108c-1.452 0-2.628-.744-2.976-2.016l1.14-.312c.312.78.924 1.176 1.86 1.176 1.116 0 1.8-.708 1.8-1.776 0-.996-.612-1.584-1.656-1.584-.432 0-.852.096-1.164.288l-.432-.768 2.532-2.376h-3.672v-1.14h5.208v1.032l-2.16 2.016h.156c1.404 0 2.46 1.008 2.46 2.58 0 1.752-1.284 2.88-3.096 2.88"/><path fill="#111" d="M180.916 309h-1v1h1zm0-1.056-.547-.837-.453.296v.541zm1.104-4.56-.25.968 1.037.268.196-1.054zm-1.164-.3-.989-.152-.137.895.876.225zm1.968 4.788-.577-.817-2.576 1.817h3.153zm3.792 0h1v-1h-1zm0 1.128v1h1v-1zm-5.7 0h1v-1.056h-2V309zm0-1.056.546.837c.747-.487 1.865-1.274 2.808-2.207.89-.881 1.858-2.117 1.858-3.502h-2c0 .511-.412 1.237-1.265 2.081-.801.792-1.789 1.493-2.494 1.954zm4.212-4.872h1c0-.653-.217-1.278-.675-1.745-.46-.468-1.084-.695-1.741-.695v2c.194 0 .278.061.314.097.037.037.102.132.102.343zm-1.416-1.44v-1c-.68 0-1.312.24-1.802.738-.471.478-.742 1.123-.874 1.832l.984.182.983.182c.084-.455.227-.686.332-.793.086-.087.192-.141.377-.141zm-1.692 1.752.249-.968-1.164-.3-.249.968-.25.968 1.164.3zm-1.164-.3.988.152c.098-.637.344-1.067.64-1.335.292-.265.698-.433 1.24-.433v-2c-.983 0-1.885.318-2.583.95-.694.629-1.119 1.507-1.274 2.514zm2.868-2.616v1c.559 0 .971.178 1.232.42.255.236.432.591.432 1.088h2c0-1.015-.382-1.914-1.072-2.554-.683-.634-1.604-.954-2.592-.954zm2.664 2.508h-1c0 .667-.341 1.395-.97 2.15-.619.743-1.432 1.408-2.171 1.929l.577.817.576.817c.809-.571 1.778-1.352 2.554-2.283.767-.919 1.434-2.093 1.434-3.43zm-3.564 4.896v1h3.792v-2h-3.792zm3.792 0h-1V309h2v-1.128zm0 1.128v-1h-5.7v2h5.7zm4.138.12v-1c-.665 0-1.172-.268-1.543-.767-.393-.528-.673-1.377-.673-2.553h-2c0 1.464.345 2.775 1.068 3.747.745 1.001 1.845 1.573 3.148 1.573zm-3.216-4.32h1c0-1.176.28-2.025.673-2.553.371-.499.878-.767 1.543-.767v-2c-1.303 0-2.403.572-3.148 1.573-.723.972-1.068 2.283-1.068 3.747zm3.216-4.32v1c.674 0 1.184.27 1.555.768.394.527.673 1.376.673 2.552h2c0-1.464-.344-2.775-1.07-3.748-.747-1.002-1.851-1.572-3.158-1.572zm3.228 4.32h-1c0 1.176-.279 2.025-.673 2.552-.371.498-.881.768-1.555.768v2c1.307 0 2.411-.57 3.158-1.572.726-.973 1.07-2.284 1.07-3.748zm-3.228 3.156v1c.994 0 1.793-.487 2.293-1.304.466-.76.651-1.759.651-2.852h-2c0 .911-.162 1.49-.356 1.807-.16.26-.333.349-.588.349zm1.944-3.156h1c0-1.093-.185-2.092-.651-2.852-.5-.817-1.299-1.304-2.293-1.304v2c.255 0 .428.089.588.349.194.317.356.896.356 1.807zm-1.944-3.156v-1c-.991 0-1.786.491-2.283 1.306-.463.759-.649 1.757-.649 2.85h2c0-.911.163-1.491.357-1.809.16-.262.33-.347.575-.347zm-1.932 3.156h-1c0 1.093.186 2.091.649 2.85.497.815 1.292 1.306 2.283 1.306v-2c-.245 0-.415-.085-.575-.347-.194-.318-.357-.898-.357-1.809zm6.144 4.2h-1v1h1zm0-1.056-.546-.837-.454.296v.541zm1.104-4.56-.249.968 1.037.268.196-1.054zm-1.164-.3-.988-.152-.137.895.876.225zm1.968 4.788-.576-.817-2.576 1.817h3.152zm3.792 0h1v-1h-1zm0 1.128v1h1v-1zm-5.7 0h1v-1.056h-2V309zm0-1.056.547.837c.747-.487 1.865-1.274 2.807-2.207.89-.881 1.858-2.117 1.858-3.502h-2c0 .511-.412 1.237-1.265 2.081-.8.792-1.788 1.493-2.493 1.954zm4.212-4.872h1c0-.653-.217-1.278-.675-1.745s-1.083-.695-1.741-.695v2c.195 0 .279.061.314.097.037.037.102.132.102.343zm-1.416-1.44v-1c-.679 0-1.311.24-1.801.738-.471.478-.742 1.123-.874 1.832l.983.182.984.182c.084-.455.227-.686.332-.793.086-.087.192-.141.376-.141zm-1.692 1.752.25-.968-1.164-.3-.25.968-.249.968 1.164.3zm-1.164-.3.989.152c.097-.637.344-1.067.64-1.335.292-.265.698-.433 1.239-.433v-2c-.982 0-1.884.318-2.582.95-.694.629-1.12 1.507-1.274 2.514zm2.868-2.616v1c.56 0 .971.178 1.233.42.255.236.431.591.431 1.088h2c0-1.015-.381-1.914-1.071-2.554-.684-.634-1.604-.954-2.593-.954zm2.664 2.508h-1c0 .667-.341 1.395-.969 2.15-.619.743-1.432 1.408-2.171 1.929l.576.817.577.817c.809-.571 1.778-1.352 2.554-2.283.766-.919 1.433-2.093 1.433-3.43zm-3.564 4.896v1h3.792v-2h-3.792zm3.792 0h-1V309h2v-1.128zm0 1.128v-1h-5.7v2h5.7zm.803-1.908-.264-.965-.964.264.264.965zm1.14-.312.929-.371-.332-.829-.861.235zm.84-1.896-.871.49.51.907.885-.545zm-.432-.768-.684-.729-.572.536.385.683zm2.532-2.376.684.729 1.843-1.729h-2.527zm-3.672 0h-1v1h1zm0-1.14v-1h-1v1zm5.208 0h1v-1h-1zm0 1.032.683.731.317-.296v-.435zm-2.16 2.016-.682-.731-1.855 1.731h2.537zm-.48 5.46v-1c-1.115 0-1.81-.543-2.011-1.28l-.965.264-.964.264c.494 1.807 2.151 2.752 3.94 2.752zm-2.976-2.016.264.965 1.14-.312-.264-.965-.264-.965-1.14.312zm1.14-.312-.928.371c.22.552.574 1.027 1.088 1.353.507.323 1.092.452 1.7.452v-2c-.328 0-.516-.069-.627-.139-.105-.067-.213-.18-.304-.408zm1.86 1.176v1c.773 0 1.495-.25 2.026-.78s.774-1.246.774-1.996h-2c0 .318-.097.49-.188.581s-.269.195-.612.195zm1.8-1.776h1c0-.706-.222-1.387-.745-1.888-.517-.495-1.205-.696-1.911-.696v2c.339 0 .478.093.528.141.044.042.128.153.128.443zm-1.656-1.584v-1c-.561 0-1.176.122-1.688.436l.524.852.524.852c.113-.07.337-.14.64-.14zm-1.164.288.872-.49-.432-.768-.872.49-.871.49.432.768zm-.432-.768.684.729 2.532-2.376-.684-.729-.684-.729-2.532 2.376zm2.532-2.376v-1h-3.672v2h3.672zm-3.672 0h1v-1.14h-2v1.14zm0-1.14v1h5.208v-2h-5.208zm5.208 0h-1v1.032h2V300.6zm0 1.032-.682-.731-2.16 2.016.682.731.683.731 2.16-2.016zm-2.16 2.016v1h.156v-2h-.156zm.156 0v1c.457 0 .807.16 1.042.4.236.24.418.624.418 1.18h2c0-1.016-.345-1.922-.989-2.579-.643-.657-1.523-1.001-2.471-1.001zm2.46 2.58h-1c0 .618-.219 1.062-.543 1.359-.334.305-.853.521-1.553.521v2c1.112 0 2.141-.348 2.903-1.045.77-.705 1.193-1.701 1.193-2.835z" mask="url(#b)"/><mask id="c" fill="#fff"><path d="M295.417 309v-1.056c1.452-.948 4.212-2.976 4.212-4.872 0-.864-.564-1.44-1.416-1.44-.864 0-1.476.588-1.692 1.752l-1.164-.3c.252-1.644 1.344-2.616 2.868-2.616 1.548 0 2.664.996 2.664 2.508 0 2.004-2.016 3.804-3.564 4.896h3.792V309zm9.838.12c-1.968 0-3.216-1.68-3.216-4.32s1.248-4.32 3.216-4.32c1.98 0 3.228 1.68 3.228 4.32s-1.248 4.32-3.228 4.32m0-1.164c1.248 0 1.944-1.152 1.944-3.156s-.696-3.156-1.944-3.156c-1.236 0-1.932 1.152-1.932 3.156s.696 3.156 1.932 3.156m4.212 1.044v-1.056c1.452-.948 4.212-2.976 4.212-4.872 0-.864-.564-1.44-1.416-1.44-.864 0-1.476.588-1.692 1.752l-1.164-.3c.252-1.644 1.344-2.616 2.868-2.616 1.548 0 2.664.996 2.664 2.508 0 2.004-2.016 3.804-3.564 4.896h3.792V309zm10.343 0v-1.656h-4.032V306.3l3.432-5.7h1.812v5.652h1.116v1.092h-1.116V309zm-2.748-2.748h2.748v-4.488h-.096l-2.652 4.38z"/></mask><path fill="#111" d="M295.417 309v-1.056c1.452-.948 4.212-2.976 4.212-4.872 0-.864-.564-1.44-1.416-1.44-.864 0-1.476.588-1.692 1.752l-1.164-.3c.252-1.644 1.344-2.616 2.868-2.616 1.548 0 2.664.996 2.664 2.508 0 2.004-2.016 3.804-3.564 4.896h3.792V309zm9.838.12c-1.968 0-3.216-1.68-3.216-4.32s1.248-4.32 3.216-4.32c1.98 0 3.228 1.68 3.228 4.32s-1.248 4.32-3.228 4.32m0-1.164c1.248 0 1.944-1.152 1.944-3.156s-.696-3.156-1.944-3.156c-1.236 0-1.932 1.152-1.932 3.156s.696 3.156 1.932 3.156m4.212 1.044v-1.056c1.452-.948 4.212-2.976 4.212-4.872 0-.864-.564-1.44-1.416-1.44-.864 0-1.476.588-1.692 1.752l-1.164-.3c.252-1.644 1.344-2.616 2.868-2.616 1.548 0 2.664.996 2.664 2.508 0 2.004-2.016 3.804-3.564 4.896h3.792V309zm10.343 0v-1.656h-4.032V306.3l3.432-5.7h1.812v5.652h1.116v1.092h-1.116V309zm-2.748-2.748h2.748v-4.488h-.096l-2.652 4.38z"/><path fill="#111" d="M295.417 309h-1v1h1zm0-1.056-.547-.837-.453.296v.541zm1.104-4.56-.25.968 1.037.268.196-1.054zm-1.164-.3-.989-.152-.137.895.876.225zm1.968 4.788-.577-.817-2.576 1.817h3.153zm3.792 0h1v-1h-1zm0 1.128v1h1v-1zm-5.7 0h1v-1.056h-2V309zm0-1.056.546.837c.747-.487 1.865-1.274 2.808-2.207.89-.881 1.858-2.117 1.858-3.502h-2c0 .511-.412 1.237-1.265 2.081-.801.792-1.789 1.493-2.494 1.954zm4.212-4.872h1c0-.653-.217-1.278-.675-1.745-.46-.468-1.084-.695-1.741-.695v2c.194 0 .278.061.314.097.037.037.102.132.102.343zm-1.416-1.44v-1c-.68 0-1.312.24-1.802.738-.471.478-.742 1.123-.874 1.832l.984.182.983.182c.084-.455.227-.686.332-.793.086-.087.192-.141.377-.141zm-1.692 1.752.249-.968-1.164-.3-.249.968-.25.968 1.164.3zm-1.164-.3.988.152c.098-.637.344-1.067.64-1.335.292-.265.698-.433 1.24-.433v-2c-.983 0-1.885.318-2.583.95-.694.629-1.119 1.507-1.274 2.514zm2.868-2.616v1c.559 0 .971.178 1.232.42.255.236.432.591.432 1.088h2c0-1.015-.382-1.914-1.072-2.554-.683-.634-1.604-.954-2.592-.954zm2.664 2.508h-1c0 .667-.341 1.395-.97 2.15-.619.743-1.432 1.408-2.171 1.929l.577.817.576.817c.809-.571 1.778-1.352 2.554-2.283.767-.919 1.434-2.093 1.434-3.43zm-3.564 4.896v1h3.792v-2h-3.792zm3.792 0h-1V309h2v-1.128zm0 1.128v-1h-5.7v2h5.7zm4.138.12v-1c-.665 0-1.172-.268-1.543-.767-.393-.528-.673-1.377-.673-2.553h-2c0 1.464.345 2.775 1.068 3.747.745 1.001 1.845 1.573 3.148 1.573zm-3.216-4.32h1c0-1.176.28-2.025.673-2.553.371-.499.878-.767 1.543-.767v-2c-1.303 0-2.403.572-3.148 1.573-.723.972-1.068 2.283-1.068 3.747zm3.216-4.32v1c.674 0 1.184.27 1.555.768.394.527.673 1.376.673 2.552h2c0-1.464-.344-2.775-1.07-3.748-.747-1.002-1.851-1.572-3.158-1.572zm3.228 4.32h-1c0 1.176-.279 2.025-.673 2.552-.371.498-.881.768-1.555.768v2c1.307 0 2.411-.57 3.158-1.572.726-.973 1.07-2.284 1.07-3.748zm-3.228 3.156v1c.994 0 1.793-.487 2.293-1.304.466-.76.651-1.759.651-2.852h-2c0 .911-.162 1.49-.356 1.807-.16.26-.333.349-.588.349zm1.944-3.156h1c0-1.093-.185-2.092-.651-2.852-.5-.817-1.299-1.304-2.293-1.304v2c.255 0 .428.089.588.349.194.317.356.896.356 1.807zm-1.944-3.156v-1c-.991 0-1.786.491-2.283 1.306-.463.759-.649 1.757-.649 2.85h2c0-.911.163-1.491.357-1.809.16-.262.33-.347.575-.347zm-1.932 3.156h-1c0 1.093.186 2.091.649 2.85.497.815 1.292 1.306 2.283 1.306v-2c-.245 0-.415-.085-.575-.347-.194-.318-.357-.898-.357-1.809zm6.144 4.2h-1v1h1zm0-1.056-.546-.837-.454.296v.541zm1.104-4.56-.249.968 1.037.268.196-1.054zm-1.164-.3-.988-.152-.137.895.876.225zm1.968 4.788-.576-.817-2.576 1.817h3.152zm3.792 0h1v-1h-1zm0 1.128v1h1v-1zm-5.7 0h1v-1.056h-2V309zm0-1.056.547.837c.747-.487 1.865-1.274 2.807-2.207.89-.881 1.858-2.117 1.858-3.502h-2c0 .511-.412 1.237-1.265 2.081-.8.792-1.788 1.493-2.493 1.954zm4.212-4.872h1c0-.653-.217-1.278-.675-1.745s-1.083-.695-1.741-.695v2c.195 0 .279.061.314.097.037.037.102.132.102.343zm-1.416-1.44v-1c-.679 0-1.311.24-1.801.738-.471.478-.742 1.123-.874 1.832l.983.182.984.182c.084-.455.227-.686.332-.793.086-.087.192-.141.376-.141zm-1.692 1.752.25-.968-1.164-.3-.25.968-.249.968 1.164.3zm-1.164-.3.989.152c.097-.637.344-1.067.64-1.335.292-.265.698-.433 1.239-.433v-2c-.982 0-1.884.318-2.582.95-.694.629-1.12 1.507-1.274 2.514zm2.868-2.616v1c.56 0 .971.178 1.233.42.255.236.431.591.431 1.088h2c0-1.015-.381-1.914-1.071-2.554-.684-.634-1.604-.954-2.593-.954zm2.664 2.508h-1c0 .667-.341 1.395-.969 2.15-.619.743-1.432 1.408-2.171 1.929l.576.817.577.817c.809-.571 1.778-1.352 2.554-2.283.766-.919 1.433-2.093 1.433-3.43zm-3.564 4.896v1h3.792v-2h-3.792zm3.792 0h-1V309h2v-1.128zm0 1.128v-1h-5.7v2h5.7zm4.643 0h-1v1h1zm0-1.656h1v-1h-1zm-4.032 0h-1v1h1zm0-1.044-.857-.516-.143.238v.278zm3.432-5.7v-1h-.565l-.292.484zm1.812 0h1v-1h-1zm0 5.652h-1v1h1zm1.116 0h1v-1h-1zm0 1.092v1h1v-1zm-1.116 0v-1h-1v1zm0 1.656v1h1v-1zm-3.96-2.748h-1v1h1zm2.748 0v1h1v-1zm0-4.488h1v-1h-1zm-.096 0v-1h-.563l-.292.482zm-2.652 4.38-.855-.518-.145.239v.279zM319.81 309h1v-1.656h-2V309zm0-1.656v-1h-4.032v2h4.032zm-4.032 0h1V306.3h-2v1.044zm0-1.044.857.516 3.432-5.7-.857-.516-.857-.516-3.432 5.7zm3.432-5.7v1h1.812v-2h-1.812zm1.812 0h-1v5.652h2V300.6zm0 5.652v1h1.116v-2h-1.116zm1.116 0h-1v1.092h2v-1.092zm0 1.092v-1h-1.116v2h1.116zm-1.116 0h-1V309h2v-1.656zm0 1.656v-1h-1.212v2h1.212zm-3.96-2.748v1h2.748v-2h-2.748zm2.748 0h1v-4.488h-2v4.488zm0-4.488v-1h-.096v2h.096zm-.096 0-.855-.518-2.652 4.38.855.518.856.518 2.652-4.38zm-2.652 4.38h-1v.108h2v-.108z" mask="url(#c)"/><mask id="d" fill="#fff"><path d="M408.808 309v-1.056c1.452-.948 4.212-2.976 4.212-4.872 0-.864-.564-1.44-1.416-1.44-.864 0-1.476.588-1.692 1.752l-1.164-.3c.252-1.644 1.344-2.616 2.868-2.616 1.548 0 2.664.996 2.664 2.508 0 2.004-2.016 3.804-3.564 4.896h3.792V309zm9.839.12c-1.968 0-3.216-1.68-3.216-4.32s1.248-4.32 3.216-4.32c1.98 0 3.228 1.68 3.228 4.32s-1.248 4.32-3.228 4.32m0-1.164c1.248 0 1.944-1.152 1.944-3.156s-.696-3.156-1.944-3.156c-1.236 0-1.932 1.152-1.932 3.156s.696 3.156 1.932 3.156m4.212 1.044v-1.056c1.452-.948 4.212-2.976 4.212-4.872 0-.864-.564-1.44-1.416-1.44-.864 0-1.476.588-1.692 1.752l-1.164-.3c.252-1.644 1.344-2.616 2.868-2.616 1.548 0 2.664.996 2.664 2.508 0 2.004-2.016 3.804-3.564 4.896h3.792V309zm9.539.108c-1.452 0-2.616-.72-2.988-2.016l1.164-.312c.3.792.96 1.176 1.836 1.176 1.2 0 1.812-.708 1.812-1.752 0-1.056-.636-1.632-1.632-1.632-.708 0-1.32.288-1.788.768l-1.032-.312.468-4.428h4.692v1.14h-3.684l-.264 2.376c.528-.384 1.14-.6 1.86-.6 1.596 0 2.64 1.008 2.64 2.64 0 1.74-1.212 2.952-3.084 2.952"/></mask><path fill="#111" d="M408.808 309v-1.056c1.452-.948 4.212-2.976 4.212-4.872 0-.864-.564-1.44-1.416-1.44-.864 0-1.476.588-1.692 1.752l-1.164-.3c.252-1.644 1.344-2.616 2.868-2.616 1.548 0 2.664.996 2.664 2.508 0 2.004-2.016 3.804-3.564 4.896h3.792V309zm9.839.12c-1.968 0-3.216-1.68-3.216-4.32s1.248-4.32 3.216-4.32c1.98 0 3.228 1.68 3.228 4.32s-1.248 4.32-3.228 4.32m0-1.164c1.248 0 1.944-1.152 1.944-3.156s-.696-3.156-1.944-3.156c-1.236 0-1.932 1.152-1.932 3.156s.696 3.156 1.932 3.156m4.212 1.044v-1.056c1.452-.948 4.212-2.976 4.212-4.872 0-.864-.564-1.44-1.416-1.44-.864 0-1.476.588-1.692 1.752l-1.164-.3c.252-1.644 1.344-2.616 2.868-2.616 1.548 0 2.664.996 2.664 2.508 0 2.004-2.016 3.804-3.564 4.896h3.792V309zm9.539.108c-1.452 0-2.616-.72-2.988-2.016l1.164-.312c.3.792.96 1.176 1.836 1.176 1.2 0 1.812-.708 1.812-1.752 0-1.056-.636-1.632-1.632-1.632-.708 0-1.32.288-1.788.768l-1.032-.312.468-4.428h4.692v1.14h-3.684l-.264 2.376c.528-.384 1.14-.6 1.86-.6 1.596 0 2.64 1.008 2.64 2.64 0 1.74-1.212 2.952-3.084 2.952"/><path fill="#111" d="M408.808 309h-1v1h1zm0-1.056-.546-.837-.454.296v.541zm1.104-4.56-.249.968 1.037.268.196-1.054zm-1.164-.3-.988-.152-.137.895.876.225zm1.968 4.788-.576-.817-2.576 1.817h3.152zm3.792 0h1v-1h-1zm0 1.128v1h1v-1zm-5.7 0h1v-1.056h-2V309zm0-1.056.547.837c.747-.487 1.865-1.274 2.807-2.207.89-.881 1.858-2.117 1.858-3.502h-2c0 .511-.412 1.237-1.265 2.081-.8.792-1.788 1.493-2.493 1.954zm4.212-4.872h1c0-.653-.217-1.278-.675-1.745s-1.083-.695-1.741-.695v2c.195 0 .279.061.314.097.037.037.102.132.102.343zm-1.416-1.44v-1c-.679 0-1.311.24-1.801.738-.471.478-.742 1.123-.874 1.832l.983.182.984.182c.084-.455.227-.686.332-.793.086-.087.192-.141.376-.141zm-1.692 1.752.25-.968-1.164-.3-.25.968-.249.968 1.164.3zm-1.164-.3.989.152c.097-.637.344-1.067.64-1.335.292-.265.698-.433 1.239-.433v-2c-.982 0-1.884.318-2.582.95-.694.629-1.12 1.507-1.274 2.514zm2.868-2.616v1c.56 0 .971.178 1.233.42.255.236.431.591.431 1.088h2c0-1.015-.381-1.914-1.071-2.554-.684-.634-1.604-.954-2.593-.954zm2.664 2.508h-1c0 .667-.341 1.395-.969 2.15-.619.743-1.432 1.408-2.171 1.929l.576.817.577.817c.809-.571 1.778-1.352 2.554-2.283.766-.919 1.433-2.093 1.433-3.43zm-3.564 4.896v1h3.792v-2h-3.792zm3.792 0h-1V309h2v-1.128zm0 1.128v-1h-5.7v2h5.7zm4.139.12v-1c-.665 0-1.173-.268-1.544-.767-.392-.528-.672-1.377-.672-2.553h-2c0 1.464.345 2.775 1.068 3.747.745 1.001 1.845 1.573 3.148 1.573zm-3.216-4.32h1c0-1.176.28-2.025.672-2.553.371-.499.879-.767 1.544-.767v-2c-1.303 0-2.403.572-3.148 1.573-.723.972-1.068 2.283-1.068 3.747zm3.216-4.32v1c.673 0 1.184.27 1.555.768.394.527.673 1.376.673 2.552h2c0-1.464-.344-2.775-1.07-3.748-.747-1.002-1.851-1.572-3.158-1.572zm3.228 4.32h-1c0 1.176-.279 2.025-.673 2.552-.371.498-.882.768-1.555.768v2c1.307 0 2.411-.57 3.158-1.572.726-.973 1.07-2.284 1.07-3.748zm-3.228 3.156v1c.993 0 1.792-.487 2.293-1.304.465-.76.651-1.759.651-2.852h-2c0 .911-.162 1.49-.356 1.807-.16.26-.333.349-.588.349zm1.944-3.156h1c0-1.093-.186-2.092-.651-2.852-.501-.817-1.3-1.304-2.293-1.304v2c.255 0 .428.089.588.349.194.317.356.896.356 1.807zm-1.944-3.156v-1c-.991 0-1.786.491-2.283 1.306-.463.759-.649 1.757-.649 2.85h2c0-.911.162-1.491.356-1.809.16-.262.331-.347.576-.347zm-1.932 3.156h-1c0 1.093.186 2.091.649 2.85.497.815 1.292 1.306 2.283 1.306v-2c-.245 0-.416-.085-.576-.347-.194-.318-.356-.898-.356-1.809zm6.144 4.2h-1v1h1zm0-1.056-.547-.837-.453.296v.541zm1.104-4.56-.249.968 1.037.268.195-1.054zm-1.164-.3-.988-.152-.137.895.876.225zm1.968 4.788-.576-.817-2.576 1.817h3.152zm3.792 0h1v-1h-1zm0 1.128v1h1v-1zm-5.7 0h1v-1.056h-2V309zm0-1.056.547.837c.747-.487 1.865-1.274 2.807-2.207.89-.881 1.858-2.117 1.858-3.502h-2c0 .511-.412 1.237-1.265 2.081-.801.792-1.789 1.493-2.494 1.954zm4.212-4.872h1c0-.653-.217-1.278-.675-1.745-.46-.468-1.083-.695-1.741-.695v2c.194 0 .279.061.314.097.037.037.102.132.102.343zm-1.416-1.44v-1c-.679 0-1.311.24-1.801.738-.471.478-.743 1.123-.874 1.832l.983.182.983.182c.085-.455.227-.686.333-.793.086-.087.191-.141.376-.141zm-1.692 1.752.25-.968-1.164-.3-.25.968-.249.968 1.164.3zm-1.164-.3.989.152c.097-.637.344-1.067.64-1.335.291-.265.698-.433 1.239-.433v-2c-.983 0-1.884.318-2.582.95-.694.629-1.12 1.507-1.274 2.514zm2.868-2.616v1c.56 0 .971.178 1.233.42.254.236.431.591.431 1.088h2c0-1.015-.381-1.914-1.072-2.554-.683-.634-1.604-.954-2.592-.954zm2.664 2.508h-1c0 .667-.341 1.395-.97 2.15-.619.743-1.432 1.408-2.17 1.929l.576.817.577.817c.809-.571 1.778-1.352 2.554-2.283.766-.919 1.433-2.093 1.433-3.43zm-3.564 4.896v1h3.792v-2h-3.792zm3.792 0h-1V309h2v-1.128zm0 1.128v-1h-5.7v2h5.7zm.851-1.908-.259-.966-.983.264.281.978zm1.164-.312.935-.354-.32-.846-.874.234zm.228-1.44-.289.957.581.176.424-.435zm-1.032-.312-.995-.105-.086.823.792.239zm.468-4.428v-1h-.9l-.095.895zm4.692 0h1v-1h-1zm0 1.14v1h1v-1zm-3.684 0v-1h-.895l-.099.89zm-.264 2.376-.994-.11-.25 2.251 1.832-1.332zm1.416 4.992v-1c-1.116 0-1.806-.521-2.027-1.292l-.961.276-.961.276c.523 1.821 2.16 2.74 3.949 2.74zm-2.988-2.016.259.966 1.164-.312-.259-.966-.259-.966-1.164.312zm1.164-.312-.935.354a2.73 2.73 0 0 0 1.107 1.379c.504.315 1.082.443 1.664.443v-2c-.294 0-.484-.064-.604-.139a.74.74 0 0 1-.297-.391zm1.836 1.176v1c.798 0 1.533-.24 2.068-.783.532-.539.744-1.254.744-1.969h-2c0 .329-.094.49-.168.566-.072.072-.242.186-.644.186zm1.812-1.752h1c0-.731-.225-1.422-.745-1.929-.515-.501-1.199-.703-1.887-.703v2c.308 0 .44.086.492.137.047.045.14.17.14.495zm-1.632-1.632v-1c-1 0-1.864.413-2.504 1.07l.716.698.716.698a1.46 1.46 0 0 1 1.072-.466zm-1.788.768.289-.957-1.032-.312-.289.957-.289.957 1.032.312zm-1.032-.312.994.105.468-4.428-.994-.105-.995-.105-.468 4.428zm.468-4.428v1h4.692v-2h-4.692zm4.692 0h-1v1.14h2v-1.14zm0 1.14v-1h-3.684v2h3.684zm-3.684 0-.994-.11-.264 2.376.994.11.994.11.264-2.376zm-.264 2.376.588.809a2.07 2.07 0 0 1 1.272-.409v-2a4.08 4.08 0 0 0-2.448.791zm1.86-.6v1c.585 0 .975.181 1.215.419.238.236.425.623.425 1.221h2c0-1.034-.335-1.967-1.018-2.643-.681-.674-1.611-.997-2.622-.997zm2.64 2.64h-1c0 .631-.215 1.099-.536 1.41-.323.314-.831.542-1.548.542v2c1.155 0 2.189-.378 2.94-1.105.753-.73 1.144-1.738 1.144-2.847z" mask="url(#d)"/><mask id="e" fill="#fff"><path d="M524.002 309v-1.056c1.452-.948 4.212-2.976 4.212-4.872 0-.864-.564-1.44-1.416-1.44-.864 0-1.476.588-1.692 1.752l-1.164-.3c.252-1.644 1.344-2.616 2.868-2.616 1.548 0 2.664.996 2.664 2.508 0 2.004-2.016 3.804-3.564 4.896h3.792V309zm9.839.12c-1.968 0-3.216-1.68-3.216-4.32s1.248-4.32 3.216-4.32c1.98 0 3.228 1.68 3.228 4.32s-1.248 4.32-3.228 4.32m0-1.164c1.248 0 1.944-1.152 1.944-3.156s-.696-3.156-1.944-3.156c-1.236 0-1.932 1.152-1.932 3.156s.696 3.156 1.932 3.156m4.212 1.044v-1.056c1.452-.948 4.212-2.976 4.212-4.872 0-.864-.564-1.44-1.416-1.44-.864 0-1.476.588-1.692 1.752l-1.164-.3c.252-1.644 1.344-2.616 2.868-2.616 1.548 0 2.664.996 2.664 2.508 0 2.004-2.016 3.804-3.564 4.896h3.792V309zm12.671-6.54-1.164.312c-.3-.78-.828-1.164-1.572-1.164-1.656 0-2.076 1.8-2.076 3.132.504-.804 1.416-1.2 2.316-1.2 1.428 0 2.76.96 2.76 2.712 0 1.704-1.248 2.868-3.072 2.868-2.064 0-3.24-1.5-3.24-4.212 0-2.772 1.224-4.428 3.276-4.428 1.356 0 2.376.732 2.772 1.98m-4.692 3.792c.24 1.128.864 1.716 1.86 1.716 1.092 0 1.836-.72 1.836-1.752 0-.996-.672-1.62-1.668-1.62-.876 0-1.8.48-2.016 1.344-.012.096-.012.204-.012.312"/></mask><path fill="#111" d="M524.002 309v-1.056c1.452-.948 4.212-2.976 4.212-4.872 0-.864-.564-1.44-1.416-1.44-.864 0-1.476.588-1.692 1.752l-1.164-.3c.252-1.644 1.344-2.616 2.868-2.616 1.548 0 2.664.996 2.664 2.508 0 2.004-2.016 3.804-3.564 4.896h3.792V309zm9.839.12c-1.968 0-3.216-1.68-3.216-4.32s1.248-4.32 3.216-4.32c1.98 0 3.228 1.68 3.228 4.32s-1.248 4.32-3.228 4.32m0-1.164c1.248 0 1.944-1.152 1.944-3.156s-.696-3.156-1.944-3.156c-1.236 0-1.932 1.152-1.932 3.156s.696 3.156 1.932 3.156m4.212 1.044v-1.056c1.452-.948 4.212-2.976 4.212-4.872 0-.864-.564-1.44-1.416-1.44-.864 0-1.476.588-1.692 1.752l-1.164-.3c.252-1.644 1.344-2.616 2.868-2.616 1.548 0 2.664.996 2.664 2.508 0 2.004-2.016 3.804-3.564 4.896h3.792V309zm12.671-6.54-1.164.312c-.3-.78-.828-1.164-1.572-1.164-1.656 0-2.076 1.8-2.076 3.132.504-.804 1.416-1.2 2.316-1.2 1.428 0 2.76.96 2.76 2.712 0 1.704-1.248 2.868-3.072 2.868-2.064 0-3.24-1.5-3.24-4.212 0-2.772 1.224-4.428 3.276-4.428 1.356 0 2.376.732 2.772 1.98m-4.692 3.792c.24 1.128.864 1.716 1.86 1.716 1.092 0 1.836-.72 1.836-1.752 0-.996-.672-1.62-1.668-1.62-.876 0-1.8.48-2.016 1.344-.012.096-.012.204-.012.312"/><path fill="#111" d="M524.002 309h-1v1h1zm0-1.056-.546-.837-.454.296v.541zm1.104-4.56-.249.968 1.037.268.196-1.054zm-1.164-.3-.988-.152-.137.895.876.225zm1.968 4.788-.576-.817-2.576 1.817h3.152zm3.792 0h1v-1h-1zm0 1.128v1h1v-1zm-5.7 0h1v-1.056h-2V309zm0-1.056.547.837c.747-.487 1.865-1.274 2.807-2.207.89-.881 1.858-2.117 1.858-3.502h-2c0 .511-.412 1.237-1.265 2.081-.8.792-1.788 1.493-2.493 1.954zm4.212-4.872h1c0-.653-.217-1.278-.675-1.745s-1.083-.695-1.741-.695v2c.195 0 .279.061.314.097.037.037.102.132.102.343zm-1.416-1.44v-1c-.679 0-1.311.24-1.801.738-.471.478-.742 1.123-.874 1.832l.983.182.984.182c.084-.455.226-.686.332-.793.086-.087.191-.141.376-.141zm-1.692 1.752.25-.968-1.164-.3-.25.968-.249.968 1.164.3zm-1.164-.3.989.152c.097-.637.344-1.067.64-1.335.291-.265.698-.433 1.239-.433v-2c-.983 0-1.884.318-2.582.95-.694.629-1.12 1.507-1.274 2.514zm2.868-2.616v1c.56 0 .971.178 1.233.42.254.236.431.591.431 1.088h2c0-1.015-.381-1.914-1.071-2.554-.684-.634-1.604-.954-2.593-.954zm2.664 2.508h-1c0 .667-.341 1.395-.969 2.15-.619.743-1.432 1.408-2.171 1.929l.576.817.577.817c.809-.571 1.778-1.352 2.554-2.283.766-.919 1.433-2.093 1.433-3.43zm-3.564 4.896v1h3.792v-2h-3.792zm3.792 0h-1V309h2v-1.128zm0 1.128v-1h-5.7v2h5.7zm4.139.12v-1c-.665 0-1.173-.268-1.544-.767-.392-.528-.672-1.377-.672-2.553h-2c0 1.464.345 2.775 1.068 3.747.745 1.001 1.845 1.573 3.148 1.573zm-3.216-4.32h1c0-1.176.28-2.025.672-2.553.371-.499.879-.767 1.544-.767v-2c-1.303 0-2.403.572-3.148 1.573-.723.972-1.068 2.283-1.068 3.747zm3.216-4.32v1c.673 0 1.184.27 1.555.768.394.527.673 1.376.673 2.552h2c0-1.464-.344-2.775-1.07-3.748-.747-1.002-1.851-1.572-3.158-1.572zm3.228 4.32h-1c0 1.176-.279 2.025-.673 2.552-.371.498-.882.768-1.555.768v2c1.307 0 2.411-.57 3.158-1.572.726-.973 1.07-2.284 1.07-3.748zm-3.228 3.156v1c.993 0 1.792-.487 2.293-1.304.465-.76.651-1.759.651-2.852h-2c0 .911-.162 1.49-.357 1.807-.159.26-.332.349-.587.349zm1.944-3.156h1c0-1.093-.186-2.092-.651-2.852-.501-.817-1.3-1.304-2.293-1.304v2c.255 0 .428.089.587.349.195.317.357.896.357 1.807zm-1.944-3.156v-1c-.991 0-1.786.491-2.283 1.306-.463.759-.649 1.757-.649 2.85h2c0-.911.162-1.491.356-1.809.16-.262.331-.347.576-.347zm-1.932 3.156h-1c0 1.093.186 2.091.649 2.85.497.815 1.292 1.306 2.283 1.306v-2c-.245 0-.416-.085-.576-.347-.194-.318-.356-.898-.356-1.809zm6.144 4.2h-1v1h1zm0-1.056-.547-.837-.453.296v.541zm1.104-4.56-.249.968 1.037.268.195-1.054zm-1.164-.3-.988-.152-.137.895.875.225zm1.968 4.788-.576-.817-2.576 1.817h3.152zm3.792 0h1v-1h-1zm0 1.128v1h1v-1zm-5.7 0h1v-1.056h-2V309zm0-1.056.547.837c.747-.487 1.865-1.274 2.807-2.207.89-.881 1.858-2.117 1.858-3.502h-2c0 .511-.412 1.237-1.265 2.081-.801.792-1.789 1.493-2.494 1.954zm4.212-4.872h1c0-.653-.217-1.278-.675-1.745-.46-.468-1.083-.695-1.741-.695v2c.194 0 .279.061.314.097.037.037.102.132.102.343zm-1.416-1.44v-1c-.679 0-1.311.24-1.801.738-.471.478-.743 1.123-.874 1.832l.983.182.983.182c.085-.455.227-.686.333-.793.086-.087.191-.141.376-.141zm-1.692 1.752.25-.968-1.164-.3-.25.968-.25.968 1.165.3zm-1.164-.3.989.152c.097-.637.344-1.067.64-1.335.291-.265.698-.433 1.239-.433v-2c-.983 0-1.884.318-2.582.95-.694.629-1.12 1.507-1.274 2.514zm2.868-2.616v1c.56 0 .971.178 1.233.42.254.236.431.591.431 1.088h2c0-1.015-.381-1.914-1.072-2.554-.683-.634-1.604-.954-2.592-.954zm2.664 2.508h-1c0 .667-.341 1.395-.97 2.15-.619.743-1.432 1.408-2.17 1.929l.576.817.577.817c.809-.571 1.778-1.352 2.554-2.283.766-.919 1.433-2.093 1.433-3.43zm-3.564 4.896v1h3.792v-2h-3.792zm3.792 0h-1V309h2v-1.128zm0 1.128v-1h-5.7v2h5.7zm6.971-6.54.259.966 1.011-.271-.317-.997zm-1.164.312-.933.359.323.84.869-.233zm-3.648 1.968h-1v3.478l1.847-2.947zm.12 1.512h-1v.105l.022.103zm.012-.312-.97-.243-.015.059-.007.06zm4.68-3.48-.259-.966-1.164.312.259.966.259.966 1.164-.312zm-1.164.312.933-.359c-.2-.521-.507-.987-.959-1.32-.46-.339-.994-.485-1.546-.485v2c.192 0 .293.046.359.094.073.054.18.17.28.429zm-1.572-1.164v-1c-1.29 0-2.111.745-2.551 1.615-.412.814-.525 1.775-.525 2.517h2c0-.59.097-1.195.309-1.614.184-.363.401-.518.767-.518zm-2.076 3.132.847.531c.285-.455.84-.731 1.469-.731v-2c-1.171 0-2.441.516-3.163 1.669zm2.316-1.2v1c.496 0 .94.167 1.247.443.293.263.513.666.513 1.269h2c0-1.149-.446-2.102-1.177-2.757-.715-.642-1.652-.955-2.583-.955zm2.76 2.712h-1c0 .597-.212 1.041-.534 1.342-.328.306-.84.526-1.538.526v2c1.125 0 2.15-.362 2.902-1.064.758-.707 1.17-1.697 1.17-2.804zm-3.072 2.868v-1c-.765 0-1.265-.263-1.603-.701-.368-.475-.637-1.28-.637-2.511h-2c0 1.481.318 2.782 1.055 3.735.766.99 1.886 1.477 3.185 1.477zm-3.24-4.212h1c0-1.256.279-2.128.672-2.659.366-.494.881-.769 1.604-.769v-2c-1.329 0-2.452.553-3.212 1.58-.732.99-1.064 2.332-1.064 3.848zm3.276-4.428v1c.938 0 1.56.467 1.819 1.282l.953-.302.953-.302c-.533-1.681-1.952-2.678-3.725-2.678zm-1.92 5.772-.978.208c.147.693.436 1.335.944 1.806.525.487 1.186.702 1.894.702v-2c-.289 0-.437-.079-.534-.168-.113-.105-.256-.321-.348-.756zm1.86 1.716v1c.769 0 1.487-.257 2.019-.767.536-.513.817-1.22.817-1.985h-2c0 .267-.091.436-.2.541-.113.108-.313.211-.636.211zm1.836-1.752h1c0-.731-.253-1.41-.768-1.905-.512-.49-1.193-.715-1.9-.715v2c.288 0 .441.087.515.158.069.066.153.197.153.462zm-1.668-1.62v-1c-1.141 0-2.618.628-2.986 2.101l.97.243.97.243c.064-.255.434-.587 1.046-.587zm-2.016 1.344-.992-.124c-.022.17-.02.344-.02.436h2c0-.124.001-.166.004-.188z" mask="url(#e)"/><path stroke="#720d06" stroke-linejoin="bevel" stroke-width="2" d="m79.396 192.7 114.407-61.005 114.408 19.92 114.407 76.36 114.365-7.45"/><path fill="#fafafa" stroke="#720d06" stroke-width="2" d="M82.407 192.7a3 3 0 0 1-.882 2.121 3.015 3.015 0 0 1-4.258 0 2.99 2.99 0 0 1 0-4.242 3.015 3.015 0 0 1 4.258 0 3 3 0 0 1 .882 2.121Zm114.407-61.005a3 3 0 0 1-.882 2.121 3.013 3.013 0 0 1-4.257 0 2.993 2.993 0 0 1 0-4.242 3.016 3.016 0 0 1 4.257-.001c.565.563.882 1.326.882 2.122Zm114.407 19.92a3 3 0 0 1-.882 2.121 3.013 3.013 0 0 1-4.257 0 2.994 2.994 0 0 1 0-4.243 3.016 3.016 0 0 1 4.257 0c.565.563.882 1.326.882 2.122Z"/><path fill="#c6fede" stroke="#720d06" stroke-width="2" d="M425.629 227.975c0 .796-.318 1.559-.882 2.121a3.017 3.017 0 0 1-4.258 0 2.993 2.993 0 0 1 0-4.242 3.015 3.015 0 0 1 4.258-.001c.564.563.882 1.326.882 2.122Z"/><path fill="#fafafa" stroke="#720d06" stroke-width="2" d="M540.036 220.52c0 .796-.318 1.559-.882 2.121a3.017 3.017 0 0 1-4.258 0 2.994 2.994 0 0 1 0-4.243 3.02 3.02 0 0 1 4.258 0c.564.563.882 1.326.882 2.122Z"/></svg>