<svg xmlns="http://www.w3.org/2000/svg" width="608" height="329" fill="none" viewBox="0 0 608 329"><rect width="608" height="329" fill="#ebcdd5" rx="46"/><path fill="#ffab71" fill-opacity=".67" stroke="#eb982f" stroke-width="3" d="M298.856 28.092a8.03 8.03 0 0 1 10.844-.257l5.159 4.502a8.03 8.03 0 0 0 7.243 1.738l4.797-1.208a8.033 8.033 0 0 1 9.594 5.287l1.917 5.85a8.03 8.03 0 0 0 5.274 5.176l5.562 1.708a8.033 8.033 0 0 1 5.533 9.178l-1.22 6.416a8.03 8.03 0 0 0 1.921 6.873l3.938 4.376a8.03 8.03 0 0 1 .104 10.63l-4.146 4.79a8.03 8.03 0 0 0-1.809 6.798l1.185 6.053a8.03 8.03 0 0 1-5.417 9.187l-5.757 1.857a8.03 8.03 0 0 0-5.156 5.108l-2.074 6.235a8.034 8.034 0 0 1-9.011 5.375l-6.772-1.189a8.03 8.03 0 0 0-6.695 1.881l-4.403 3.874a8.03 8.03 0 0 1-10.613 0l-4.403-3.874a8.03 8.03 0 0 0-6.695-1.881l-6.773 1.189a8.03 8.03 0 0 1-9.01-5.375l-2.074-6.235a8.03 8.03 0 0 0-5.156-5.108l-5.659-1.825a8.034 8.034 0 0 1-5.394-9.3l1.234-5.859a8.03 8.03 0 0 0-1.843-6.978l-4.119-4.657a8.03 8.03 0 0 1 .104-10.76l3.91-4.249a8.03 8.03 0 0 0 1.958-7.048l-1.273-6.224a8.03 8.03 0 0 1 5.51-9.288l5.465-1.678a8.03 8.03 0 0 0 5.274-5.176l1.958-5.972a8.03 8.03 0 0 1 9.459-5.32l5.984 1.397a8.03 8.03 0 0 0 7.389-2.027z"/><path fill="#ffee58" stroke="#f18c48" stroke-width="2.41" d="M304.161 43c22.091 0 40 17.909 40 40s-17.909 40-40 40-40-17.908-40-40 17.909-40 40-40Z"/><path fill="#fff" stroke="#f18c48" stroke-width="1.606" d="M282.397 69.836c6.177-.638 11.703 3.852 12.341 10.03.639 6.177-3.851 11.703-10.029 12.341-6.177.639-11.703-3.852-12.342-10.03-.638-6.176 3.852-11.702 10.03-12.34Z"/><circle cx="283.554" cy="81.022" r="5.301" fill="#f18c48" transform="rotate(11.281 283.554 81.022)"/><circle cx="287.9" cy="78.94" r="1.928" fill="#fff" transform="rotate(11.281 287.9 78.94)"/><path fill="#fbfbfb" stroke="#f18c48" stroke-width="1.606" d="M324.101 65.525c6.178-.638 11.703 3.852 12.342 10.03s-3.852 11.703-10.029 12.341c-6.178.639-11.703-3.852-12.342-10.03-.638-6.176 3.852-11.702 10.029-12.34Z"/><circle cx="325.257" cy="76.711" r="5.301" fill="#f18c48" transform="rotate(9.637 325.257 76.71)"/><circle cx="329.542" cy="74.505" r="1.928" fill="#fbfbfb" transform="rotate(9.637 329.542 74.505)"/><path fill="#f18c48" d="M312.81 92.307a1.178 1.178 0 0 1 1.276 1.38c-.554 3.032-3.625 5.556-7.558 5.947-3.933.392-7.445-1.476-8.582-4.339a1.178 1.178 0 0 1 .979-1.606z"/><path fill="#fff" d="m380.614 42.566-7.285 11.653-6.013 1.259-3.935 4.406-.234 5.707-2.41 4.174 4.638 5.46 4.415 1.992 1.325-2.295 3.259-.344 6.704-1.973 4.297-5.032-2.343-4.135 10.632-11.669-2.375-3.597-10.912 7.334 4.523-8.797-.85-3.83z"/><path stroke="#f18c48" stroke-linecap="round" stroke-width="2.85" d="M385.41 68.5c-2.179 3.333-8.873 8.728-14.719 2.882l-2.224-2.095-1.436-1.565c-3.846-4.615-4.523-9.778.09-11.703m5.139-.275 6.64-12.636a2.963 2.963 0 0 1 3.896-1.304 3.094 3.094 0 0 1 1.551 3.943l-4.089 10.143"/><path stroke="#f18c48" stroke-linecap="round" stroke-width="2.85" d="m380.195 55.872 8.639-7.346a2.89 2.89 0 0 1 4.15.438 2.82 2.82 0 0 1-.214 3.7l-8.697 8.915m-14.152 1.116 1.679.865a3.557 3.557 0 1 0 2.549-6.596l-3.999-1.072-.195-.052a4.75 4.75 0 0 0-5.224 2.017l-.301.467"/><path stroke="#f18c48" stroke-width="2.85" d="M383.714 63.28a3.288 3.288 0 1 1-2.217 6.166l-4.56-2.083a2.87 2.87 0 0 1 1.934-5.381z"/><rect width="11.965" height="5.439" x="365.007" y="65.824" stroke="#f18c48" stroke-width="2.85" rx="1.425" transform="rotate(45 365.007 65.824)"/><g filter="url(#a)"><rect width="54.676" height="54.676" x="210.379" y="87.95" fill="#f6f7f8" rx="27.338"/><rect width="54.676" height="54.676" x="210.379" y="87.95" stroke="#155dba" stroke-width="1.667" rx="27.338"/><path fill="url(#b)" d="M229.074 107.286c5.821-3.671 14.644-4.27 19.394-.294 5.539 4.623 2.173 12.103-6.63 15.333-7.327 2.69-14.765.864-17.373-3.23-2.325-3.661-.424-8.628 4.609-11.809"/><path fill="#fff" d="M226.355 109.465s.071-.078.222-.215c.142-.138.364-.344.647-.599.283-.246.647-.54 1.082-.845q.318-.235.697-.471.182-.117.394-.235c.131-.079.273-.167.414-.246a18 18 0 0 1 1.9-.932c.688-.295 1.436-.57 2.224-.795a21.2 21.2 0 0 1 5.073-.845c1.759-.068 3.528.099 5.114.53.789.216 1.537.491 2.214.815a9.8 9.8 0 0 1 1.799 1.1c.525.392.95.805 1.303 1.197.354.393.617.766.809 1.09s.323.589.404.775c.041.089.071.167.091.216s.031.069.031.069-.061-.088-.162-.265a16 16 0 0 0-.505-.707 10 10 0 0 0-.92-.962 11 11 0 0 0-.627-.51c-.111-.089-.232-.167-.354-.265-.111-.079-.252-.167-.373-.246-.132-.088-.273-.157-.405-.245l-.212-.118c-.071-.039-.152-.069-.222-.108s-.152-.078-.223-.118c-.07-.039-.151-.068-.232-.108-.162-.068-.313-.147-.485-.206a13.6 13.6 0 0 0-2.123-.657 19 19 0 0 0-1.162-.216c-.202-.03-.394-.059-.596-.079s-.404-.049-.607-.059a21 21 0 0 0-2.486-.049c-.839.03-1.667.118-2.486.236-.404.059-.809.137-1.213.206-.202.039-.394.088-.596.127-.192.049-.384.089-.586.138-.768.196-1.496.412-2.183.658-.344.117-.677.255-.991.373-.161.068-.313.127-.465.186-.151.069-.293.128-.444.196a20 20 0 0 0-1.567.796c-.455.265-.849.49-1.162.706s-.566.383-.728.501c-.212.118-.303.186-.303.186" opacity=".45"/><path fill="url(#c)" d="M251.803 109.524a.49.49 0 0 1-.525.02c-.172-.099-.283-.285-.142-.452.142-.177.506-.206.698-.039.192.157.131.363-.031.471"/><path fill="url(#d)" d="M249.651 104.95c.808.628.98 1.384.707 1.58-.283.206-.91-.147-1.688-.658-.768-.51-1.425-1.03-1.172-1.344.242-.315 1.344-.207 2.153.422"/><path fill="url(#e)" d="M240.1 101.082c2.658.049 4.356 1.541 4.184 2.13-.141.619-1.96-.049-4.346-.059-2.385-.039-4.234.579-4.356-.039-.171-.609 1.85-2.091 4.518-2.032"/><path fill="#fff" d="M244.284 103.212v-.029c0-.02-.01-.049-.02-.079a.9.9 0 0 0-.162-.255 2.4 2.4 0 0 0-.364-.304 3.5 3.5 0 0 0-.545-.305 3 3 0 0 0-.324-.137c-.111-.049-.232-.088-.354-.137-.242-.089-.515-.148-.788-.216a6 6 0 0 0-.424-.079l-.213-.029-.222-.03a9 9 0 0 0-.899-.049h-.233c-.071 0-.141 0-.222.01-.071 0-.152.01-.223.01-.07 0-.151.01-.222.019l-.222.03-.223.029a6 6 0 0 0-.424.079 10 10 0 0 0-.798.196 5 5 0 0 0-.364.128c-.122.039-.233.088-.334.127a5 5 0 0 0-.556.275 2.3 2.3 0 0 0-.384.275.8.8 0 0 0-.182.236c-.03.068-.02.108-.02.108v-.03c0-.019-.01-.049 0-.088a.9.9 0 0 1 .121-.295c.162-.225.465-.5.88-.746.414-.245.94-.471 1.516-.628a7 7 0 0 1 1.879-.245c.647 0 1.294.088 1.88.255a6 6 0 0 1 1.506.667c.404.265.687.55.829.795a.6.6 0 0 1 .101.305c.03.098.01.137.01.137" opacity=".45"/><path fill="url(#f)" d="M230.155 103.899c1.223-.549 2.567-.333 2.688.108.132.442-.838.648-1.91 1.08-1.091.422-1.859.893-2.162.569-.304-.314.161-1.217 1.384-1.757"/><path fill="url(#g)" d="M225.405 107.61c.263-.353.859-.461 1.112-.265.252.196-.111.412-.415.677-.303.265-.444.462-.657.363-.202-.078-.313-.422-.04-.775"/><path fill="#fff" d="M230.458 111.232c-.566.118-1.567.226-1.779.432-.111.118-.131.668-.162 1.041-.03.373-.081.775-.161 1.187q.361-.088.737-.176c.253-.059.506-.108.768-.148.415-.068.738 0 .95.226.122.138.213.275.294.412.07.138.131.285.202.423.07.157.101.274.05.343-.05.069-.202.128-.414.177-.455.108-.93.265-1.385.412-.465.147-.919.314-1.364.481a34 34 0 0 0-.101 1.679q-.028.795-.041 1.413c.021.138-.03.226-.151.275a1.4 1.4 0 0 1-.445.089c-.182.009-.374 0-.586-.02s-.394-.049-.556-.069c-.202-.039-.344-.108-.414-.206a1.2 1.2 0 0 1-.162-.422 8 8 0 0 1-.111-.884c-.031-.382-.061-.824-.101-1.305-.031-.481-.061-1.001-.101-1.551a43 43 0 0 0-.293-3.151 8 8 0 0 0-.273-1.247 15 15 0 0 1 1.263-.501c.475-.166.97-.314 1.506-.461a22 22 0 0 1 1.637-.383 21 21 0 0 1 1.668-.284c.141-.02.252-.02.353-.02.102 0 .192.01.273.039q.121.045.243.118c.081.059.162.128.263.226.283.314.444.638.515.942.041.187.051.314-.01.383s-.222.128-.485.187c-.516.108-1.061.225-1.627.343m2.092 5.291a5.7 5.7 0 0 1-.233-1.168 10 10 0 0 1-.04-1.374c.02-.491.06-.982.121-1.492.061-.511.152-1.011.253-1.532.101-.52.222-1.011.343-1.502.061-.216.152-.353.293-.412.142-.059.364-.049.657.01.273.049.556.118.809.216.263.088.505.206.748.334.505.274.687.647.535 1.099-.121.383-.272.815-.404 1.266q-.212.678-.364 1.384c-.111.462-.192.923-.262 1.365a7.5 7.5 0 0 0-.102 1.188c0 .353.031.638.102.864s.192.363.373.392c.213.04.425-.059.617-.314q.303-.383.576-1.031c.182-.441.364-.942.536-1.521a64 64 0 0 0 .96-3.554c.141-.589.273-1.109.384-1.57.02-.226.121-.354.313-.393a1.6 1.6 0 0 1 .677.029c.263.059.546.167.839.295.293.137.556.275.799.402.121.079.222.138.283.207.06.058.111.117.131.186.02.059.03.128.01.196-.01.069-.04.157-.071.246a95 95 0 0 1-.98 2.876 31 31 0 0 1-.92 2.317c-.303.677-.616 1.237-.95 1.688q-.485.68-1.061.992a3.4 3.4 0 0 1-.808.265 4.5 4.5 0 0 1-.92.059c-.698-.02-1.274-.128-1.739-.334a3.4 3.4 0 0 1-.576-.324 2.6 2.6 0 0 1-.495-.481 3.1 3.1 0 0 1-.434-.874m14.705-3.877c.424-.884.839-1.699 1.253-2.435.111-.196.253-.314.414-.334.162-.019.385.02.657.138.132.059.253.108.354.147.101.049.202.098.303.157q.151.089.304.206c.101.079.222.167.363.285.233.186.344.353.344.501q0 .206-.182.471-.5.736-1.061 1.678a90 90 0 0 0-1.102 1.944c-.353.668-.697 1.315-1.01 1.954-.324.638-.617 1.217-.809 1.688-.111.255-.354.314-.748.157a9 9 0 0 1-1.031-.461 1.2 1.2 0 0 1-.616-.766c-.071-.245-.152-.52-.223-.844-.07-.314-.151-.658-.222-1.021s-.151-.746-.232-1.139a23 23 0 0 1-.213-1.188c-.151.452-.293.894-.444 1.345-.142.452-.283.874-.415 1.286-.131.412-.242.795-.343 1.139-.101.353-.182.677-.253.923-.04.117-.101.196-.172.225-.07.03-.202 0-.404-.059a11 11 0 0 1-.546-.186 2.4 2.4 0 0 1-.535-.265c-.152-.098-.273-.196-.324-.304s-.06-.265-.04-.452q.046-.294.121-.854c.061-.373.131-.785.222-1.256q.136-.707.304-1.502c.111-.53.242-1.061.374-1.591.131-.53.272-1.04.414-1.521.141-.491.273-.933.404-1.306.081-.216.212-.343.384-.392.172-.04.404-.02.677.068.334.108.657.226.971.344s.636.275.96.442c.263.137.455.274.545.441.102.157.152.383.162.668.01.216.031.5.051.844s.04.707.07 1.109c.031.403.051.805.081 1.227s.051.825.081 1.218a22 22 0 0 1 1.112-2.729"/><path fill="url(#h)" d="M251.692 124.141c-.859-2.592-5.801-3.76-10.885-4.103-5.094-.246-9.935.304-11.178 2.65-1.253 2.287 3.194 6.224 10.43 6.773 7.237.56 12.532-2.758 11.633-5.32"/><path fill="#fff" d="M247.215 128.686s.08-.039.232-.128c.081-.039.172-.088.283-.147q.166-.089.364-.206c.131-.079.283-.167.434-.265.081-.049.162-.098.243-.157s.162-.108.253-.167c.343-.236.697-.52 1.031-.854.04-.039.08-.079.121-.128a.7.7 0 0 0 .111-.137c.081-.088.162-.177.222-.275.071-.098.142-.187.202-.294l.091-.148c.031-.049.051-.108.071-.157s.051-.108.071-.157.03-.108.05-.157c.011-.029.021-.049.031-.078.01-.03.01-.059.02-.079.01-.049.02-.108.03-.167.01-.216.031-.432-.04-.638-.01-.029-.01-.049-.02-.078v-.02c0-.01.01.049.01.02 0-.01-.01-.02-.01-.03-.01-.02-.01-.029-.021-.049-.01-.029-.02-.069-.04-.098-.01-.02-.01-.03-.02-.049-.01-.01-.01-.02-.02-.03-.021-.039-.041-.078-.071-.127l-.091-.148a4 4 0 0 0-.505-.539c-.051-.04-.101-.089-.152-.128s-.111-.079-.162-.118c-.121-.078-.232-.157-.353-.226-.122-.078-.253-.137-.374-.206-.061-.029-.132-.069-.192-.098-.061-.029-.132-.069-.203-.098a17 17 0 0 0-1.657-.638 7 7 0 0 0-.425-.128 2 2 0 0 1-.212-.069l-.212-.058c-.142-.04-.273-.079-.414-.118-.132-.039-.273-.069-.405-.108-.545-.128-1.061-.265-1.556-.373-.121-.03-.243-.049-.364-.079-.121-.019-.242-.049-.354-.068-.232-.05-.454-.099-.667-.138l-.313-.059-.303-.059c-.192-.039-.384-.078-.556-.108-.172-.039-.334-.059-.485-.098-.02 0-.041-.01-.061-.01-.01 0-.02 0-.02-.009h-.03c-.041-.01-.071-.01-.112-.02-.07-.01-.141-.02-.202-.039-.252-.04-.454-.089-.586-.118l-.202-.049s.293.019.798.039c.132.01.263.01.425.02l.495.029c.354.03.758.059 1.193.108.434.049.909.108 1.415.187.505.078 1.041.166 1.597.284.555.118 1.142.256 1.728.432.596.177 1.192.383 1.779.658.293.137.586.285.869.451s.545.354.788.57c.243.206.455.442.627.697s.283.53.333.805c.071.275.051.559 0 .824-.02.069-.03.128-.05.197-.011.029-.021.068-.031.098s-.03.059-.04.098c-.03.059-.051.128-.081.186q-.043.089-.101.177c-.263.471-.647.864-1.041 1.188-.192.167-.404.304-.596.442a5 5 0 0 1-.304.186c-.05.03-.101.059-.141.089-.051.029-.101.049-.142.078a8 8 0 0 1-.545.285c-.172.078-.334.157-.485.216-.152.059-.283.118-.405.157-.121.039-.222.078-.303.108a3 3 0 0 1-.242.098" opacity=".45"/><path fill="#fff" d="m234.719 127.165.32-.561c.116.087.27.124.437.124.153 0 .269-.037.346-.124.09-.087.154-.212.192-.399l.68-3.303h.783l-.68 3.291c-.154.772-.603 1.159-1.321 1.159-.296 0-.552-.063-.757-.187m2.219-4.923a.4.4 0 0 1-.128-.299c0-.137.051-.249.141-.349a.58.58 0 0 1 .385-.137c.141 0 .244.037.334.112a.36.36 0 0 1 .128.287.5.5 0 0 1-.141.361.58.58 0 0 1-.385.137.4.4 0 0 1-.334-.112m1.463 3.751a1.37 1.37 0 0 1-.565-.499 1.4 1.4 0 0 1-.205-.747c0-.362.09-.686.257-.973s.397-.511.705-.673a2.1 2.1 0 0 1 1.014-.249c.321 0 .603.063.847.175s.436.286.564.498c.129.212.206.461.206.748 0 .361-.09.685-.257.972a1.8 1.8 0 0 1-.706.673 2.1 2.1 0 0 1-1.013.249c-.321 0-.603-.05-.847-.174m1.488-.623c.167-.1.308-.25.411-.424.103-.187.154-.386.154-.623q0-.374-.231-.598c-.154-.137-.372-.212-.642-.212-.218 0-.41.05-.59.149a1.2 1.2 0 0 0-.41.424 1.25 1.25 0 0 0-.154.623q0 .374.231.598c.154.137.372.212.641.212.218 0 .424-.05.59-.149m2.143-2.468h.783l-.655 3.228h-.782zm.231-.66a.4.4 0 0 1-.128-.299c0-.137.051-.25.141-.349a.58.58 0 0 1 .385-.137c.141 0 .244.037.333.112s.129.174.129.286c0 .15-.052.275-.141.362a.58.58 0 0 1-.385.137.41.41 0 0 1-.334-.112m4.029.909c.218.187.321.462.321.811 0 .099-.013.224-.039.386l-.372 1.794h-.783l.36-1.769c.013-.075.025-.162.025-.249 0-.387-.218-.586-.667-.586-.282 0-.526.075-.705.237-.193.149-.308.386-.385.698l-.347 1.669h-.783l.655-3.227h.744l-.077.361c.295-.262.68-.399 1.142-.399.398-.012.693.075.911.274"/><path fill="#fff" d="m234.914 127.354.321-.56a.7.7 0 0 0 .436.124c.154 0 .27-.037.347-.124.089-.088.153-.212.192-.399l.68-3.303h.783l-.68 3.29c-.154.773-.603 1.159-1.322 1.159-.308 0-.564-.062-.757-.187m2.207-4.922a.4.4 0 0 1-.128-.299c0-.137.051-.25.141-.349a.57.57 0 0 1 .385-.137c.141 0 .243.037.333.112s.129.174.129.286a.5.5 0 0 1-.142.362.57.57 0 0 1-.384.137.41.41 0 0 1-.334-.112m1.475 3.751a1.36 1.36 0 0 1-.564-.499 1.4 1.4 0 0 1-.206-.748c0-.361.09-.685.257-.972a1.73 1.73 0 0 1 .706-.673 2.1 2.1 0 0 1 1.013-.249c.321 0 .603.062.847.175s.436.286.565.498.205.461.205.748c0 .361-.09.685-.257.972-.166.287-.41.511-.705.673a2.1 2.1 0 0 1-1.014.249c-.321 0-.603-.05-.847-.174m1.489-.623c.166-.1.308-.25.41-.424.103-.187.154-.387.154-.623q0-.375-.231-.599c-.154-.137-.372-.211-.641-.211-.218 0-.411.049-.591.149-.166.1-.307.249-.41.424a1.25 1.25 0 0 0-.154.623q0 .374.231.598c.154.137.372.212.641.212.219 0 .411-.05.591-.149m2.142-2.468h.783l-.655 3.228h-.782zm.231-.66a.4.4 0 0 1-.128-.3.5.5 0 0 1 .141-.348.57.57 0 0 1 .385-.138c.141 0 .244.038.333.113.09.074.129.174.129.286 0 .15-.052.274-.141.362a.58.58 0 0 1-.385.137.4.4 0 0 1-.334-.112m4.016.909c.218.187.321.461.321.81 0 .1-.013.225-.039.387l-.372 1.794h-.769l.359-1.769a1.5 1.5 0 0 0 .025-.25c0-.386-.218-.585-.667-.585-.282 0-.526.074-.705.236-.18.162-.308.387-.385.698l-.347 1.67h-.782l.654-3.228h.744l-.077.362c.295-.262.68-.399 1.142-.399.385-.012.68.075.898.274" opacity=".45"/></g><g fill="#fff" stroke="#f18c48" stroke-width="2.41" filter="url(#i)"><rect width="6.734" height="9.137" x="217.278" y="103.503" rx="3.34" transform="rotate(97.613 217.278 103.503)"/><rect width="6.734" height="9.137" x="216.27" y="110.199" rx="3.34" transform="rotate(97.613 216.27 110.199)"/><rect width="6.734" height="9.137" x="215.378" y="116.875" rx="3.34" transform="rotate(97.613 215.378 116.875)"/></g><rect width="140.077" height="100" x="32" y="205.247" fill="#fff" stroke="#155dba" stroke-width="2" rx="6.744"/><path fill="#155dba" d="M41.384 236.094v-2.058h7.252v2.058zm5.334-8.344 4.872 10.5h-2.73l-4.2-9.436h.798l-4.186 9.436h-2.73l4.872-10.5zm16.779 8.61v3.836h-2.17v-1.946h-7.294v1.946h-2.17v-3.836h2.282l.518.042h5.796l.462-.042zm-9.94-6.09h8.47v7.448H59.52v-6.748l1.162 1.162h-5.88l.98-.91q.153.602.182 1.134.027.517.028.966 0 1.974-.616 3.08-.616 1.092-1.75 1.092l-1.022-.854q1.106-.798 1.106-3.808 0-.602-.042-1.232a37 37 0 0 0-.112-1.33m11.158 7.98v-7.98h3.766l2.744 6.65h-.756l2.73-6.65h3.766v7.98H74.6v-7.056h.476l-3.08 7.056h-2.324l-3.08-7.028.476-.014v7.042zm13.946 0v-7.98h2.464v6.636l-.574-.168 4.592-6.468h3.234v7.98h-2.478v-6.776l.588.168-4.69 6.608zm11.416-7.98h2.506v7.98h-2.506zm6.65 0h2.506v7.98h-2.506zm-5.222 2.968h6.202v1.89h-6.202zM50.4 249.75v10.5h-2.548v-9.394l1.162 1.148h-8.078l1.162-1.148v9.394h-2.562v-10.5zm8.12 6.048q0-.868-.658-1.344-.645-.476-2.03-.476-.811 0-1.666.196a6.6 6.6 0 0 0-1.596.588v-1.848a7.8 7.8 0 0 1 1.848-.644 9.3 9.3 0 0 1 2.016-.21q1.401 0 2.394.42 1.008.406 1.582 1.218t.574 1.974v4.578H58.52zm-3.178-.63q1.806-.056 2.772.266.98.308 1.078.49.099.168.098 1.876 0 .35-.28.812a3.8 3.8 0 0 1-.798.882q-.517.42-1.246.7a4.5 4.5 0 0 1-1.624.28q-.98 0-1.764-.322-.77-.322-1.218-.91-.447-.602-.448-1.428 0-.812.448-1.4a2.85 2.85 0 0 1 1.232-.91 5.2 5.2 0 0 1 1.75-.336m1.26 1.484q-1.357 0-1.876.294-.504.294-.504.756 0 .476.504.784.504.294 1.386.294 1.065 0 1.736-.56.672-.574.672-1.302-.546-.266-1.918-.266m5.953-4.382h2.506v7.98h-2.506zm6.65 0h2.506v7.98h-2.506zm-5.222 2.968h6.202v1.89h-6.202zm13.991 5.236q-1.428 0-2.548-.532-1.119-.532-1.764-1.484-.644-.952-.644-2.212t.616-2.198a4.1 4.1 0 0 1 1.694-1.456q1.079-.532 2.45-.532 1.386 0 2.394.616 1.008.601 1.54 1.722.546 1.106.546 2.618h-7.21v-1.61h5.838l-.924.574q-.042-.658-.322-1.12a1.9 1.9 0 0 0-.742-.728q-.462-.252-1.092-.252-.686 0-1.19.28a1.9 1.9 0 0 0-.784.756 2.34 2.34 0 0 0-.266 1.134q0 .798.35 1.372.365.575 1.05.882.687.294 1.666.294.897 0 1.792-.252a5.8 5.8 0 0 0 1.624-.714v1.652a6.5 6.5 0 0 1-1.848.882 7.8 7.8 0 0 1-2.226.308m6.857-8.204h8.386v7.98h-2.506v-7.238l1.148 1.148h-5.768l1.078-.952q.07.853.112 1.554.056.7.056 1.274 0 2.296-.7 3.346-.686 1.036-2.24 1.036-.435 0-.826-.098a2.8 2.8 0 0 1-.77-.294v-1.82q.252.098.49.154.252.042.448.042.7 0 1.008-.63t.308-2.086q0-.672-.056-1.526a43 43 0 0 0-.168-1.89m10.1 7.98v-7.98h2.491v7.336l-.784-1.148h3.01q.603 0 .924-.294.336-.294.336-.812 0-.546-.336-.84-.321-.294-.924-.294h-3.01v-1.708h3.402q1.023 0 1.792.364.77.35 1.19.994.42.643.42 1.512a2.75 2.75 0 0 1-.42 1.512q-.42.643-1.176 1.008-.755.35-1.778.35z"/><rect width="6" height="6" x="38.5" y="212" fill="#155dba" rx="3"/><rect width="6" height="6" x="49.5" y="212" fill="#155dba" rx="3"/><rect width="6" height="6" x="60.5" y="212" fill="#155dba" rx="3"/><rect width="44.642" height="97.569" x="282.129" y="206.167" fill="#fff" rx="6"/><path fill="#155dba" d="M315.488 205c2.093 0 3.724 0 5.03.106 1.318.108 2.395.33 3.365.825a8.53 8.53 0 0 1 3.73 3.729c.494.97.716 2.047.824 3.365.107 1.307.106 2.937.106 5.031v2.437a1 1 0 1 1-2 0v-2.437c0-2.126-.001-3.661-.099-4.868-.098-1.194-.286-1.978-.612-2.62a6.54 6.54 0 0 0-2.857-2.856c-.641-.327-1.426-.515-2.62-.612-1.206-.099-2.741-.1-4.867-.1h-21.96c-2.126 0-3.661.001-4.867.1-1.195.097-1.979.285-2.62.612a6.54 6.54 0 0 0-2.857 2.856c-.327.642-.515 1.426-.612 2.62-.099 1.207-.1 2.742-.1 4.868v74.382c0 2.126.001 3.66.1 4.867.097 1.194.285 1.978.612 2.62a6.54 6.54 0 0 0 2.857 2.856c.641.327 1.425.515 2.62.613 1.206.098 2.741.099 4.867.099h21.96c2.126 0 3.661-.001 4.867-.099 1.194-.098 1.979-.286 2.62-.613a6.54 6.54 0 0 0 2.857-2.856c.326-.641.514-1.426.612-2.62.098-1.207.099-2.741.099-4.867v-23.089a1 1 0 1 1 2 0v23.089c0 2.093.001 3.723-.106 5.03-.108 1.318-.33 2.395-.824 3.365a8.53 8.53 0 0 1-3.73 3.73c-.97.495-2.047.717-3.365.825-1.306.106-2.937.105-5.03.105h-21.96c-2.093 0-3.724.001-5.03-.105-1.319-.108-2.395-.33-3.366-.825a8.53 8.53 0 0 1-3.729-3.73c-.495-.97-.717-2.047-.824-3.365-.107-1.307-.107-2.937-.107-5.03v-41.551h-.066a.117.117 0 0 1-.117-.117v-7.301c0-.065.052-.117.117-.117h.066v-1.938h-.066a.117.117 0 0 1-.117-.117v-7.301c0-.064.052-.117.117-.117h.066v-3.444h-.066a.117.117 0 0 1-.117-.118v-4.394c0-.065.052-.117.117-.117h.066v-7.75c0-2.093 0-3.724.107-5.031.107-1.318.33-2.395.824-3.365a8.53 8.53 0 0 1 3.729-3.729c.971-.495 2.047-.717 3.366-.825 1.306-.106 2.937-.106 5.03-.106z"/><rect width="14.501" height="4.21" x="296.976" y="208.997" fill="#155dba" rx="2.105"/><path fill="#155dba" d="M287.825 238.246v-10.5h2.548v10.5zm4.102-5.376 4.326-5.124h2.856l-4.312 4.998 4.466 5.502h-3.052zm-2.688-1.064h5.152v2.24h-5.152zm12.107-1.54h8.386v7.98h-2.506v-7.238l1.148 1.148h-5.768l1.078-.952q.07.853.112 1.554.056.7.056 1.274 0 2.296-.7 3.346-.686 1.036-2.24 1.036-.433 0-.826-.098a2.8 2.8 0 0 1-.77-.294v-1.82q.252.098.49.154.252.042.448.042.7 0 1.008-.63t.308-2.086a23 23 0 0 0-.056-1.526 42 42 0 0 0-.168-1.89m10.099 7.98v-7.98h2.464v6.636l-.574-.168 4.592-6.468h3.234v7.98h-2.478v-6.776l.588.168-4.69 6.608zm15.966.224q-1.428 0-2.548-.532-1.119-.532-1.764-1.484-.644-.952-.644-2.212t.616-2.198a4.1 4.1 0 0 1 1.694-1.456q1.079-.532 2.45-.532 1.386 0 2.394.616 1.009.602 1.54 1.722.546 1.106.546 2.618h-7.21v-1.61h5.838l-.924.574q-.042-.658-.322-1.12a1.9 1.9 0 0 0-.742-.728q-.462-.252-1.092-.252-.686 0-1.19.28a1.9 1.9 0 0 0-.784.756 2.35 2.35 0 0 0-.266 1.134q0 .798.35 1.372.364.575 1.05.882.687.294 1.666.294.897 0 1.792-.252a5.8 5.8 0 0 0 1.624-.714v1.652a6.5 6.5 0 0 1-1.848.882 7.8 7.8 0 0 1-2.226.308m5.609-8.204h2.506v7.98h-2.506zm6.65 0h2.506v7.98h-2.506zm-5.222 2.968h6.202v1.89h-6.202zm11.905-2.086h2.506v7.098h-2.506zm-3.122-.882h8.75v1.918h-8.75zm18.785 4.69a3.5 3.5 0 0 1-.784 1.834q-.658.784-1.694 1.232t-2.324.448q-1.442 0-2.548-.532-1.092-.532-1.708-1.484t-.616-2.198.616-2.184q.616-.952 1.708-1.484 1.106-.532 2.548-.532 1.288 0 2.324.448 1.036.434 1.694 1.232.658.784.784 1.834h-2.506q-.168-.784-.798-1.204-.616-.42-1.498-.42-.7 0-1.232.28a1.83 1.83 0 0 0-.812.784q-.28.518-.28 1.246t.28 1.246q.28.517.812.798.532.266 1.232.266.896 0 1.512-.434.616-.449.784-1.176zm1.218 3.29v-7.98h2.506v7.98zm6.664 0-3.346-4.088 3.276-3.892h2.772l-3.332 3.78 3.556 4.2zm-5.236-5.012h4.018v1.89h-4.018zm8.867 5.012v-7.98h2.464v6.636l-.574-.168 4.592-6.468h3.234v7.98h-2.478v-6.776l.588.168-4.69 6.608zm11.416 0v-7.98h2.464v6.636l-.574-.168 4.592-6.468h3.234v7.98h-2.478v-6.776l.588.168-4.69 6.608zm4.774-8.694q-1.386 0-2.24-.672-.84-.672-1.05-1.974h1.96q.099.588.448.896.351.308.882.308.546 0 .882-.308.351-.308.462-.896h1.932q-.195 1.302-1.05 1.974-.84.672-2.226.672m-91.03 20.194v10.5h-2.548v-9.394l1.162 1.148h-8.078l1.162-1.148v9.394h-2.562v-10.5zm6.384 10.724q-1.498 0-2.632-.532t-1.764-1.484-.63-2.198q0-1.26.63-2.198.63-.952 1.764-1.47 1.134-.532 2.632-.532 1.512 0 2.632.532 1.134.518 1.764 1.47.63.938.63 2.198t-.63 2.212q-.63.937-1.764 1.47t-2.632.532m0-1.904q.784 0 1.33-.28.56-.28.854-.798.308-.518.308-1.232t-.308-1.232a1.97 1.97 0 0 0-.854-.798q-.546-.28-1.33-.28-.756 0-1.316.28a2.06 2.06 0 0 0-.868.798q-.294.518-.294 1.232 0 .728.294 1.246.308.504.868.784t1.316.28m6.331-6.3h2.506v2.45l-.098.336v2.016l.098.602v4.886h-2.506zm1.666 3.99q.224-1.274.812-2.212a4.2 4.2 0 0 1 1.484-1.47 4 4 0 0 1 2.016-.518q1.176 0 2.058.532a3.6 3.6 0 0 1 1.4 1.47q.504.938.504 2.198t-.504 2.212a3.7 3.7 0 0 1-1.4 1.47q-.882.532-2.058.532-1.119 0-2.016-.518a4.6 4.6 0 0 1-1.484-1.47q-.587-.952-.812-2.226m5.726 0q0-.658-.28-1.162a1.9 1.9 0 0 0-.742-.798 2.06 2.06 0 0 0-1.106-.294q-.63 0-1.204.294a3 3 0 0 0-.98.798q-.42.504-.658 1.162.238.672.658 1.176t.98.798q.574.294 1.204.294t1.106-.294a2.03 2.03 0 0 0 .742-.798q.28-.504.28-1.176m6.078-3.108h2.506v7.098h-2.506zm-3.122-.882h8.75v1.918h-8.75zm15.873 3.528q0-.869-.658-1.344-.644-.476-2.03-.476-.811 0-1.666.196a6.6 6.6 0 0 0-1.596.588v-1.848a7.8 7.8 0 0 1 1.848-.644 9.4 9.4 0 0 1 2.016-.21q1.401 0 2.394.42 1.009.406 1.582 1.218t.574 1.974v4.578h-2.464zm-3.178-.63q1.806-.056 2.772.266.98.308 1.078.49.099.168.098 1.876 0 .35-.28.812a3.8 3.8 0 0 1-.798.882q-.517.42-1.246.7a4.5 4.5 0 0 1-1.624.28q-.98 0-1.764-.322-.77-.322-1.218-.91-.447-.602-.448-1.428 0-.812.448-1.4a2.85 2.85 0 0 1 1.232-.91 5.2 5.2 0 0 1 1.75-.336m1.26 1.484q-1.357 0-1.876.294-.504.294-.504.756 0 .476.504.784.504.294 1.386.294 1.065 0 1.736-.56.672-.575.672-1.302-.546-.266-1.918-.266m7.311-4.382h8.386v7.98h-2.506v-7.238l1.148 1.148h-5.768l1.078-.952q.07.853.112 1.554.056.7.056 1.274 0 2.296-.7 3.346-.686 1.036-2.24 1.036a3.4 3.4 0 0 1-.826-.098 2.8 2.8 0 0 1-.77-.294v-1.82q.252.098.49.154.252.042.448.042.7 0 1.008-.63t.308-2.086q0-.672-.056-1.526a42 42 0 0 0-.168-1.89"/><rect width="44.642" height="97.569" x="451.341" y="206.167" fill="#fff" rx="6"/><path fill="#155dba" d="M484.699 205c2.093 0 3.724 0 5.03.106 1.319.108 2.395.33 3.366.825a8.53 8.53 0 0 1 3.729 3.729c.495.97.717 2.047.824 3.365.107 1.307.107 2.937.107 5.031v2.437a1 1 0 0 1-2 0v-2.437c0-2.126-.001-3.661-.1-4.868-.097-1.194-.285-1.978-.612-2.62a6.54 6.54 0 0 0-2.856-2.856c-.642-.327-1.426-.515-2.621-.612-1.206-.099-2.741-.1-4.867-.1h-21.96c-2.126 0-3.661.001-4.867.1-1.194.097-1.979.285-2.62.612a6.53 6.53 0 0 0-2.856 2.856c-.327.642-.515 1.426-.613 2.62-.098 1.207-.099 2.742-.099 4.868v74.382c0 2.126.001 3.66.099 4.867.098 1.194.286 1.978.613 2.62a6.53 6.53 0 0 0 2.856 2.856c.641.327 1.426.515 2.62.613 1.206.098 2.741.099 4.867.099h21.96c2.126 0 3.661-.001 4.867-.099 1.195-.098 1.979-.286 2.621-.613a6.54 6.54 0 0 0 2.856-2.856c.327-.641.515-1.426.612-2.62.099-1.207.1-2.741.1-4.867a1 1 0 1 1 2 0c0 2.093 0 3.723-.107 5.03-.107 1.318-.329 2.395-.824 3.365a8.53 8.53 0 0 1-3.729 3.73c-.97.495-2.047.717-3.366.825-1.306.106-2.937.105-5.03.105h-21.96c-2.093 0-3.723.001-5.03-.105-1.318-.108-2.395-.33-3.365-.825a8.54 8.54 0 0 1-3.73-3.73c-.494-.97-.716-2.047-.824-3.365-.107-1.307-.106-2.937-.106-5.03v-41.551h-.067a.12.12 0 0 1-.117-.117v-7.301c0-.065.053-.117.117-.117h.067v-1.938h-.067a.12.12 0 0 1-.117-.117v-7.301c0-.064.053-.117.117-.117h.067v-3.444h-.067a.12.12 0 0 1-.117-.118v-4.394c0-.065.053-.117.117-.117h.067v-7.75c0-2.093-.001-3.724.106-5.031.108-1.318.33-2.395.824-3.365a8.53 8.53 0 0 1 3.73-3.729c.97-.495 2.047-.717 3.365-.825 1.307-.106 2.937-.106 5.03-.106z"/><rect width="14.501" height="4.21" x="466.187" y="208.997" fill="#155dba" rx="2.105"/><path fill="#155dba" d="M471.988 227.746v10.5h-2.436v-9.618l.616.042-4.354 9.576h-2.604l-4.34-9.548.602-.056v9.604h-2.436v-10.5h3.934l4.074 9.24h-1.05l4.06-9.24zm6.384 10.724q-1.498 0-2.632-.532t-1.764-1.484-.63-2.198q0-1.26.63-2.198.63-.952 1.764-1.47 1.134-.532 2.632-.532 1.512 0 2.632.532 1.134.518 1.764 1.47.63.938.63 2.198t-.63 2.212q-.63.938-1.764 1.47t-2.632.532m0-1.904q.784 0 1.33-.28.56-.28.854-.798.308-.518.308-1.232t-.308-1.232a1.97 1.97 0 0 0-.854-.798q-.546-.28-1.33-.28-.756 0-1.316.28a2.06 2.06 0 0 0-.868.798q-.294.518-.294 1.232 0 .728.294 1.246.309.504.868.784.56.28 1.316.28m11.274 1.904q-1.652 0-2.828-.63a4.23 4.23 0 0 1-1.792-1.806q-.616-1.176-.616-2.842 0-2.478 1.33-3.906 1.344-1.442 3.85-1.638l1.694-.14q.672-.07 1.092-.126.434-.07.728-.14.307-.084.588-.182v2.086a5 5 0 0 1-.756.21 12 12 0 0 1-1.162.14q-.687.042-1.694.098-1.82.084-2.702.98-.882.882-.882 2.576v.35l-.084-.182q.266-.742.84-1.274.573-.532 1.372-.812a5.1 5.1 0 0 1 1.75-.294q1.218 0 2.128.462a3.44 3.44 0 0 1 1.414 1.288q.518.812.518 1.918 0 1.162-.602 2.03-.588.868-1.666 1.358-1.079.476-2.52.476m.056-1.904q.672 0 1.162-.238a1.8 1.8 0 0 0 .756-.672q.266-.434.266-1.022 0-.575-.266-1.008a1.8 1.8 0 0 0-.756-.672q-.49-.238-1.162-.238-.91 0-1.624.49a2.93 2.93 0 0 0-1.078 1.33q.21.924.938 1.484.741.546 1.764.546m6.048 1.68v-7.98h2.464v6.636l-.574-.168 4.592-6.468h3.234v7.98h-2.478v-6.776l.588.168-4.69 6.608zm12.775-7.98h8.386v7.98h-2.506v-7.238l1.148 1.148h-5.768l1.078-.952q.07.853.112 1.554.056.7.056 1.274 0 2.296-.7 3.346-.687 1.036-2.24 1.036-.435 0-.826-.098a2.8 2.8 0 0 1-.77-.294v-1.82q.252.098.49.154.251.042.448.042.699 0 1.008-.63.308-.63.308-2.086 0-.672-.056-1.526a45 45 0 0 0-.168-1.89m10.099 7.98v-7.98h2.492v7.336l-.784-1.148h3.01q.601 0 .924-.294.336-.294.336-.812 0-.546-.336-.84-.323-.294-.924-.294h-3.01v-1.708h3.402q1.021 0 1.792.364.77.35 1.19.994.42.643.42 1.512a2.75 2.75 0 0 1-.42 1.512q-.42.643-1.176 1.008-.756.35-1.778.35zm9.638-7.98h2.506v7.98h-2.506zm6.65 0h2.506v7.98h-2.506zm-5.222 2.968h6.202v1.89h-6.202zm14.061 5.236q-1.498 0-2.632-.532t-1.764-1.484-.63-2.198q0-1.26.63-2.198.63-.952 1.764-1.47 1.135-.532 2.632-.532 1.513 0 2.632.532 1.134.518 1.764 1.47.63.938.63 2.198t-.63 2.212q-.63.938-1.764 1.47t-2.632.532m0-1.904q.784 0 1.33-.28.56-.28.854-.798.308-.518.308-1.232t-.308-1.232a1.97 1.97 0 0 0-.854-.798q-.546-.28-1.33-.28-.755 0-1.316.28a2.06 2.06 0 0 0-.868.798q-.294.518-.294 1.232 0 .728.294 1.246.309.504.868.784.56.28 1.316.28m10.882 1.904q-1.428 0-2.548-.532t-1.764-1.484-.644-2.212.616-2.198a4.1 4.1 0 0 1 1.694-1.456q1.077-.532 2.45-.532 1.386 0 2.394.616 1.008.602 1.54 1.722.546 1.106.546 2.618h-7.21v-1.61h5.838l-.924.574q-.043-.658-.322-1.12a1.9 1.9 0 0 0-.742-.728q-.462-.252-1.092-.252-.687 0-1.19.28a1.9 1.9 0 0 0-.784.756 2.3 2.3 0 0 0-.266 1.134q0 .798.35 1.372.363.575 1.05.882.685.294 1.666.294.895 0 1.792-.252a5.8 5.8 0 0 0 1.624-.714v1.652a6.5 6.5 0 0 1-1.848.882 7.8 7.8 0 0 1-2.226.308M467.9 249.746v10.5h-2.548v-9.394l1.162 1.148h-8.078l1.162-1.148v9.394h-2.562v-10.5zm1.806 2.52h2.506v2.45l-.098.336v2.016l.098.602v4.886h-2.506zm1.666 3.99q.224-1.274.812-2.212a4.2 4.2 0 0 1 1.484-1.47 4 4 0 0 1 2.016-.518q1.176 0 2.058.532a3.6 3.6 0 0 1 1.4 1.47q.504.938.504 2.198t-.504 2.212a3.73 3.73 0 0 1-1.4 1.47q-.882.532-2.058.532-1.12 0-2.016-.518a4.56 4.56 0 0 1-1.484-1.47q-.588-.952-.812-2.226m5.726 0a2.36 2.36 0 0 0-.28-1.162 1.93 1.93 0 0 0-.742-.798 2.06 2.06 0 0 0-1.106-.294q-.63 0-1.204.294a3 3 0 0 0-.98.798q-.42.504-.658 1.162.238.672.658 1.176t.98.798q.573.294 1.204.294.63 0 1.106-.294.475-.294.742-.798.28-.504.28-1.176m3.887 3.99v-7.98h2.464v6.636l-.574-.168 4.592-6.468h3.234v7.98h-2.478v-6.776l.588.168-4.69 6.608zm12.774-7.98h8.386v7.98h-2.506v-7.238l1.148 1.148h-5.768l1.078-.952q.07.853.112 1.554.056.7.056 1.274 0 2.296-.7 3.346-.686 1.036-2.24 1.036a3.4 3.4 0 0 1-.826-.098 2.8 2.8 0 0 1-.77-.294v-1.82q.252.098.49.154.252.042.448.042.7 0 1.008-.63t.308-2.086q0-.672-.056-1.526a42 42 0 0 0-.168-1.89m14.719 8.204q-1.498 0-2.632-.532t-1.764-1.484-.63-2.198q0-1.26.63-2.198.63-.952 1.764-1.47 1.134-.532 2.632-.532 1.512 0 2.632.532 1.134.518 1.764 1.47.63.938.63 2.198t-.63 2.212q-.63.937-1.764 1.47t-2.632.532m0-1.904q.784 0 1.33-.28.56-.28.854-.798.308-.518.308-1.232t-.308-1.232a1.97 1.97 0 0 0-.854-.798q-.546-.28-1.33-.28-.756 0-1.316.28a2.06 2.06 0 0 0-.868.798q-.294.518-.294 1.232 0 .728.294 1.246.308.504.868.784t1.316.28m11.888 1.68v-7.98h2.52v7.98zm6.678 0-3.346-4.088 3.262-3.892h2.786l-3.332 3.78 3.556 4.2zm-13.762 0 3.556-4.2-3.332-3.78h2.786l3.262 3.892-3.346 4.088zm12.544-3.122h-8.4v-1.89h8.4zm8.873 3.346q-1.428 0-2.548-.532t-1.764-1.484-.644-2.212.616-2.198a4.1 4.1 0 0 1 1.694-1.456q1.078-.532 2.45-.532 1.386 0 2.394.616 1.008.602 1.54 1.722.546 1.106.546 2.618h-7.21v-1.61h5.838l-.924.574q-.042-.658-.322-1.12a1.9 1.9 0 0 0-.742-.728q-.462-.252-1.092-.252-.686 0-1.19.28a1.9 1.9 0 0 0-.784.756 2.35 2.35 0 0 0-.266 1.134q0 .798.35 1.372.365.575 1.05.882.686.294 1.666.294.896 0 1.792-.252a5.8 5.8 0 0 0 1.624-.714v1.652a6.5 6.5 0 0 1-1.848.882 7.8 7.8 0 0 1-2.226.308m5.608-8.204h2.506v7.98h-2.506zm6.65 0h2.506v7.98h-2.506zm-5.222 2.968h6.202v1.89h-6.202zm9.441 5.012v-7.98h2.464v6.636l-.574-.168 4.592-6.468h3.234v7.98h-2.478v-6.776l.588.168-4.69 6.608zm15.966.224q-1.428 0-2.548-.532-1.119-.532-1.764-1.484-.644-.952-.644-2.212t.616-2.198a4.1 4.1 0 0 1 1.694-1.456q1.079-.532 2.45-.532 1.386 0 2.394.616 1.009.602 1.54 1.722.546 1.106.546 2.618h-7.21v-1.61h5.838l-.924.574q-.042-.658-.322-1.12a1.9 1.9 0 0 0-.742-.728q-.462-.252-1.092-.252-.686 0-1.19.28a1.9 1.9 0 0 0-.784.756 2.35 2.35 0 0 0-.266 1.134q0 .798.35 1.372.365.575 1.05.882.687.294 1.666.294.897 0 1.792-.252a5.8 5.8 0 0 0 1.624-.714v1.652a6.5 6.5 0 0 1-1.848.882 7.8 7.8 0 0 1-2.226.308m-98.626 17.464a4.7 4.7 0 0 1-.938 2.366q-.784 1.022-2.072 1.596-1.274.574-2.912.574-1.806 0-3.164-.686t-2.114-1.918-.756-2.87.756-2.87 2.114-1.918 3.164-.686q1.638 0 2.912.574 1.288.575 2.072 1.596.784 1.008.938 2.366h-2.576a2.6 2.6 0 0 0-.588-1.232 2.8 2.8 0 0 0-1.134-.798q-.7-.28-1.638-.28-1.064 0-1.834.392a2.8 2.8 0 0 0-1.19 1.134q-.42.728-.42 1.722 0 .995.42 1.722.42.728 1.19 1.134.77.392 1.834.392.938 0 1.638-.266a2.8 2.8 0 0 0 1.134-.798q.448-.518.588-1.246zm5.933 4.536q-1.498 0-2.632-.532t-1.764-1.484-.63-2.198q0-1.26.63-2.198.63-.952 1.764-1.47 1.134-.532 2.632-.532 1.512 0 2.632.532 1.134.518 1.764 1.47.63.938.63 2.198t-.63 2.212q-.63.937-1.764 1.47-1.135.532-2.632.532m0-1.904q.784 0 1.33-.28.56-.28.854-.798.308-.518.308-1.232t-.308-1.232a1.97 1.97 0 0 0-.854-.798q-.546-.28-1.33-.28-.756 0-1.316.28a2.05 2.05 0 0 0-.868.798q-.294.518-.294 1.232 0 .728.294 1.246.307.504.868.784t1.316.28m8.508-5.418h2.506v7.098h-2.506zm-3.122-.882h8.75v1.918h-8.75zm9.804 0h2.506v2.45l-.098.336v2.016l.098.602v4.886h-2.506zm1.666 3.99q.224-1.274.812-2.212a4.2 4.2 0 0 1 1.484-1.47 4 4 0 0 1 2.016-.518q1.176 0 2.058.532a3.6 3.6 0 0 1 1.4 1.47q.504.938.504 2.198t-.504 2.212a3.73 3.73 0 0 1-1.4 1.47q-.882.532-2.058.532-1.12 0-2.016-.518a4.56 4.56 0 0 1-1.484-1.47q-.588-.952-.812-2.226m5.726 0q0-.658-.28-1.162a1.9 1.9 0 0 0-.742-.798 2.06 2.06 0 0 0-1.106-.294q-.63 0-1.204.294a3 3 0 0 0-.98.798q-.42.504-.658 1.162.238.672.658 1.176t.98.798q.574.294 1.204.294t1.106-.294.742-.798q.28-.504.28-1.176m5.844 6.524q-.827 0-1.47-.21a4.4 4.4 0 0 1-1.246-.616v-1.778q.616.392 1.162.56.546.182 1.204.182.587 0 1.022-.252.447-.252.742-.924l3.234-7.476h2.674l-3.934 8.274q-.392.826-.938 1.316-.532.49-1.162.7-.616.224-1.288.224m.364-3.122-3.472-7.392h2.772l3.136 7.392zm18.09-1.302v3.836h-2.17v-1.946h-7.294v1.946h-2.17v-3.836h2.282l.518.042h5.796l.462-.042zm-9.94-6.09h8.47v7.448h-2.506v-6.748l1.162 1.162h-5.88l.98-.91q.153.601.182 1.134.028.517.028.966 0 1.974-.616 3.08-.616 1.092-1.75 1.092l-1.022-.854q1.106-.798 1.106-3.808 0-.602-.042-1.232a38 38 0 0 0-.112-1.33m11.158 0h2.506v7.98h-2.506zm6.65 0h2.506v7.98h-2.506zm-5.222 2.968h6.202v1.89h-6.202zm9.442 5.012v-7.98h2.464v6.636l-.574-.168 4.592-6.468h3.234v7.98h-2.478v-6.776l.588.168-4.69 6.608zm11.416 0v-7.98h2.506v7.98zm6.664 0-3.346-4.088 3.276-3.892h2.772l-3.332 3.78 3.556 4.2zm-5.236-5.012h4.018v1.89h-4.018zm13.022 5.236q-1.498 0-2.632-.532t-1.764-1.484-.63-2.198q0-1.26.63-2.198.63-.952 1.764-1.47 1.134-.532 2.632-.532 1.512 0 2.632.532 1.134.518 1.764 1.47.63.938.63 2.198t-.63 2.212q-.63.937-1.764 1.47-1.135.532-2.632.532m0-1.904q.784 0 1.33-.28.56-.28.854-.798.308-.518.308-1.232t-.308-1.232a1.97 1.97 0 0 0-.854-.798q-.547-.28-1.33-.28-.756 0-1.316.28a2.05 2.05 0 0 0-.868.798q-.294.518-.294 1.232 0 .728.294 1.246.307.504.868.784t1.316.28m6.135 1.68v-7.98h6.258q1.148 0 1.82.546.686.532.686 1.456 0 .868-.686 1.414-.672.532-1.89.644l.168-.406q1.413.042 2.156.588.741.532.742 1.498 0 1.037-.756 1.638-.756.602-2.058.602zm2.422-.546-.966-1.05h4.186q.56 0 .826-.224.266-.238.266-.658a.77.77 0 0 0-.294-.63q-.294-.238-.938-.238h-3.976v-1.386h3.668q.531 0 .784-.224a.77.77 0 0 0 .252-.602.77.77 0 0 0-.238-.588q-.225-.224-.728-.224h-3.794l.952-1.05zM305.407 163a1 1 0 1 0-2 0zm-1.707 25.752a1 1 0 0 0 1.414 0l6.364-6.364a.999.999 0 1 0-1.414-1.414l-5.657 5.657-5.657-5.657a.999.999 0 1 0-1.414 1.414zm.707-25.752h-1v25.045h2V163z"/><path fill="#155dba" d="M303.549 163.309a1 1 0 0 0 2 0zm169.739 26.121c.391.39 1.024.39 1.415 0l6.364-6.364a1 1 0 0 0-1.415-1.414l-5.657 5.657-5.656-5.657a1 1 0 1 0-1.415 1.414zM304.858 163v1h156.481v-2H304.858zM474 175.661h-1v12.659h2v-12.659zm-.005 12.664h-1v.398h2v-.398zm.003-.002v-1c-.554 0-1.003.448-1.003 1.002h2a.997.997 0 0 1-.997.998zm.002-.003h-1c0-.551.447-.997.998-.997v2c.553 0 1.002-.449 1.002-1.003zM461.339 163v1c6.44 0 11.661 5.221 11.661 11.661h2c0-7.545-6.116-13.661-13.661-13.661zm-156.79.309h1c0 .381-.31.691-.691.691v-2c-.723 0-1.309.586-1.309 1.309z"/><path fill="#155dba" d="M304.465 162a1 1 0 0 1 0 2zm-180.268 27.19a1 1 0 0 1-1.414 0l-6.364-6.364a.999.999 0 1 1 1.414-1.414l5.657 5.657 5.657-5.657a1 1 0 0 1 1.414 1.414zM304.465 163v1H147.49v-2h156.975zM123.49 187h1v1.483h-2V187zm24-24v1c-12.703 0-23 10.297-23 23h-2c0-13.807 11.193-25 25-25z"/><defs><linearGradient id="b" x1="224.562" x2="243.684" y1="130.904" y2="101.624" gradientUnits="userSpaceOnUse"><stop offset=".255" stop-color="#f7481c"/><stop offset=".701" stop-color="#ee7a29"/></linearGradient><linearGradient id="c" x1="224.562" x2="243.684" y1="130.903" y2="101.624" gradientUnits="userSpaceOnUse"><stop offset=".255" stop-color="#f7481c"/><stop offset=".701" stop-color="#ee7a29"/></linearGradient><linearGradient id="d" x1="224.562" x2="243.684" y1="130.903" y2="101.624" gradientUnits="userSpaceOnUse"><stop offset=".255" stop-color="#f7481c"/><stop offset=".701" stop-color="#ee7a29"/></linearGradient><linearGradient id="e" x1="224.562" x2="243.684" y1="130.903" y2="101.624" gradientUnits="userSpaceOnUse"><stop offset=".255" stop-color="#f7481c"/><stop offset=".701" stop-color="#ee7a29"/></linearGradient><linearGradient id="f" x1="224.562" x2="243.684" y1="130.903" y2="101.624" gradientUnits="userSpaceOnUse"><stop offset=".255" stop-color="#f7481c"/><stop offset=".701" stop-color="#ee7a29"/></linearGradient><linearGradient id="g" x1="224.562" x2="243.684" y1="130.903" y2="101.624" gradientUnits="userSpaceOnUse"><stop offset=".255" stop-color="#f7481c"/><stop offset=".701" stop-color="#ee7a29"/></linearGradient><linearGradient id="h" x1="241.533" x2="238.263" y1="120.871" y2="133.075" gradientUnits="userSpaceOnUse"><stop stop-color="#6d1575"/><stop offset="1" stop-color="#54105a"/></linearGradient><filter id="a" width="78.03" height="78.03" x="198.703" y="81.092" color-interpolation-filters="sRGB" filterUnits="userSpaceOnUse"><feFlood flood-opacity="0" result="BackgroundImageFix"/><feColorMatrix in="SourceAlpha" result="hardAlpha" values="0 0 0 0 0 0 0 0 0 0 0 0 0 0 0 0 0 0 127 0"/><feOffset dy="4.819"/><feGaussianBlur stdDeviation="5.422"/><feColorMatrix values="0 0 0 0 0.298039 0 0 0 0 0.298039 0 0 0 0 0.301961 0 0 0 0.04 0"/><feBlend in2="BackgroundImageFix" result="effect1_dropShadow_462_3581"/><feColorMatrix in="SourceAlpha" result="hardAlpha" values="0 0 0 0 0 0 0 0 0 0 0 0 0 0 0 0 0 0 127 0"/><feOffset dy="1.205"/><feGaussianBlur stdDeviation="1.205"/><feColorMatrix values="0 0 0 0 0.35 0 0 0 0 0.35 0 0 0 0 0.35 0 0 0 0.04 0"/><feBlend in2="effect1_dropShadow_462_3581" result="effect2_dropShadow_462_3581"/><feBlend in="SourceGraphic" in2="effect2_dropShadow_462_3581" result="shape"/></filter><filter id="i" width="35.113" height="44.528" x="193.797" y="95.476" color-interpolation-filters="sRGB" filterUnits="userSpaceOnUse"><feFlood flood-opacity="0" result="BackgroundImageFix"/><feColorMatrix in="SourceAlpha" result="hardAlpha" values="0 0 0 0 0 0 0 0 0 0 0 0 0 0 0 0 0 0 127 0"/><feOffset dy="4.819"/><feGaussianBlur stdDeviation="5.422"/><feColorMatrix values="0 0 0 0 0.298039 0 0 0 0 0.298039 0 0 0 0 0.301961 0 0 0 0.04 0"/><feBlend in2="BackgroundImageFix" result="effect1_dropShadow_462_3581"/><feColorMatrix in="SourceAlpha" result="hardAlpha" values="0 0 0 0 0 0 0 0 0 0 0 0 0 0 0 0 0 0 127 0"/><feOffset dy="1.205"/><feGaussianBlur stdDeviation="1.205"/><feColorMatrix values="0 0 0 0 0.35 0 0 0 0 0.35 0 0 0 0 0.35 0 0 0 0.04 0"/><feBlend in2="effect1_dropShadow_462_3581" result="effect2_dropShadow_462_3581"/><feBlend in="SourceGraphic" in2="effect2_dropShadow_462_3581" result="shape"/></filter></defs></svg>